<svg width="403" height="81" viewBox="0 0 403 81" fill="none" xmlns="http://www.w3.org/2000/svg">
<path d="M402.63 55.9253C402.472 56.0882 402.263 56.2511 402 56.2511C400.007 56.2511 398.066 56.3054 396.072 56.5226C393.659 56.7398 391.246 57.12 388.885 57.6087C383.062 58.8034 377.449 60.8126 372.045 63.4192C371.258 63.7993 370.524 64.1795 369.737 64.5596C369.632 64.6139 369.527 64.6139 369.527 64.7225C369.527 64.8311 369.58 64.8854 369.685 64.9397C372.517 67.0033 375.141 69.3383 377.816 71.6191C378.813 72.4879 379.862 73.3025 380.859 74.1714C381.121 74.4429 381.383 74.4972 381.751 74.3343C383.639 73.6826 385.633 74.823 385.947 76.8866C386.157 78.1898 385.79 79.2759 384.793 80.0905C383.849 80.905 382.747 81.0136 381.541 80.5792C381.226 80.4163 380.911 80.2534 380.649 79.9819C378.026 77.8097 375.403 75.6919 372.832 73.5197C370.314 71.4019 367.691 69.5555 364.911 67.8178C364.596 67.6006 364.386 67.7092 364.124 67.8721C360.924 69.9357 357.881 72.1621 354.996 74.6058C352.845 76.4521 350.641 78.2441 348.438 80.0362C347.651 80.6878 346.759 80.905 345.763 80.7964C345.028 80.5792 344.346 80.1991 343.822 79.5474C342.93 78.4071 342.877 76.8323 343.664 75.5833C344.451 74.3886 345.92 73.8455 347.231 74.28C347.704 74.4429 348.018 74.3343 348.386 74.0628C350.432 72.2707 352.53 70.533 354.576 68.7953C356.045 67.5463 357.514 66.3516 359.088 65.2112C359.245 65.1026 359.455 64.994 359.56 64.8311C359.455 64.6682 359.297 64.6139 359.14 64.5596C353.264 61.4643 347.074 59.1835 340.569 57.7716C338.103 57.2286 335.585 56.8484 333.067 56.5769C331.074 56.3597 329.08 56.3054 327.034 56.3054C326.719 56.3054 326.51 56.1425 326.457 55.871C326.405 55.5452 326.562 55.3822 326.824 55.2736C327.926 54.8935 329.028 54.5677 330.182 54.2962C333.487 53.5359 336.792 53.2644 340.202 53.4273C345.343 53.6988 350.327 54.8392 355.153 56.7941C358.248 58.0431 361.186 59.5093 364.019 61.2471C364.386 61.4643 364.596 61.41 364.911 61.2471C369.422 58.4776 374.196 56.3054 379.285 54.9478C383.534 53.8074 387.836 53.2644 392.243 53.4273C395.495 53.5902 398.695 54.1333 401.791 55.165C402.053 55.2736 402.368 55.3279 402.525 55.5995C402.63 55.7081 402.63 55.8167 402.63 55.9253Z" fill="#006F5C"/>
<path d="M352.635 0.698242C353.369 0.698242 354.156 0.698242 354.89 0.698242C356.517 0.861154 358.091 1.40419 359.612 2.00153C361.133 2.59888 362.602 3.14192 364.071 3.73926C364.438 3.90217 364.753 3.84787 365.12 3.73926C366.851 3.03331 368.53 2.38166 370.261 1.73002C371.573 1.24128 372.937 0.861154 374.301 0.698242C375.035 0.698242 375.822 0.698242 376.557 0.698242C382.904 1.40419 388.255 5.04255 390.616 9.27825C386.577 8.24648 382.537 7.92065 378.393 8.40938C378.55 8.6809 378.76 8.78952 378.97 8.89812C381.855 11.016 384.111 13.6769 385.685 16.9894C386.734 19.1615 387.364 21.4423 387.468 23.886C387.468 24.1575 387.573 24.4833 387.416 24.8634C385.527 22.7456 383.429 20.8993 381.121 19.3788C378.812 17.8583 376.399 16.6093 373.724 15.6318C374.091 16.2834 374.353 16.8265 374.668 17.3695C376.504 20.8993 377.396 24.6462 377.291 28.6647C377.186 31.5971 376.557 34.3666 375.14 36.9189C375.035 37.0818 374.983 37.2447 374.878 37.4076C374.878 37.4619 374.825 37.4619 374.721 37.5162C373.829 30.7826 371.206 24.9721 366.537 20.139C366.327 20.1933 366.432 20.3562 366.432 20.4648C366.484 23.0171 366.589 25.5694 366.642 28.1217C366.694 29.2621 366.694 30.4024 366.694 31.5428C366.747 34.0951 366.851 36.5931 366.904 39.1454C366.956 41.2089 366.956 43.2724 367.061 45.336C367.114 47.2366 367.061 49.1373 367.481 50.9836C367.743 52.2869 368.163 53.4816 368.635 54.6763C368.845 55.1107 368.845 55.1107 368.425 55.3822C367.271 56.0881 366.065 56.7941 364.91 57.5C364.648 57.663 364.438 57.663 364.176 57.5C363.022 56.7941 361.815 56.0881 360.661 55.3822C360.294 55.165 360.241 55.1107 360.451 54.7305C361.343 52.7213 361.868 50.6578 362.078 48.4313C362.13 47.834 362.13 47.2366 362.13 46.6393C362.13 45.4446 362.13 44.2499 362.13 43.1095C362.13 35.7242 362.13 28.3932 362.182 21.0079C362.182 20.7907 362.182 20.5191 362.182 20.2476C359.927 21.9853 354.943 28.719 353.946 37.4076C353.736 37.4076 353.736 37.2447 353.684 37.1361C352.425 34.9097 351.69 32.5203 351.48 29.968C351.061 25.2436 352.162 20.845 354.366 16.7179C354.523 16.392 354.733 16.0662 354.89 15.7404C352.844 16.1205 346.129 19.3245 341.303 24.8634C341.251 24.1575 341.303 23.5602 341.356 22.9628C341.828 18.6728 343.664 15.0345 346.444 11.8848C347.546 10.6358 348.805 9.54977 350.117 8.6266C350.221 8.5723 350.274 8.46369 350.484 8.35508C348.385 8.13787 346.444 8.08357 344.451 8.24648C342.457 8.40939 340.569 8.73521 338.575 9.27825C338.628 8.95243 338.837 8.78951 338.942 8.5723C340.254 6.61736 341.88 5.04255 343.821 3.79356C346.497 2.05584 349.435 1.02407 352.635 0.698242Z" fill="#006F5C"/>
<path d="M7.235 27.0895C7.235 27.0895 12.7434 32.5199 11.7991 34.3662C11.5892 34.7464 10.4876 34.7464 9.28096 34.7464C9.28096 34.7464 5.13657 34.7464 4.2972 34.7464C3.40537 34.7464 1.41187 34.4749 1.41187 32.0855C1.67417 28.7729 7.235 27.0895 7.235 27.0895ZM5.92348 24.0485C5.92348 24.7545 5.34641 25.4061 4.61197 25.4061C3.87752 25.4061 3.35291 24.8088 3.35291 24.0485C3.35291 23.2883 3.92998 22.6909 4.61197 22.6909C5.34641 22.6909 5.92348 23.2883 5.92348 24.0485ZM6.39562 31.5424C6.39562 30.8908 5.92348 30.4021 5.29395 30.4021C4.66442 30.4021 4.19228 30.8908 4.19228 31.5424C4.19228 32.1941 4.66442 32.6828 5.29395 32.6828C5.92348 32.6828 6.39562 32.1941 6.39562 31.5424ZM9.2285 24.0485C9.2285 24.7545 8.65143 25.4061 7.91699 25.4061C7.18254 25.4061 6.60547 24.8088 6.60547 24.0485C6.60547 23.2883 7.18254 22.6909 7.91699 22.6909C8.65143 22.6909 9.2285 23.2883 9.2285 24.0485Z" fill="#6D7479"/>
<path d="M17.1499 28.9909L19.7204 27.9048V34.9643C19.668 37.0821 18.5138 38.6026 16.7302 38.6026H12.7432L14.0547 36.1047H16.4679C17.4122 36.1047 17.4122 34.91 17.4122 34.91C17.4122 34.5298 17.2023 28.9909 17.1499 28.9909Z" fill="#6D7479"/>
<path d="M27.0658 27.3618C27.0658 27.3618 32.102 32.3035 32.102 34.4213C32.102 34.4756 32.102 34.5842 32.102 34.6385C31.6299 36.9736 30.2134 38.5484 28.2199 38.5484H20.823L22.1345 36.0504H28.797C29.4265 36.0504 29.6888 35.2902 29.6888 34.91C29.6888 34.8557 29.6888 34.7471 29.6364 34.7471C29.6364 34.7471 25.492 34.7471 24.6526 34.7471C23.7608 34.7471 21.7673 34.4756 21.7673 32.0862C21.9771 28.7737 27.0658 27.3618 27.0658 27.3618ZM26.6986 31.5432C26.6986 30.8916 26.2264 30.4028 25.5969 30.4028C24.9674 30.4028 24.4952 30.8916 24.4952 31.5432C24.4952 32.1949 24.9674 32.6836 25.5969 32.6836C26.2264 32.6836 26.6986 32.1949 26.6986 31.5432Z" fill="#6D7479"/>
<path d="M39.289 32.2485V34.7465H32.2068V32.2485H35.7217L35.5643 29.3161L38.0824 27.8499V32.3028H39.289V32.2485ZM35.984 25.2433C35.984 25.9493 35.4069 26.6009 34.6724 26.6009C33.938 26.6009 33.4134 26.0036 33.4134 25.2433C33.4134 24.4831 33.9905 23.8857 34.6724 23.8857C35.4069 23.94 35.984 24.5374 35.984 25.2433Z" fill="#6D7479"/>
<path d="M51.2491 34.7471H48.1539C47.2621 35.1815 45.8981 35.2901 44.5866 35.2901C43.1702 35.2901 41.7537 35.0729 40.9144 34.7471H38.4487V32.2491H40.2849C40.5472 31.0544 41.439 27.6876 44.744 27.6333C46.7375 27.6333 48.5736 29.9141 49.0982 32.1948H51.2491V34.7471ZM45.2686 31.5975C45.2686 30.9458 44.7965 30.4571 44.1669 30.4571C43.5374 30.4571 43.0653 30.9458 43.0653 31.5975C43.0653 32.2491 43.5374 32.7922 44.1669 32.7922C44.7965 32.7922 45.2686 32.2491 45.2686 31.5975Z" fill="#6D7479"/>
<path d="M54.4502 19.8677V34.7469H48.8369V32.2489H52.0895L51.9846 21.0081L54.4502 19.8677Z" fill="#6D7479"/>
<path d="M56.7057 31.2172L56.4958 20.9538L59.014 19.8677V31.2172C59.014 32.6834 59.7484 33.335 60.1681 33.6608C59.9582 33.8781 59.2763 34.8555 58.8566 35.29C56.6532 34.9098 56.7057 32.1403 56.7057 31.2172Z" fill="#6D7479"/>
<path d="M74.8567 32.2488V34.7468H66.2532C65.3089 34.4209 64.5745 33.2262 64.5745 31.7057C64.5745 29.2621 66.2007 27.8502 68.8238 27.8502C69.4008 27.8502 70.1353 27.9588 70.9222 28.1217L70.8697 26.7098L73.3354 25.2436V32.3031H74.8567V32.2488ZM66.3581 23.3429C66.3581 22.5827 66.9352 21.9854 67.6696 21.9854C68.3516 21.9854 68.9812 22.5827 68.9812 23.3429C68.9812 24.1032 68.4041 24.6462 67.6696 24.6462C66.9352 24.6462 66.3581 24.0489 66.3581 23.3429ZM71.0271 31.2713C71.0271 30.6197 70.5025 30.0766 69.873 30.0766C69.2435 30.0766 68.7188 30.6197 68.7188 31.2713C68.7188 31.923 69.2435 32.466 69.873 32.466C70.5025 32.466 71.0271 31.9773 71.0271 31.2713ZM69.6631 23.3429C69.6631 22.5827 70.2402 21.9854 70.9747 21.9854C71.7091 21.9854 72.2862 22.5827 72.2862 23.3429C72.2862 24.1032 71.7091 24.6462 70.9747 24.6462C70.2402 24.6462 69.6631 24.0489 69.6631 23.3429Z" fill="#6D7479"/>
<path d="M81.152 32.2485V34.7465H74.0698V32.2485H77.5847L77.4273 29.3161L79.9454 27.8499V32.3028H81.152V32.2485ZM77.847 25.2433C77.847 25.9493 77.2699 26.6009 76.5355 26.6009C75.801 26.6009 75.2764 26.0036 75.2764 25.2433C75.2764 24.4831 75.8535 23.8857 76.5355 23.8857C77.3224 23.94 77.847 24.5374 77.847 25.2433Z" fill="#6D7479"/>
<path d="M88.1286 34.7467H80.1545V32.2487H85.7678L85.6105 29.3163L88.1286 27.8501V34.7467ZM83.9842 37.6248C83.9842 38.385 83.4071 38.9824 82.6727 38.9824C81.9382 38.9824 81.4136 38.385 81.4136 37.6248C81.4136 36.9188 81.9907 36.2672 82.6727 36.2672C83.4071 36.3215 83.9842 36.9188 83.9842 37.6248ZM87.2892 37.6248C87.2892 38.385 86.7121 38.9824 85.9777 38.9824C85.2432 38.9824 84.6662 38.385 84.6662 37.6248C84.6662 36.9188 85.2432 36.2672 85.9777 36.2672C86.7121 36.3215 87.2892 36.9188 87.2892 37.6248Z" fill="#6D7479"/>
<path d="M105.074 32.249H106.7V34.7469C91.6967 34.7469 90.5426 34.7469 89.4934 34.7469L90.8574 32.249H102.451C102.346 31.9774 102.031 30.7284 100.93 30.7284C100.143 30.7284 98.4642 30.7284 98.3592 30.7284H91.6443L92.9558 28.2305H101.14C102.294 28.2305 103.5 28.7735 104.235 30.4569C104.55 31.1086 104.812 31.7059 105.074 32.249Z" fill="#6D7479"/>
<path d="M118.189 34.7471H115.093C114.202 35.1815 112.838 35.2901 111.526 35.2901C110.11 35.2901 108.693 35.0729 107.854 34.7471H105.388V32.2491H107.224C107.487 31.0544 108.378 27.6876 111.683 27.6333C113.677 27.6333 115.513 29.9141 116.038 32.1948H118.189V34.7471ZM112.208 31.5975C112.208 30.9458 111.736 30.4571 111.106 30.4571C110.477 30.4571 110.005 30.9458 110.005 31.5975C110.005 32.2491 110.477 32.7922 111.106 32.7922C111.736 32.7922 112.208 32.2491 112.208 31.5975Z" fill="#6D7479"/>
<path d="M121.442 19.8677V34.7469H115.829V32.2489H119.081L118.976 21.0081L121.442 19.8677Z" fill="#6D7479"/>
<path d="M123.645 31.2172L123.435 20.9538L125.953 19.8677V31.2172C125.953 32.6834 126.688 33.335 127.108 33.6608C126.898 33.8781 126.216 34.8555 125.796 35.29C123.593 34.9098 123.645 32.1403 123.645 31.2172Z" fill="#6D7479"/>
<path d="M141.796 32.2488V34.7468H133.192C132.248 34.4209 131.514 33.2262 131.514 31.7057C131.514 29.2621 133.14 27.8502 135.763 27.8502C136.34 27.8502 137.074 27.9588 137.861 28.1217L137.809 26.7098L140.275 25.2436V32.3031H141.796V32.2488ZM133.297 23.3429C133.297 22.5827 133.874 21.9854 134.609 21.9854C135.343 21.9854 135.92 22.5827 135.92 23.3429C135.92 24.1032 135.343 24.6462 134.609 24.6462C133.874 24.6462 133.297 24.0489 133.297 23.3429ZM138.019 31.2713C138.019 30.6197 137.494 30.0766 136.865 30.0766C136.235 30.0766 135.711 30.6197 135.711 31.2713C135.711 31.923 136.235 32.466 136.865 32.466C137.494 32.466 138.019 31.9773 138.019 31.2713ZM136.602 23.3429C136.602 22.5827 137.179 21.9854 137.914 21.9854C138.648 21.9854 139.225 22.5827 139.225 23.3429C139.225 24.1032 138.648 24.6462 137.914 24.6462C137.179 24.6462 136.602 24.0489 136.602 23.3429Z" fill="#6D7479"/>
<path d="M154.964 32.2489V34.7468H139.383V32.2489H149.508C149.875 32.2489 150.19 31.7601 150.19 31.4343C150.19 31.2171 150.033 30.9999 149.718 30.9999H145.049C144.367 30.9999 142.478 30.5112 142.478 28.5562C142.478 26.7642 143.895 25.0265 145.416 24.2662C146.361 23.7775 148.039 23.6689 148.039 23.6689C148.039 23.6689 152.603 27.3615 152.603 31.38C152.603 31.6515 152.551 31.9774 152.446 32.1946H154.964V32.2489ZM145.941 21.008C145.941 21.7139 145.364 22.3113 144.629 22.3113C143.895 22.3113 143.37 21.7139 143.37 21.008C143.37 20.2477 143.947 19.6504 144.629 19.6504C145.364 19.6504 145.941 20.2477 145.941 21.008ZM147.2 27.5787C147.2 26.9271 146.728 26.3841 146.046 26.3841C145.416 26.3841 144.944 26.9271 144.944 27.5787C144.944 28.2304 145.416 28.7191 146.046 28.7191C146.728 28.7734 147.2 28.2304 147.2 27.5787ZM149.246 21.008C149.246 21.7139 148.669 22.3113 147.934 22.3113C147.2 22.3113 146.623 21.7139 146.623 21.008C146.623 20.2477 147.2 19.6504 147.934 19.6504C148.669 19.6504 149.246 20.2477 149.246 21.008Z" fill="#6D7479"/>
<path d="M175.791 34.7469H152.918V32.2489H155.593V21.0081L158.112 19.8677V28.1762H170.86L173.587 32.2489H175.791V34.7469ZM170.545 32.2489L169.443 30.6741H158.059V32.2489H170.545Z" fill="#6D7479"/>
<path d="M181.3 32.2485V34.7465H174.218V32.2485H177.785L177.628 29.3161L180.146 27.8499V32.3028H181.3V32.2485ZM177.995 25.2433C177.995 25.9493 177.418 26.6009 176.683 26.6009C176.001 26.6009 175.424 26.0036 175.424 25.2433C175.424 24.4831 176.001 23.8857 176.683 23.8857C177.418 23.94 177.995 24.5374 177.995 25.2433Z" fill="#6D7479"/>
<path d="M191.319 33.3352C191.319 34.7471 189.063 35.2901 186.598 35.2901C185.181 35.2901 183.765 35.0729 182.978 34.7471H180.302V32.2491H182.348C182.611 31.0544 183.502 27.6876 186.86 27.6333C188.539 27.6333 190.165 29.3167 190.952 31.2717C191.162 31.869 191.319 32.7379 191.319 33.3352ZM187.384 31.5975C187.384 30.9458 186.912 30.4571 186.283 30.4571C185.653 30.4571 185.129 30.9458 185.129 31.5975C185.129 32.2491 185.653 32.7922 186.283 32.7922C186.912 32.7922 187.384 32.2491 187.384 31.5975Z" fill="#6D7479"/>
<path d="M205.169 32.2487V34.7467H202.861V34.9096C202.808 37.0274 201.654 38.5479 199.871 38.5479H195.884L197.195 36.05H199.608C200.553 36.05 200.553 34.8553 200.553 34.8553C200.553 34.4209 200.343 28.9905 200.29 28.9905L202.808 27.8501V32.2487H205.169Z" fill="#6D7479"/>
<path d="M210.888 34.7467H202.914V32.2487H208.527L208.369 29.3163L210.888 27.8501V34.7467ZM206.743 37.6248C206.743 38.385 206.166 38.9824 205.432 38.9824C204.75 38.9824 204.173 38.385 204.173 37.6248C204.173 36.9188 204.75 36.2672 205.432 36.2672C206.219 36.3215 206.743 36.9188 206.743 37.6248ZM210.101 37.6248C210.101 38.385 209.524 38.9824 208.789 38.9824C208.055 38.9824 207.478 38.385 207.478 37.6248C207.478 36.9188 208.055 36.2672 208.789 36.2672C209.524 36.3215 210.101 36.9188 210.101 37.6248Z" fill="#6D7479"/>
<path d="M218.546 27.3618C218.546 27.3618 223.582 32.3035 223.582 34.4213C223.582 34.4756 223.582 34.5842 223.582 34.6385C223.11 36.9736 221.694 38.5484 219.7 38.5484H212.303L213.615 36.0504H220.277C220.907 36.0504 221.169 35.2902 221.169 34.91C221.169 34.8557 221.169 34.7471 221.117 34.7471C221.117 34.7471 216.972 34.7471 216.133 34.7471C215.241 34.7471 213.248 34.4756 213.248 32.0862C213.51 28.7737 218.546 27.3618 218.546 27.3618ZM218.231 31.5432C218.231 30.8916 217.759 30.4028 217.13 30.4028C216.5 30.4028 216.028 30.8916 216.028 31.5432C216.028 32.1949 216.5 32.6836 217.13 32.6836C217.759 32.6836 218.231 32.1949 218.231 31.5432Z" fill="#6D7479"/>
<path d="M246.403 34.7469H223.53V32.2489H226.206V21.0081L228.724 19.8677V28.1762H241.472L244.2 32.2489H246.403V34.7469ZM241.157 32.2489L240.055 30.6741H228.671V32.2489H241.157Z" fill="#6D7479"/>
<path d="M252.331 34.7465H244.357V32.2485H249.971L249.813 29.3161L252.331 27.8499V34.7465ZM249.026 25.2433C249.026 25.9493 248.449 26.6009 247.715 26.6009C246.98 26.6009 246.456 26.0036 246.456 25.2433C246.456 24.4831 247.033 23.8857 247.715 23.8857C248.449 23.94 249.026 24.5374 249.026 25.2433ZM252.331 25.2433C252.331 25.9493 251.754 26.6009 251.02 26.6009C250.285 26.6009 249.708 26.0036 249.708 25.2433C249.708 24.4831 250.285 23.8857 251.02 23.8857C251.754 23.94 252.331 24.5374 252.331 25.2433Z" fill="#6D7479"/>
<path d="M267.806 32.2488V34.7468H259.203C258.258 34.4209 257.524 33.2262 257.524 31.7057C257.524 29.2621 259.15 27.8502 261.773 27.8502C262.35 27.8502 263.085 27.9588 263.872 28.1217L263.819 26.7098L266.285 25.2436V32.3031H267.806V32.2488ZM259.255 23.3429C259.255 22.5827 259.832 21.9854 260.567 21.9854C261.301 21.9854 261.878 22.5827 261.878 23.3429C261.878 24.1032 261.301 24.6462 260.567 24.6462C259.832 24.6462 259.255 24.0489 259.255 23.3429ZM263.977 31.2713C263.977 30.6197 263.452 30.0766 262.822 30.0766C262.193 30.0766 261.668 30.6197 261.668 31.2713C261.668 31.923 262.193 32.466 262.822 32.466C263.452 32.466 263.977 31.9773 263.977 31.2713ZM262.56 23.3429C262.56 22.5827 263.137 21.9854 263.872 21.9854C264.606 21.9854 265.183 22.5827 265.183 23.3429C265.183 24.1032 264.606 24.6462 263.872 24.6462C263.137 24.6462 262.56 24.0489 262.56 23.3429Z" fill="#6D7479"/>
<path d="M273.577 32.2491H275.466V34.7471H266.758V32.2491H271.322L271.164 30.077L273.577 28.6108V32.2491ZM273.315 27.8505H268.541V26.6015H269.695C269.643 26.4386 269.538 26.0585 269.538 25.8413C269.538 24.538 270.692 23.832 271.374 23.832C271.951 23.832 272.476 23.9949 272.633 24.1036L272.213 24.6466C272.161 24.6466 272.161 24.6466 272.109 24.6466C271.584 24.6466 271.164 25.081 271.164 25.6241C271.164 26.1128 271.479 26.6015 272.109 26.6015H273.263L273.315 27.8505Z" fill="#6D7479"/>
<path d="M283.021 32.2487V34.7467H273.893V32.2487H279.506L279.349 29.3163L281.867 27.8501V32.303H283.021V32.2487ZM277.722 37.6248C277.722 38.385 277.145 38.9824 276.411 38.9824C275.729 38.9824 275.099 38.385 275.099 37.6248C275.099 36.9188 275.677 36.2672 276.411 36.2672C277.145 36.3215 277.722 36.9188 277.722 37.6248ZM281.027 37.6248C281.027 38.385 280.45 38.9824 279.716 38.9824C278.982 38.9824 278.404 38.385 278.404 37.6248C278.404 36.9188 278.982 36.2672 279.716 36.2672C280.45 36.2672 281.027 36.9188 281.027 37.6248Z" fill="#6D7479"/>
<path d="M295.925 32.7921C296.607 34.3669 295.348 34.7471 295.348 34.7471H281.341V32.2491H284.332C283.702 31.9776 284.174 30.2941 284.332 29.914C284.751 28.8823 285.643 27.9591 286.745 26.4929L286.273 25.9498L288.161 24.1035C288.161 24.1578 295.82 32.5206 295.925 32.7921ZM288.161 30.0769C288.161 29.5339 287.689 29.0452 287.112 29.0452C286.587 29.0452 286.115 29.5339 286.115 30.0769C286.115 30.6743 286.587 31.163 287.112 31.163C287.689 31.163 288.161 30.6743 288.161 30.0769ZM291.571 31.2716C291.571 30.6743 291.099 30.2398 290.574 30.2398C289.997 30.2398 289.578 30.7286 289.578 31.2716C289.578 31.8147 290.05 32.3577 290.574 32.3577C291.099 32.3577 291.571 31.869 291.571 31.2716Z" fill="#6D7479"/>
<path d="M0.781738 58.8578L5.81796 47.5083H6.55241L11.5362 58.8578H9.2279L8.38853 57.0115H3.92937L3.09001 58.8578H0.781738ZM4.66382 55.2738H7.65408L6.18518 51.6354L4.66382 55.2738Z" fill="#6D7479"/>
<path d="M14.7887 58.8575H12.8477V47.6166L14.6313 47.3994H14.7887V58.8575Z" fill="#6D7479"/>
<path d="M20.9792 58.8579V47.617L21.5563 47.4541L26.2253 53.4275L30.8943 47.4541L31.4714 47.617V58.8579H29.4254V52.5587L26.3302 56.5771H26.1204L23.0252 52.613V58.8036H20.9792V58.8579Z" fill="#6D7479"/>
<path d="M39.8126 58.8575H38.5536L38.0814 58.0429C37.5568 58.6946 36.7699 59.0747 35.6158 59.0747C34.0944 59.0747 33.0977 58.0429 33.0977 56.7396C33.0977 55.3277 34.1993 54.3503 35.7207 54.3503C36.665 54.3503 37.5568 54.7304 37.8716 55.0019V54.7847C37.8716 53.6443 37.0322 53.1013 36.0879 53.1013C35.1961 53.1013 34.8289 53.3185 34.4092 53.4271L33.9895 51.9066C34.4616 51.7437 35.3535 51.4722 36.3502 51.4722C38.4486 51.5265 39.7602 52.8298 39.7602 54.839L39.8126 58.8575ZM37.924 56.3595C37.6617 56.088 37.0322 55.7079 36.2453 55.7079C35.6158 55.7079 35.0912 56.1423 35.0912 56.6853C35.0912 57.2284 35.6682 57.6085 36.2453 57.6085C36.9797 57.6085 37.7666 57.1198 37.924 56.5767V56.3595Z" fill="#6D7479"/>
<path d="M41.0715 55.2735C41.0715 52.9384 42.5404 51.4722 44.3241 51.4722C45.1635 51.4722 46.2127 51.9609 46.5274 52.7212V47.6166L48.3111 47.3994H48.5209V58.8575H47.3143L46.7897 57.8257C46.4225 58.5317 45.3733 59.0747 44.3241 59.0747C42.5404 59.0747 41.0715 57.6628 41.0715 55.2735ZM46.5274 55.2735C46.5274 53.8616 45.6356 53.1556 44.7962 53.1556C43.9569 53.1556 43.065 53.8616 43.065 55.2735C43.065 56.6854 43.9044 57.4456 44.7962 57.4456C45.6356 57.4456 46.5274 56.6311 46.5274 55.2735Z" fill="#6D7479"/>
<path d="M51.6167 47.8882C52.3511 47.8882 52.9282 48.4855 52.9282 49.2458C52.9282 50.006 52.2987 50.5491 51.6167 50.5491C50.9347 50.5491 50.3052 49.9517 50.3052 49.2458C50.3052 48.4855 50.9347 47.8882 51.6167 47.8882ZM50.6724 51.7438H52.6134V58.9119H50.6724V51.7438Z" fill="#6D7479"/>
<path d="M56.4417 52.5581C56.8614 51.9608 57.7532 51.5264 58.75 51.5264C60.2713 51.5264 61.6353 52.6124 61.6353 54.3502V58.9117H59.6418V54.676C59.6418 53.8071 59.0123 53.2098 58.2254 53.2098C57.5434 53.2098 56.7565 53.7528 56.7565 54.676V58.9117H54.8154V51.7436H56.022L56.4417 52.5581Z" fill="#6D7479"/>
<path d="M69.61 58.8575H68.4034L67.9313 58.0429C67.4067 58.6946 66.6198 59.0747 65.4656 59.0747C63.9443 59.0747 62.9475 58.0429 62.9475 56.7396C62.9475 55.3277 64.0492 54.3503 65.5705 54.3503C66.5148 54.3503 67.4067 54.7304 67.7214 55.0019V54.7847C67.7214 53.6443 66.8821 53.1013 65.9378 53.1013C65.0459 53.1013 64.6787 53.3185 64.259 53.4271L63.8393 51.9066C64.3115 51.7437 65.2033 51.4722 66.2001 51.4722C68.2985 51.5265 69.61 52.8298 69.61 54.839V58.8575ZM67.7214 56.3595C67.4591 56.088 66.8296 55.7079 66.0427 55.7079C65.4132 55.7079 64.8886 56.1423 64.8886 56.6853C64.8886 57.2284 65.4656 57.6085 66.0427 57.6085C66.7771 57.6085 67.564 57.1198 67.7214 56.5767V56.3595Z" fill="#6D7479"/>
<path d="M73.2824 52.4498C73.7021 51.9067 74.5414 51.4723 75.4857 51.4723C76.9022 51.4723 78.2137 52.5041 78.2137 54.2961V58.8033H76.2202V54.5676C76.2202 53.6988 75.5906 53.1014 74.8037 53.1014C74.1742 53.1014 73.3348 53.5902 73.3348 54.459V58.8033H71.3938V47.5624L73.1775 47.3452H73.3348V52.4498H73.2824Z" fill="#6D7479"/>
<path d="M89.7026 54.4046L92.4831 58.9118H89.965L87.6567 55.0562C87.1845 55.1105 86.7124 55.1105 86.1878 55.0562V58.9118H84.0894V47.7795C89.2305 46.8563 91.5912 48.4855 91.5912 51.255C91.5912 52.6669 90.6994 53.8615 89.7026 54.4046ZM86.1878 53.1556C88.4436 53.3728 89.4403 52.5039 89.4403 51.2006C89.4403 50.006 88.3911 49.1914 86.1878 49.5172V53.1556Z" fill="#6D7479"/>
<path d="M94.9483 55.7622C95.0008 56.6853 95.8401 57.4456 97.1517 57.4456C97.8861 57.4456 98.6205 57.1741 99.0927 56.9026L99.7747 58.2601C98.9878 58.8575 97.8336 59.0747 96.8894 59.0747C94.4762 59.0747 92.9023 57.337 92.9023 55.2734C92.9023 52.9927 94.6335 51.4722 96.4697 51.4722C98.2009 51.4722 99.9321 52.7755 99.9321 55.3277C99.9321 55.4364 99.9321 55.5993 99.9321 55.7079H94.9483V55.7622ZM97.991 54.5132C97.9386 53.59 97.2041 53.1013 96.5746 53.1013C95.8401 53.1013 95.1581 53.7529 95.1057 54.5132H97.991Z" fill="#6D7479"/>
<path d="M106.49 57.6085C106.175 58.3688 105.231 58.8032 104.339 58.8032C102.503 58.8032 101.086 57.3913 101.086 55.1648C101.086 52.9384 102.45 51.4722 104.234 51.4722C105.283 51.4722 106.175 52.0152 106.7 52.7755L107.224 51.6894H108.431V58.2601C108.431 60.8124 106.857 62.1157 104.391 62.1157C103.5 62.1157 102.555 61.8985 102.136 61.6813L102.503 60.0522C103.027 60.2694 103.657 60.378 104.339 60.378C105.86 60.378 106.49 59.5091 106.49 58.3688V57.6085ZM106.437 55.1648C106.437 53.9158 105.598 53.1556 104.759 53.1556C103.867 53.1556 103.08 53.8615 103.08 55.1648C103.08 56.4681 103.867 57.1741 104.759 57.1741C105.65 57.1741 106.437 56.4681 106.437 55.1648Z" fill="#6D7479"/>
<path d="M111.474 47.8882C112.208 47.8882 112.785 48.4855 112.785 49.2458C112.785 50.006 112.156 50.5491 111.474 50.5491C110.792 50.5491 110.162 49.9517 110.162 49.2458C110.162 48.4855 110.792 47.8882 111.474 47.8882ZM110.53 51.7438H112.471V58.9119H110.53V51.7438Z" fill="#6D7479"/>
<path d="M114.045 55.2734C114.045 53.047 115.671 51.4722 117.822 51.4722C119.92 51.4722 121.547 53.047 121.547 55.2734C121.547 57.4999 119.92 59.0747 117.769 59.0747C115.671 59.0747 114.045 57.4999 114.045 55.2734ZM119.553 55.2734C119.553 53.8072 118.661 53.1013 117.769 53.1013C116.878 53.1013 116.038 53.8072 116.038 55.2734C116.038 56.6853 116.93 57.4456 117.822 57.4456C118.714 57.4456 119.553 56.6853 119.553 55.2734Z" fill="#6D7479"/>
<path d="M124.747 52.5581C125.167 51.9608 126.058 51.5264 127.055 51.5264C128.576 51.5264 129.94 52.6124 129.94 54.3502V58.9117H127.947V54.676C127.947 53.8071 127.317 53.2098 126.53 53.2098C125.849 53.2098 125.062 53.7528 125.062 54.676V58.9117H123.016V51.7436H124.222L124.747 52.5581Z" fill="#6D7479"/>
<path d="M135.868 47.6707C143.108 46.4761 144.944 50.4402 144.944 53.2097C144.944 55.9249 143.055 59.8348 135.868 58.8573V47.6707ZM137.967 56.9567C140.117 57.1739 142.688 56.1965 142.688 53.264C142.688 50.7661 140.852 49.1913 137.967 49.5714V56.9567Z" fill="#6D7479"/>
<path d="M148.038 55.7622C148.091 56.6853 148.93 57.4456 150.241 57.4456C150.976 57.4456 151.71 57.1741 152.183 56.9026L152.865 58.2601C152.078 58.8575 150.923 59.0747 149.979 59.0747C147.566 59.0747 145.992 57.337 145.992 55.2734C145.992 52.9927 147.723 51.4722 149.56 51.4722C151.291 51.4722 153.022 52.7755 153.022 55.3277C153.022 55.4364 153.022 55.5993 153.022 55.7079H148.038V55.7622ZM151.081 54.5132C151.028 53.59 150.294 53.1013 149.664 53.1013C148.93 53.1013 148.248 53.7529 148.196 54.5132H151.081Z" fill="#6D7479"/>
<path d="M161.521 51.7437L157.849 59.0204H157.114L153.442 51.7437H155.54L157.481 55.6535L159.475 51.7437H161.521Z" fill="#6D7479"/>
<path d="M163.83 55.7622C163.882 56.6853 164.722 57.4456 166.033 57.4456C166.768 57.4456 167.502 57.1741 167.974 56.9026L168.656 58.2601C167.869 58.8575 166.715 59.0747 165.771 59.0747C163.358 59.0747 161.784 57.337 161.784 55.2734C161.784 52.9927 163.515 51.4722 165.351 51.4722C167.082 51.4722 168.814 52.7755 168.814 55.3277C168.814 55.4364 168.814 55.5993 168.814 55.7079H163.83V55.7622ZM166.873 54.5132C166.82 53.59 166.086 53.1013 165.456 53.1013C164.722 53.1013 164.04 53.7529 163.987 54.5132H166.873Z" fill="#6D7479"/>
<path d="M172.485 58.8575H170.544V47.6166L172.328 47.3994H172.485V58.8575Z" fill="#6D7479"/>
<path d="M174.112 55.2734C174.112 53.047 175.738 51.4722 177.889 51.4722C179.987 51.4722 181.613 53.047 181.613 55.2734C181.613 57.4999 179.987 59.0747 177.836 59.0747C175.738 59.0747 174.112 57.4999 174.112 55.2734ZM179.62 55.2734C179.62 53.8072 178.728 53.1013 177.836 53.1013C176.944 53.1013 176.105 53.8072 176.105 55.2734C176.105 56.6853 176.997 57.4456 177.889 57.4456C178.781 57.4456 179.62 56.6853 179.62 55.2734Z" fill="#6D7479"/>
<path d="M185.075 58.0428V61.8984L183.292 62.1156H183.134V51.7436H184.341L184.865 52.8297C185.338 52.0151 186.439 51.5264 187.384 51.5264C189.167 51.5264 190.584 52.9926 190.584 55.3276C190.584 57.6627 189.062 59.1289 187.279 59.1289C186.334 59.0746 185.39 58.6402 185.075 58.0428ZM188.538 55.2733C188.538 53.8614 187.698 53.1555 186.859 53.1555C185.967 53.1555 185.128 53.8614 185.128 55.2733C185.128 56.6309 186.02 57.3912 186.859 57.3912C187.646 57.4455 188.538 56.7395 188.538 55.2733Z" fill="#6D7479"/>
<path d="M193.732 52.3952C193.994 51.9608 194.886 51.5264 195.621 51.5264C196.617 51.5264 197.457 51.9608 197.929 52.721C198.401 51.9065 199.345 51.5264 200.08 51.5264C201.653 51.5264 202.598 52.6124 202.598 54.1873V58.9117H200.657V54.5131C200.657 53.6442 200.08 53.2098 199.503 53.2098C198.978 53.2098 198.348 53.6442 198.348 54.4588V58.8574H196.303V54.5131C196.303 53.5899 195.778 53.2098 195.148 53.2098C194.519 53.2098 193.942 53.6985 193.942 54.5131V58.8574H192.001V51.6893H193.207L193.732 52.3952Z" fill="#6D7479"/>
<path d="M205.85 55.7622C205.903 56.6853 206.742 57.4456 208.054 57.4456C208.788 57.4456 209.523 57.1741 209.995 56.9026L210.677 58.2601C209.89 58.8575 208.736 59.0747 207.791 59.0747C205.378 59.0747 203.804 57.337 203.804 55.2734C203.804 52.9927 205.536 51.4722 207.372 51.4722C209.103 51.4722 210.834 52.7755 210.834 55.3277C210.834 55.4364 210.834 55.5993 210.834 55.7079H205.85V55.7622ZM208.893 54.5132C208.841 53.59 208.106 53.1013 207.477 53.1013C206.742 53.1013 206.06 53.7529 206.008 54.5132H208.893Z" fill="#6D7479"/>
<path d="M214.086 52.5581C214.506 51.9608 215.398 51.5264 216.395 51.5264C217.916 51.5264 219.28 52.6124 219.28 54.3502V58.9117H217.286V54.676C217.286 53.8071 216.657 53.2098 215.87 53.2098C215.188 53.2098 214.401 53.7528 214.401 54.676V58.9117H212.46V51.7436H213.667L214.086 52.5581Z" fill="#6D7479"/>
<path d="M223.529 53.3185V56.1966C223.529 57.0112 224.002 57.2284 224.526 57.2284C224.736 57.2284 224.893 57.1741 225.156 57.1741L225.366 58.8032C224.893 58.9118 224.421 58.9661 224.002 58.9661C222.375 58.9661 221.536 57.9886 221.536 56.2509V53.3185H220.382V53.1013C220.434 52.6125 220.539 52.1781 220.592 51.6894H221.588V49.4086L223.372 49.1914H223.529V51.6894H225.313V53.3185H223.529Z" fill="#6D7479"/>
<path d="M230.035 58.8573L235.071 47.5078H235.805L240.789 58.8573H238.481L237.641 57.011H233.13L232.29 58.8573H230.035ZM233.917 55.2733H236.907L235.438 51.6349L233.917 55.2733Z" fill="#6D7479"/>
<path d="M246.717 58.043C246.297 58.6403 245.405 59.0748 244.408 59.0748C242.887 59.0748 241.628 57.9887 241.628 56.251V51.6895H243.621V55.9251C243.621 56.8483 244.251 57.3914 245.038 57.3914C245.72 57.3914 246.454 56.8483 246.454 55.9251V51.6895H248.395V58.8576H247.084L246.717 58.043Z" fill="#6D7479"/>
<path d="M252.96 53.3185V56.1966C252.96 57.0112 253.432 57.2284 253.957 57.2284C254.167 57.2284 254.324 57.1741 254.586 57.1741L254.796 58.8032C254.324 58.9118 253.852 58.9661 253.432 58.9661C251.806 58.9661 250.967 57.9886 250.967 56.2509V53.3185H249.812V53.1013C249.865 52.6125 249.97 52.1781 250.022 51.6894H251.019V49.4086L252.803 49.1914H252.96V51.6894H254.744V53.3185H252.96Z" fill="#6D7479"/>
<path d="M258.364 52.4498C258.783 51.9067 259.623 51.4723 260.567 51.4723C261.983 51.4723 263.295 52.5041 263.295 54.2961V58.8033H261.301V54.5676C261.301 53.6988 260.672 53.1014 259.885 53.1014C259.256 53.1014 258.416 53.5902 258.416 54.459V58.8033H256.475V47.5624L258.259 47.3452H258.416V52.4498H258.364Z" fill="#6D7479"/>
<path d="M264.607 55.2734C264.607 53.047 266.233 51.4722 268.384 51.4722C270.482 51.4722 272.109 53.047 272.109 55.2734C272.109 57.4999 270.482 59.0747 268.331 59.0747C266.233 59.0747 264.607 57.4999 264.607 55.2734ZM270.115 55.2734C270.115 53.8072 269.223 53.1013 268.331 53.1013C267.44 53.1013 266.6 53.8072 266.6 55.2734C266.6 56.6853 267.492 57.4456 268.384 57.4456C269.276 57.4456 270.115 56.6853 270.115 55.2734Z" fill="#6D7479"/>
<path d="M273.577 51.7436H274.783C274.941 52.0694 275.15 52.3409 275.308 52.6124C275.57 52.0151 276.305 51.5264 276.987 51.5264C277.459 51.5264 277.826 51.6893 277.983 51.7979L277.669 53.6442L277.564 53.6985C277.354 53.5899 277.144 53.4813 276.724 53.4813C276.305 53.4813 275.832 53.6985 275.57 54.0786V58.8574H273.577V51.7436Z" fill="#6D7479"/>
<path d="M280.502 47.8882C281.236 47.8882 281.813 48.4855 281.813 49.2458C281.813 50.006 281.184 50.5491 280.502 50.5491C279.82 50.5491 279.19 49.9517 279.19 49.2458C279.19 48.4855 279.767 47.8882 280.502 47.8882ZM279.505 51.7438H281.446V58.9119H279.505V51.7438Z" fill="#6D7479"/>
<path d="M286.168 53.3185V56.1966C286.168 57.0112 286.64 57.2284 287.164 57.2284C287.374 57.2284 287.532 57.1741 287.794 57.1741L288.004 58.8032C287.532 58.9118 287.059 58.9661 286.64 58.9661C285.014 58.9661 284.174 57.9886 284.174 56.2509V53.3185H283.02V53.1013C283.072 52.6125 283.177 52.1781 283.23 51.6894H284.227V49.4086L286.01 49.1914H286.168V51.6894H287.951V53.3185H286.168Z" fill="#6D7479"/>
<path d="M296.818 51.7437L292.201 62.0071H290.26L290.103 61.8442L291.939 58.0429L288.896 51.7437H291.047L292.988 55.7078L294.824 51.7437H296.818Z" fill="#6D7479"/>
<path d="M316.699 1.83838C317.801 27.144 317.801 52.8297 316.699 78.1353C315.598 52.8297 315.598 27.144 316.699 1.83838Z" fill="#6F757A"/>
</svg>
