<svg width="100" height="73" viewBox="0 0 100 73" fill="none" xmlns="http://www.w3.org/2000/svg">
<path d="M73.7109 0.929687C78.1055 0.929687 82.2559 2.10156 86.1621 4.44531C90.0684 6.78906 93.2422 10.1582 95.6836 14.5527C98.0273 18.9473 99.1992 24.123 99.1992 30.0801C99.1992 36.0371 97.7344 41.8477 94.8047 47.5117C93.8281 49.5625 92.0703 52.1992 89.5312 55.4219C86.8945 58.6445 84.4531 61.4277 82.207 63.7715L72.9785 73L66.3867 62.1602C70.9766 59.3281 75.0293 55.8125 78.5449 51.6133C82.0605 47.5117 83.8184 43.752 83.8184 40.334C83.8184 38.5762 83.4277 37.1602 82.6465 36.0859C79.2285 38.5273 75.4199 39.748 71.2207 39.748C68.1934 39.748 65.3125 38.8203 62.5781 36.9648C59.7461 35.207 57.5 32.8633 55.8398 29.9336C54.082 27.1016 53.2031 24.1719 53.2031 21.1445C53.2031 17.7266 54.2285 14.4551 56.2793 11.3301C58.2324 8.20508 60.8203 5.66602 64.043 3.71289C67.168 1.85742 70.3906 0.929687 73.7109 0.929687ZM21.123 0.929687C25.5176 0.929687 29.668 2.10156 33.5742 4.44531C37.4805 6.78906 40.6543 10.1582 43.0957 14.5527C45.4395 18.9473 46.6113 24.123 46.6113 30.0801C46.6113 34.2793 46.0742 38.0391 45 41.3594C43.9258 44.7773 42.0703 48.3418 39.4336 52.0527C36.8945 55.5684 34.502 58.498 32.2559 60.8418C30.0098 63.2832 26.1035 67.3359 20.5371 73L13.9453 62.1602C18.5352 59.3281 22.5879 55.8125 26.1035 51.6133C29.6191 47.5117 31.377 43.752 31.377 40.334C31.377 38.5762 30.9863 37.1602 30.2051 36.0859C26.7871 38.5273 22.9785 39.748 18.7793 39.748C15.752 39.748 12.8711 38.8203 10.1367 36.9648C7.30469 35.207 5.05859 32.8633 3.39844 29.9336C1.64062 27.1016 0.761719 24.1719 0.761719 21.1445C0.761719 17.7266 1.73828 14.4551 3.69141 11.3301C5.64453 8.20508 8.23242 5.66602 11.4551 3.71289C14.5801 1.85742 17.8027 0.929687 21.123 0.929687Z" fill="#BE894A" fill-opacity="0.2"/>
</svg>
