<svg width="184" height="58" viewBox="0 0 184 58" fill="none" xmlns="http://www.w3.org/2000/svg">
<g clip-path="url(#clip0_1038_3048)">
<path d="M52.2205 39.9294C52.1802 39.9294 52.1515 39.9063 52.1342 39.8658L51.1157 37.75H51.0466H49.7979C49.7692 37.75 49.7577 37.7615 49.7577 37.7905V39.86C49.7577 39.9063 49.7346 39.9294 49.6828 39.9294H49.4124C49.3664 39.9294 49.3376 39.9063 49.3376 39.86V35.1197C49.3376 35.0734 49.3606 35.0503 49.4066 35.0503H51.0409C51.5012 35.0503 51.8695 35.1717 52.1284 35.4087C52.3931 35.6457 52.5197 35.981 52.5197 36.3972C52.5197 36.7383 52.4334 37.0158 52.2608 37.2413C52.0882 37.4667 51.8407 37.6112 51.53 37.6922L52.5888 39.8542C52.6003 39.8774 52.6061 39.8947 52.6003 39.912C52.5945 39.9236 52.5773 39.9352 52.5543 39.9352H52.2205V39.9294ZM51.0409 37.3569C51.3861 37.3569 51.6508 37.2759 51.8407 37.1083C52.0249 36.9407 52.1169 36.7036 52.1169 36.3915C52.1169 36.0851 52.0249 35.8481 51.8407 35.6804C51.6566 35.5128 51.3919 35.4318 51.0409 35.4318H49.8037C49.7749 35.4318 49.7634 35.4434 49.7634 35.4723V37.3106C49.7634 37.3395 49.7749 37.3511 49.8037 37.3511H51.0409V37.3569Z" fill="#88774F"/>
<path d="M55.2703 39.9988C54.8675 39.9988 54.5395 39.9063 54.2748 39.7213C54.0101 39.5363 53.8202 39.2646 53.6994 38.9004C53.6764 38.8368 53.6534 38.7675 53.6361 38.6865C53.6188 38.6056 53.6073 38.5131 53.5958 38.409C53.5843 38.2992 53.5728 38.172 53.567 38.0275C53.5613 37.8772 53.5555 37.698 53.5555 37.4899C53.5555 37.2818 53.5613 37.1026 53.567 36.9523C53.5728 36.8019 53.5843 36.6748 53.5958 36.5707C53.6073 36.4609 53.6246 36.3684 53.6361 36.2932C53.6534 36.2181 53.6706 36.1429 53.6994 36.0793C53.8202 35.7209 54.0101 35.4492 54.2748 35.2584C54.5395 35.0735 54.8733 34.981 55.2703 34.981C55.6674 34.981 55.9954 35.0735 56.2601 35.2584C56.5248 35.4434 56.7147 35.7151 56.8355 36.0793C56.8528 36.1487 56.8758 36.2181 56.8931 36.2932C56.9103 36.3684 56.9276 36.4609 56.9391 36.5707C56.9506 36.6805 56.9621 36.8077 56.9679 36.9523C56.9794 37.0968 56.9794 37.276 56.9794 37.4841C56.9794 37.6922 56.9736 37.8772 56.9679 38.0217C56.9621 38.172 56.9506 38.2992 56.9391 38.4033C56.9276 38.5131 56.9103 38.6056 56.8931 38.6808C56.8758 38.7617 56.8528 38.8311 56.8355 38.8946C56.7147 39.2531 56.5248 39.5248 56.2601 39.7155C55.9954 39.9063 55.6674 39.9988 55.2703 39.9988ZM56.5651 37.4841C56.5651 37.2875 56.5593 37.1199 56.5536 36.9754C56.5478 36.8309 56.5363 36.7095 56.5305 36.6112C56.519 36.5129 56.5075 36.4262 56.4903 36.3626C56.473 36.2932 56.4557 36.2354 56.4442 36.1892C56.2658 35.64 55.8745 35.3625 55.2703 35.3625C54.6661 35.3625 54.2748 35.64 54.0907 36.1892C54.0792 36.2354 54.0619 36.2932 54.0447 36.3626C54.0274 36.432 54.0159 36.5129 54.0044 36.6112C53.9929 36.7095 53.9871 36.8309 53.9814 36.9754C53.9756 37.1199 53.9699 37.2875 53.9699 37.4841C53.9699 37.6806 53.9756 37.8483 53.9814 37.9928C53.9871 38.1373 53.9986 38.2587 54.0044 38.357C54.0159 38.4553 54.0274 38.542 54.0447 38.6056C54.0619 38.675 54.0792 38.7328 54.0907 38.779C54.2691 39.3282 54.6661 39.6057 55.2703 39.6057C55.8688 39.6057 56.2601 39.3282 56.4442 38.779C56.4557 38.7328 56.473 38.675 56.4903 38.6056C56.5075 38.5362 56.519 38.4553 56.5305 38.357C56.5421 38.2587 56.5478 38.1373 56.5536 37.9928C56.5593 37.8483 56.5651 37.6806 56.5651 37.4841Z" fill="#88774F"/>
<path d="M59.1085 39.9294C59.0624 39.9294 59.0337 39.9063 59.0337 39.86V37.9234L57.5778 35.1254C57.5663 35.1081 57.5721 35.0908 57.5836 35.0734C57.5951 35.0561 57.6123 35.0503 57.6353 35.0503H57.9116C57.9576 35.0503 57.9921 35.0734 58.0209 35.1197L59.2466 37.4552H59.2696L60.4722 35.1197C60.4953 35.0734 60.5298 35.0503 60.5816 35.0503H60.852C60.8808 35.0503 60.8981 35.0561 60.9096 35.0734C60.9211 35.0908 60.9211 35.1081 60.9096 35.1254L59.4537 37.9234V39.8542C59.4537 39.9005 59.4307 39.9236 59.3789 39.9236H59.1085V39.9294Z" fill="#88774F"/>
<path d="M62.6071 35.1138C62.6186 35.0676 62.6474 35.0444 62.6934 35.0444H62.9524C62.9927 35.0444 63.0214 35.0676 63.0387 35.1138L64.7247 39.8542C64.7362 39.9004 64.7247 39.9235 64.6729 39.9235H64.3967C64.3449 39.9235 64.3104 39.9004 64.3047 39.8542L63.8731 38.6575H61.7555L61.3239 39.8542C61.3066 39.9004 61.2721 39.9235 61.2318 39.9235H60.9556C60.9096 39.9235 60.8923 39.9004 60.9038 39.8542L62.6071 35.1138ZM63.735 38.2528L62.8258 35.7035H62.8028L61.8878 38.2528H63.735Z" fill="#88774F"/>
<path d="M65.7145 35.1138C65.7145 35.0676 65.7375 35.0444 65.7893 35.0444H66.0597C66.1058 35.0444 66.1345 35.0676 66.1345 35.1138V39.4957C66.1345 39.5246 66.1461 39.5362 66.1748 39.5362H68.5744C68.6204 39.5362 68.6434 39.5593 68.6434 39.6056V39.8484C68.6434 39.8946 68.6204 39.9178 68.5744 39.9178H65.7893C65.7432 39.9178 65.7145 39.8946 65.7145 39.8484V35.1138Z" fill="#88774F"/>
<path d="M71.4228 38.906C71.4055 38.8425 71.3883 38.7731 71.371 38.7037C71.3537 38.6286 71.3422 38.5361 71.3307 38.4262C71.3192 38.3164 71.3135 38.1834 71.3077 38.0331C71.302 37.8828 71.2962 37.6978 71.2962 37.4839C71.2962 37.27 71.302 37.0851 71.3077 36.9348C71.3135 36.7844 71.325 36.6515 71.3307 36.5416C71.3422 36.4318 71.3537 36.3393 71.371 36.2642C71.3883 36.189 71.4055 36.1196 71.4228 36.0618C71.5494 35.6919 71.7393 35.4201 71.9925 35.2409C72.2514 35.0617 72.5737 34.9692 72.9592 34.9692C73.293 34.9692 73.5864 35.0444 73.8396 35.1947C74.0928 35.345 74.2885 35.5705 74.4266 35.8711C74.4438 35.9115 74.4381 35.9462 74.4036 35.9636L74.1676 36.0792C74.1273 36.1023 74.0986 36.0907 74.0756 36.0503C73.9662 35.8422 73.8224 35.6687 73.644 35.5415C73.4656 35.4144 73.2354 35.3508 72.9592 35.3508C72.66 35.3508 72.4183 35.4201 72.2342 35.5531C72.05 35.6919 71.9119 35.8942 71.8141 36.1601C71.8026 36.2064 71.7853 36.2642 71.7738 36.3335C71.7623 36.4029 71.745 36.4838 71.7393 36.5821C71.7335 36.6804 71.722 36.8018 71.7163 36.9463C71.7105 37.0908 71.7105 37.2643 71.7105 37.4724C71.7105 37.6805 71.7105 37.8539 71.7163 37.9984C71.722 38.143 71.7278 38.2644 71.7393 38.3626C71.7508 38.4609 71.7623 38.5476 71.7738 38.6112C71.7853 38.6806 71.8026 38.7384 71.8141 38.7846C71.9119 39.0506 72.05 39.2529 72.2342 39.3916C72.4183 39.5304 72.66 39.594 72.9592 39.594C73.2354 39.594 73.4656 39.5304 73.644 39.4032C73.8224 39.276 73.9662 39.1084 74.0756 38.8945C74.0986 38.854 74.1273 38.8425 74.1676 38.8656L74.4036 38.9812C74.4381 38.9985 74.4438 39.0332 74.4266 39.0737C74.2885 39.3743 74.0928 39.5998 73.8396 39.7501C73.5864 39.9004 73.293 39.9755 72.9592 39.9755C72.5737 39.9755 72.2514 39.883 71.9925 39.7038C71.7393 39.5477 71.5494 39.276 71.4228 38.906Z" fill="#88774F"/>
<path d="M77.0333 39.9988C76.6305 39.9988 76.3025 39.9063 76.0378 39.7213C75.7731 39.5363 75.5832 39.2646 75.4623 38.9004C75.4393 38.8368 75.4163 38.7675 75.399 38.6865C75.3818 38.6056 75.3703 38.5131 75.3588 38.409C75.3473 38.2992 75.3357 38.172 75.33 38.0275C75.3242 37.8772 75.3185 37.698 75.3185 37.4899C75.3185 37.2818 75.3242 37.1026 75.33 36.9523C75.3357 36.8019 75.3473 36.6748 75.3588 36.5707C75.3703 36.4609 75.3875 36.3684 75.399 36.2932C75.4163 36.2181 75.4336 36.1429 75.4623 36.0793C75.5832 35.7209 75.7731 35.4492 76.0378 35.2584C76.3025 35.0735 76.6362 34.981 77.0333 34.981C77.4303 34.981 77.7583 35.0735 78.023 35.2584C78.2877 35.4434 78.4776 35.7151 78.5985 36.0793C78.6157 36.1487 78.6387 36.2181 78.656 36.2932C78.6733 36.3684 78.6905 36.4609 78.702 36.5707C78.7136 36.6805 78.7251 36.8077 78.7308 36.9523C78.7366 37.1026 78.7423 37.2818 78.7423 37.4899C78.7423 37.698 78.7366 37.883 78.7308 38.0275C78.7251 38.1778 78.7136 38.305 78.702 38.409C78.6905 38.5189 78.6733 38.6114 78.656 38.6865C78.6387 38.7617 78.6157 38.8368 78.5985 38.9004C78.4776 39.2588 78.2877 39.5305 78.023 39.7213C77.7583 39.9063 77.4303 39.9988 77.0333 39.9988ZM78.328 37.4841C78.328 37.2875 78.3223 37.1199 78.3165 36.9754C78.3108 36.8309 78.2992 36.7095 78.2935 36.6112C78.282 36.5129 78.2705 36.4262 78.2532 36.3626C78.2359 36.2932 78.2187 36.2354 78.2072 36.1892C78.0288 35.64 77.6375 35.3625 77.0333 35.3625C76.4291 35.3625 76.0378 35.64 75.8536 36.1892C75.8421 36.2354 75.8249 36.2932 75.8076 36.3626C75.7903 36.432 75.7788 36.5129 75.7673 36.6112C75.7558 36.7095 75.7501 36.8309 75.7443 36.9754C75.7386 37.1199 75.7328 37.2875 75.7328 37.4841C75.7328 37.6806 75.7386 37.8483 75.7443 37.9928C75.7501 38.1373 75.7616 38.2587 75.7673 38.357C75.7788 38.4553 75.7903 38.542 75.8076 38.6056C75.8249 38.675 75.8421 38.7328 75.8536 38.779C76.032 39.3282 76.4291 39.6057 77.0333 39.6057C77.6317 39.6057 78.023 39.3282 78.2072 38.779C78.2187 38.7328 78.2359 38.675 78.2532 38.6056C78.2705 38.5362 78.282 38.4553 78.2935 38.357C78.305 38.2587 78.3108 38.1373 78.3165 37.9928C78.3223 37.8541 78.328 37.6806 78.328 37.4841Z" fill="#88774F"/>
<path d="M79.9162 35.1138C79.9162 35.0676 79.9392 35.0444 79.991 35.0444H80.2672C80.319 35.0444 80.3593 35.0676 80.3766 35.1138L81.9533 38.6113H81.982L83.5242 35.1138C83.5415 35.0676 83.576 35.0444 83.6278 35.0444H83.9097C83.9558 35.0444 83.9845 35.0676 83.9845 35.1138V39.8542C83.9845 39.9004 83.9615 39.9235 83.9097 39.9235H83.6393C83.5932 39.9235 83.5645 39.9004 83.5645 39.8542V36.033H83.5415L82.1431 39.1258C82.1316 39.1547 82.1144 39.172 82.0971 39.1894C82.0798 39.2009 82.0511 39.2067 82.0165 39.2067H81.8727C81.8151 39.2067 81.7749 39.1778 81.7519 39.1258L80.3535 36.033H80.3305V39.8542C80.3305 39.9004 80.3075 39.9235 80.2557 39.9235H79.9853C79.9392 39.9235 79.9105 39.9004 79.9105 39.8542V35.1138H79.9162Z" fill="#88774F"/>
<path d="M85.3023 35.1138C85.3023 35.0676 85.3253 35.0444 85.3771 35.0444H85.6533C85.7051 35.0444 85.7454 35.0676 85.7627 35.1138L87.3394 38.6113H87.3681L88.9103 35.1138C88.9276 35.0676 88.9621 35.0444 89.0139 35.0444H89.2958C89.3419 35.0444 89.3706 35.0676 89.3706 35.1138V39.8542C89.3706 39.9004 89.3476 39.9235 89.2958 39.9235H89.0254C88.9794 39.9235 88.9506 39.9004 88.9506 39.8542V36.033H88.9276L87.5293 39.1258C87.5177 39.1547 87.5005 39.172 87.4832 39.1894C87.466 39.2009 87.4372 39.2067 87.4027 39.2067H87.2588C87.2013 39.2067 87.161 39.1778 87.138 39.1258L85.7396 36.033H85.7166V39.8542C85.7166 39.9004 85.6936 39.9235 85.6418 39.9235H85.3714C85.3253 39.9235 85.2966 39.9004 85.2966 39.8542V35.1138H85.3023Z" fill="#88774F"/>
<path d="M90.6826 35.1138C90.6826 35.0676 90.7056 35.0444 90.7574 35.0444H91.0279C91.0739 35.0444 91.1027 35.0676 91.1027 35.1138V39.8542C91.1027 39.9004 91.0797 39.9235 91.0279 39.9235H90.7574C90.7114 39.9235 90.6826 39.9004 90.6826 39.8542V35.1138Z" fill="#88774F"/>
<path d="M93.836 39.9988C93.6807 39.9988 93.5195 39.9815 93.3642 39.9526C93.2088 39.9236 93.0592 39.8774 92.9153 39.8254C92.7772 39.7733 92.6449 39.7098 92.5298 39.6404C92.4147 39.571 92.3111 39.5016 92.2248 39.4265C92.1845 39.3918 92.1845 39.3571 92.2191 39.3282L92.3917 39.1143C92.4262 39.0739 92.4607 39.0739 92.4895 39.1085C92.6506 39.2357 92.852 39.3456 93.0937 39.4554C93.3354 39.5594 93.6001 39.6115 93.8821 39.6115C94.2734 39.6115 94.5783 39.519 94.8028 39.3398C95.0272 39.1606 95.1365 38.9178 95.1365 38.6172C95.1365 38.4958 95.1193 38.3859 95.079 38.2819C95.0387 38.1778 94.9754 38.0853 94.8891 38.0044C94.8028 37.9234 94.6819 37.8541 94.5323 37.7963C94.3827 37.7385 94.1928 37.698 93.9741 37.6691L93.7497 37.6402C93.2721 37.5766 92.9211 37.4378 92.6909 37.2182C92.4607 36.9985 92.3457 36.7095 92.3457 36.351C92.3457 35.9232 92.4838 35.588 92.76 35.3452C93.0362 35.1024 93.4102 34.981 93.8763 34.981C94.1468 34.981 94.4057 35.0156 94.6474 35.0908C94.8891 35.1659 95.0962 35.2642 95.2631 35.3914C95.3034 35.4145 95.3092 35.4492 95.2746 35.4897L95.1308 35.7094C95.102 35.744 95.0675 35.7498 95.0329 35.7209C94.8373 35.5995 94.6474 35.5128 94.4575 35.4492C94.2676 35.3914 94.0662 35.3567 93.8591 35.3567C93.5138 35.3567 93.2433 35.4434 93.0477 35.6169C92.8578 35.7903 92.76 36.0215 92.76 36.3106C92.76 36.5592 92.8463 36.7615 93.0189 36.9233C93.1916 37.0794 93.485 37.1893 93.8993 37.2413L94.118 37.2702C94.6129 37.3396 94.9754 37.4841 95.1998 37.7038C95.4242 37.9292 95.5393 38.2183 95.5393 38.5825C95.5393 38.7906 95.5048 38.9756 95.43 39.149C95.3552 39.3224 95.2459 39.4727 95.102 39.5999C94.9581 39.7271 94.7798 39.8254 94.5668 39.8947C94.3539 39.9641 94.118 39.9988 93.836 39.9988Z" fill="#88774F"/>
<path d="M98.1172 39.9988C97.9619 39.9988 97.8007 39.9815 97.6454 39.9526C97.49 39.9236 97.3404 39.8774 97.1965 39.8254C97.0584 39.7733 96.9261 39.7098 96.811 39.6404C96.6959 39.571 96.5923 39.5016 96.506 39.4265C96.4657 39.3918 96.4657 39.3571 96.5003 39.3282L96.6729 39.1143C96.7074 39.0739 96.7419 39.0739 96.7707 39.1085C96.9318 39.2357 97.1332 39.3456 97.3749 39.4554C97.6166 39.5594 97.8813 39.6115 98.1633 39.6115C98.5546 39.6115 98.8595 39.519 99.084 39.3398C99.3084 39.1606 99.4177 38.9178 99.4177 38.6172C99.4177 38.4958 99.4004 38.3859 99.3602 38.2819C99.3199 38.1778 99.2566 38.0853 99.1703 38.0044C99.084 37.9234 98.9631 37.8541 98.8135 37.7963C98.6639 37.7385 98.474 37.698 98.2553 37.6691L98.0309 37.6402C97.5533 37.5766 97.2023 37.4378 96.9721 37.2182C96.7419 36.9985 96.6268 36.7095 96.6268 36.351C96.6268 35.9232 96.765 35.588 97.0412 35.3452C97.3174 35.1024 97.6914 34.981 98.1575 34.981C98.428 34.981 98.6869 35.0156 98.9286 35.0908C99.1703 35.1659 99.3774 35.2642 99.5443 35.3914C99.5846 35.4145 99.5903 35.4492 99.5558 35.4897L99.412 35.7094C99.3832 35.744 99.3487 35.7498 99.3141 35.7209C99.1185 35.5995 98.9286 35.5128 98.7387 35.4492C98.5488 35.3914 98.3474 35.3567 98.1402 35.3567C97.795 35.3567 97.5245 35.4434 97.3289 35.6169C97.139 35.7903 97.0412 36.0215 97.0412 36.3106C97.0412 36.5592 97.1275 36.7615 97.3001 36.9233C97.4727 37.0794 97.7662 37.1893 98.1805 37.2413L98.3992 37.2702C98.8941 37.3396 99.2566 37.4841 99.481 37.7038C99.7054 37.9292 99.8205 38.2183 99.8205 38.5825C99.8205 38.7906 99.786 38.9756 99.7112 39.149C99.6364 39.3224 99.527 39.4727 99.3832 39.5999C99.2393 39.7271 99.0609 39.8254 98.848 39.8947C98.6351 39.9641 98.3992 39.9988 98.1172 39.9988Z" fill="#88774F"/>
<path d="M100.943 35.1138C100.943 35.0676 100.966 35.0444 101.017 35.0444H101.288C101.334 35.0444 101.363 35.0676 101.363 35.1138V39.8542C101.363 39.9004 101.34 39.9235 101.288 39.9235H101.017C100.971 39.9235 100.943 39.9004 100.943 39.8542V35.1138Z" fill="#88774F"/>
<path d="M104.24 39.9988C103.837 39.9988 103.509 39.9063 103.244 39.7213C102.98 39.5363 102.79 39.2646 102.669 38.9004C102.646 38.8368 102.623 38.7675 102.606 38.6865C102.588 38.6056 102.577 38.5131 102.565 38.409C102.554 38.2992 102.542 38.172 102.537 38.0275C102.531 37.8772 102.525 37.698 102.525 37.4899C102.525 37.2818 102.531 37.1026 102.537 36.9523C102.542 36.8019 102.554 36.6748 102.565 36.5707C102.577 36.4609 102.594 36.3684 102.606 36.2932C102.623 36.2181 102.64 36.1429 102.669 36.0793C102.79 35.7209 102.98 35.4492 103.244 35.2584C103.509 35.0735 103.843 34.981 104.24 34.981C104.637 34.981 104.965 35.0735 105.23 35.2584C105.494 35.4434 105.684 35.7151 105.805 36.0793C105.822 36.1487 105.845 36.2181 105.863 36.2932C105.88 36.3684 105.897 36.4609 105.909 36.5707C105.92 36.6805 105.932 36.8077 105.937 36.9523C105.943 37.1026 105.949 37.2818 105.949 37.4899C105.949 37.698 105.943 37.883 105.937 38.0275C105.932 38.1778 105.92 38.305 105.909 38.409C105.897 38.5189 105.88 38.6114 105.863 38.6865C105.845 38.7675 105.822 38.8368 105.805 38.9004C105.684 39.2588 105.494 39.5305 105.23 39.7213C104.965 39.9063 104.637 39.9988 104.24 39.9988ZM105.535 37.4841C105.535 37.2875 105.529 37.1199 105.523 36.9754C105.517 36.8309 105.506 36.7095 105.5 36.6112C105.489 36.5129 105.477 36.4262 105.46 36.3626C105.443 36.2932 105.425 36.2354 105.414 36.1892C105.235 35.64 104.844 35.3625 104.24 35.3625C103.636 35.3625 103.239 35.64 103.06 36.1892C103.049 36.2354 103.031 36.2932 103.014 36.3626C102.997 36.432 102.985 36.5129 102.974 36.6112C102.962 36.7095 102.957 36.8309 102.951 36.9754C102.945 37.1199 102.939 37.2875 102.939 37.4841C102.939 37.6806 102.945 37.8483 102.951 37.9928C102.957 38.1373 102.968 38.2587 102.974 38.357C102.985 38.4553 102.997 38.542 103.014 38.6056C103.031 38.675 103.049 38.7328 103.06 38.779C103.239 39.3282 103.636 39.6057 104.24 39.6057C104.838 39.6057 105.23 39.3282 105.414 38.779C105.425 38.7328 105.443 38.675 105.46 38.6056C105.477 38.5362 105.489 38.4553 105.5 38.357C105.512 38.2587 105.517 38.1373 105.523 37.9928C105.529 37.8541 105.535 37.6806 105.535 37.4841Z" fill="#88774F"/>
<path d="M107.123 35.1138C107.123 35.0676 107.146 35.0444 107.198 35.0444H107.468C107.526 35.0444 107.566 35.0676 107.589 35.1138L110.006 39.1258H110.029V35.1138C110.029 35.0676 110.052 35.0444 110.104 35.0444H110.374C110.42 35.0444 110.449 35.0676 110.449 35.1138V39.8542C110.449 39.9004 110.426 39.9235 110.38 39.9235H110.104C110.052 39.9235 110.011 39.9004 109.983 39.8542L107.583 35.8306H107.554V39.8542C107.554 39.9004 107.531 39.9235 107.48 39.9235H107.209C107.163 39.9235 107.134 39.9004 107.134 39.8542V35.1138H107.123Z" fill="#88774F"/>
<path d="M113.775 35.1138C113.775 35.0676 113.798 35.0444 113.85 35.0444H116.635C116.681 35.0444 116.704 35.0676 116.704 35.1138V35.3566C116.704 35.4029 116.681 35.426 116.635 35.426H114.235C114.206 35.426 114.195 35.4375 114.195 35.4664V37.2527C114.195 37.2817 114.206 37.2932 114.235 37.2932H116.301C116.347 37.2932 116.37 37.3163 116.37 37.3626V37.6054C116.37 37.6516 116.347 37.6748 116.301 37.6748H114.235C114.206 37.6748 114.195 37.6863 114.195 37.7152V39.831C114.195 39.8773 114.172 39.9004 114.12 39.9004H113.85C113.804 39.9004 113.775 39.8773 113.775 39.831V35.1138Z" fill="#88774F"/>
<path d="M119.195 39.9988C118.793 39.9988 118.465 39.9063 118.2 39.7213C117.935 39.5363 117.745 39.2646 117.625 38.9004C117.601 38.8368 117.578 38.7675 117.561 38.6865C117.544 38.6056 117.532 38.5131 117.521 38.409C117.509 38.2992 117.498 38.172 117.492 38.0275C117.486 37.8772 117.481 37.698 117.481 37.4899C117.481 37.2818 117.486 37.1026 117.492 36.9523C117.498 36.8019 117.509 36.6748 117.521 36.5707C117.532 36.4609 117.55 36.3684 117.561 36.2932C117.578 36.2181 117.596 36.1429 117.625 36.0793C117.745 35.7209 117.935 35.4492 118.2 35.2584C118.465 35.0735 118.798 34.981 119.195 34.981C119.592 34.981 119.92 35.0735 120.185 35.2584C120.45 35.4434 120.64 35.7151 120.761 36.0793C120.778 36.1487 120.801 36.2181 120.818 36.2932C120.835 36.3684 120.853 36.4609 120.864 36.5707C120.876 36.6805 120.887 36.8077 120.893 36.9523C120.899 37.1026 120.904 37.2818 120.904 37.4899C120.904 37.698 120.899 37.883 120.893 38.0275C120.887 38.1778 120.876 38.305 120.864 38.409C120.853 38.5189 120.835 38.6114 120.818 38.6865C120.801 38.7675 120.778 38.8368 120.761 38.9004C120.64 39.2588 120.45 39.5305 120.185 39.7213C119.92 39.9063 119.592 39.9988 119.195 39.9988ZM120.49 37.4841C120.49 37.2875 120.484 37.1199 120.479 36.9754C120.473 36.8309 120.461 36.7095 120.456 36.6112C120.444 36.5129 120.433 36.4262 120.415 36.3626C120.398 36.2932 120.381 36.2354 120.369 36.1892C120.191 35.64 119.8 35.3625 119.195 35.3625C118.591 35.3625 118.194 35.64 118.016 36.1892C118.004 36.2354 117.987 36.2932 117.97 36.3626C117.953 36.432 117.941 36.5129 117.929 36.6112C117.918 36.7095 117.912 36.8309 117.906 36.9754C117.901 37.1199 117.895 37.2875 117.895 37.4841C117.895 37.6806 117.901 37.8483 117.906 37.9928C117.912 38.1373 117.924 38.2587 117.929 38.357C117.941 38.4553 117.953 38.542 117.97 38.6056C117.987 38.675 118.004 38.7328 118.016 38.779C118.194 39.3282 118.591 39.6057 119.195 39.6057C119.794 39.6057 120.185 39.3282 120.369 38.779C120.381 38.7328 120.398 38.675 120.415 38.6056C120.433 38.5362 120.444 38.4553 120.456 38.357C120.467 38.2587 120.473 38.1373 120.479 37.9928C120.484 37.8541 120.49 37.6806 120.49 37.4841Z" fill="#88774F"/>
<path d="M124.956 39.9294C124.915 39.9294 124.887 39.9063 124.869 39.8658L123.851 37.75H123.782H122.533C122.504 37.75 122.493 37.7615 122.493 37.7905V39.86C122.493 39.9063 122.47 39.9294 122.418 39.9294H122.147C122.101 39.9294 122.073 39.9063 122.073 39.86V35.1197C122.073 35.0734 122.096 35.0503 122.142 35.0503H123.776C124.236 35.0503 124.605 35.1717 124.863 35.4087C125.128 35.6457 125.255 35.981 125.255 36.3972C125.255 36.7383 125.168 37.0158 124.996 37.2413C124.823 37.4667 124.576 37.6112 124.265 37.6922L125.324 39.8542C125.335 39.8774 125.341 39.8947 125.335 39.912C125.33 39.9236 125.312 39.9352 125.289 39.9352H124.956V39.9294ZM123.77 37.3569C124.115 37.3569 124.38 37.2759 124.57 37.1083C124.754 36.9407 124.846 36.7036 124.846 36.3915C124.846 36.0851 124.754 35.8481 124.57 35.6804C124.386 35.5128 124.121 35.4318 123.77 35.4318H122.533C122.504 35.4318 122.493 35.4434 122.493 35.4723V37.3106C122.493 37.3395 122.504 37.3511 122.533 37.3511H123.77V37.3569Z" fill="#88774F"/>
<path d="M29.0132 43.1319C29.0132 43.0856 29.0362 43.0625 29.088 43.0625H29.3642C29.416 43.0625 29.4563 43.0856 29.4735 43.1319L31.0502 46.6293H31.079L32.6212 43.1319C32.6384 43.0856 32.673 43.0625 32.7248 43.0625H33.0067C33.0528 43.0625 33.0815 43.0856 33.0815 43.1319V47.8722C33.0815 47.9185 33.0585 47.9416 33.0067 47.9416H32.7363C32.6902 47.9416 32.6615 47.9185 32.6615 47.8722V44.051H32.6384L31.2401 47.1438C31.2286 47.1727 31.2114 47.1901 31.1941 47.2074C31.1768 47.219 31.1481 47.2248 31.1135 47.2248H30.9697C30.9121 47.2248 30.8719 47.1959 30.8488 47.1438L29.4505 44.051H29.4275V47.8722C29.4275 47.9185 29.4045 47.9416 29.3527 47.9416H29.0823C29.0362 47.9416 29.0074 47.9185 29.0074 47.8722V43.1319H29.0132Z" fill="#88774F"/>
<path d="M35.7688 43.1319C35.7803 43.0856 35.8091 43.0625 35.8551 43.0625H36.1141C36.1544 43.0625 36.1831 43.0856 36.2004 43.1319L37.8864 47.8722C37.8979 47.9185 37.8864 47.9416 37.8346 47.9416H37.5584C37.5066 47.9416 37.4721 47.9185 37.4663 47.8722L37.0348 46.6756H34.9172L34.4856 47.8722C34.4683 47.9185 34.4338 47.9416 34.3935 47.9416H34.1173C34.0713 47.9416 34.054 47.9185 34.0655 47.8722L35.7688 43.1319ZM36.8967 46.2709L35.9875 43.7215H35.9645L35.0495 46.2709H36.8967Z" fill="#88774F"/>
<path d="M38.8704 43.1319C38.8704 43.0856 38.8934 43.0625 38.9452 43.0625H39.2157C39.2617 43.0625 39.2905 43.0856 39.2905 43.1319V45.9472L41.6037 43.1261C41.644 43.0856 41.6843 43.0625 41.7246 43.0625H42.0583C42.0813 43.0625 42.0986 43.0683 42.1043 43.0856C42.1101 43.103 42.1043 43.1203 42.0871 43.1377L40.5507 44.9818L42.2079 47.8607C42.2194 47.8838 42.2252 47.9011 42.2194 47.9185C42.2137 47.93 42.1964 47.9416 42.1734 47.9416H41.8511C41.8109 47.9416 41.7706 47.9185 41.7418 47.878L40.2745 45.3171L39.279 46.5079V47.8722C39.279 47.9185 39.2559 47.9416 39.2041 47.9416H38.9337C38.8877 47.9416 38.8589 47.9185 38.8589 47.8722V43.1319H38.8704Z" fill="#88774F"/>
<path d="M43.2265 43.1319C43.2265 43.0856 43.2495 43.0625 43.3013 43.0625H43.5717C43.6178 43.0625 43.6465 43.0856 43.6465 43.1319V45.9472L45.9598 43.1261C46.0001 43.0856 46.0404 43.0625 46.0806 43.0625H46.4144C46.4374 43.0625 46.4547 43.0683 46.4604 43.0856C46.4662 43.103 46.4604 43.1203 46.4432 43.1377L44.9067 44.9818L46.564 47.8607C46.5755 47.8838 46.5813 47.9011 46.5755 47.9185C46.5698 47.93 46.5525 47.9416 46.5295 47.9416H46.2072C46.1669 47.9416 46.1267 47.9185 46.0979 47.878L44.6305 45.3171L43.635 46.5079V47.8722C43.635 47.9185 43.612 47.9416 43.5602 47.9416H43.2898C43.2437 47.9416 43.215 47.9185 43.215 47.8722V43.1319H43.2265Z" fill="#88774F"/>
<path d="M49.0672 43.1319C49.0787 43.0856 49.1074 43.0625 49.1535 43.0625H49.4124C49.4527 43.0625 49.4815 43.0856 49.4987 43.1319L51.1848 47.8722C51.1963 47.9185 51.1848 47.9416 51.133 47.9416H50.8568C50.805 47.9416 50.7704 47.9185 50.7647 47.8722L50.3331 46.6756H48.2155L47.7839 47.8722C47.7667 47.9185 47.7321 47.9416 47.6919 47.9416H47.4157C47.3696 47.9416 47.3524 47.9185 47.3639 47.8722L49.0672 43.1319ZM50.195 46.2709L49.2858 43.7215H49.2628L48.3479 46.2709H50.195Z" fill="#88774F"/>
<path d="M52.1745 43.1319C52.1745 43.0856 52.1975 43.0625 52.2493 43.0625H52.5197C52.5658 43.0625 52.5945 43.0856 52.5945 43.1319V45.2303C52.5945 45.2593 52.606 45.2708 52.6348 45.2708H55.0286C55.0574 45.2708 55.0689 45.2593 55.0689 45.2303V43.1319C55.0689 43.0856 55.0919 43.0625 55.1437 43.0625H55.4142C55.4602 43.0625 55.489 43.0856 55.489 43.1319V47.8722C55.489 47.9185 55.4659 47.9416 55.4142 47.9416H55.138C55.0919 47.9416 55.0631 47.9185 55.0631 47.8722V45.7044C55.0631 45.6755 55.0516 45.6639 55.0229 45.6639H52.6291C52.6003 45.6639 52.5888 45.6755 52.5888 45.7044V47.8722C52.5888 47.9185 52.5658 47.9416 52.514 47.9416H52.2435C52.1975 47.9416 52.1687 47.9185 52.1687 47.8722V43.1319H52.1745Z" fill="#88774F"/>
<path d="M58.7402 46.9241C58.7229 46.8605 58.7057 46.7912 58.6884 46.7218C58.6711 46.6466 58.6596 46.5541 58.6481 46.4443C58.6366 46.3345 58.6309 46.2015 58.6251 46.0512C58.6193 45.9009 58.6136 45.7159 58.6136 45.502C58.6136 45.2881 58.6193 45.1031 58.6251 44.9528C58.6309 44.8025 58.6424 44.6696 58.6481 44.5597C58.6596 44.4499 58.6711 44.3574 58.6884 44.2822C58.7057 44.2071 58.7229 44.1377 58.7402 44.0799C58.8668 43.7099 59.0567 43.4382 59.3099 43.259C59.5688 43.0798 59.8911 42.9873 60.2766 42.9873C60.6104 42.9873 60.9038 43.0625 61.157 43.2128C61.4102 43.3631 61.6059 43.5885 61.744 43.8891C61.7612 43.9296 61.7555 43.9643 61.7209 43.9816L61.485 44.0972C61.4447 44.1204 61.416 44.1088 61.3929 44.0683C61.2836 43.8602 61.1397 43.6868 60.9614 43.5596C60.783 43.4324 60.5528 43.3688 60.2766 43.3688C59.9774 43.3688 59.7357 43.4382 59.5515 43.5712C59.3674 43.7099 59.2293 43.9123 59.1315 44.1782C59.12 44.2244 59.1027 44.2822 59.0912 44.3516C59.0797 44.421 59.0624 44.5019 59.0567 44.6002C59.0452 44.6985 59.0394 44.8199 59.0337 44.9644C59.0279 45.1089 59.0279 45.2823 59.0279 45.4904C59.0279 45.6986 59.0279 45.872 59.0337 46.0165C59.0394 46.161 59.0452 46.2824 59.0567 46.3807C59.0682 46.479 59.0797 46.5657 59.0912 46.6293C59.1027 46.6987 59.12 46.7565 59.1315 46.8027C59.2293 47.0686 59.3674 47.271 59.5515 47.4097C59.7357 47.5485 59.9774 47.612 60.2766 47.612C60.5528 47.612 60.783 47.5485 60.9614 47.4213C61.1397 47.2941 61.2836 47.1264 61.3929 46.9126C61.416 46.8721 61.4447 46.8605 61.485 46.8836L61.7209 46.9993C61.7555 47.0166 61.7612 47.0513 61.744 47.0918C61.6059 47.3924 61.4102 47.6178 61.157 47.7681C60.9038 47.9184 60.6104 47.9936 60.2766 47.9936C59.8911 47.9936 59.5688 47.9011 59.3099 47.7219C59.0567 47.5658 58.8668 47.2941 58.7402 46.9241Z" fill="#88774F"/>
<path d="M62.8143 43.1319C62.8143 43.0856 62.8373 43.0625 62.8891 43.0625H63.1595C63.2056 43.0625 63.2343 43.0856 63.2343 43.1319V47.8722C63.2343 47.9185 63.2113 47.9416 63.1595 47.9416H62.8891C62.843 47.9416 62.8143 47.9185 62.8143 47.8722V43.1319Z" fill="#88774F"/>
<path d="M65.772 47.9417C65.726 47.9417 65.6972 47.9186 65.6972 47.8723V43.4904C65.6972 43.4615 65.6857 43.4499 65.6569 43.4499H64.2586C64.2126 43.4499 64.1896 43.4268 64.1896 43.3805V43.1377C64.1896 43.0915 64.2126 43.0684 64.2586 43.0684H67.5616C67.6077 43.0684 67.6307 43.0915 67.6307 43.1377V43.3805C67.6307 43.4268 67.6077 43.4499 67.5616 43.4499H66.1633C66.1345 43.4499 66.123 43.4615 66.123 43.4904V47.8723C66.123 47.9186 66.1 47.9417 66.0482 47.9417H65.772Z" fill="#88774F"/>
<path d="M69.8749 47.9417C69.8289 47.9417 69.8001 47.9186 69.8001 47.8723V45.9415L68.3442 43.1435C68.3327 43.1262 68.3385 43.1088 68.35 43.0915C68.3615 43.0741 68.3787 43.0684 68.4018 43.0684H68.678C68.724 43.0684 68.7585 43.0915 68.7873 43.1377L70.013 45.4732H70.036L71.2387 43.1377C71.2617 43.0915 71.2962 43.0684 71.348 43.0684H71.6185C71.6472 43.0684 71.6645 43.0741 71.676 43.0915C71.6875 43.1088 71.6875 43.1262 71.676 43.1435L70.2201 45.9415V47.8723C70.2201 47.9186 70.1971 47.9417 70.1453 47.9417H69.8749Z" fill="#88774F"/>
<path d="M75.7731 43.1319C75.7846 43.0856 75.8134 43.0625 75.8594 43.0625H76.1183C76.1586 43.0625 76.1874 43.0856 76.2047 43.1319L77.8907 47.8722C77.9022 47.9185 77.8907 47.9416 77.8389 47.9416H77.5627C77.5109 47.9416 77.4764 47.9185 77.4706 47.8722L77.039 46.6756H74.9214L74.4899 47.8722C74.4726 47.9185 74.4381 47.9416 74.3978 47.9416H74.1216C74.0756 47.9416 74.0583 47.9185 74.0698 47.8722L75.7731 43.1319ZM76.9009 46.2709L75.9918 43.7215H75.9687L75.0538 46.2709H76.9009Z" fill="#88774F"/>
<path d="M78.8804 43.1319C78.8804 43.0856 78.9035 43.0625 78.9552 43.0625H79.2257C79.2832 43.0625 79.3235 43.0856 79.3465 43.1319L81.7634 47.1438H81.7864V43.1319C81.7864 43.0856 81.8094 43.0625 81.8612 43.0625H82.1316C82.1777 43.0625 82.2064 43.0856 82.2064 43.1319V47.8722C82.2064 47.9185 82.1834 47.9416 82.1374 47.9416H81.8612C81.8094 47.9416 81.7691 47.9185 81.7403 47.8722L79.3408 43.8487H79.312V47.8722C79.312 47.9185 79.289 47.9416 79.2372 47.9416H78.9668C78.9207 47.9416 78.8919 47.9185 78.8919 47.8722V43.1319H78.8804Z" fill="#88774F"/>
<path d="M83.5184 43.1319C83.5184 43.0856 83.5415 43.0625 83.5875 43.0625H85.1124C85.9295 43.0625 86.4474 43.392 86.6661 44.051C86.6891 44.1204 86.7121 44.1956 86.7294 44.2707C86.7466 44.3459 86.7581 44.4384 86.7696 44.5482C86.7812 44.658 86.7927 44.7852 86.7927 44.9413C86.7984 45.0974 86.7984 45.2824 86.7984 45.5021C86.7984 45.7275 86.7984 45.9125 86.7927 46.0686C86.7869 46.2189 86.7812 46.3461 86.7696 46.4559C86.7581 46.5657 86.7409 46.6582 86.7294 46.7334C86.7121 46.8085 86.6948 46.8837 86.6661 46.9588C86.4532 47.6179 85.9353 47.9474 85.1124 47.9474H83.5875C83.5415 47.9474 83.5184 47.9243 83.5184 47.878V43.1319ZM83.9327 47.5138C83.9327 47.5427 83.9443 47.5543 83.973 47.5543H85.0548C85.3713 47.5543 85.6245 47.4965 85.8317 47.3808C86.0331 47.2652 86.1827 47.0745 86.269 46.8143C86.2863 46.7565 86.3035 46.6929 86.3208 46.6293C86.3323 46.56 86.3496 46.479 86.3553 46.3808C86.3668 46.2825 86.3726 46.1611 86.3783 46.0223C86.3841 45.8836 86.3841 45.7102 86.3841 45.5021C86.3841 45.2939 86.3841 45.1205 86.3783 44.9818C86.3726 44.843 86.3668 44.7216 86.3553 44.6234C86.3438 44.5251 86.3323 44.4441 86.3208 44.3748C86.3093 44.3054 86.292 44.2476 86.269 44.1898C86.1827 43.9296 86.0388 43.7447 85.8317 43.629C85.6303 43.5134 85.3713 43.4556 85.0548 43.4556H83.973C83.9443 43.4556 83.9327 43.4672 83.9327 43.4961V47.5138Z" fill="#88774F"/>
<path d="M89.9518 43.1319C89.9518 43.0856 89.9749 43.0625 90.0266 43.0625H90.2971C90.3431 43.0625 90.3719 43.0856 90.3719 43.1319V45.2303C90.3719 45.2593 90.3834 45.2708 90.4122 45.2708H92.806C92.8348 45.2708 92.8463 45.2593 92.8463 45.2303V43.1319C92.8463 43.0856 92.8693 43.0625 92.9211 43.0625H93.1915C93.2376 43.0625 93.2663 43.0856 93.2663 43.1319V47.8722C93.2663 47.9185 93.2433 47.9416 93.1915 47.9416H92.9211C92.8751 47.9416 92.8463 47.9185 92.8463 47.8722V45.7044C92.8463 45.6755 92.8348 45.6639 92.806 45.6639H90.4122C90.3834 45.6639 90.3719 45.6755 90.3719 45.7044V47.8722C90.3719 47.9185 90.3489 47.9416 90.2971 47.9416H90.0266C89.9806 47.9416 89.9518 47.9185 89.9518 47.8722V43.1319Z" fill="#88774F"/>
<path d="M96.1435 48.0169C95.7407 48.0169 95.4127 47.9244 95.148 47.7394C94.8833 47.5544 94.6934 47.2827 94.5726 46.9185C94.5496 46.8549 94.5265 46.7855 94.5093 46.7046C94.492 46.6237 94.4805 46.5312 94.469 46.4271C94.4575 46.3173 94.446 46.1901 94.4402 46.0456C94.4345 45.8953 94.4287 45.7161 94.4287 45.5079C94.4287 45.2998 94.4345 45.1206 94.4402 44.9703C94.446 44.82 94.4575 44.6928 94.469 44.5888C94.4805 44.4789 94.4978 44.3864 94.5093 44.3113C94.5265 44.2361 94.5438 44.161 94.5726 44.0974C94.6934 43.739 94.8833 43.4673 95.148 43.2765C95.4127 43.0857 95.7465 42.999 96.1435 42.999C96.5406 42.999 96.8686 43.0915 97.1333 43.2765C97.398 43.4615 97.5879 43.7332 97.7087 44.0974C97.726 44.1668 97.749 44.2361 97.7662 44.3113C97.7835 44.3864 97.8008 44.4789 97.8123 44.5888C97.8238 44.6986 97.8353 44.8258 97.841 44.9703C97.8468 45.1206 97.8526 45.2998 97.8526 45.5079C97.8526 45.7161 97.8468 45.901 97.841 46.0456C97.8353 46.1959 97.8238 46.3231 97.8123 46.4271C97.8008 46.5369 97.7835 46.6294 97.7662 46.7046C97.749 46.7855 97.726 46.8549 97.7087 46.9185C97.5879 47.2769 97.398 47.5486 97.1333 47.7394C96.8686 47.9244 96.5406 48.0169 96.1435 48.0169ZM97.4382 45.5022C97.4382 45.3056 97.4325 45.138 97.4267 44.9934C97.421 44.8489 97.4095 44.7275 97.4037 44.6292C97.3922 44.531 97.3807 44.4443 97.3634 44.3807C97.3462 44.3113 97.3289 44.2535 97.3174 44.2072C97.139 43.6581 96.7477 43.3806 96.1435 43.3806C95.5393 43.3806 95.148 43.6581 94.9639 44.2072C94.9524 44.2535 94.9351 44.3113 94.9178 44.3807C94.9006 44.45 94.8891 44.531 94.8775 44.6292C94.866 44.7275 94.8603 44.8489 94.8545 44.9934C94.8488 45.138 94.843 45.3056 94.843 45.5022C94.843 45.6987 94.8488 45.8664 94.8545 46.0109C94.8603 46.1554 94.8718 46.2768 94.8775 46.3751C94.8891 46.4734 94.9006 46.5601 94.9178 46.6237C94.9351 46.693 94.9524 46.7508 94.9639 46.7971C95.1422 47.3463 95.5393 47.6238 96.1435 47.6238C96.742 47.6238 97.1333 47.3463 97.3174 46.7971C97.3289 46.7508 97.3462 46.693 97.3634 46.6237C97.3807 46.5543 97.3922 46.4734 97.4037 46.3751C97.4152 46.2768 97.421 46.1554 97.4267 46.0109C97.4325 45.8664 97.4382 45.6987 97.4382 45.5022Z" fill="#88774F"/>
<path d="M99.0264 43.1319C99.0264 43.0856 99.0494 43.0625 99.1012 43.0625H99.3717C99.4177 43.0625 99.4465 43.0856 99.4465 43.1319V47.5138C99.4465 47.5427 99.458 47.5543 99.4868 47.5543H101.886C101.932 47.5543 101.955 47.5774 101.955 47.6236V47.8664C101.955 47.9127 101.932 47.9358 101.886 47.9358H99.1012C99.0552 47.9358 99.0264 47.9127 99.0264 47.8664V43.1319Z" fill="#88774F"/>
<path d="M103.469 47.9417C103.423 47.9417 103.394 47.9186 103.394 47.8723V45.9415L101.938 43.1435C101.927 43.1262 101.932 43.1088 101.944 43.0915C101.955 43.0741 101.973 43.0684 101.996 43.0684H102.272C102.318 43.0684 102.352 43.0915 102.381 43.1377L103.607 45.4732H103.63L104.833 43.1377C104.856 43.0915 104.89 43.0684 104.942 43.0684H105.212C105.241 43.0684 105.258 43.0741 105.27 43.0915C105.281 43.1088 105.281 43.1262 105.27 43.1435L103.814 45.9415V47.8723C103.814 47.9186 103.791 47.9417 103.739 47.9417H103.469Z" fill="#88774F"/>
<path d="M109.517 48.0169C109.361 48.0169 109.2 47.9995 109.045 47.9706C108.889 47.9417 108.74 47.8955 108.596 47.8434C108.458 47.7914 108.325 47.7278 108.21 47.6585C108.095 47.5891 107.992 47.5197 107.905 47.4446C107.865 47.4099 107.865 47.3752 107.9 47.3463L108.072 47.1324C108.107 47.0919 108.141 47.0919 108.17 47.1266C108.331 47.2538 108.533 47.3636 108.774 47.4735C109.016 47.5775 109.281 47.6295 109.563 47.6295C109.954 47.6295 110.259 47.537 110.483 47.3578C110.708 47.1786 110.817 46.9358 110.817 46.6352C110.817 46.5138 110.8 46.404 110.76 46.2999C110.719 46.1959 110.656 46.1034 110.57 46.0224C110.483 45.9415 110.363 45.8721 110.213 45.8143C110.063 45.7565 109.873 45.7161 109.655 45.6872L109.436 45.6583C108.958 45.5947 108.607 45.4559 108.377 45.2362C108.147 45.0166 108.032 44.7275 108.032 44.3691C108.032 43.9413 108.17 43.606 108.446 43.3632C108.723 43.1204 109.097 42.999 109.563 42.999C109.833 42.999 110.092 43.0337 110.334 43.1089C110.575 43.184 110.783 43.2823 110.949 43.4095C110.99 43.4326 110.996 43.4673 110.961 43.5077L110.817 43.7274C110.788 43.7621 110.754 43.7679 110.719 43.739C110.524 43.6176 110.334 43.5309 110.144 43.4673C109.954 43.4095 109.753 43.3748 109.545 43.3748C109.2 43.3748 108.93 43.4615 108.734 43.6349C108.544 43.8084 108.446 44.0396 108.446 44.3286C108.446 44.5772 108.533 44.7795 108.705 44.9414C108.878 45.0975 109.171 45.2073 109.586 45.2594L109.804 45.2883C110.299 45.3576 110.662 45.5022 110.886 45.7218C111.111 45.9473 111.226 46.2363 111.226 46.6005C111.226 46.8087 111.191 46.9936 111.116 47.1671C111.042 47.3405 110.932 47.4908 110.788 47.618C110.644 47.7452 110.466 47.8434 110.253 47.9128C110.04 47.9822 109.799 48.0169 109.517 48.0169Z" fill="#88774F"/>
<path d="M112.342 43.1319C112.342 43.0856 112.365 43.0625 112.417 43.0625H112.687C112.733 43.0625 112.762 43.0856 112.762 43.1319V47.8722C112.762 47.9185 112.739 47.9416 112.687 47.9416H112.417C112.371 47.9416 112.342 47.9185 112.342 47.8722V43.1319Z" fill="#88774F"/>
<path d="M115.3 47.9417C115.254 47.9417 115.225 47.9186 115.225 47.8723V43.4904C115.225 43.4615 115.213 43.4499 115.185 43.4499H113.786C113.74 43.4499 113.717 43.4268 113.717 43.3805V43.1377C113.717 43.0915 113.74 43.0684 113.786 43.0684H117.089C117.135 43.0684 117.158 43.0915 117.158 43.1377V43.3805C117.158 43.4268 117.135 43.4499 117.089 43.4499H115.691C115.662 43.4499 115.651 43.4615 115.651 43.4904V47.8723C115.651 47.9186 115.628 47.9417 115.576 47.9417H115.3Z" fill="#88774F"/>
<path d="M118.108 43.1319C118.108 43.0856 118.131 43.0625 118.183 43.0625H120.968C121.014 43.0625 121.037 43.0856 121.037 43.1319V43.3747C121.037 43.4209 121.014 43.444 120.968 43.444H118.568C118.539 43.444 118.528 43.4556 118.528 43.4845V45.2246C118.528 45.2535 118.539 45.265 118.568 45.265H120.634C120.68 45.265 120.703 45.2882 120.703 45.3344V45.5772C120.703 45.6234 120.68 45.6466 120.634 45.6466H118.568C118.539 45.6466 118.528 45.6581 118.528 45.687V47.4965C118.528 47.5254 118.539 47.5369 118.568 47.5369H120.968C121.014 47.5369 121.037 47.5601 121.037 47.6063V47.8491C121.037 47.8954 121.014 47.9185 120.968 47.9185H118.183C118.137 47.9185 118.108 47.8954 118.108 47.8491V43.1319Z" fill="#88774F"/>
<path d="M123.615 48.0169C123.459 48.0169 123.298 47.9995 123.143 47.9706C122.988 47.9417 122.838 47.8955 122.694 47.8434C122.556 47.7914 122.424 47.7278 122.309 47.6585C122.193 47.5891 122.09 47.5197 122.004 47.4446C121.963 47.4099 121.963 47.3752 121.998 47.3463L122.17 47.1324C122.205 47.0919 122.239 47.0919 122.268 47.1266C122.429 47.2538 122.631 47.3636 122.872 47.4735C123.114 47.5775 123.379 47.6295 123.661 47.6295C124.052 47.6295 124.357 47.537 124.582 47.3578C124.806 47.1786 124.915 46.9358 124.915 46.6352C124.915 46.5138 124.898 46.404 124.858 46.2999C124.817 46.1959 124.754 46.1034 124.668 46.0224C124.582 45.9415 124.461 45.8721 124.311 45.8143C124.161 45.7565 123.972 45.7161 123.753 45.6872L123.534 45.6583C123.057 45.5947 122.706 45.4559 122.475 45.2362C122.245 45.0166 122.13 44.7275 122.13 44.3691C122.13 43.9413 122.268 43.606 122.544 43.3632C122.821 43.1204 123.195 42.999 123.661 42.999C123.931 42.999 124.19 43.0337 124.432 43.1089C124.674 43.184 124.881 43.2823 125.048 43.4095C125.088 43.4326 125.094 43.4673 125.059 43.5077L124.915 43.7274C124.886 43.7621 124.852 43.7679 124.817 43.739C124.622 43.6176 124.432 43.5309 124.242 43.4673C124.052 43.4095 123.851 43.3748 123.644 43.3748C123.298 43.3748 123.028 43.4615 122.832 43.6349C122.642 43.8084 122.544 44.0396 122.544 44.3286C122.544 44.5772 122.631 44.7795 122.803 44.9414C122.976 45.0975 123.27 45.2073 123.684 45.2594L123.903 45.2883C124.397 45.3576 124.76 45.5022 124.984 45.7218C125.209 45.9473 125.324 46.2363 125.324 46.6005C125.324 46.8087 125.289 46.9936 125.214 47.1671C125.14 47.3405 125.03 47.4908 124.886 47.618C124.743 47.7452 124.564 47.8434 124.351 47.9128C124.144 47.9822 123.897 48.0169 123.615 48.0169Z" fill="#88774F"/>
<path d="M13.2808 10.6196C12.924 10.6196 12.6306 10.9202 12.6306 11.2729C12.6306 11.6255 12.9125 11.9261 13.2808 11.9261C13.6376 11.9261 13.9311 11.6255 13.9311 11.2729C13.9311 10.9145 13.6318 10.6196 13.2808 10.6196ZM11.6811 10.6196C11.3243 10.6196 11.0366 10.9202 11.0366 11.2729C11.0366 11.6255 11.3013 11.9261 11.6811 11.9261C12.0494 11.9261 12.3314 11.6313 12.3314 11.2729C12.3314 10.9029 12.0436 10.6196 11.6811 10.6196Z" fill="#00080C"/>
<path d="M25.6009 12.4755C23.8688 12.4755 23.0057 13.6374 23.0057 14.9092C23.0057 15.6203 23.1956 16.0654 23.5581 16.3429C23.5121 16.3313 23.3107 16.2735 23.0057 16.2735H21.7915C21.6937 14.3485 20.842 13.3484 19.5818 12.7761L22.0159 11.2962V9.98389L18.0627 12.4755V13.4467C19.6509 13.8166 20.4507 14.7185 20.5025 16.2735H14.6964V12.8223C14.6964 12.8223 13.7872 12.4755 12.6018 12.4755C10.7719 12.4755 9.96631 13.6779 9.96631 14.9902C9.96631 16.4181 10.6971 17.3199 12.6306 17.3199H27.8566V14.7821C27.8566 13.3773 27.1603 12.4755 25.6009 12.4755ZM13.4189 16.2793H12.7802C11.7329 16.2793 11.2841 15.7879 11.2841 14.8745C11.2841 14.0941 11.7214 13.5218 12.4695 13.5218C13.0391 13.5218 13.4189 13.701 13.4189 13.701V16.2793ZM26.5676 16.2793H25.8081C24.7723 16.2793 24.3119 15.8168 24.3119 14.8745C24.3119 14.0941 24.7492 13.5218 25.4973 13.5218C26.1648 13.5218 26.5676 13.9438 26.5676 14.9497V16.2793Z" fill="#00080C"/>
<path d="M34.4971 10.6196C34.1403 10.6196 33.8468 10.9202 33.8468 11.2729C33.8468 11.6255 34.1231 11.9261 34.4971 11.9261C34.8539 11.9261 35.1473 11.6255 35.1473 11.2729C35.1416 10.9145 34.8481 10.6196 34.4971 10.6196ZM32.8974 10.6196C32.5406 10.6196 32.2471 10.9202 32.2471 11.2729C32.2471 11.6255 32.5176 11.9261 32.8974 11.9261C33.2657 11.9261 33.5476 11.6313 33.5476 11.2729C33.5476 10.9029 33.2541 10.6196 32.8974 10.6196Z" fill="#00080C"/>
<path d="M40.9823 10.6138C40.614 10.6138 40.2975 10.9317 40.2975 11.3017C40.2975 11.6717 40.6025 11.9954 40.9823 11.9954C41.3505 11.9954 41.6728 11.689 41.6728 11.3017C41.6728 10.9202 41.3505 10.6138 40.9823 10.6138Z" fill="#00080C"/>
<path d="M45.1254 18.0542C44.7686 18.0542 44.4751 18.3432 44.4751 18.7017C44.4751 19.0543 44.7513 19.3549 45.1254 19.3549C45.4822 19.3549 45.7756 19.0543 45.7756 18.7017C45.7756 18.3432 45.4764 18.0542 45.1254 18.0542ZM43.5257 18.0542C43.1689 18.0542 42.8754 18.3432 42.8754 18.7017C42.8754 19.0543 43.1574 19.3549 43.5257 19.3549C43.8824 19.3549 44.1759 19.0543 44.1759 18.7017C44.1759 18.3432 43.8767 18.0542 43.5257 18.0542Z" fill="#00080C"/>
<path d="M43.6983 12.6086V16.2795H41.644V12.6086H40.3263V16.2795H35.9127V12.8283C35.9127 12.8283 35.0035 12.4814 33.8181 12.4814C31.9882 12.4814 31.1826 13.6839 31.1826 14.9961C31.1826 16.424 31.9134 17.3259 33.8469 17.3259H45.0218V12.6086H43.6983ZM34.6352 16.2795H33.9965C32.9492 16.2795 32.5004 15.7881 32.5004 14.8747C32.5004 14.0943 32.9377 13.522 33.6858 13.522C34.2554 13.522 34.6352 13.7012 34.6352 13.7012V16.2795Z" fill="#00080C"/>
<path d="M58.6596 10.25V16.2795H56.8355V14.788C56.8355 13.3833 56.1392 12.4814 54.5798 12.4814C52.8477 12.4814 51.9846 13.6434 51.9846 14.9152C51.9846 15.95 51.599 16.2795 50.9948 16.2795H50.5172C50.3964 14.0423 49.2512 12.9092 47.1912 12.3658L46.8747 13.47C48.4514 13.8689 49.1707 14.7938 49.2282 16.2737H46.2762V17.3201H51.1387C51.9788 17.3201 52.3759 17.0079 52.56 16.5454C52.911 17.0079 53.3599 17.3201 54.7927 17.3201H59.9831V10.25H58.6596ZM55.5523 16.2795H54.7927C53.7569 16.2795 53.2966 15.817 53.2966 14.8747C53.2966 14.0943 53.7339 13.522 54.482 13.522C55.1495 13.522 55.5523 13.944 55.5523 14.9499V16.2795Z" fill="#00080C"/>
<path d="M66.7791 10.6196C66.4223 10.6196 66.1346 10.9202 66.1346 11.2729C66.1346 11.6255 66.4108 11.9261 66.7791 11.9261C67.1416 11.9261 67.4293 11.6255 67.4293 11.2729C67.4293 10.9145 67.1301 10.6196 66.7791 10.6196ZM65.1793 10.6196C64.8226 10.6196 64.5349 10.9202 64.5349 11.2729C64.5349 11.6255 64.7996 11.9261 65.1793 11.9261C65.5476 11.9261 65.8296 11.6313 65.8296 11.2729C65.8296 10.9029 65.5419 10.6196 65.1793 10.6196Z" fill="#00080C"/>
<path d="M72.2226 18.0542C71.8601 18.0542 71.5724 18.3432 71.5724 18.7017C71.5724 19.0543 71.8486 19.3549 72.2226 19.3549C72.5794 19.3549 72.8671 19.0543 72.8671 18.7017C72.8671 18.3432 72.5679 18.0542 72.2226 18.0542ZM73.8223 18.0542C73.4598 18.0542 73.1721 18.3432 73.1721 18.7017C73.1721 19.0543 73.4483 19.3549 73.8223 19.3549C74.1791 19.3549 74.4668 19.0543 74.4668 18.7017C74.4668 18.3432 74.1676 18.0542 73.8223 18.0542Z" fill="#00080C"/>
<path d="M90.2222 10.2499V16.2794H88.3924V14.7879C88.3924 13.3831 87.6961 12.4813 86.1367 12.4813C84.4103 12.4813 83.5414 13.6433 83.5414 14.9151C83.5414 15.9499 83.1501 16.2794 82.5517 16.2794H81.6022V10.2499H80.2845V16.2794H78.656C78.5582 14.3543 77.7065 13.3542 76.4463 12.7819L78.8804 11.302V9.98975L74.9272 12.4813V13.4525C76.5154 13.8225 77.3152 14.7243 77.367 16.2794H73.6785V12.6085H72.3607V16.2794H68.1888V12.8282C68.1888 12.8282 67.2796 12.4813 66.0942 12.4813C64.2643 12.4813 63.4587 13.6838 63.4587 14.996C63.4587 16.4239 64.1895 17.3257 66.1288 17.3257H82.6898C83.5242 17.3257 83.927 17.0136 84.1111 16.5511C84.4564 17.0136 84.9052 17.3257 86.3438 17.3257H91.5342V10.2499H90.2222ZM66.9171 16.2794H66.2784C65.2311 16.2794 64.7822 15.788 64.7822 14.8746C64.7822 14.0942 65.2196 13.5219 65.9676 13.5219C66.5373 13.5219 66.9171 13.7011 66.9171 13.7011V16.2794ZM87.1034 16.2794H86.3438C85.3023 16.2794 84.8477 15.8169 84.8477 14.8746C84.8477 14.0942 85.285 13.5219 86.0331 13.5219C86.7006 13.5219 87.1034 13.9439 87.1034 14.9498V16.2794Z" fill="#00080C"/>
<path d="M93.134 10.25H94.4517V17.3201H93.134V10.25Z" fill="#00080C"/>
<path d="M101.265 10.6196C100.908 10.6196 100.615 10.9202 100.615 11.2729C100.615 11.6255 100.891 11.9261 101.265 11.9261C101.622 11.9261 101.915 11.6255 101.915 11.2729C101.909 10.9145 101.61 10.6196 101.265 10.6196ZM99.6652 10.6196C99.3084 10.6196 99.015 10.9202 99.015 11.2729C99.015 11.6255 99.2854 11.9261 99.6652 11.9261C100.033 11.9261 100.315 11.6313 100.315 11.2729C100.315 10.9029 100.022 10.6196 99.6652 10.6196Z" fill="#00080C"/>
<path d="M108.038 11.412C107.48 11.412 107.318 11.2733 107.318 11.042C107.318 10.8513 107.468 10.701 107.808 10.701C108.067 10.701 108.297 10.753 108.348 10.7588L108.475 10.0593C108.406 10.0477 108.159 10.0015 107.888 10.0015C106.841 10.0015 106.421 10.5391 106.421 11.0363C106.421 11.2155 106.519 11.3947 106.674 11.4756C106.536 11.4409 106.294 11.4178 106.07 11.4178V12.1404H108.648V11.4178H108.038V11.412Z" fill="#00080C"/>
<path d="M111.675 18.0542C111.318 18.0542 111.024 18.3432 111.024 18.7017C111.024 19.0543 111.3 19.3549 111.675 19.3549C112.031 19.3549 112.325 19.0543 112.325 18.7017C112.325 18.3432 112.026 18.0542 111.675 18.0542ZM110.075 18.0542C109.718 18.0542 109.425 18.3432 109.425 18.7017C109.425 19.0543 109.701 19.3549 110.075 19.3549C110.432 19.3549 110.725 19.0543 110.725 18.7017C110.725 18.3432 110.426 18.0542 110.075 18.0542Z" fill="#00080C"/>
<path d="M121.112 10.25V16.2795H119.512V16.2506C119.512 13.3197 118.091 12.1288 115.599 12.1288C114.799 12.1288 113.89 12.2907 113.171 12.5219L113.297 13.5567C113.924 13.3428 114.747 13.1636 115.432 13.1636C117.406 13.1636 118.252 14.0828 118.252 16.1639V16.2853H117.25V16.054C117.25 14.921 116.75 13.9382 115.415 13.9382C114.206 13.9382 113.499 14.6493 113.499 15.6263C113.499 16.0483 113.7 16.2853 113.74 16.3373C113.7 16.3315 113.527 16.2911 113.291 16.2911H111.542V12.6202H110.224V16.2911H108.164V12.6202H106.847V16.2911H102.675V12.8399C102.675 12.8399 101.765 12.493 100.574 12.493C98.7502 12.493 97.9388 13.6954 97.9388 15.0077C97.9388 16.4356 98.6696 17.3374 100.603 17.3374H122.418V10.25H121.112ZM101.403 16.2795H100.764C99.7112 16.2795 99.2681 15.7881 99.2681 14.8747C99.2681 14.0943 99.7054 13.522 100.454 13.522C101.023 13.522 101.403 13.7012 101.403 13.7012V16.2795ZM116.174 16.32H115.518C115.006 16.32 114.569 16.0945 114.569 15.528C114.569 15.106 114.862 14.8458 115.317 14.8458C115.904 14.8458 116.18 15.2563 116.18 16.0309V16.32H116.174Z" fill="#00080C"/>
<path d="M124.023 10.25H125.341V17.3201H124.023V10.25Z" fill="#00080C"/>
<path d="M13.2693 21.6323C12.9125 21.6323 12.619 21.9329 12.619 22.2798C12.619 22.6324 12.901 22.933 13.2693 22.933C13.6261 22.933 13.9195 22.6324 13.9195 22.2798C13.9195 21.9214 13.6203 21.6323 13.2693 21.6323ZM11.6696 21.6323C11.3128 21.6323 11.0251 21.9329 11.0251 22.2798C11.0251 22.6324 11.2898 22.933 11.6696 22.933C12.0379 22.933 12.3198 22.644 12.3198 22.2798C12.3198 21.9156 12.0321 21.6323 11.6696 21.6323Z" fill="#00080C"/>
<path d="M23.42 23.2163L22.131 23.3955C22.3036 24.1586 22.4245 25.0835 22.4245 26.0836C22.4245 26.3958 22.4072 26.8814 22.3669 27.2861H22.0965C21.1758 27.2861 20.9111 27.1242 20.9111 26.3322V23.8175H19.6451V26.0836C19.6451 27.0548 19.3516 27.367 18.8337 27.367C18.2468 27.367 18.1432 26.9739 18.1432 26.0721V24.2164H16.8255V26.0432C16.8255 27.0259 16.5723 27.2861 15.9278 27.2861H14.6849V23.8349C14.6849 23.8349 13.7757 23.4822 12.5903 23.4822C10.7604 23.4822 9.95477 24.6847 9.95477 26.0027C9.95477 27.4306 10.6856 28.3266 12.619 28.3266H15.9163C16.6471 28.3266 17.0441 28.0838 17.2455 27.6272C17.4067 28.107 17.9361 28.4076 18.5863 28.4076C19.3689 28.4076 19.8925 28.0665 20.0939 27.6329C20.3874 28.1879 20.9168 28.3266 21.9641 28.3266H23.6099C23.7019 27.6156 23.748 26.7195 23.748 25.9912C23.7422 24.9968 23.6099 24.0199 23.42 23.2163ZM13.4074 27.2919H12.7687C11.7214 27.2919 11.2725 26.8005 11.2725 25.8871C11.2725 25.1009 11.7099 24.5344 12.4579 24.5344C13.0276 24.5344 13.4074 24.7136 13.4074 24.7136V27.2919Z" fill="#00080C"/>
<path d="M31.9709 21.6323C31.6142 21.6323 31.3207 21.9329 31.3207 22.2798C31.3207 22.6324 31.5911 22.933 31.9709 22.933C32.3392 22.933 32.6212 22.644 32.6212 22.2798C32.6154 21.9156 32.3277 21.6323 31.9709 21.6323ZM33.5649 21.6323C33.2081 21.6323 32.9146 21.9329 32.9146 22.2798C32.9146 22.6324 33.1908 22.933 33.5649 22.933C33.9216 22.933 34.2151 22.6324 34.2151 22.2798C34.2151 21.9214 33.9159 21.6323 33.5649 21.6323Z" fill="#00080C"/>
<path d="M43.3761 21.2627V27.2922H41.5519V25.7949C41.5519 24.396 40.8557 23.4884 39.2962 23.4884C37.5642 23.4884 36.701 24.6561 36.701 25.9279C36.701 26.9627 36.3155 27.2922 35.7113 27.2922H35.366C35.015 27.2922 34.5949 27.3384 34.5949 27.3384C34.9747 27.0205 35.1704 26.4077 35.1704 25.8238C35.1704 24.2283 34.2612 23.4884 32.8571 23.4884C31.338 23.4884 30.3137 24.5405 30.3137 25.9857C30.3137 26.558 30.4748 27.0263 30.7855 27.3384C30.7855 27.3384 30.4748 27.2922 30.1641 27.2922H29.1571C29.0362 25.055 27.8911 23.9219 25.831 23.3785L25.5145 24.4827C27.0912 24.8816 27.8105 25.8065 27.8681 27.2922H24.9103V28.3328H35.8551C36.6953 28.3328 37.0923 28.0264 37.2764 27.5581C37.6275 28.0206 38.0763 28.3328 39.5091 28.3328H44.6996V21.2627H43.3761ZM32.7363 27.2922C32.0055 27.2922 31.6372 26.8182 31.6372 25.8759C31.6372 24.9336 32.1896 24.5347 32.7593 24.5347C33.5073 24.5347 33.8526 25.0145 33.8526 25.8932C33.8526 26.8239 33.3692 27.2922 32.7363 27.2922ZM40.263 27.2922H39.5034C38.4676 27.2922 38.0073 26.8297 38.0073 25.8874C38.0073 25.1012 38.4446 24.5347 39.1926 24.5347C39.8602 24.5347 40.263 24.9567 40.263 25.9568V27.2922Z" fill="#00080C"/>
<path d="M46.2935 21.2627H47.6113V28.3328H46.2935V21.2627Z" fill="#00080C"/>
<path d="M59.8623 27.2921V28.3327H53.8202V28.3732C53.8202 29.6565 53.3829 30.8821 51.3516 30.8821C51.0466 30.8821 50.7531 30.8416 50.5172 30.7838L50.615 29.7259C50.8567 29.7953 51.1042 29.8473 51.4264 29.8473C52.1054 29.8473 52.5025 29.5236 52.5025 28.4425V23.6212H53.8202V27.2921H56.2543C55.817 27.0262 55.4832 26.4655 55.4832 25.7949C55.4832 24.552 56.3291 23.4883 58.0899 23.4883C58.769 23.4883 59.3271 23.6791 59.3271 23.6791L59.097 24.7312C59.097 24.7312 58.6366 24.5173 58.0612 24.5173C57.3131 24.5173 56.801 25.0202 56.801 25.7891C56.801 26.6389 57.4915 27.2863 59.0739 27.2863H59.8623V27.2921Z" fill="#00080C"/>
<path d="M66.9977 21.6785C66.6409 21.6785 66.3475 21.9791 66.3475 22.3317C66.3475 22.6901 66.6409 22.985 66.9977 22.985C67.3487 22.985 67.648 22.6844 67.648 22.3317C67.648 21.9733 67.3487 21.6785 66.9977 21.6785ZM67.8263 20.3662C67.4696 20.3662 67.1761 20.6668 67.1761 21.0195C67.1761 21.3779 67.4696 21.6727 67.8263 21.6727C68.1831 21.6727 68.4766 21.3663 68.4766 21.0195C68.4766 20.6553 68.1831 20.3662 67.8263 20.3662ZM68.6492 21.6785C68.2982 21.6785 67.999 21.9791 67.999 22.3317C67.999 22.6901 68.2982 22.985 68.6492 22.985C69.006 22.985 69.2937 22.6844 69.2937 22.3317C69.2937 21.9733 69.006 21.6785 68.6492 21.6785Z" fill="#00080C"/>
<path d="M79.8874 21.2627V27.2922H78.0576V25.7949C78.0576 24.396 77.3613 23.4884 75.8018 23.4884C74.0698 23.4884 73.2066 24.6561 73.2066 25.9279C73.2066 26.9627 72.8211 27.2922 72.2169 27.2922H71.3134C71.3422 26.8471 71.3537 26.4019 71.3537 25.9973C71.3537 25.003 71.2214 24.026 71.0315 23.2166L69.7425 23.3959C69.9151 24.1589 70.036 25.0839 70.036 26.084C70.036 26.3962 70.0187 26.8818 69.9784 27.2864H69.708C68.793 27.2864 68.5226 27.1246 68.5226 26.3326V23.8179H67.2566V26.084C67.2566 27.0552 66.9631 27.3674 66.4453 27.3674C65.8583 27.3674 65.7547 26.9742 65.7547 26.0724V24.2167H64.437V26.0435C64.437 27.0263 64.1896 27.2864 63.5393 27.2864H62.3021V21.2627H60.9844V28.3328H63.5278C64.2586 28.3328 64.6557 28.09 64.8571 27.6333C65.0182 28.1131 65.5476 28.4137 66.1978 28.4137C66.9804 28.4137 67.5041 28.0726 67.7055 27.6391C67.9989 28.194 68.5283 28.3328 69.5756 28.3328H72.3722C73.2066 28.3328 73.6094 28.0264 73.7878 27.5581C74.1388 28.0206 74.5877 28.3328 76.0205 28.3328H81.2109V21.2627H79.8874ZM76.7743 27.2922H76.0148C74.979 27.2922 74.5186 26.8297 74.5186 25.8874C74.5186 25.1012 74.9559 24.5347 75.704 24.5347C76.3715 24.5347 76.7743 24.9567 76.7743 25.9568V27.2922Z" fill="#00080C"/>
<path d="M82.7991 21.2627H84.1169V28.3328H82.7991V21.2627Z" fill="#00080C"/>
<path d="M85.5267 30.726L85.6073 29.645C85.6073 29.645 86.3841 29.8126 87.1667 29.8126C88.2025 29.8126 88.893 29.4195 88.893 28.4772V28.3269H88.1047C86.1655 28.3269 85.4404 27.4251 85.4404 26.003C85.4404 24.6907 86.2518 23.4883 88.0759 23.4883C89.2613 23.4883 90.1705 23.8409 90.1705 23.8409V28.3558C90.1705 29.7375 89.2728 30.8647 87.0459 30.8647C86.2978 30.859 85.5267 30.726 85.5267 30.726ZM88.893 24.7081C88.893 24.7081 88.5133 24.5288 87.9436 24.5288C87.1955 24.5288 86.7582 25.1012 86.7582 25.8816C86.7582 26.795 87.207 27.2863 88.2543 27.2863H88.893V24.7081Z" fill="#00080C"/>
<path d="M96.9664 21.6323C96.6096 21.6323 96.3161 21.9329 96.3161 22.2798C96.3161 22.6324 96.5981 22.933 96.9664 22.933C97.3289 22.933 97.6166 22.6324 97.6166 22.2798C97.6166 21.9214 97.3174 21.6323 96.9664 21.6323ZM95.3667 21.6323C95.0099 21.6323 94.7222 21.9329 94.7222 22.2798C94.7222 22.6324 94.9869 22.933 95.3667 22.933C95.7349 22.933 96.0169 22.644 96.0169 22.2798C96.0169 21.9156 95.7292 21.6323 95.3667 21.6323Z" fill="#00080C"/>
<path d="M102.629 23.4883C100.897 23.4883 100.033 24.656 100.033 25.9278C100.033 26.6389 100.223 27.0782 100.586 27.3557C100.54 27.3442 100.338 27.2921 100.033 27.2921H98.3877V23.8409C98.3877 23.8409 97.4785 23.4883 96.2931 23.4883C94.4633 23.4883 93.6577 24.6907 93.6577 26.0088C93.6577 27.4367 94.3885 28.3327 96.3219 28.3327H104.89V25.7949C104.884 24.3901 104.188 23.4883 102.629 23.4883ZM97.1045 27.2921H96.4658C95.4185 27.2921 94.9696 26.8007 94.9696 25.8874C94.9696 25.1012 95.407 24.5346 96.155 24.5346C96.7247 24.5346 97.1045 24.7138 97.1045 24.7138V27.2921ZM103.595 27.2921H102.836C101.8 27.2921 101.34 26.8297 101.34 25.8874C101.34 25.1012 101.777 24.5346 102.525 24.5346C103.193 24.5346 103.595 24.9566 103.595 25.9567V27.2921Z" fill="#00080C"/>
<path d="M121.106 21.2626V27.2921H119.282V25.7948C119.282 24.3958 118.585 23.4882 117.026 23.4882C115.294 23.4882 114.431 24.656 114.431 25.9278C114.431 26.9626 114.045 27.2921 113.441 27.2921H112.923C112.825 25.367 111.974 24.3612 110.714 23.7888L113.153 22.3147V21.0024L109.194 23.4882V24.4594C110.783 24.8294 111.582 25.7312 111.634 27.2921H108.187V23.6212H106.87V28.4425C106.87 29.5235 106.467 29.8473 105.788 29.8473C105.471 29.8473 105.218 29.7952 104.976 29.7259L104.879 30.7838C105.12 30.8416 105.408 30.882 105.713 30.882C107.739 30.882 108.182 29.6565 108.182 28.3731V28.3326H113.573C114.414 28.3326 114.811 28.0263 114.995 27.558C115.346 28.0205 115.795 28.3326 117.227 28.3326H122.418V21.2626H121.106ZM117.993 27.2921H117.233C116.197 27.2921 115.737 26.8296 115.737 25.8873C115.737 25.1011 116.18 24.5346 116.928 24.5346C117.596 24.5346 117.999 24.9566 117.999 25.9567V27.2921H117.993Z" fill="#00080C"/>
<path d="M124.023 21.2627H125.341V28.3328H124.023V21.2627Z" fill="#00080C"/>
<path d="M165.115 41.958H163.124V43.9582H165.115V41.958Z" fill="#00080C"/>
<path d="M165.115 45.9526H163.124V47.9528H165.115V45.9526Z" fill="#00080C"/>
<path d="M147.213 37.958V45.9472H145.222V41.9526H135.279V47.9474H161.133V41.9526H151.19V45.9472H149.199V39.9582H165.109V37.958H147.213ZM143.237 45.953H137.27V43.9586H143.237V45.953ZM153.181 43.9528H159.148V45.9472H153.181V43.9528Z" fill="#00080C"/>
<path d="M169.091 17.979H167.1V19.9792H169.091V17.979Z" fill="#00080C"/>
<path d="M173.073 17.979H171.082V19.9792H173.073V17.979Z" fill="#00080C"/>
<path d="M167.106 21.9736V31.9688H171.082V33.9633H165.115V17.979H163.13V35.9635H171.082V37.9579H167.106V47.9473H173.073V21.9736H167.106ZM171.082 45.9529H169.091V39.9581H171.082V45.9529ZM171.082 29.9686H169.091V23.9738H171.082V29.9686Z" fill="#00080C"/>
<path d="M145.228 13.9844H143.237V15.9846H145.228V13.9844Z" fill="#00080C"/>
<path d="M145.228 9.98975H143.237V11.9899H145.228V9.98975Z" fill="#00080C"/>
<path d="M147.213 9.98975V15.9846H157.157V11.9899H159.148V17.979H143.237V19.9792H161.133V11.9899H163.124V15.9846H173.068V9.98975H147.213ZM155.172 13.9844H149.204V11.9899H155.172V13.9844ZM171.082 13.9844H165.115V11.9899H171.082V13.9844Z" fill="#00080C"/>
<path d="M141.252 37.958H139.261V39.9582H141.252V37.958Z" fill="#00080C"/>
<path d="M137.276 37.958H135.285V39.9582H137.276V37.958Z" fill="#00080C"/>
<path d="M137.27 21.9736V19.9792H141.246V9.98975H135.279V35.9634H141.246V25.974H137.27V23.9796H143.237V39.9638H145.222V21.9736H137.27ZM137.27 11.9899H139.261V17.979H137.27V11.9899ZM139.261 27.9684V33.9632H137.27V27.9684H139.261Z" fill="#00080C"/>
<path d="M156.72 26.61C156.915 27.0263 157.03 27.4887 157.076 27.9223C156.593 27.298 156.012 26.7488 155.385 26.3326C155.436 26.4019 155.488 26.4771 155.534 26.5522C156.046 27.3905 155.96 28.4946 155.661 29.3907C155.477 28.5467 155.154 27.7258 154.74 27.0205C154.642 26.8586 154.544 26.7025 154.435 26.5465L154.585 30.3214C154.585 30.4544 154.429 30.6972 154.17 30.6972C153.911 30.6972 153.756 30.4601 153.756 30.3214L153.906 26.5522C153.796 26.7025 153.693 26.8586 153.601 27.0205C153.186 27.7258 152.864 28.5467 152.68 29.3907C152.387 28.4946 152.295 27.3847 152.807 26.5522C152.853 26.4771 152.904 26.4019 152.956 26.3326C152.335 26.7488 151.748 27.298 151.264 27.9223C151.362 27.0552 151.713 26.0724 152.484 25.581C152.743 25.4192 153.02 25.3093 153.307 25.2515C153.307 25.2342 153.307 25.24 153.307 25.2226C153.14 25.2342 152.979 25.2457 152.812 25.2746C152.093 25.3845 151.403 25.5926 150.741 25.9048C151.224 25.1648 151.99 24.6098 152.709 24.5116C152.824 24.4942 152.945 24.4884 153.066 24.4942C152.634 24.2745 152.162 24.0896 151.679 23.9624C152.335 23.7832 153.048 23.8236 153.664 24.0953C153.842 23.3323 154.165 22.8813 154.165 22.8813C154.165 22.8813 154.487 23.3323 154.665 24.0953C155.281 23.8179 155.995 23.7832 156.651 23.9624C156.167 24.0896 155.695 24.2745 155.264 24.4942C155.385 24.4884 155.505 24.4942 155.621 24.5116C155.983 24.5578 156.357 24.7197 156.697 24.9683C157.042 25.2111 157.353 25.5348 157.594 25.9048C156.933 25.5926 156.242 25.3845 155.523 25.2746C155.356 25.2515 155.195 25.2342 155.028 25.2226C155.028 25.2457 155.028 25.2342 155.028 25.2515C155.316 25.3093 155.592 25.4192 155.851 25.581C156.242 25.8296 156.524 26.1938 156.72 26.61Z" fill="#88774F"/>
<path d="M161.133 29.2173C160.368 29.1306 159.562 29.2925 158.854 29.726L154.815 32.2061L156.438 33.2004L156.662 32.8304C156.656 32.8304 156.651 32.8246 156.645 32.8246C156.466 32.7148 156.409 32.472 156.518 32.2928C156.628 32.1136 156.863 32.0558 157.048 32.1656C157.226 32.2754 157.284 32.5125 157.174 32.6974L156.748 33.3969L156.961 33.5299L157.445 33.8247C157.606 33.9288 157.801 33.9346 157.963 33.8652C157.968 33.9519 157.957 34.0386 157.922 34.1196C157.911 34.1485 157.899 34.1774 157.876 34.2063C157.715 34.478 157.358 34.5647 157.094 34.397L156.397 33.9692L156.173 34.3392C156.179 34.3392 156.184 34.345 156.19 34.345C156.369 34.4548 156.426 34.6919 156.317 34.8769C156.207 35.0561 155.966 35.1197 155.787 35.004C155.609 34.8884 155.551 34.6514 155.661 34.4722L156.087 33.7727L154.176 32.5992L152.266 33.7727L152.692 34.4722C152.801 34.6514 152.743 34.8942 152.565 35.004C152.387 35.1139 152.151 35.0561 152.036 34.8769C151.926 34.6976 151.984 34.4606 152.162 34.345C152.168 34.345 152.174 34.3392 152.179 34.3334L151.955 33.9635L151.259 34.3913C150.988 34.5589 150.637 34.4722 150.47 34.2005C150.453 34.1716 150.442 34.1427 150.424 34.1138C150.396 34.0328 150.378 33.9403 150.384 33.8594C150.551 33.9288 150.741 33.923 150.908 33.8189L151.391 33.5241L151.61 33.3912L151.184 32.6917C151.075 32.5125 151.132 32.2754 151.311 32.1598C151.489 32.05 151.725 32.1078 151.84 32.287C151.949 32.4662 151.892 32.709 151.713 32.8188C151.708 32.8188 151.702 32.8246 151.696 32.8246L151.92 33.1946L153.543 32.2003L149.504 29.7203C148.796 29.2867 147.99 29.1248 147.225 29.2115C147.984 28.6913 149.015 28.6277 149.855 29.148L154.188 31.8072L158.521 29.148C159.344 28.6392 160.374 28.697 161.133 29.2173Z" fill="#88774F"/>
</g>
<defs>
<clipPath id="clip0_1038_3048">
<rect width="183" height="58" fill="white" transform="translate(0.0112305)"/>
</clipPath>
</defs>
</svg>
