<svg width="86" height="138" viewBox="0 0 86 138" fill="none" xmlns="http://www.w3.org/2000/svg">
<g clip-path="url(#clip0_1038_3031)">
<path d="M56.5864 135.607C54.9353 135.607 53.5998 134.237 53.5998 131.968C53.5998 129.699 54.9373 128.329 56.5864 128.329C58.2356 128.329 59.5731 129.728 59.5731 131.968C59.5731 134.207 58.2356 135.607 56.5864 135.607ZM56.5647 125.991C53.217 125.991 50.5046 128.157 50.5046 131.995C50.5046 135.834 53.217 138 56.5647 138C59.9124 138 62.6249 135.694 62.6249 131.995C62.6249 128.297 59.9124 125.991 56.5647 125.991Z" fill="#006996"/>
<path d="M30.5408 135.607C28.8896 135.607 27.5541 134.237 27.5541 131.968C27.5541 129.699 28.8916 128.329 30.5408 128.329C32.19 128.329 33.5275 129.728 33.5275 131.968C33.5275 134.207 32.19 135.607 30.5408 135.607ZM30.5191 125.991C27.1714 125.991 24.4589 128.157 24.4589 131.995C24.4589 135.834 27.1734 138 30.5191 138C33.8648 138 36.5792 135.694 36.5792 131.995C36.5792 128.297 33.8668 125.991 30.5191 125.991Z" fill="#006996"/>
<path d="M20.8272 126.017L16.6963 130.633H16.6924L12.5615 126.017L10.575 126.038C10.575 126.038 10.6007 134.456 10.6007 137.703V137.981H13.3546V131.079L16.6884 134.612V134.625L16.6943 134.619L16.7003 134.625V134.612L20.0341 131.079V137.981H22.788V137.703C22.788 134.456 22.8137 126.038 22.8137 126.038L20.8272 126.017Z" fill="#006996"/>
<path d="M74.3053 126.036H71.5534L71.5613 132.963L66.0179 126.036H64.0334L64.059 137.978H66.811V131.077L72.2951 137.978H74.3309L74.3053 126.036Z" fill="#006996"/>
<path d="M45.484 133.567C45.0165 134.893 43.898 135.648 42.4638 135.609C42.1127 135.599 41.6136 135.55 41.2624 135.5V128.376C42.0496 128.356 42.8426 128.37 43.5843 128.634C44.5983 128.995 45.2532 129.695 45.5353 130.71C45.7997 131.662 45.8135 132.622 45.4821 133.567M46.3185 127.01C45.2394 126.34 44.0361 126.054 42.7795 126.032C41.9095 126.016 41.0316 126.08 40.1636 126.164C39.5462 126.223 38.9406 126.377 38.3349 126.488V137.541C39.2128 137.665 40.0808 137.815 40.9527 137.905C42.3474 138.051 43.7362 138.034 45.0875 137.596C46.7485 137.058 47.9203 136.009 48.4924 134.375C48.9678 133.021 48.9777 131.641 48.6384 130.253C48.303 128.871 47.5495 127.773 46.3165 127.01" fill="#006996"/>
<path d="M27.2267 25.2979V55.1515L10.6993 63.1313V33.2521L27.2267 25.2979Z" fill="#17B8E0"/>
<path d="M69.9298 35.6157V59.4115L74.402 57.2805V37.7704L69.9298 35.6157Z" fill="#17B8E0"/>
<path d="M42.379 0L30.2607 7.94046V24.0481L38.7078 28.107V75.8661L42.379 76.9483V0Z" fill="#006996"/>
<path d="M66.3415 23.7683V33.8457L61.9344 31.7324V59.4748L50.55 54.0852V33.3095L57.8943 29.7789V19.7192L66.3415 23.7683Z" fill="#84BC26"/>
<path d="M44.0815 86.9882L60.4095 93.8169H85.0112L52.2919 83.5522L44.0815 86.9882Z" fill="#006996"/>
<path d="M15.9822 72.9702H10.5652L32.7581 82.2512L40.2899 80.0551L15.9822 72.9702Z" fill="#17B8E0"/>
<path d="M68.977 72.9702L45.0816 79.9349L42.4796 80.6938L34.5552 83.0022L33.8036 83.223L0.0111694 93.8169H24.5497L41.3433 86.7931L42.4796 86.318L50.404 83.0022L52.6331 82.0698L74.3941 72.9702H68.977Z" fill="#84BC26"/>
<path d="M63.7217 113.944C63.3252 113.157 63.1911 112.312 63.195 111.204C63.2049 110.368 63.3942 109.335 64.0571 108.438C65.4932 106.496 68.5608 106.632 69.8292 108.69C70.4506 109.7 70.6143 110.806 70.5335 111.957C70.4841 112.702 70.3263 113.424 69.9653 114.092C69.3045 115.316 68.2668 115.961 66.8544 115.951C65.3886 115.941 64.3628 115.212 63.7217 113.944ZM69.7365 118.381C71.7506 117.682 73.1138 116.315 73.8299 114.352C74.4158 112.749 74.469 111.101 74.0942 109.453C73.6582 107.529 72.5969 106.031 70.8018 105.077C69.5787 104.424 68.257 104.19 66.8997 104.17C65.8858 104.184 64.9113 104.31 63.9703 104.643C61.9699 105.353 60.5871 106.682 59.8947 108.649C59.6875 109.24 59.5514 109.836 59.4745 110.429C59.4725 110.435 59.4646 110.443 59.4646 110.451C59.3857 111.013 59.4015 111.432 59.2693 111.815C59.1352 112.197 58.9675 112.501 58.7663 112.732C58.5651 112.958 58.3421 113.122 58.0995 113.22C57.8529 113.317 57.6083 113.406 57.3617 113.406H48.8889C48.8317 113.406 48.7844 113.402 48.7311 113.406H43.6632V110.861C43.6632 109.838 43.5528 108.895 43.3358 108.03C43.1168 107.167 42.74 106.453 42.2014 105.893C41.5623 105.235 40.8127 104.76 39.9545 104.472C39.0984 104.184 37.9226 104.038 36.7785 104.038H32.3892V107.498H37.3052C37.7589 107.498 38.1752 107.584 38.5539 107.758C38.9327 107.931 39.2306 108.158 39.4495 108.438C39.6843 108.718 39.8559 109.043 39.9664 109.414C40.0749 109.784 40.1301 110.216 40.1301 110.711V113.406H29.0829V116.863H43.7559V116.848H48.6897C48.7548 116.854 48.8159 116.863 48.8889 116.863H56.4483C56.76 116.863 57.0934 116.842 57.4524 116.796C57.8095 116.753 58.1547 116.67 58.4901 116.55C58.8255 116.428 59.149 116.256 59.4646 116.036C59.7724 115.823 60.0327 115.543 60.2537 115.202C61.0053 116.716 62.2422 117.786 63.9229 118.37C65.8483 119.04 67.8032 119.054 69.7365 118.381Z" fill="#006996"/>
<path d="M20.0775 100.628H16.5977V104.038H20.0775V100.628Z" fill="#006996"/>
<path d="M22.6717 104.068V111.318C22.6717 112.06 22.5927 112.69 22.431 113.209C22.2712 113.729 21.997 114.153 21.6103 114.48C21.1744 114.843 20.626 115.09 19.971 115.222C19.4759 115.32 18.9432 115.395 18.3889 115.395C17.8346 115.395 17.3019 115.322 16.8068 115.222C16.1519 115.09 15.6054 114.843 15.1675 114.48C14.7808 114.151 14.5066 113.727 14.3468 113.209C14.187 112.69 14.1062 112.06 14.1062 111.318V104.068H10.575V111.738C10.575 112.744 10.7013 113.702 10.9538 114.616C11.2063 115.531 11.6422 116.276 12.2656 116.852C12.6523 117.215 13.0606 117.524 13.4907 117.778C13.9188 118.035 14.3922 118.244 14.915 118.409C15.4358 118.573 16.0039 118.693 16.6174 118.768C17.0672 118.821 17.5683 118.849 18.095 118.865C18.095 118.865 18.2903 118.867 18.3869 118.865C18.4836 118.867 18.6828 118.865 18.6828 118.865C19.2096 118.849 19.7106 118.823 20.1604 118.768C20.7739 118.693 21.342 118.573 21.8628 118.409C22.3836 118.244 22.8591 118.035 23.2891 117.778C23.7172 117.524 24.1255 117.215 24.5122 116.852C25.1336 116.276 25.5715 115.529 25.824 114.616C26.0746 113.702 26.2008 112.742 26.2008 111.738V104.068H22.6697H22.6717Z" fill="#006996"/>
</g>
<defs>
<clipPath id="clip0_1038_3031">
<rect width="85" height="138" fill="white" transform="translate(0.0111694)"/>
</clipPath>
</defs>
</svg>
