<svg width="92" height="98" viewBox="0 0 92 98" fill="none" xmlns="http://www.w3.org/2000/svg">
<path d="M44.1739 0.570291L2.68779 23.215C1.32759 23.9752 0.438232 25.4414 0.438232 27.0706V31.4149L25.445 24.2467L0.438232 35.379V44.8822L25.6543 41.3525L0.438232 48.7921V57.7522L25.445 61.8793L0.438232 61.4449V70.6222L25.6543 79.9082L0.438232 74.5864V82.3518C0.438232 84.3611 1.7461 86.0988 3.62946 86.5875L45.0633 97.2854C45.3772 97.394 45.7434 97.394 46.0573 97.394V0.081543C45.4295 0.081543 44.7494 0.244468 44.1739 0.570291Z" fill="#018659"/>
<path d="M64.3673 79.9081L91.7282 69.8618V61.3905L64.5765 61.8792L91.7282 57.372V49.335L64.3673 41.298L91.7282 45.0993V36.3021L64.5765 24.2466L91.7282 32.0121V26.2016C91.7282 24.6268 90.8912 23.1606 89.531 22.4546L47.6787 0.407261C47.2078 0.190046 46.3708 0.135742 46.1092 0.135742V97.4482C46.1092 97.4482 46.5277 97.4482 46.9462 97.3396L88.5893 86.6417C90.4727 86.153 91.7805 84.4153 91.7805 82.4603V74.2062L64.3673 79.9081Z" fill="#2C673E"/>
<path d="M46.1095 32.0664C46.3188 32.5551 46.4757 33.0439 46.685 33.5869C46.7896 33.8584 46.8943 34.0756 46.9466 34.3472C46.9466 34.4015 46.9466 34.4015 46.9989 34.4015C48.7253 33.4783 50.4517 33.5326 52.0735 34.673C50.8179 34.5101 49.667 34.7816 48.5684 35.3246C48.673 35.3246 48.7776 35.3246 48.8823 35.3246C49.4577 35.2703 49.9809 35.2703 50.5564 35.3246C51.2365 35.3789 51.9165 35.5418 52.5443 35.7591C53.6953 36.1935 54.637 37.0081 55.3694 37.9855C55.3694 38.0398 55.4217 38.0398 55.4217 38.0941C55.4217 38.0941 55.4217 38.0941 55.4217 38.1484C53.7999 37.1167 52.0212 36.8451 50.1378 37.008C50.1901 37.008 50.1902 37.008 50.2425 37.0623C51.0795 37.3339 51.8642 37.6597 52.5967 38.0941C53.9045 38.9087 54.8985 40.0491 55.5263 41.461C55.7356 41.9497 55.8925 42.3841 56.0495 42.8729C56.0495 42.8729 56.0495 42.8729 56.0495 42.9272C54.6893 41.0808 53.0152 39.7775 50.8702 39.0716L50.9226 39.1259C51.8119 39.7776 52.5967 40.4835 53.2768 41.3523C54.1661 42.4927 54.6893 43.7417 55.0032 45.1536C55.1078 45.588 55.1078 46.0225 55.2124 46.5112C55.2124 46.5112 55.2124 46.5112 55.2124 46.5655C54.48 45.045 53.5383 43.6874 52.3874 42.547C51.9166 42.0583 51.3934 41.6239 50.8179 41.2438C52.8582 43.9046 53.5906 46.9999 53.0675 50.3668C52.5443 47.6516 51.3411 45.2079 49.5623 43.0901C49.5623 43.1444 49.5624 43.1444 49.6147 43.1987C49.8763 44.0132 50.0855 44.8278 50.1901 45.6424C50.2948 46.5655 50.2948 47.4344 50.1901 48.3576C50.0332 49.6065 49.7193 50.8012 49.2485 51.9959C49.2485 51.7787 49.2485 51.6158 49.2485 51.3986C49.2485 50.7469 49.2485 50.0953 49.1962 49.4436C49.0915 48.4662 48.9346 47.543 48.673 46.6198C48.3591 45.5881 47.9406 44.6649 47.4174 43.796L47.3651 43.7417C47.2605 44.7192 47.1559 45.6967 47.1035 46.6741C47.2082 46.6741 47.3128 46.6741 47.4174 46.6741C47.3128 47.8145 47.2082 48.9549 47.1035 50.1496C47.2082 50.1496 47.3128 50.1496 47.4174 50.1496C47.3128 51.29 47.2082 52.4303 47.1035 53.625C47.2082 53.625 47.3128 53.625 47.4174 53.625C47.3651 53.9508 47.3651 54.2767 47.3128 54.6025C47.2605 55.0369 47.2082 55.5257 47.1558 55.9601C47.1035 56.2859 47.1035 56.6117 47.0512 56.9376C47.0512 57.0462 47.0512 57.1005 47.1035 57.1548C47.3651 57.4263 47.6267 57.6978 47.8883 57.9693C47.8883 57.9693 47.9406 58.0236 47.9406 58.0779C46.685 58.0779 45.4818 58.0779 44.2785 58.0779C44.3308 58.0236 44.3308 58.0236 44.3308 58.0236C44.5924 57.7521 44.854 57.4806 45.1155 57.2091C45.1679 57.1548 45.1679 57.1005 45.1679 57.0462C45.1156 56.6117 45.0632 56.1773 45.0632 55.6886C45.0109 55.2541 44.9586 54.7654 44.9063 54.331C44.9063 54.1138 44.854 53.9508 44.854 53.7336V53.6793C44.9586 53.6793 45.0632 53.6793 45.1679 53.6793C45.0632 52.5389 44.9586 51.3986 44.854 50.2039C44.9586 50.2039 45.0632 50.2039 45.1679 50.2039C45.0632 49.0635 44.9586 47.9231 44.854 46.7284C44.9586 46.7284 45.0632 46.7284 45.1679 46.7284C45.0632 45.751 44.9586 44.7735 44.9063 43.7417C44.854 43.796 44.854 43.796 44.854 43.8503C44.1215 45.045 43.6507 46.294 43.3368 47.6516C43.0229 49.0092 42.9706 50.3668 43.0229 51.7244C43.0229 51.833 43.0229 51.9416 43.0229 52.1045C41.8197 49.1721 41.5581 46.2397 42.6567 43.1987C40.9303 45.3165 39.7271 47.7059 39.1516 50.4754C38.89 48.8463 38.9423 47.2715 39.3085 45.6424C39.6747 44.0676 40.4072 42.6556 41.4012 41.3523C39.5178 42.7642 38.0006 44.502 37.0067 46.6741C37.2159 43.4159 38.7854 40.9722 41.3489 39.2345C40.3025 39.5603 39.3609 40.0491 38.4715 40.755C37.5821 41.4067 36.8497 42.2212 36.1696 43.1444C36.2742 42.8729 36.3266 42.6557 36.4312 42.3841C36.7451 41.4067 37.2159 40.5378 37.896 39.7775C38.5238 39.0716 39.2562 38.4743 40.0933 38.0398C40.7211 37.714 41.3488 37.4968 41.9766 37.2796C42.0289 37.2796 42.0289 37.2796 42.0813 37.2253C41.1396 37.171 40.2502 37.171 39.3608 37.3339C38.4715 37.4968 37.6345 37.8769 36.7974 38.3656C36.7974 38.3656 36.7974 38.3113 36.8497 38.3113C37.5821 37.3339 38.4192 36.5736 39.5178 36.1392C40.0933 35.922 40.6687 35.7591 41.2442 35.6504C41.8197 35.5418 42.4475 35.5419 43.0229 35.5962C43.2322 35.5962 43.4415 35.6504 43.703 35.6504H43.7553C42.6567 35.0531 41.5058 34.8359 40.2502 34.9988C40.4595 34.6187 41.872 34.1299 42.7613 34.0756C43.6507 34.0213 44.5401 34.2386 45.3248 34.7273C45.3248 34.7273 45.3248 34.673 45.3771 34.673C45.4817 33.5869 45.7956 32.8267 46.1095 32.0664C46.0572 32.1207 46.0572 32.0664 46.1095 32.0664C46.0572 32.0664 46.0572 32.0664 46.1095 32.0664Z" fill="#EAC66C"/>
<path d="M47.2598 62.4224C48.0969 63.1827 48.9339 63.9973 49.7187 64.7575H49.771C50.0849 64.4317 50.3987 64.1058 50.5557 63.6171C50.6603 63.2913 50.7126 62.9112 50.608 62.5854C50.608 62.531 50.608 62.531 50.5557 62.4767C50.8173 62.4767 51.0265 62.5853 51.1835 62.7483C51.3927 62.9655 51.4451 63.2913 51.4451 63.5628C51.4451 64.1602 51.1835 64.7032 50.8173 65.1919C50.765 65.3005 50.7126 65.3548 50.608 65.4091C51.0788 65.7893 51.4974 66.2237 52.0205 66.4952C52.2298 66.6038 52.439 66.7124 52.6483 66.7667C53.1191 66.8753 53.5377 66.6038 53.59 66.1151C53.6423 65.8436 53.7469 65.6264 53.9562 65.4634C54.427 65.1376 55.0548 65.3005 55.2641 65.8979C55.421 66.278 55.421 66.6581 55.3164 67.0926C55.1071 67.7985 54.6363 68.2329 53.9562 68.4502C53.0145 68.7217 52.1252 68.5588 51.2881 67.9614C50.765 67.5813 50.3464 67.1468 49.8233 66.7667C49.7709 66.7124 49.7187 66.6581 49.614 66.6038C49.5094 66.7667 49.3524 66.8753 49.2478 67.0382C48.9862 67.3641 48.8293 67.6899 48.777 68.07C48.7246 68.2872 48.777 68.5588 48.8293 68.776C48.8293 68.8303 48.8293 68.8303 48.8293 68.8846C48.5677 68.8846 48.3584 68.776 48.2015 68.5588C47.9922 68.3416 47.9399 68.0157 47.9922 67.7442C47.9922 67.2012 48.2538 66.7124 48.5677 66.2237C48.6723 66.1151 48.777 65.9522 48.8816 65.8436C47.9922 65.029 47.0505 64.2145 46.1612 63.3999C45.2195 64.2145 44.3302 65.029 43.4408 65.8436C43.5454 66.0065 43.7024 66.1694 43.807 66.3323C44.0163 66.6581 44.2255 67.0383 44.2778 67.4727C44.3302 67.7985 44.2779 68.1786 44.1209 68.4502C43.964 68.6674 43.7547 68.8303 43.4408 68.8303C43.4408 68.7217 43.4931 68.6131 43.4931 68.5044C43.5454 68.07 43.4408 67.6899 43.2315 67.3098C43.0746 67.0382 42.8653 66.7667 42.6037 66.5495C42.4468 66.6581 42.3422 66.7667 42.2375 66.8753C41.7667 67.2555 41.3482 67.6356 40.8773 67.9614C40.0403 68.5044 39.1509 68.6674 38.2093 68.2873C37.5292 68.0157 37.1106 67.5813 36.9537 66.821C36.9014 66.4952 36.849 66.1151 37.006 65.7893C37.2153 65.2462 37.7907 65.0833 38.2616 65.3548C38.4708 65.4634 38.6278 65.6806 38.6801 65.9522C38.6801 66.0608 38.7324 66.1151 38.7324 66.2237C38.8894 66.6581 39.2556 66.8753 39.6741 66.7667C39.8834 66.7124 40.0926 66.6038 40.2496 66.4952C40.7727 66.1694 41.1912 65.7893 41.6621 65.4091C41.6098 65.3005 41.5051 65.2462 41.4528 65.1919C41.1389 64.8118 40.9297 64.3774 40.825 63.8886C40.7727 63.5628 40.7727 63.237 40.8773 62.9655C40.982 62.6939 41.2435 62.4767 41.5574 62.4224C41.5574 62.4224 41.6098 62.4224 41.6621 62.4224C41.6621 62.531 41.6098 62.6939 41.6098 62.8025C41.5575 63.1827 41.6621 63.5628 41.8713 63.8886C42.0283 64.2144 42.2898 64.4317 42.4991 64.7032C43.3362 63.9429 44.1732 63.1284 45.0103 62.3681L44.9579 62.3138C43.6501 61.2278 42.3422 60.1417 40.982 59.2185C39.5171 58.241 38 57.3722 36.3782 56.7205C35.2273 56.2318 33.9717 55.906 32.7685 55.6888C32.036 55.5802 31.356 55.4715 30.6235 55.4715C30.5189 55.4715 30.362 55.4715 30.2573 55.4172C30.5189 55.3629 30.7281 55.2543 30.9897 55.2C31.7221 54.9828 32.5069 54.8199 33.2916 54.7656C34.9657 54.657 36.5352 54.9285 38.1046 55.5259C39.4125 56.0146 40.5634 56.7205 41.7144 57.4808C43.0746 58.4582 44.3825 59.5443 45.638 60.6847C45.8473 60.8476 46.0566 61.0648 46.2135 61.2278C46.3705 61.0648 46.5797 60.9019 46.7367 60.739C47.8876 59.7072 49.0385 58.6755 50.2941 57.7523C51.4451 56.8834 52.7006 56.1775 54.0085 55.6344C54.8455 55.3086 55.6303 55.0371 56.5197 54.8742C57.3567 54.7113 58.1937 54.657 59.0308 54.7113C60.0771 54.7656 61.0711 54.9828 62.0651 55.3629C62.0651 55.3629 62.1174 55.3629 62.1174 55.4172C61.9604 55.4172 61.8035 55.4172 61.6989 55.4172C61.0711 55.4172 60.4433 55.5258 59.8155 55.6344C57.5136 56.0146 55.3164 56.8291 53.2761 58.0238C51.8113 58.8927 50.3988 59.8702 49.0909 60.9562C48.5677 61.3907 47.9922 61.8794 47.4691 62.3138C47.3121 62.3681 47.3121 62.3681 47.2598 62.4224Z" fill="#EAC66C"/>
</svg>
