<svg width="595" height="205" viewBox="0 0 595 205" fill="none" xmlns="http://www.w3.org/2000/svg">
<path d="M234.213 129.01L234.959 125.614C236.624 126.305 238.346 126.65 240.125 126.708C242.307 126.708 243.397 125.959 243.397 124.462C243.455 123.772 243.168 123.081 242.594 122.62C241.675 122.044 240.642 121.642 239.609 121.354C238.116 120.893 236.796 120.145 235.648 119.109C234.73 118.13 234.213 116.806 234.328 115.424C234.213 113.812 234.902 112.258 236.107 111.222C237.313 110.243 238.977 109.725 241.101 109.725C242.938 109.667 244.718 110.013 246.382 110.761L245.579 114.1C244.201 113.524 242.766 113.237 241.331 113.237C239.379 113.237 238.403 113.927 238.403 115.309C238.346 115.942 238.633 116.518 239.092 116.921C239.838 117.439 240.699 117.842 241.618 118.13C242.422 118.418 243.225 118.706 243.971 119.051C244.603 119.339 245.234 119.742 245.808 120.202C246.382 120.663 246.842 121.239 247.129 121.929C247.416 122.735 247.588 123.541 247.53 124.347C247.588 126.017 246.899 127.629 245.579 128.607C244.258 129.643 242.536 130.104 240.412 130.104C238.174 130.162 236.107 129.759 234.213 129.01Z" fill="#3D3935"/>
<path d="M262.455 129.816L261.25 125.441H254.017C253.615 126.765 253.213 128.204 252.811 129.816H248.678C250.917 121.584 253.213 114.964 255.509 110.07H259.7C262.053 115.136 264.349 121.699 266.588 129.816H262.455ZM257.633 114.33C256.6 116.806 255.739 119.396 254.993 121.987H260.274C259.527 119.396 258.666 116.806 257.633 114.33Z" fill="#3D3935"/>
<path d="M267.334 121.929V110.013H271.352V121.641C271.352 124.923 272.615 126.535 275.141 126.535C277.667 126.535 278.929 124.923 278.929 121.641V110.013H282.948V121.929C282.948 124.577 282.259 126.592 280.939 128.032C279.618 129.471 277.667 130.162 275.141 130.162C272.615 130.162 270.664 129.471 269.343 128.032C267.966 126.65 267.334 124.635 267.334 121.929Z" fill="#3D3935"/>
<path d="M286.851 129.816V110.07H293.452C296.437 110.07 298.791 110.934 300.57 112.718C302.35 114.503 303.211 116.863 303.211 119.914C303.211 122.966 302.292 125.383 300.513 127.168C298.733 128.953 296.38 129.816 293.395 129.816H286.851ZM293.337 113.467H290.869V126.362H293.337C297.183 126.362 299.078 124.174 299.078 119.857C299.078 115.597 297.183 113.467 293.337 113.467Z" fill="#3D3935"/>
<path d="M310.329 110.013H306.31V129.759H310.329V110.013Z" fill="#3D3935"/>
<path d="M333.117 129.816L331.912 125.441H324.622C324.22 126.765 323.818 128.204 323.416 129.816H319.283C321.522 121.584 323.818 114.964 326.114 110.07H330.305C332.658 115.136 334.954 121.699 337.193 129.816H333.117ZM328.296 114.33C327.262 116.806 326.401 119.396 325.655 121.987H330.936C330.19 119.396 329.329 116.806 328.296 114.33Z" fill="#3D3935"/>
<path d="M345 122.447H343.794V129.816H339.776V110.07H345.574C348.042 110.07 349.936 110.588 351.314 111.567C352.692 112.603 353.438 114.215 353.38 115.942C353.38 118.763 352.06 120.548 349.477 121.239C350.338 121.584 351.084 122.447 351.831 123.887L354.701 129.874H350.395L347.698 124.29C347.468 123.772 347.066 123.311 346.607 122.966C346.09 122.563 345.574 122.447 345 122.447ZM345.344 113.467H343.737V119.051H345.287C347.812 119.051 349.133 118.13 349.133 116.23C349.247 115.367 348.846 114.561 348.157 114.1C347.296 113.64 346.262 113.409 345.344 113.467Z" fill="#3D3935"/>
<path d="M369.453 129.816L368.248 125.441H360.957C360.556 126.765 360.154 128.204 359.752 129.816H355.619C357.858 121.584 360.154 114.964 362.45 110.07H366.698C369.051 115.136 371.347 121.699 373.586 129.816H369.453ZM364.631 114.33C363.598 116.806 362.737 119.396 361.991 121.987H367.272C366.526 119.396 365.665 116.806 364.631 114.33Z" fill="#3D3935"/>
<path d="M382.713 129.816H376.054V110.07H382.139C384.435 110.07 386.215 110.531 387.477 111.394C388.74 112.258 389.487 113.697 389.429 115.194C389.544 116.863 388.683 118.418 387.248 119.281C389.199 120.202 390.175 121.757 390.175 124.002C390.175 125.959 389.544 127.398 388.224 128.377C386.903 129.356 385.009 129.816 382.713 129.816ZM379.958 113.467V118.245H382.828C384.493 118.245 385.354 117.439 385.354 115.77C385.354 114.215 384.263 113.467 382.082 113.467H379.958ZM379.958 121.296V126.362H382.369C383.344 126.42 384.32 126.189 385.181 125.786C385.813 125.383 386.215 124.635 386.1 123.887C386.1 122.16 384.952 121.296 382.713 121.296H379.958Z" fill="#3D3935"/>
<path d="M397.121 110.013H393.103V129.759H397.121V110.013Z" fill="#3D3935"/>
<path d="M413.366 129.816L412.16 125.441H404.87C404.469 126.765 404.067 128.204 403.665 129.816H399.532C401.771 121.584 404.067 114.964 406.363 110.07H410.553C412.907 115.136 415.203 121.699 417.441 129.816H413.366ZM408.544 114.33C407.511 116.806 406.592 119.396 405.904 121.987H411.185C410.438 119.396 409.577 116.806 408.544 114.33Z" fill="#3D3935"/>
<path d="M431.792 122.447H430.587V129.816H426.511V110.07H432.309C434.777 110.07 436.671 110.588 438.049 111.567C439.427 112.603 440.173 114.215 440.115 115.942C440.115 118.763 438.795 120.548 436.212 121.239C437.073 121.584 437.819 122.447 438.566 123.887L441.436 129.874H437.13L434.433 124.29C434.203 123.772 433.801 123.311 433.342 122.966C432.825 122.563 432.309 122.447 431.792 122.447ZM432.136 113.467H430.587V119.051H432.136C434.662 119.051 435.982 118.13 435.982 116.23C436.04 115.424 435.695 114.618 435.007 114.1C434.146 113.64 433.17 113.409 432.136 113.467Z" fill="#3D3935"/>
<path d="M456.245 129.816L455.04 125.441H447.75C447.348 126.765 446.946 128.204 446.544 129.816H442.411C444.65 121.584 446.946 114.964 449.242 110.07H453.433C455.786 115.136 458.082 121.699 460.321 129.816H456.245ZM451.424 114.33C450.39 116.806 449.472 119.396 448.783 121.987H454.064C453.318 119.396 452.457 116.806 451.424 114.33Z" fill="#3D3935"/>
<path d="M466.865 110.013H462.847V129.759H466.865V110.013Z" fill="#3D3935"/>
<path d="M470.94 129.816V110.013H474.959V126.362H482.938V129.816H470.94Z" fill="#3D3935"/>
<path d="M501.536 126.017C502.11 124.232 502.799 121.872 503.488 118.821C504.176 115.769 504.75 112.891 505.095 110.013H509.228C507.908 118.13 506.128 124.75 503.889 129.759H499.469C497.92 125.729 496.714 121.641 495.796 117.439C494.877 121.641 493.614 125.729 492.122 129.759H487.702C486.439 126.707 485.463 123.599 484.66 120.433C483.741 116.863 482.995 113.409 482.421 110.013H486.497C486.956 112.891 487.472 115.827 488.161 118.878C488.678 121.296 489.309 123.656 490.113 125.959C490.974 123.541 491.72 121.066 492.294 118.59C493.04 115.77 493.614 112.891 494.016 110.013H497.633C498.034 112.949 498.608 115.827 499.355 118.705C499.929 121.181 500.675 123.599 501.536 126.017Z" fill="#3D3935"/>
<path d="M522.373 129.816L521.168 125.441H513.877C513.476 126.765 513.074 128.204 512.672 129.816H508.596C510.835 121.584 513.131 114.964 515.427 110.07H519.618C522.029 115.136 524.325 121.699 526.506 129.816H522.373ZM517.551 114.33C516.518 116.806 515.6 119.396 514.911 121.987H520.192C519.445 119.396 518.527 116.806 517.551 114.33Z" fill="#3D3935"/>
<path d="M532.878 129.816H528.859V121.929C525.645 117.324 523.464 113.352 522.316 110.07H526.449C527.597 113.064 529.089 116 530.869 118.648C532.648 115.942 534.14 113.064 535.289 110.07H539.422C538.159 113.467 536.035 117.439 532.878 121.929V129.816Z" fill="#3D3935"/>
<path d="M540.57 129.01L541.316 125.614C542.98 126.305 544.703 126.65 546.482 126.708C548.663 126.708 549.754 125.959 549.754 124.462C549.811 123.772 549.467 123.081 548.893 122.62C547.974 122.044 546.941 121.642 545.908 121.354C544.416 120.893 543.095 120.145 541.947 119.109C541.029 118.13 540.512 116.806 540.627 115.424C540.512 113.812 541.201 112.258 542.406 111.222C543.612 110.243 545.277 109.725 547.4 109.725C549.237 109.667 551.017 110.013 552.681 110.761L551.878 114.1C550.558 113.524 549.065 113.237 547.63 113.237C545.678 113.237 544.645 113.927 544.645 115.309C544.588 115.942 544.875 116.518 545.334 116.921C546.08 117.439 546.941 117.842 547.86 118.13C548.663 118.418 549.467 118.706 550.213 119.051C550.845 119.339 551.476 119.742 552.05 120.202C552.624 120.663 553.083 121.239 553.37 121.929C553.657 122.735 553.83 123.541 553.772 124.347C553.83 126.017 553.141 127.629 551.82 128.607C550.5 129.643 548.778 130.104 546.654 130.104C544.588 130.162 542.521 129.759 540.57 129.01Z" fill="#3D3935"/>
<path d="M90.133 128.78H108.157L125.034 73.9751H118.949L90.133 128.78Z" fill="#00758D"/>
<path d="M133.644 73.9751H127.617L144.493 128.78H162.46L133.644 73.9751Z" fill="#00758D"/>
<path d="M40.9965 118.13V128.722H71.1902C80.2024 128.665 87.4351 121.296 87.3777 112.258C87.3203 103.22 79.9728 95.966 70.9606 96.0236H54.6583C51.5586 96.0236 48.9755 93.4906 48.9755 90.3243V90.2092C48.9755 87.1005 51.5012 84.51 54.6583 84.51H81.8671V73.8599H54.3139C45.3017 73.9174 38.069 81.2861 38.1264 90.3243C38.1838 99.3625 45.5313 106.616 54.5435 106.559H70.7884C73.8881 106.559 76.4712 109.092 76.4712 112.258V112.373C76.4712 115.482 73.9455 118.072 70.7884 118.072H40.9965V118.13Z" fill="#3D3935"/>
<path d="M171.013 128.78H181.345C181.403 128.78 181.46 128.722 181.46 128.665V84.6828C181.46 84.6252 181.518 84.5676 181.575 84.5676H199.944C203.158 84.5676 205.741 87.1582 205.741 90.382C205.741 93.4907 203.216 96.0812 200.059 96.0812H187.2C187.143 96.0812 187.086 96.1388 187.086 96.1964V96.254L205.454 128.665C205.454 128.722 205.512 128.722 205.569 128.722H216.992C217.05 128.722 217.107 128.665 217.107 128.607V128.55L204.938 107.422L204.364 106.386C204.306 106.328 204.364 106.271 204.421 106.213L205.569 105.81C214.065 102.817 218.485 93.4331 215.5 84.913C213.319 78.7532 207.693 74.4932 201.207 74.0327C200.92 74.0327 200.633 73.9751 200.346 73.9751H170.956C170.898 73.9751 170.841 74.0327 170.841 74.0902V128.722C170.898 128.722 170.956 128.78 171.013 128.78Z" fill="#3D3935"/>
<path d="M243.57 77.1989L245.751 79.3289L248.391 76.6232L245.693 73.9751L243.57 76.1051L241.388 73.9751L238.748 76.6232L241.388 79.3289L243.57 77.1989Z" fill="#3D3935"/>
<path d="M240.011 92.742C238.346 92.742 237.428 91.8785 237.428 90.4968C237.428 88.2517 239.379 86.5246 242.881 85.8338V90.4968C242.881 91.0725 242.938 91.6482 242.996 92.1663C242.02 92.5693 241.044 92.742 240.011 92.742ZM248.391 96.4263H250.745C254.878 96.4263 257.059 94.2388 257.059 90.7847C257.059 88.8849 256.772 86.6973 256.198 82.5524H252.582C253.213 86.5822 253.443 88.5971 253.443 90.1514C253.443 91.7058 252.811 92.6268 250.687 92.6268H248.334C246.842 92.6268 246.382 91.8785 246.382 90.612V81.0557H242.823V82.61C236.165 83.7038 233.869 87.7336 233.869 90.8422C233.869 94.2963 236.222 96.4263 239.896 96.4263C241.446 96.4263 242.766 95.8507 244.316 94.9871C245.464 96.0234 246.899 96.4839 248.391 96.4263Z" fill="#3D3935"/>
<path d="M252.582 100.169L250.458 98.1538L247.817 100.802L250.515 103.45L252.582 101.378L254.706 103.45L257.346 100.802L254.648 98.1538L252.582 100.169Z" fill="#3D3935"/>
<path d="M263.833 82.5527C265.784 86.5824 266.818 89.9214 266.818 90.9576C266.818 92.1666 265.957 92.6271 263.89 92.6271C262.283 92.6271 260.733 92.3968 259.183 91.9363L258.494 95.5055C260.503 96.0812 262.57 96.369 264.694 96.369C268.425 96.369 270.319 94.5844 270.319 91.4757C270.319 89.5184 269.228 86.0643 267.392 82.4951L263.833 82.5527Z" fill="#3D3935"/>
<path d="M295.978 91.9939C294.887 90.0366 293.682 88.1944 292.247 86.525C293.337 86.0644 294.486 85.7766 295.634 85.719C297.872 85.719 299.135 86.6977 299.135 88.1944C299.135 89.6912 297.815 91.1304 295.978 91.9939ZM280.365 92.7423C277.494 92.7423 275.945 91.6485 275.945 89.4609C275.945 87.446 277.322 86.0644 278.987 86.0644C280.652 86.0644 281.685 87.1006 281.8 89.3458C281.857 90.382 281.914 91.4182 281.972 92.6847C281.57 92.6847 281.111 92.7423 280.365 92.7423ZM332.888 90.2093C332.888 91.8788 332.256 92.6847 330.132 92.6847C328.927 92.6847 327.779 92.3969 326.746 91.8212C327.205 89.8639 327.434 87.9066 327.377 85.8917V83.8768H324.048V85.8917C324.048 88.5974 323.933 90.3244 323.416 91.3607C322.957 92.3969 322.211 92.6847 320.948 92.6847C319.972 92.6847 318.996 92.4545 318.135 92.0515C318.652 90.0366 318.882 87.9642 318.824 85.9493H315.495C315.495 88.655 315.38 90.382 314.863 91.4182C314.347 92.4545 313.658 92.7423 312.395 92.7423C311.362 92.7423 310.329 92.4545 309.41 91.9939C309.869 90.0366 310.099 87.9642 310.042 85.9493H306.712C306.712 88.655 306.597 90.382 306.081 91.4182C305.736 92.3393 304.875 92.8574 303.9 92.7423C302.637 92.7423 301.374 92.6847 300.111 92.512C301.661 91.2455 302.579 89.3458 302.637 87.3309C302.637 84.4525 299.996 82.0922 295.978 82.0922C293.51 82.0922 290.353 83.2436 287.138 85.3736L288.63 88.3671C288.917 88.252 289.147 88.0793 289.434 87.9066C290.697 89.2882 291.788 90.785 292.649 92.3969C290.812 92.6272 288.975 92.7423 287.081 92.6847H285.473C285.473 91.1304 285.416 90.0942 285.359 89.1155C285.129 84.8555 282.718 82.3801 279.159 82.3801C275.371 82.3801 272.5 85.4312 272.5 89.5761C272.5 93.8361 275.428 96.4267 279.963 96.4267H281.914C281.283 98.2113 278.929 99.3051 274.969 99.3051V102.586C282.029 102.586 285.014 100.111 285.531 96.4267H287.138C291.501 96.4267 293.567 96.1388 296.495 94.8723C298.848 95.9661 301.374 96.4842 303.957 96.4267C305.564 96.4842 307.114 95.7934 308.147 94.5845C310.042 95.851 311.247 96.4267 312.682 96.4267C314.232 96.4842 315.724 95.851 316.758 94.642C318.595 95.851 319.8 96.4267 321.178 96.4267C322.842 96.4842 324.45 95.7934 325.54 94.4694C326.746 95.6783 328.41 96.3691 330.132 96.4267C334.265 96.4267 336.447 94.2391 336.447 90.785V75.7021H332.888V90.2093Z" fill="#3D3935"/>
<path d="M344.655 75.7598H341.096V96.4267H344.655V75.7598Z" fill="#3D3935"/>
<path d="M363.713 77.1989L365.894 79.3289L368.535 76.6232L365.837 73.9751L363.713 76.1051L361.531 73.9751L358.891 76.6232L361.531 79.3289L363.713 77.1989Z" fill="#3D3935"/>
<path d="M372.725 100.169L370.601 98.1538L367.961 100.802L370.658 103.45L372.725 101.378L374.849 103.45L377.489 100.802L374.791 98.1538L372.725 100.169Z" fill="#3D3935"/>
<path d="M360.154 92.742C358.489 92.742 357.571 91.8785 357.571 90.4968C357.571 88.2517 359.522 86.5246 363.024 85.8338V90.4968C363.024 91.0725 363.081 91.6482 363.139 92.1663C362.163 92.5693 361.13 92.742 360.154 92.742ZM368.535 96.4263H370.888C375.021 96.4263 377.202 94.2388 377.202 90.7847C377.202 88.8849 376.915 86.6973 376.341 82.5524H372.782C373.414 86.5822 373.643 88.5971 373.643 90.1514C373.643 91.7058 373.012 92.6268 370.888 92.6268H368.535C367.042 92.6268 366.583 91.8785 366.583 90.612V81.0557H363.024V82.61C356.365 83.7038 354.069 87.7336 354.069 90.8422C354.069 94.2963 356.423 96.4263 360.096 96.4263C361.646 96.4263 362.967 95.8507 364.516 94.9871C365.377 95.9082 366.755 96.4263 368.535 96.4263Z" fill="#3D3935"/>
<path d="M392.931 96.4266H395.284C399.417 96.4266 401.598 94.2391 401.598 90.785C401.598 88.8852 401.369 86.6976 400.737 82.5527H397.178C397.81 86.5825 398.039 88.5974 398.039 90.1517C398.039 91.7061 397.351 92.6272 395.284 92.6272H392.931C391.438 92.6272 390.405 91.8212 389.946 90.1517C389.314 88.1944 388.912 85.4311 388.453 82.5527H384.779C385.239 85.5463 385.985 88.5398 386.846 91.4182L387.19 92.2817C386.1 92.512 384.952 92.6272 383.861 92.5696C382.369 92.5696 380.876 92.3393 379.441 91.8788L378.752 95.448C380.359 96.0237 382.024 96.3115 383.746 96.3115C385.583 96.3115 387.363 95.7934 388.912 94.7572C389.946 95.9085 391.381 96.4842 392.931 96.4266Z" fill="#3D3935"/>
<path d="M397.121 100.169L394.997 98.1538L392.357 100.802L395.054 103.45L397.121 101.378L399.245 103.45L401.885 100.802L399.187 98.1538L397.121 100.169Z" fill="#3D3935"/>
<path d="M437.991 90.2093C437.991 91.8788 437.36 92.6847 435.236 92.6847C433.514 92.6847 432.538 92.2818 432.136 91.5909L432.997 91.4182L434.031 87.7914C428.807 86.4674 426.913 82.3801 422.608 82.3801C421.173 82.4376 419.795 82.8406 418.589 83.5314L419.565 86.7552C420.484 86.3522 421.46 86.122 422.435 86.122C424.961 86.122 426.339 87.9642 429.553 89.5185C426.224 90.785 423.928 92.6847 417.327 92.6847C415.834 92.6847 414.801 91.8788 414.284 90.2093C413.653 88.252 413.251 85.4887 412.792 82.6103H409.118C409.577 85.6039 410.324 88.5974 411.185 91.4758L411.529 92.3393C410.438 92.5696 409.29 92.6847 408.2 92.6272C406.707 92.6272 405.215 92.3969 403.78 91.9363L403.091 95.5056C404.698 96.0813 406.363 96.4267 408.027 96.4267C409.864 96.4267 411.644 95.9086 413.194 94.8723C414.284 95.9086 415.777 96.4842 417.269 96.4267C424.789 96.4267 425.994 93.7785 429.84 92.2818C430.185 95.045 432.022 96.4267 435.179 96.4267C439.312 96.4267 441.493 94.2391 441.493 90.785V75.7021H437.991V90.2093Z" fill="#3D3935"/>
<path d="M449.702 75.7598H446.143V96.4267H449.702V75.7598Z" fill="#3D3935"/>
<path d="M469.62 92.6272C468.07 92.6272 466.635 92.5697 465.258 92.4545C470.366 86.8704 472.203 84.9707 474.786 84.9707C476.681 84.9707 478.116 86.2947 478.116 88.0793C478.058 90.7275 474.729 92.6272 469.62 92.6272ZM475.418 81.2287C472.433 81.2287 469.965 82.8982 465.659 87.6764C466.119 85.8342 466.348 83.992 466.406 82.1498V75.7598H462.847V90.9002C462.56 91.3031 462.215 91.6486 461.871 92.0515C461.01 91.9364 460.149 91.7637 459.288 91.591L458.542 95.1602C462.043 95.9662 465.659 96.4267 469.276 96.4267C477.197 96.4267 481.617 92.9151 481.617 87.6188C481.675 83.992 479.092 81.2287 475.418 81.2287Z" fill="#3D3935"/>
<path d="M531.557 77.947L528.859 75.2988L526.219 77.947L528.917 80.5951L531.557 77.947Z" fill="#3D3935"/>
<path d="M507.908 92.6272H503.488C508.424 87.1007 510.491 84.9707 513.016 84.9707C514.739 84.8555 516.231 86.1796 516.288 87.9066C516.288 87.9642 516.288 88.0218 516.288 88.0793C516.288 90.7275 512.959 92.6848 507.908 92.6272ZM491.72 92.7424C488.85 92.7424 487.3 91.6486 487.3 89.461C487.3 87.4461 488.678 86.0645 490.342 86.0645C492.007 86.0645 493.04 87.1007 493.155 89.3458C493.213 90.3821 493.27 91.4183 493.327 92.6848C492.926 92.6848 492.466 92.7424 491.72 92.7424ZM542.349 90.2094C542.349 91.8788 541.718 92.6848 539.594 92.6848C537.872 92.6848 536.896 92.2818 536.494 91.591L537.355 91.4183L538.388 87.7915C533.165 86.4674 531.27 82.3801 526.965 82.3801C525.53 82.4377 524.152 82.8406 522.947 83.5315L523.923 86.7553C524.841 86.3523 525.76 86.122 526.793 86.122C529.319 86.122 530.696 87.9642 533.968 89.5185C530.639 90.785 528.343 92.6848 521.742 92.6848C520.708 92.6848 519.618 92.4545 518.699 91.994C519.56 90.6699 519.962 89.1731 519.962 87.6188C520.077 84.2223 517.436 81.4014 514.05 81.2863C513.935 81.2863 513.82 81.2863 513.648 81.2863C510.778 81.2863 508.195 83.0133 504.062 87.7915C504.521 85.9493 504.75 84.1071 504.808 82.2074V75.8173H501.249V91.188C500.847 91.7061 500.445 92.1667 500.043 92.7424H496.772C496.772 91.188 496.714 90.1518 496.657 89.1731C496.427 84.9131 494.016 82.4377 490.457 82.4377C486.611 82.4377 483.741 85.4888 483.741 89.6337C483.741 93.8937 486.669 96.4843 491.204 96.4843H493.155C492.524 98.2689 490.17 99.3627 486.152 99.3627V102.644C493.213 102.644 496.198 100.169 496.714 96.4843H508.08C511.639 96.4843 514.509 95.6208 516.518 94.124C518.125 95.7359 519.847 96.4843 521.569 96.4843C529.089 96.4843 530.295 93.8361 534.141 92.3394C534.485 95.1026 536.322 96.4843 539.479 96.4843C543.612 96.4843 545.793 94.2967 545.793 90.8426V75.7598H542.234V90.2094H542.349Z" fill="#3D3935"/>
<path d="M554.117 75.7598H550.558V96.4267H554.117V75.7598Z" fill="#3D3935"/>
</svg>
