<svg width="121" height="36" viewBox="0 0 121 36" fill="none" xmlns="http://www.w3.org/2000/svg">
<g clip-path="url(#clip0_1038_2858)">
<path d="M13.4333 1.76169C16.1956 2.08734 19.8786 3.70083 22.1579 6.18767C19.1692 2.59063 15.139 0.148199 11.2447 0.000172375C4.93523 -0.221867 1.41825 5.71399 3.38051 13.2337C3.65221 14.2847 4.01447 15.3061 4.4673 16.2979C5.08617 17.8225 5.96164 19.362 7.07862 20.8423C7.81825 21.8193 8.63334 22.7518 9.49372 23.6104C8.87485 22.9739 8.30126 22.3077 7.77296 21.5972C2.62579 14.7732 3.27485 7.23866 9.49372 5.04787C12.2107 4.0857 15.7126 4.51498 18.973 5.58076C15.9088 3.46399 12.1805 2.14655 8.02957 3.5232C6.50504 4.02649 5.34277 4.95905 4.54277 6.18767C5.84089 2.9903 8.72391 1.21399 13.4333 1.76169Z" fill="#144992"/>
<path d="M27.0184 15.8686H26.958C30.641 21.8341 31.441 27.9475 29.0259 31.2041C25.7353 35.6449 17.1617 33.2025 9.87118 25.742C2.74665 18.4591 -0.513726 9.089 2.41458 4.52979C2.3542 4.6186 2.27873 4.69261 2.21835 4.78143C-1.29863 9.51827 2.17307 19.8357 9.96175 27.7995C17.7655 35.7633 26.9278 38.3834 30.4448 33.6466C33.2221 29.9015 31.6372 22.6778 27.0184 15.8686Z" fill="#F68B22"/>
<path d="M25.2977 12.9228C26.2184 14.033 26.5052 15.2912 25.9316 15.7649C25.3581 16.2386 24.1354 15.7205 23.2147 14.6251C22.2939 13.5297 22.0071 12.2567 22.5807 11.7978C23.1392 11.3241 24.3618 11.8274 25.2977 12.9228Z" fill="#F68B22"/>
<path d="M36.3467 13.2634C36.4675 13.2634 36.6184 13.3078 36.7694 13.3966C36.9052 13.4855 37.026 13.5743 37.1467 13.6483C37.4637 13.1746 37.6297 12.923 37.6297 12.8785C37.6297 12.7157 37.5543 12.5677 37.4033 12.4493C37.2524 12.316 37.0863 12.2568 36.9203 12.2568C36.4222 12.2568 35.9694 12.4641 35.5316 12.8637C35.109 13.2634 34.8826 13.7075 34.8826 14.196C34.8826 14.4032 35.0184 14.5512 35.275 14.6253C35.5014 14.6845 35.7128 14.7437 35.9241 14.8029C35.6977 14.9213 35.5014 15.0693 35.3052 15.247C35.0788 15.4838 34.958 15.691 34.9731 15.8687V15.9427C35.7429 15.2618 36.6486 14.9065 37.675 14.8769C37.9165 14.5512 38.1429 14.2256 38.3241 13.9295C36.8599 13.9295 35.9995 13.7963 35.7429 13.5151C36.0146 13.3522 36.2109 13.2634 36.3467 13.2634Z" fill="#144992"/>
<path d="M44.6485 13.2487C44.6485 12.8935 44.573 12.5382 44.422 12.1681C44.2711 11.7981 44.0447 11.5168 43.7881 11.3096L43.139 12.4494C43.2749 12.5678 43.4107 12.7602 43.5768 13.0415C43.7428 13.3227 43.8183 13.5448 43.8183 13.6928C43.8183 13.7224 43.8032 13.7224 43.8032 13.7224H41.9013H41.5239H41.2975C41.0711 13.7224 40.9654 13.6632 40.9353 13.5448C40.8447 13.1451 40.7541 12.5086 40.6937 11.6204C40.6485 10.9543 40.6032 10.2882 40.5579 9.62207C40.4824 9.68128 40.3466 9.85891 40.1202 10.1106C39.8937 10.3918 39.7881 10.5694 39.7881 10.6138L40.1805 14.9214H41.5088H41.8862H44.3013C44.5277 14.9066 44.6485 14.3441 44.6485 13.2487Z" fill="#144992"/>
<path d="M43.3203 15.8538C43.0486 15.617 42.8826 15.4985 42.8373 15.4985C42.792 15.4985 42.641 15.617 42.3844 15.8538C42.1278 16.1054 42.0071 16.2387 42.0071 16.2831C42.0071 16.3275 42.1278 16.4459 42.3844 16.6383C42.6259 16.8308 42.792 16.9492 42.8524 16.9492C43.441 16.6235 43.7278 16.4015 43.7278 16.2831C43.7278 16.2387 43.592 16.1054 43.3203 15.8538Z" fill="#144992"/>
<path d="M51.4409 13.1745C51.2145 13.2633 50.9579 13.3521 50.7315 13.4557H50.656C51.1089 12.8636 51.4862 12.4788 51.7579 12.3159C51.7881 12.39 51.7881 12.464 51.7881 12.5676C51.7881 12.8488 51.6824 13.0561 51.4409 13.1745ZM51.7881 15.2913H51.5315C51.3504 15.2913 51.1541 15.2173 50.973 15.0988C50.7919 14.9804 50.6711 14.8176 50.5806 14.64C50.7919 14.64 51.0183 14.6844 51.2598 14.788C51.5164 14.9064 51.6975 15.0396 51.773 15.2025V15.2913H51.7881ZM60.7692 10.4656C60.407 10.2584 60.2258 10.0955 60.1806 10.0067C60.1504 9.91792 60.1353 9.78469 60.1202 9.63667L60.0447 9.57746C59.8032 9.8439 59.5466 10.2732 59.2598 10.8653C59.3655 11.0133 59.4862 11.1317 59.607 11.2057C59.6673 11.3686 59.7579 11.7534 59.8485 12.3604C59.939 12.9673 59.9994 13.3817 59.9994 13.589C59.9994 13.6186 59.9843 13.663 59.9692 13.7074H59.1089C58.9277 13.7074 58.8221 13.7074 58.807 13.6926C58.7013 13.6778 58.6409 13.6186 58.6258 13.515C58.5806 13.2485 58.5353 12.5972 58.4749 11.5462C58.4296 10.7173 58.324 10.0659 58.2032 9.57746L58.1579 9.54785L57.2975 10.7469L57.7504 13.7222H56.5881H56.3768C56.0598 13.7222 55.607 13.4113 55.0485 12.7896C54.656 12.3455 54.2636 11.8867 53.856 11.4574L56.3919 10.9541C56.5277 10.5396 56.6334 10.14 56.724 9.76989C56.6334 9.75509 55.5164 9.97713 53.373 10.436C53.1617 10.9689 53.0107 11.5166 52.9202 12.0791L54.6711 13.7222H52.9202H51.8636C51.9994 13.4261 52.1051 13.1449 52.2409 12.8636C52.3919 12.4788 52.4674 12.1827 52.4674 11.9903V11.3686C52.1202 11.3686 51.7277 11.561 51.3051 11.9459C50.9277 12.2715 50.6409 12.5972 50.4296 12.9673C50.2787 13.3077 50.1579 13.5594 50.0975 13.7518H49.7202H49.5089C49.0409 13.7518 48.6938 13.589 48.4372 13.2781C48.2107 12.9525 47.9843 12.612 47.773 12.2863C47.7126 12.3604 47.5919 12.538 47.4107 12.834C47.2296 13.1301 47.139 13.2929 47.139 13.3373C47.139 13.3521 47.2447 13.5002 47.456 13.7814C47.6673 14.0627 47.7881 14.2551 47.7881 14.3735C47.7881 14.64 47.4711 14.9656 46.8523 15.3653C46.2485 15.7798 45.7655 15.987 45.4485 15.987C45.2523 15.987 44.9956 15.913 44.739 15.7502C44.4673 15.6021 44.3466 15.5281 44.3768 15.5281C44.3315 15.5281 44.3164 15.5281 44.3164 15.5577V15.6909C44.5126 15.913 44.89 16.1498 45.4032 16.4163C45.9315 16.6679 46.339 16.7863 46.6107 16.7863C47.0183 16.7863 47.3957 16.5495 47.7277 16.0758C47.9692 15.6613 48.1957 15.2617 48.4221 14.862L48.4824 14.8028C48.6636 14.8916 48.8145 14.936 48.9202 14.936H49.2372H49.7353H49.7504C49.7806 14.936 49.8711 15.0692 50.007 15.3357C50.1881 15.6761 50.3541 15.9278 50.49 16.0906C50.7164 16.3571 50.9579 16.4903 51.1843 16.4903C51.7881 16.4903 52.256 15.9722 52.6032 14.936H54.7315L55.1994 14.1959L56.0145 14.936H56.9353H57.4183L57.8107 14.2107C57.8258 14.3439 57.8409 14.4919 57.8409 14.6252C57.8711 14.8324 57.9315 14.936 58.0221 14.936H58.8221H59.1692H60.3164C60.4221 14.8768 60.4824 14.8472 60.4975 14.8176C60.5428 14.7584 60.6183 14.5363 60.6938 14.1663C60.7843 13.7814 60.8145 13.5594 60.7994 13.4705L60.6183 11.9459L61.4938 10.8357C61.2824 10.7469 61.0409 10.6284 60.7692 10.4656Z" fill="#144992"/>
<path d="M65.2371 10.2287C65.7504 10.5396 66.0522 10.6876 66.1579 10.6876C66.2032 10.6876 66.3088 10.584 66.49 10.3619C66.656 10.1695 66.7617 10.0363 66.822 9.94747L65.8862 9.45898C65.4787 9.75504 65.2824 9.91787 65.2975 9.91787C65.1617 9.91787 64.89 9.76984 64.4522 9.45898C64.0749 9.85866 63.8636 10.0955 63.7881 10.1843C64.1805 10.436 64.4975 10.584 64.7239 10.658C64.9805 10.436 65.1617 10.2879 65.2371 10.2287Z" fill="#144992"/>
<path d="M70.2636 15.8981C70.1277 16.0462 70.0371 16.1202 69.9768 16.1202C69.9013 16.1202 69.6296 15.9721 69.1768 15.6613C68.9504 15.9129 68.7541 16.1646 68.573 16.4162C68.7541 16.5791 69.0409 16.7567 69.4334 16.9491C69.6598 16.7271 69.8258 16.5494 69.9315 16.4606L70.7768 16.9491C70.973 16.7863 71.1843 16.5494 71.4107 16.1794L70.5353 15.6465C70.5051 15.6761 70.4145 15.7501 70.2636 15.8981Z" fill="#144992"/>
<path d="M65.6598 13.0857C65.8258 12.9525 65.9617 12.8489 66.0824 12.8045C66.3239 12.5824 66.49 12.4048 66.5805 12.2568L66.7919 13.2338L65.6598 13.0857ZM70.4447 12.464C70.7617 12.8933 70.9881 13.3078 71.139 13.7074H68.8296H68.4371H68.256C67.9541 13.7074 67.7881 13.6186 67.7277 13.441C67.622 13.1301 67.5013 12.612 67.3805 11.8867C67.2447 11.043 67.139 10.4953 67.0636 10.2436L67.0032 10.1992L66.339 11.3242C66.3692 11.4278 66.3994 11.5463 66.4447 11.6647C66.0371 11.8867 65.6296 12.1088 65.222 12.3456C64.9353 12.5232 64.739 12.7305 64.5881 12.9821C64.4522 13.219 64.3013 13.663 64.1353 14.3143L66.1579 14.6696C66.2636 14.6844 66.3843 14.566 66.5353 14.3143C66.7164 14.0035 66.807 13.8259 66.8673 13.7815C66.9428 14.0183 67.0183 14.2551 67.0937 14.492C67.2296 14.7732 67.3956 14.9065 67.6522 14.9065H68.422H68.8145H71.6824C71.8485 14.0627 71.9239 13.5002 71.9239 13.2042C71.9239 12.6861 71.6371 12.0792 71.0636 11.3982L70.4447 12.464Z" fill="#144992"/>
<path d="M73.9314 11.1318L73.539 12.3901C73.7654 12.4197 74.022 12.5973 74.3692 12.8933C74.7013 13.2042 74.8673 13.4559 74.8673 13.6631C74.8673 13.6779 74.8673 13.6927 74.8522 13.7075H72.6635L72.5579 14.9065H75.2597C75.5013 14.9065 75.6371 14.492 75.6371 13.6483C75.622 12.4641 75.0635 11.6203 73.9314 11.1318Z" fill="#144992"/>
<path d="M78.4749 13.7076C78.1428 13.7076 77.9315 13.5892 77.7956 13.3819C77.8107 13.3671 77.8107 13.3523 77.7956 13.3375C77.7805 13.2783 77.8258 13.2043 77.9315 13.1155C78.0371 13.0267 78.1126 12.9674 78.1579 12.9674C78.2787 12.9674 78.3843 13.0563 78.49 13.2339C78.5051 13.2487 78.5654 13.3967 78.7013 13.6484C78.6258 13.678 78.5503 13.7076 78.4749 13.7076ZM91.2296 10.4658C90.8673 10.2586 90.6711 10.0957 90.6409 10.0069C90.5956 9.9181 90.5805 9.78487 90.5805 9.63685L90.5051 9.57764C90.2636 9.84408 90.007 10.2586 89.7202 10.8655C89.8409 11.0135 89.9466 11.1319 90.0673 11.2059C90.1277 11.3688 90.2183 11.7536 90.3088 12.3605C90.4145 12.9674 90.4598 13.3819 90.4598 13.5892C90.4598 13.6188 90.4447 13.6632 90.4296 13.7076H89.6447H89.3579C89.0107 13.7076 88.8296 13.4707 88.8296 13.0267C88.8447 12.997 88.8447 12.9378 88.8447 12.8638C88.8447 12.7898 88.8296 12.7306 88.8296 12.701C88.8296 12.5086 88.8145 12.3605 88.7843 12.2273C88.6937 12.2865 88.5579 12.4345 88.3466 12.6714C88.1353 12.923 88.0447 13.0859 88.0447 13.1747C88.0447 13.2191 88.0598 13.2783 88.0749 13.3671C88.09 13.4559 88.1051 13.5151 88.1051 13.5595C88.1051 13.604 88.0749 13.6484 88.0447 13.6928C87.5164 13.6632 87.2447 13.6632 87.1994 13.6928C87.3202 13.1747 87.3805 12.701 87.3805 12.2421C87.3805 12.2125 87.3654 12.1533 87.3503 12.1237C87.2296 12.2273 87.0636 12.4049 86.8673 12.6714C86.6409 12.9674 86.5353 13.1747 86.5353 13.2783C86.5353 13.4855 86.49 13.6188 86.4296 13.678H86.007H85.539H85.4334C85.6598 13.0415 85.7805 12.627 85.7805 12.4197L85.7503 12.1385C85.6447 12.1829 85.4787 12.3309 85.2673 12.5678C85.0409 12.8194 84.9353 12.9822 84.9353 13.0859C84.9353 13.2931 84.89 13.4855 84.7994 13.6632H83.8786H83.5315H83.1541C83.2447 13.5299 83.3202 13.3967 83.3805 13.2783C83.4862 13.1155 83.5315 12.9822 83.5315 12.8786C83.5315 12.5826 83.3654 12.3161 83.0334 12.0941C82.7315 11.8868 82.4145 11.7832 82.0975 11.7832C81.5843 11.7832 81.1919 11.9016 80.9504 12.1681C80.7994 12.3161 80.6183 12.6566 80.3617 13.2191C80.6183 13.1895 80.739 13.1747 80.7692 13.1747C81.1164 13.1747 81.4183 13.3375 81.6447 13.6484H80.2409H79.7881H79.5919C79.3956 12.3901 79.0485 11.7536 78.5353 11.7536C78.2032 11.7536 77.8862 12.0645 77.5541 12.6714C77.2673 13.2191 77.1164 13.6632 77.1164 14.0036C77.1164 14.3293 77.3126 14.5513 77.6749 14.6697C77.7202 14.6845 78.0522 14.7586 78.6409 14.8622C78.3692 15.1138 78.0371 15.3507 77.6598 15.5579C77.222 15.7799 76.8296 15.8984 76.5126 15.8984C76.422 15.8984 76.256 15.8688 76.0296 15.8095C75.8032 15.7503 75.6522 15.7207 75.5315 15.7207C75.5013 15.7207 75.4711 15.7355 75.4409 15.7651V15.8688C75.6221 16.0908 75.939 16.2684 76.3617 16.4313C76.7692 16.5793 77.1315 16.6681 77.4485 16.6681C77.8258 16.6681 78.2334 16.4461 78.6409 16.0168C78.9579 15.6763 79.2145 15.2915 79.4107 14.8622H79.7881H80.256H81.7805C81.9466 14.6253 82.0673 14.4329 82.1428 14.3145C82.2937 14.5513 82.3994 14.7438 82.4749 14.8622H83.5315H83.8786H84.5126C84.573 14.8622 84.6485 14.8178 84.739 14.729C84.8296 14.6401 84.8749 14.5809 84.9051 14.5513C84.9654 14.6549 85.0107 14.7734 85.0107 14.8622H85.5239H85.9919H86.339C86.339 14.8622 86.3994 14.8326 86.4598 14.7734C86.5202 14.6993 86.5654 14.6697 86.5956 14.6697C86.6409 14.6697 86.7164 14.7438 86.807 14.8622H88.3164C88.407 14.729 88.4824 14.6253 88.5428 14.5513C88.6032 14.6845 88.6636 14.7882 88.6937 14.8622H89.2371H89.6296H90.7164C90.8221 14.803 90.8824 14.7734 90.8975 14.7586C90.9428 14.6993 91.0183 14.4773 91.0938 14.1072C91.1692 13.7224 91.2145 13.5003 91.1994 13.4115L91.0787 11.9165L91.9541 10.8063C91.7428 10.747 91.5164 10.6286 91.2296 10.4658Z" fill="#144992"/>
<path d="M92.875 11.4573L93.3731 14.9952C93.8108 14.4919 94.0222 13.8702 94.0222 13.13C94.0222 12.4787 93.9165 11.4573 93.6901 10.0215C93.2976 10.5692 93.0259 11.0577 92.875 11.4573Z" fill="#144992"/>
<path d="M98.2787 10.2287C98.7919 10.5396 99.0938 10.6876 99.1994 10.6876C99.2447 10.6876 99.3655 10.584 99.5466 10.3619C99.7127 10.1695 99.8183 10.0363 99.8636 9.94747L98.9277 9.45898C98.5202 9.75504 98.324 9.91787 98.3391 9.91787C98.2183 9.91787 97.9315 9.76984 97.4938 9.45898C97.1164 9.85866 96.89 10.0955 96.8447 10.1843C97.2372 10.436 97.5542 10.584 97.7655 10.658C98.0372 10.436 98.2032 10.2879 98.2787 10.2287Z" fill="#144992"/>
<path d="M98.7013 13.0857C98.8825 12.9524 99.0183 12.8488 99.124 12.8044C99.3655 12.5824 99.5315 12.4047 99.6221 12.2567L99.8334 13.2337L98.7013 13.0857ZM104.196 12.4491C103.758 12.1087 103.305 11.7682 102.882 11.4278C103.939 11.1021 104.739 10.8653 105.267 10.7172C105.403 10.2732 105.509 9.87348 105.584 9.50342L102.052 10.5248C101.992 10.7764 101.932 11.0133 101.871 11.2501C101.781 11.5462 101.75 11.783 101.75 11.9607C101.75 12.0199 101.886 12.1975 102.158 12.4639C102.43 12.7452 102.611 12.8784 102.671 12.8784C102.762 12.8784 102.822 12.834 102.852 12.7452L104.105 13.6926H101.871H101.298C101.011 13.6926 100.845 13.6037 100.769 13.4261C100.664 13.1153 100.558 12.5972 100.422 11.8718C100.286 11.0281 100.181 10.4656 100.12 10.2287L100.06 10.1843L99.3806 11.3093C99.3957 11.413 99.441 11.5314 99.4862 11.6498C99.0787 11.8866 98.6711 12.0939 98.2636 12.3307C97.9919 12.5084 97.7806 12.7156 97.6447 12.9672C97.5089 13.2041 97.3579 13.6482 97.1919 14.2995L99.2296 14.6547C99.3202 14.6695 99.456 14.5511 99.607 14.2847C99.773 13.9738 99.8787 13.7962 99.9391 13.7666C100.015 14.0034 100.09 14.2403 100.165 14.4771C100.286 14.7584 100.482 14.8916 100.724 14.8916H101.298H101.871H104.784C105.026 14.1366 105.147 13.7074 105.147 13.5889C105.177 13.3965 104.845 13.0116 104.196 12.4491Z" fill="#144992"/>
<path d="M113.222 11.1763L114.173 11.6352C114.535 11.3835 114.777 11.1319 114.852 10.9098L113.886 10.377C113.781 10.4806 113.69 10.5546 113.584 10.6582C113.403 10.8062 113.313 10.8802 113.298 10.8802C113.177 10.8802 112.89 10.7322 112.452 10.4066C112.105 10.7174 111.864 10.9691 111.743 11.1319C112.301 11.4575 112.618 11.6204 112.694 11.6204C112.679 11.6204 112.86 11.4723 113.222 11.1763Z" fill="#144992"/>
<path d="M112.86 10.3027C113.056 10.4655 113.177 10.5544 113.207 10.5544C113.268 10.5544 113.403 10.4803 113.584 10.3175C113.735 10.1843 113.841 10.0807 113.886 10.0067C113.494 9.62179 113.268 9.42935 113.207 9.41455C112.769 9.74021 112.543 9.93264 112.543 10.0215C112.558 10.0363 112.649 10.1399 112.86 10.3027Z" fill="#144992"/>
<path d="M117.796 10.4658C117.433 10.2586 117.237 10.0957 117.207 10.0069C117.162 9.9181 117.147 9.78487 117.147 9.63685L117.086 9.57764C116.845 9.84408 116.573 10.2734 116.301 10.8655C116.407 11.0135 116.528 11.1319 116.633 11.2059C116.709 11.3688 116.784 11.7536 116.875 12.3605C116.965 12.9674 117.026 13.3819 117.026 13.5892C117.026 13.6188 117.011 13.6632 116.981 13.6928H116.211H115.909C115.562 13.6928 115.396 13.4559 115.396 13.0118C115.396 12.9822 115.411 12.923 115.411 12.849C115.411 12.775 115.411 12.7158 115.396 12.6862C115.396 12.4938 115.381 12.3457 115.35 12.2273C115.26 12.2865 115.109 12.4345 114.913 12.6714C114.716 12.923 114.611 13.0859 114.611 13.1747C114.611 13.2191 114.626 13.2783 114.641 13.3671C114.671 13.4559 114.671 13.5151 114.671 13.5595C114.671 13.604 114.656 13.6484 114.611 13.6928C114.098 13.6632 113.811 13.6632 113.765 13.6928C113.886 13.1895 113.947 12.701 113.947 12.2421C113.947 12.2125 113.931 12.1681 113.916 12.1237C113.796 12.2273 113.645 12.4049 113.433 12.6714C113.207 12.9822 113.101 13.1747 113.101 13.2783C113.101 13.4707 113.056 13.6188 112.996 13.678H112.558H112.09H111.999C112.226 13.0415 112.331 12.627 112.331 12.4197L112.301 12.1385C112.196 12.1829 112.03 12.3309 111.818 12.5678C111.607 12.8194 111.501 12.9822 111.501 13.0859C111.501 13.2931 111.456 13.4855 111.35 13.6632H110.46H110.279C109.811 13.6632 109.464 13.5003 109.207 13.1895C108.996 12.8638 108.769 12.5234 108.543 12.1977C108.482 12.2717 108.362 12.4493 108.181 12.7454C107.999 13.0415 107.924 13.2043 107.924 13.2487C107.924 13.2635 108.03 13.4115 108.241 13.6928C108.452 13.974 108.573 14.1665 108.573 14.2849C108.573 14.5513 108.256 14.877 107.637 15.2766C107.018 15.6911 106.55 15.8984 106.233 15.8984C106.022 15.8984 105.781 15.8243 105.524 15.6615C105.252 15.5135 105.131 15.4395 105.147 15.4395C105.101 15.4395 105.086 15.4395 105.086 15.4691V15.6023C105.282 15.8243 105.645 16.0612 106.173 16.3276C106.701 16.5793 107.094 16.7125 107.365 16.7125C107.788 16.7125 108.165 16.4757 108.513 16.002C108.739 15.5875 108.981 15.1878 109.207 14.803L109.267 14.7438C109.464 14.8326 109.599 14.877 109.705 14.877H110.143H110.52H111.124C111.184 14.877 111.26 14.8326 111.35 14.7438C111.426 14.6549 111.486 14.5957 111.516 14.5661C111.577 14.6845 111.622 14.7882 111.622 14.877H112.15H112.618H112.95C112.981 14.877 113.011 14.8474 113.086 14.7882C113.147 14.7142 113.192 14.6845 113.207 14.6845C113.267 14.6845 113.328 14.7586 113.433 14.877H114.928C115.018 14.7438 115.109 14.6401 115.154 14.5661C115.214 14.6993 115.275 14.803 115.305 14.877H115.833H116.241H117.328C117.433 14.8178 117.494 14.7882 117.509 14.7734C117.554 14.7142 117.63 14.4921 117.705 14.122C117.796 13.7372 117.826 13.5151 117.811 13.4263L117.675 11.9313L118.55 10.8359C118.324 10.747 118.082 10.6286 117.796 10.4658Z" fill="#144992"/>
<path d="M120.271 10.0215C119.864 10.584 119.577 11.0577 119.441 11.4721L119.954 15.01C120.392 14.5067 120.603 13.885 120.603 13.1448C120.603 12.4787 120.498 11.4425 120.271 10.0215Z" fill="#144992"/>
<path d="M52.5882 21.0493H51.6523V21.9079H52.5882V21.0493Z" fill="#144992"/>
<path d="M75.5012 21.0493H74.5503V21.9079H75.5012V21.0493Z" fill="#144992"/>
<path d="M81.2071 21.0493H80.2712V21.9079H81.2071V21.0493Z" fill="#144992"/>
<path d="M37.8863 23.2254C37.6599 23.107 37.2976 22.9886 36.8146 22.885C36.3316 22.7666 36.0297 22.6629 35.9089 22.5593C35.8183 22.4705 35.758 22.3817 35.758 22.2633C35.758 22.1448 35.8032 22.0412 35.9089 21.9672C36.0749 21.8488 36.3014 21.7896 36.5882 21.7896C36.8599 21.7896 37.0863 21.8488 37.207 21.9524C37.3429 22.056 37.4334 22.2337 37.4787 22.4853L38.4749 22.4557C38.4599 22.0116 38.2938 21.6564 37.9768 21.3899C37.6599 21.1235 37.207 20.9902 36.5882 20.9902C36.2108 20.9902 35.8938 21.0494 35.6221 21.1679C35.3655 21.2863 35.1542 21.4491 35.0183 21.6564C34.8674 21.8636 34.7919 22.1004 34.7919 22.3521C34.7919 22.7369 34.9429 23.0478 35.2448 23.3142C35.4561 23.5067 35.8334 23.6547 36.3617 23.7879C36.7844 23.8767 37.041 23.9508 37.1466 23.9952C37.3127 24.0544 37.4334 24.1284 37.5089 24.2024C37.5693 24.2764 37.5995 24.38 37.5995 24.4837C37.5995 24.6613 37.524 24.8093 37.358 24.9425C37.1919 25.0758 36.9504 25.135 36.6334 25.135C36.3316 25.135 36.1051 25.061 35.9089 24.9129C35.7429 24.7649 35.6221 24.5281 35.5617 24.2024L34.5957 24.2912C34.6561 24.8389 34.8523 25.2386 35.1844 25.5346C35.5165 25.8159 35.9995 25.9639 36.6183 25.9639C37.041 25.9639 37.4032 25.9047 37.6749 25.7863C37.9617 25.6679 38.1882 25.4902 38.3542 25.2534C38.5051 25.0166 38.5806 24.7501 38.5806 24.4837C38.5806 24.1876 38.5202 23.9212 38.3844 23.7139C38.2938 23.5067 38.1127 23.3587 37.8863 23.2254Z" fill="#144992"/>
<path d="M41.4184 24.3948C41.4184 24.6168 41.4033 24.7649 41.3731 24.8537C41.3429 24.9721 41.2675 25.0757 41.1467 25.1645C40.9958 25.2681 40.8297 25.3274 40.6637 25.3274C40.5128 25.3274 40.3769 25.2829 40.2863 25.1793C40.1958 25.0905 40.1354 24.9721 40.1354 24.8537C40.1354 24.7204 40.2109 24.6168 40.3165 24.528C40.392 24.4688 40.558 24.4244 40.8297 24.3652C41.0863 24.3208 41.2675 24.2616 41.4033 24.2172V24.3948H41.4184ZM42.3392 24.7353L42.3543 23.6547C42.3543 23.255 42.309 22.9737 42.2335 22.8257C42.1429 22.6777 42.0071 22.5445 41.7958 22.4408C41.5995 22.352 41.2826 22.3076 40.8599 22.3076C40.392 22.3076 40.0448 22.3816 39.8184 22.5445C39.592 22.7073 39.426 22.9589 39.3203 23.2994L40.1656 23.4474C40.226 23.2846 40.3014 23.1662 40.4071 23.107C40.4977 23.0478 40.6335 23.0181 40.7995 23.0181C41.0411 23.0181 41.2071 23.0626 41.3128 23.1366C41.4033 23.2106 41.4486 23.3438 41.4486 23.5214V23.6102C41.2826 23.6843 40.9807 23.7583 40.5278 23.8471C40.2109 23.9063 39.9543 23.9803 39.7882 24.0543C39.6222 24.1431 39.4863 24.2616 39.3807 24.4096C39.275 24.5576 39.2297 24.7501 39.2297 24.9425C39.2297 25.2385 39.3354 25.4902 39.5467 25.6826C39.758 25.8751 40.0448 25.9787 40.4071 25.9787C40.6184 25.9787 40.7995 25.9343 40.9958 25.8602C41.1769 25.7862 41.3429 25.6678 41.509 25.5198C41.509 25.5346 41.5241 25.5642 41.5392 25.6234C41.5694 25.7418 41.5995 25.8306 41.6297 25.8899H42.5656C42.4901 25.727 42.4297 25.5642 42.3995 25.4162C42.3543 25.2681 42.3392 25.0461 42.3392 24.7353Z" fill="#144992"/>
<path d="M45.5692 23.8767C45.5692 24.38 45.5541 24.6909 45.4937 24.8241C45.4484 24.9573 45.3579 25.061 45.2371 25.1498C45.1013 25.2386 44.9654 25.283 44.7994 25.283C44.6635 25.283 44.5428 25.2534 44.4371 25.1794C44.3466 25.1202 44.2862 25.0314 44.2409 24.9277C44.2107 24.8093 44.1956 24.4985 44.1956 24.01V22.3965H43.2598V24.6169C43.2598 24.9425 43.29 25.209 43.3805 25.3866C43.4711 25.5642 43.5918 25.7271 43.7881 25.8307C43.9843 25.9343 44.1956 25.9935 44.4371 25.9935C44.6635 25.9935 44.905 25.9343 45.1164 25.8307C45.3277 25.7123 45.4937 25.5642 45.6296 25.3866V25.9047H46.505V22.3965H45.5692V23.8767Z" fill="#144992"/>
<path d="M49.5692 24.9722C49.4183 25.1498 49.2221 25.2386 49.0108 25.2386C48.7391 25.2386 48.5277 25.1202 48.3768 24.8686C48.2711 24.7057 48.2107 24.4245 48.2107 24.0544C48.2107 23.6992 48.2862 23.4327 48.4372 23.2699C48.5881 23.0923 48.7843 23.0034 48.9957 23.0034C49.2221 23.0034 49.4032 23.0923 49.5541 23.2699C49.7051 23.4475 49.7806 23.7436 49.7806 24.1432C49.7957 24.5281 49.7202 24.7946 49.5692 24.9722ZM49.7957 22.811C49.5089 22.4854 49.1617 22.3225 48.7692 22.3225C48.3315 22.3225 47.9692 22.4854 47.6975 22.7814C47.4107 23.0923 47.2749 23.5511 47.2749 24.1432C47.2749 24.7206 47.4108 25.1794 47.7126 25.5051C47.9994 25.8307 48.3466 25.9936 48.7541 25.9936C48.9504 25.9936 49.1617 25.9344 49.3579 25.8307C49.5541 25.7271 49.7202 25.5791 49.8711 25.3867V25.9048H50.7466V21.0791H49.8107V22.811H49.7957Z" fill="#144992"/>
<path d="M52.5882 22.3813H51.6523V25.8896H52.5882V22.3813Z" fill="#144992"/>
<path d="M56.4675 23.7582H58.9429V22.9441H56.4675V21.8783H59.109V21.0493H55.4863V25.8898H59.2146V25.0608H56.4675V23.7582Z" fill="#144992"/>
<path d="M60.9805 21.0493H60.0447V25.875H60.9805V21.0493Z" fill="#144992"/>
<path d="M62.6711 23.8474C62.6711 23.5958 62.7314 23.3885 62.8673 23.2405C63.0031 23.0777 63.1692 23.0185 63.3805 23.0185C63.5767 23.0185 63.7428 23.0777 63.8786 23.2257C64.0145 23.3589 64.0899 23.5662 64.0899 23.8474H62.6711ZM64.573 22.8408C64.2711 22.5004 63.8484 22.3228 63.3201 22.3228C62.8522 22.3228 62.4598 22.4856 62.1428 22.826C61.8409 23.1517 61.6899 23.5958 61.6899 24.1879C61.6899 24.6764 61.8107 25.076 62.0371 25.3869C62.339 25.7866 62.7918 25.979 63.4107 25.979C63.8182 25.979 64.1352 25.8902 64.3918 25.7126C64.6484 25.5349 64.8447 25.2833 64.9654 24.9428L64.0296 24.7948C63.9843 24.9724 63.8937 25.1056 63.8031 25.1797C63.7126 25.2685 63.5767 25.2981 63.4258 25.2981C63.2145 25.2981 63.0333 25.2241 62.8824 25.076C62.7314 24.928 62.656 24.706 62.656 24.4395H64.9956C65.0107 23.6994 64.8748 23.1813 64.573 22.8408Z" fill="#144992"/>
<path d="M67.7429 25.0759C67.6372 25.1795 67.4863 25.2387 67.3051 25.2387C67.0636 25.2387 66.8825 25.1499 66.7467 24.9871C66.6108 24.8094 66.5353 24.5134 66.5353 24.0989C66.5353 23.7289 66.6108 23.4624 66.7467 23.2996C66.8825 23.1367 67.0636 23.0627 67.3051 23.0627C67.4712 23.0627 67.6221 23.1071 67.7278 23.196C67.8334 23.2848 67.9089 23.418 67.9391 23.5956L68.875 23.4328C68.7542 23.0627 68.5882 22.7815 68.3165 22.6039C68.0599 22.4262 67.7278 22.3374 67.275 22.3374C66.7467 22.3374 66.324 22.5002 66.0221 22.8259C65.7051 23.1515 65.5542 23.5956 65.5542 24.1729C65.5542 24.7502 65.7051 25.1943 66.0221 25.52C66.324 25.8456 66.7467 26.0085 67.2599 26.0085C67.7127 26.0085 68.075 25.9048 68.3467 25.6828C68.6184 25.4756 68.8146 25.1499 68.9051 24.7354L67.9693 24.5874C67.9391 24.7946 67.8636 24.9723 67.7429 25.0759Z" fill="#144992"/>
<path d="M70.8521 25.2091C70.7917 25.2091 70.7314 25.1943 70.6861 25.1647C70.6408 25.1351 70.6257 25.0907 70.6106 25.0463C70.5955 24.987 70.5955 24.8242 70.5955 24.543V23.1219H71.2446V22.3966H70.5955V21.168L69.6446 21.7009V22.3966H69.2219V23.1219H69.6446V24.6614C69.6446 24.987 69.6597 25.2091 69.6748 25.3127C69.7049 25.4607 69.7502 25.5792 69.8106 25.6828C69.871 25.7716 69.9766 25.8456 70.0974 25.9048C70.2332 25.964 70.3842 25.9936 70.5502 25.9936C70.837 25.9936 71.0785 25.9492 71.2899 25.8456L71.2295 25.1203C71.0785 25.1795 70.9427 25.2091 70.8521 25.2091Z" fill="#144992"/>
<path d="M73.1163 22.426C72.9956 22.5001 72.8748 22.6481 72.7239 22.8849V22.3816H71.8484V25.8751H72.7842V24.7945C72.7842 24.2024 72.8144 23.8175 72.8597 23.6251C72.905 23.4474 72.9805 23.3142 73.071 23.2402C73.1616 23.1662 73.2824 23.1366 73.4031 23.1366C73.539 23.1366 73.6748 23.181 73.8408 23.2846L74.1276 22.4704C73.9163 22.352 73.7352 22.3076 73.5088 22.3076C73.3729 22.3224 73.2371 22.352 73.1163 22.426Z" fill="#144992"/>
<path d="M75.5012 22.3813H74.5503V25.8896H75.5012V22.3813Z" fill="#144992"/>
<path d="M78.4296 25.0759C78.324 25.1795 78.173 25.2387 77.9919 25.2387C77.7504 25.2387 77.5693 25.1499 77.4183 24.9871C77.2825 24.8094 77.207 24.5134 77.207 24.0989C77.207 23.7289 77.2674 23.4624 77.4183 23.2996C77.5542 23.1367 77.7504 23.0627 77.9768 23.0627C78.1429 23.0627 78.2938 23.1071 78.3995 23.196C78.5202 23.2848 78.5806 23.418 78.6108 23.5956L79.5466 23.4328C79.441 23.0627 79.2447 22.7815 79.0032 22.6039C78.7466 22.4262 78.3995 22.3374 77.9617 22.3374C77.4334 22.3374 77.0108 22.5002 76.7089 22.8259C76.407 23.1515 76.241 23.5956 76.241 24.1729C76.241 24.7502 76.407 25.1943 76.7089 25.52C77.0259 25.8456 77.4334 26.0085 77.9617 26.0085C78.4146 26.0085 78.7768 25.9048 79.0485 25.6828C79.3202 25.4756 79.5013 25.1499 79.607 24.7354L78.6712 24.5874C78.6259 24.7946 78.5504 24.9723 78.4296 25.0759Z" fill="#144992"/>
<path d="M81.2071 22.3813H80.2712V25.8896H81.2071V22.3813Z" fill="#144992"/>
<path d="M83.456 25.2091C83.3957 25.2091 83.3353 25.1943 83.29 25.1647C83.2447 25.1351 83.2145 25.0907 83.1994 25.0463C83.1843 24.987 83.1843 24.8242 83.1843 24.543V23.1219H83.8334V22.3966H83.1843V21.168L82.2334 21.7009V22.3966H81.7957V23.1219H82.2334V24.6614C82.2334 24.987 82.2485 25.2091 82.2636 25.3127C82.2938 25.4607 82.324 25.5792 82.3843 25.6828C82.4598 25.7716 82.5504 25.8456 82.6862 25.9048C82.8221 25.964 82.973 25.9936 83.1391 25.9936C83.4108 25.9936 83.6674 25.9492 83.8787 25.8456L83.8183 25.1203C83.6674 25.1795 83.5315 25.2091 83.456 25.2091Z" fill="#144992"/>
<path d="M85.8562 24.8682L85.0109 22.3813H84.0146L85.358 25.8896C85.2977 26.082 85.2222 26.2448 85.1165 26.3781C85.026 26.4965 84.8599 26.5705 84.6486 26.5705C84.5279 26.5705 84.392 26.5557 84.2411 26.5261L84.3316 27.2514C84.4977 27.281 84.6788 27.3106 84.8599 27.3106C85.0411 27.3106 85.192 27.2958 85.3429 27.2514C85.4939 27.207 85.5996 27.1626 85.7052 27.0886C85.7958 27.0146 85.8864 26.9258 85.9618 26.8221C86.0373 26.7185 86.1128 26.5705 86.2033 26.3633L86.4448 25.7415L87.6977 22.3813H86.7165L85.8562 24.8682Z" fill="#144992"/>
<path d="M92.9354 24.883C92.7391 25.0458 92.5127 25.1346 92.2561 25.1346C91.909 25.1346 91.6071 25.0014 91.3807 24.7498C91.1693 24.4981 91.0486 24.054 91.0486 23.4471C91.0486 22.8698 91.1693 22.4554 91.3807 22.1889C91.6071 21.9373 91.909 21.804 92.2712 21.804C92.5278 21.804 92.7542 21.8781 92.9505 22.0261C93.1467 22.1741 93.2524 22.3665 93.3127 22.6182L94.2939 22.3813C94.1882 21.9965 94.0071 21.7004 93.7958 21.508C93.4184 21.1527 92.9203 20.9751 92.3165 20.9751C91.6222 20.9751 91.0788 21.1971 90.641 21.6412C90.2184 22.0853 90.0071 22.707 90.0071 23.5063C90.0071 24.2613 90.2184 24.8682 90.641 25.2975C91.0637 25.7267 91.592 25.9488 92.2561 25.9488C92.7844 25.9488 93.2222 25.8156 93.5693 25.5639C93.9165 25.2975 94.158 24.9126 94.309 24.3797L93.3429 24.0837C93.2675 24.4685 93.1316 24.7202 92.9354 24.883Z" fill="#144992"/>
<path d="M97.3881 24.9423C97.222 25.1348 97.0107 25.2236 96.7692 25.2236C96.5277 25.2236 96.3164 25.1348 96.1503 24.9423C95.9843 24.7647 95.8937 24.4983 95.8937 24.143C95.8937 23.8025 95.9692 23.5213 96.1503 23.3436C96.3164 23.166 96.5277 23.0772 96.7692 23.0772C97.0107 23.0772 97.222 23.166 97.3881 23.3436C97.5541 23.5213 97.6447 23.8025 97.6447 24.143C97.6296 24.4983 97.5541 24.7647 97.3881 24.9423ZM96.7541 22.3223C96.4069 22.3223 96.09 22.3963 95.8032 22.5443C95.5164 22.6923 95.305 22.9144 95.1541 23.1956C95.0032 23.4769 94.9126 23.7877 94.9126 24.0986C94.9126 24.4983 94.9881 24.8387 95.1541 25.12C95.305 25.4012 95.5315 25.6084 95.8333 25.7565C96.1352 25.9045 96.4522 25.9785 96.7692 25.9785C97.2975 25.9785 97.7352 25.8009 98.0824 25.4456C98.4296 25.0904 98.6107 24.6611 98.6107 24.1282C98.6107 23.6101 98.4447 23.166 98.0975 22.8256C97.7503 22.4851 97.2975 22.3223 96.7541 22.3223Z" fill="#144992"/>
<path d="M104.015 22.4703C103.833 22.3667 103.607 22.3223 103.35 22.3223C103.154 22.3223 102.958 22.3667 102.777 22.4703C102.596 22.5591 102.43 22.6923 102.264 22.8848C102.158 22.7071 102.022 22.5591 101.856 22.4703C101.69 22.3815 101.494 22.3223 101.267 22.3223C100.845 22.3223 100.467 22.4999 100.15 22.87V22.3963H99.2749V25.8897H100.211V24.1874C100.211 23.8469 100.226 23.6101 100.286 23.4621C100.347 23.314 100.422 23.2104 100.543 23.1364C100.664 23.0624 100.799 23.018 100.935 23.018C101.056 23.018 101.147 23.0328 101.222 23.092C101.282 23.1364 101.343 23.2104 101.373 23.314C101.418 23.4029 101.418 23.6249 101.418 23.9654V25.8749H102.369V24.1874C102.369 23.8617 102.399 23.6101 102.445 23.4621C102.49 23.314 102.565 23.2104 102.686 23.1216C102.807 23.0476 102.928 23.0032 103.064 23.0032C103.245 23.0032 103.381 23.0624 103.471 23.1956C103.532 23.2992 103.562 23.5213 103.562 23.8617V25.8601H104.513V23.6249C104.513 23.2844 104.482 23.0476 104.407 22.8996C104.332 22.7367 104.196 22.5739 104.015 22.4703Z" fill="#144992"/>
<path d="M107.728 24.9867C107.577 25.1644 107.396 25.2384 107.184 25.2384C106.943 25.2384 106.762 25.1496 106.596 24.9571C106.43 24.7647 106.354 24.4686 106.354 24.0838C106.354 23.7433 106.43 23.4769 106.58 23.2992C106.731 23.1216 106.928 23.0328 107.154 23.0328C107.365 23.0328 107.562 23.1216 107.713 23.2992C107.863 23.4769 107.939 23.7433 107.939 24.1134C107.939 24.5279 107.863 24.8091 107.728 24.9867ZM107.411 22.3223C107.169 22.3223 106.958 22.3815 106.762 22.4851C106.565 22.5887 106.414 22.7219 106.294 22.8996V22.3963H105.418V27.2219H106.354V25.4604C106.535 25.6529 106.701 25.7713 106.867 25.8453C107.018 25.9193 107.199 25.9637 107.411 25.9637C107.818 25.9637 108.18 25.8009 108.467 25.4752C108.754 25.1496 108.905 24.6907 108.905 24.1134C108.905 23.5361 108.754 23.092 108.467 22.7811C108.18 22.4851 107.833 22.3223 107.411 22.3223Z" fill="#144992"/>
<path d="M111.607 24.3948C111.607 24.6168 111.592 24.7649 111.562 24.8537C111.532 24.9721 111.456 25.0757 111.35 25.1645C111.184 25.2681 111.034 25.3274 110.867 25.3274C110.717 25.3274 110.596 25.2829 110.49 25.1793C110.384 25.0905 110.339 24.9721 110.339 24.8537C110.339 24.7204 110.4 24.6168 110.52 24.528C110.596 24.4688 110.777 24.4244 111.034 24.3652C111.29 24.3208 111.486 24.2616 111.607 24.2172V24.3948ZM112.528 24.7353L112.543 23.6547C112.543 23.255 112.498 22.9737 112.422 22.8257C112.332 22.6777 112.196 22.5445 111.984 22.4408C111.773 22.352 111.471 22.3076 111.034 22.3076C110.581 22.3076 110.218 22.3816 109.992 22.5445C109.75 22.7073 109.6 22.9589 109.494 23.2994L110.339 23.4474C110.4 23.2846 110.475 23.1662 110.566 23.107C110.656 23.0478 110.792 23.0181 110.958 23.0181C111.215 23.0181 111.381 23.0626 111.471 23.1366C111.562 23.2106 111.607 23.3438 111.607 23.5214V23.6102C111.441 23.6843 111.124 23.7583 110.686 23.8471C110.354 23.9063 110.128 23.9803 109.947 24.0543C109.781 24.1431 109.645 24.2616 109.554 24.4096C109.464 24.5576 109.403 24.7501 109.403 24.9425C109.403 25.2385 109.509 25.4902 109.72 25.6826C109.932 25.8751 110.234 25.9787 110.581 25.9787C110.792 25.9787 110.973 25.9343 111.169 25.8602C111.35 25.7862 111.517 25.6678 111.683 25.5198C111.698 25.5346 111.698 25.5642 111.713 25.6234C111.743 25.7418 111.773 25.8306 111.803 25.8899H112.739C112.649 25.727 112.603 25.5642 112.573 25.4162C112.528 25.2681 112.528 25.0461 112.528 24.7353Z" fill="#144992"/>
<path d="M116.452 22.7071C116.362 22.5887 116.241 22.5147 116.06 22.4259C115.879 22.3519 115.698 22.3223 115.486 22.3223C115.018 22.3223 114.626 22.5147 114.324 22.8996V22.3815H113.448V25.8897H114.399V24.3058C114.399 23.9209 114.415 23.6545 114.475 23.5065C114.52 23.3733 114.611 23.24 114.732 23.1512C114.852 23.0624 115.003 23.018 115.169 23.018C115.29 23.018 115.396 23.0476 115.486 23.1068C115.577 23.166 115.637 23.2548 115.682 23.3733C115.713 23.4769 115.743 23.7285 115.743 24.1134V25.8897H116.679V23.7285C116.679 23.4621 116.648 23.2548 116.633 23.1068C116.603 22.944 116.543 22.8256 116.452 22.7071Z" fill="#144992"/>
<path d="M119.864 22.3813L119.033 24.8682L118.173 22.3813H117.177L118.52 25.8896C118.46 26.082 118.384 26.2448 118.279 26.3781C118.173 26.4965 118.007 26.5705 117.796 26.5705C117.675 26.5705 117.554 26.5557 117.403 26.5261L117.479 27.2514C117.645 27.281 117.826 27.2958 118.007 27.2958C118.188 27.2958 118.339 27.281 118.49 27.2514C118.641 27.207 118.762 27.1478 118.852 27.0886C118.943 27.0146 119.033 26.9258 119.109 26.8221C119.184 26.7185 119.26 26.5705 119.35 26.3633L119.577 25.7415L120.83 22.3813H119.864Z" fill="#144992"/>
</g>
<defs>
<clipPath id="clip0_1038_2858">
<rect width="120" height="36" fill="white" transform="translate(0.844727)"/>
</clipPath>
</defs>
</svg>
