<svg width="138" height="137" viewBox="0 0 138 137" fill="none" xmlns="http://www.w3.org/2000/svg">
<path d="M50.124 114.064C36.1467 114.819 34.5857 116.778 34.5857 116.778C42.8373 118.059 51.9064 114.67 51.9064 114.67L50.124 114.064Z" fill="#0C9648"/>
<path d="M43.0361 110.583C34.8601 109.981 30.0257 110.81 30.0257 110.81C30.0257 110.81 27.0512 111.262 29.8781 111.864C39.4675 113.071 44.5971 111.412 44.5971 111.412L43.0361 110.583Z" fill="#0C9648"/>
<path d="M37.0776 106.605C33.9556 105.324 25.4807 105.099 24.2167 105.099C22.9546 105.099 22.4324 105.474 24.1429 106.153C32.3946 108.637 38.6387 107.735 38.6387 107.735L37.0776 106.605Z" fill="#0C9648"/>
<path d="M31.1421 101.373C23.0097 98.8227 19.8876 98.9306 18.9964 98.9401C18.1033 98.9495 17.8082 99.029 19.004 99.6212C27.9633 103.067 32.4174 102.564 32.4174 102.564L31.1421 101.373Z" fill="#0C9648"/>
<path d="M27.2782 96.8608C25.9897 95.6026 17.8497 93.4852 16.4343 93.2866C15.0171 93.0841 14.4249 93.2449 16.0786 94.1967C20.2849 96.6073 28.1127 97.7502 28.1127 97.7502L27.2782 96.8608Z" fill="#0C9648"/>
<path d="M23.9196 92.3195C23.176 91.6402 14.7768 87.574 13.8837 87.2712C12.9925 86.9704 11.8761 86.819 13.5109 88.1738C20.2735 93.0385 23.9594 93.2296 24.5705 93.2258L23.9196 92.3195Z" fill="#0C9648"/>
<path d="M21.1363 87.1525C20.7655 86.3994 13.7021 81.951 12.5138 81.5007C11.3236 81.0484 10.7295 80.8214 12.141 82.4808C15.6358 85.6445 21.8061 88.6586 21.8061 88.6586L21.1363 87.1525Z" fill="#0C9648"/>
<path d="M19.1175 82.346C18.7977 81.5248 12.2755 76.9609 11.4392 76.3819C10.6047 75.801 9.32563 75.2334 10.8621 77.0744C14.0011 80.2286 19.4373 83.1672 19.4373 83.1672L19.1175 82.346Z" fill="#0C9648"/>
<path d="M17.5129 77.1463C16.7428 75.9656 12.3909 71.9145 10.8166 70.6922C9.24425 69.4718 9.091 69.9618 10.0219 71.1955C13.5262 75.6421 17.9046 78.2248 17.9046 78.2248L17.5129 77.1463Z" fill="#0C9648"/>
<path d="M16.3436 71.1316C16.0049 70.4901 11.9595 65.2205 10.5895 64.0606C9.22153 62.9026 9.45993 63.8165 10.2414 65.0464C11.0947 66.9783 16.7031 72.5848 16.7031 72.5848L16.3436 71.1316Z" fill="#0C9648"/>
<path d="M15.9461 64.7435C15.3558 63.3868 12.6254 59.1541 11.7683 57.8523C10.9111 56.5486 10.054 56.0623 10.7503 57.8523C12.8392 62.681 15.9972 66.0453 15.9972 66.0453L15.9461 64.7435Z" fill="#0C9648"/>
<path d="M16.3964 58.9178C16.2356 58.2669 13.7191 51.5404 13.1306 50.6151C12.5421 49.6917 12.0615 49.4212 12.4362 51.0503C13.4012 55.7712 16.1845 60.1118 16.1845 60.1118L16.3964 58.9178Z" fill="#0C9648"/>
<path d="M17.617 52.2136C17.5205 51.5665 15.8535 45.6952 15.5281 44.8456C15.2045 43.9979 14.5006 43.0632 14.5442 44.5826C15.2632 50.6791 17.2689 53.4851 17.2689 53.4851L17.617 52.2136Z" fill="#0C9648"/>
<path d="M19.1704 46.6489C19.0588 42.8627 18.4268 39.7842 18.3719 39.0935C18.3152 38.4029 17.8213 37.5079 17.6813 38.8608C17.2896 43.8258 18.7806 48.0793 18.7806 48.0793L19.1704 46.6489Z" fill="#0C9648"/>
<path d="M21.6623 40.3633C21.6623 40.3633 21.4826 35.3396 21.3747 34.1741C21.2688 33.0104 20.7276 32.6093 20.6935 33.8846C20.4059 37.9621 21.0171 41.7483 21.0171 41.7483L21.6623 40.3633Z" fill="#0C9648"/>
<path d="M24.5422 35.6348C25.0455 33.3415 25.0096 28.9707 25.0096 28.789C25.0096 28.6074 24.9377 28.0965 24.722 28.6793C23.6813 31.5194 23.8951 36.6906 23.8951 36.6906L24.5422 35.6348Z" fill="#0C9648"/>
<path d="M28.0313 31.1825C28.3473 30.2572 29.0909 25.3377 29.0909 24.5713C29.0909 23.805 28.6557 24.4824 28.6557 24.4824C27.299 27.0614 27.2177 32.2762 27.2177 32.2762L28.0313 31.1825Z" fill="#0C9648"/>
<path d="M31.4864 27.2661C31.774 26.7571 33.3917 21.8772 33.4618 21.0012C33.5355 20.1289 32.9963 20.8195 32.9963 20.8195C31.5942 22.933 30.5895 28.1383 30.5895 28.1383L31.4864 27.2661Z" fill="#0C9648"/>
<path d="M36.0748 23.7579C36.5421 22.8856 37.9423 18.5166 38.0861 17.8601C38.2299 17.2054 37.6547 17.6784 37.6547 17.6784C35.7872 21.247 35.3558 24.4163 35.3558 24.4163L36.0748 23.7579Z" fill="#0C9648"/>
<path d="M41.2707 19.4929C41.9537 18.7645 43.4996 15.3794 43.5696 14.8307C43.6415 14.2857 43.2461 14.685 43.2461 14.685C41.8799 16.5412 40.4797 19.9641 40.4797 19.9641L41.2707 19.4929Z" fill="#0C9648"/>
<path d="M42.8865 18.9577C46.5819 18.1592 49.7342 16.0079 50.1505 15.7657C50.5705 15.5235 50.5876 15.2302 49.844 15.4194C44.5024 17.0429 42.7106 18.8972 42.7106 18.8972L42.8865 18.9577Z" fill="#0C9648"/>
<path d="M37.6074 22.3879C40.1145 23.0104 43.7361 22.7474 44.6708 22.7436C45.6055 22.7417 45.9139 22.3633 44.86 22.1173C42.9736 21.7597 38.228 21.8145 38.228 21.8145L37.6074 22.3879Z" fill="#0C9648"/>
<path d="M33.1742 26.318C35.984 26.3464 39.2612 25.8336 40.2962 25.6917C41.3312 25.5479 41.7267 25.0106 40.7182 25.0049C38.3416 25.0181 33.9519 25.5725 33.9519 25.5725L33.1742 26.318Z" fill="#0C9648"/>
<path d="M28.8753 30.8175C30.0598 30.7627 34.2528 30.108 36.3285 29.5252C38.4023 28.9443 37.178 28.7097 36.0995 28.7286C35.0191 28.7475 29.5451 30.0058 29.5451 30.0058L28.8753 30.8175Z" fill="#0C9648"/>
<path d="M25.3653 35.6536C25.3653 35.6536 29.4921 35.1295 32.4949 33.9299C35.4977 32.7284 32.2697 33.1314 32.2697 33.1314C28.9339 33.682 25.8932 34.8476 25.8932 34.8476L25.3653 35.6536Z" fill="#0C9648"/>
<path d="M22.4099 41.0162C22.9453 40.8572 27.8309 39.4154 30.1695 38.1155C32.5063 36.8137 31.4259 36.7683 29.7495 37.2148C26.2906 38.2536 23.0267 39.9414 23.0267 39.9414L22.4099 41.0162Z" fill="#0C9648"/>
<path d="M20.1183 45.7313C22.9604 44.9914 27.7929 42.4143 28.3113 42.1116C28.8298 41.8089 30.1732 40.7776 27.8421 41.3604C25.5129 41.9413 20.7579 44.3405 20.7579 44.3405L20.1183 45.7313Z" fill="#0C9648"/>
<path d="M18.1184 50.9841C20.4893 50.3389 25.1591 47.6596 26.5385 46.7098C27.9178 45.758 27.4732 45.3342 25.933 45.8772C22.8469 47.1412 18.4987 49.9075 18.4987 49.9075L18.1184 50.9841Z" fill="#0C9648"/>
<path d="M17.3558 57.1729C19.0417 56.8399 24.1316 52.6753 25.3861 51.3943C26.6387 50.1171 25.634 50.1928 24.773 50.7056C19.6794 53.8522 17.5318 56.3725 17.5318 56.3725L17.3558 57.1729Z" fill="#0C9648"/>
<path d="M17.2498 62.7189C18.2394 62.208 22.5649 58.9782 24.404 56.823C26.2451 54.6678 25.2612 55.0709 23.8212 56.0359C21.3936 57.5874 17.3558 61.8107 17.3558 61.8107L17.2498 62.7189Z" fill="#0C9648"/>
<path d="M17.5147 68.3899C19.1571 67.4117 23.528 62.5394 24.3889 61.3247C25.246 60.108 24.8941 59.8809 23.7531 60.8346C20.2678 63.5101 17.422 67.7315 17.422 67.7315L17.5147 68.3899Z" fill="#0C9648"/>
<path d="M18.5781 75.3528C20.1278 74.2156 23.9159 68.2478 24.8657 66.2175C25.8175 64.1873 25.0682 64.3897 23.8818 65.6991C21.0285 69.0917 18.3019 74.4862 18.3019 74.4862L18.5781 75.3528Z" fill="#0C9648"/>
<path d="M20.5535 80.8816C21.5602 79.7161 25.3331 73.0879 26.0162 71.156C26.6973 69.2279 26.7692 68.4635 24.9736 70.5013C23.1761 72.541 20.1221 79.7142 20.1221 79.7142L20.5535 80.8816Z" fill="#0C9648"/>
<path d="M22.1752 86.3049C24.0692 84.4752 27.0096 76.1573 27.1742 75.5423C27.3388 74.9293 28.2509 72.3352 26.2565 75.0409C24.2603 77.741 21.8781 85.531 21.8781 85.531L22.1752 86.3049Z" fill="#0C9648"/>
<path d="M25.3634 90.7059C26.8923 89.3795 28.669 81.6009 28.9339 79.6293C29.1988 77.6614 29.0796 76.8251 27.8156 79.2433C26.5498 81.6614 24.8506 89.949 24.8506 89.949L25.3634 90.7059Z" fill="#0C9648"/>
<path d="M29.0399 95.5854C29.9765 93.8409 30.9964 85.4492 30.9737 83.2486C30.9491 81.0481 30.6804 79.9771 29.6644 83.0462C28.6483 86.1171 28.1374 94.4539 28.1374 94.4539L29.0399 95.5854Z" fill="#0C9648"/>
<path d="M33.0076 99.5686C33.632 97.5534 33.9121 89.3453 33.9121 87.6272C33.9102 85.9073 33.2536 83.1637 32.5232 87.2602C31.7891 91.3567 31.9972 98.5563 31.9972 98.5563L33.0076 99.5686Z" fill="#0C9648"/>
<path d="M37.5054 103.854C38.2036 102.742 37.5678 94.4845 36.951 91.5498C36.336 88.617 35.8403 88.2007 35.5281 91.5385C35.2159 94.8781 36.5612 103.099 36.5612 103.099L37.5054 103.854Z" fill="#0C9648"/>
<path d="M43.2499 107.479C43.3256 104.231 41.7513 97.2221 40.8772 94.7036C40.0011 92.1852 39.0399 91.1086 39.3937 95.0972C39.7494 99.084 42.3606 107.082 42.3606 107.082L43.2499 107.479Z" fill="#0C9648"/>
<path d="M48.9112 110.463C48.8639 108.028 46.6274 100.509 45.3142 97.9335C44.0011 95.3583 43.2367 94.5352 43.9008 98.3611C44.5668 102.187 48.0389 110.204 48.0389 110.204L48.9112 110.463Z" fill="#0C9648"/>
<path d="M54.8052 112.471C54.8279 111.19 52.2376 103.063 50.7825 100.484C49.3293 97.9053 48.8147 97.8712 49.4466 100.94C50.0767 104.015 53.458 112.17 53.458 112.17L54.8052 112.471Z" fill="#0C9648"/>
<path d="M49 114.146C49 114.146 45.7947 111.387 43.229 111.674C42.8411 111.718 42.0142 110.662 42.0142 110.662C42.0142 110.662 39.4163 107.586 37.2006 107.797C36.8089 107.835 36.0653 106.42 36.0653 106.42C36.0653 106.42 33.3576 102.963 31.0151 102.549L29.8363 101.035C29.8363 101.035 29.6925 99.0596 26.474 97.4191C26.0937 97.2242 25.7531 96.0681 25.7531 96.0681C25.7531 96.0681 24.9073 93.9394 23.14 92.982L23.0152 91.7994C23.0152 91.7994 22.824 89.6669 20.4078 87.8599C20.0672 87.6045 20.421 86.5562 20.421 86.5562C20.421 86.5562 20.2299 83.9072 17.6642 82.0605C17.4144 81.8808 18.1807 81.5042 18.1807 81.5042C18.1807 81.5042 18.3851 78.6509 16.9035 77.5099L16.983 76.5676C16.983 76.5676 17.4806 74.2176 15.878 71.6196C15.6679 71.2791 15.8893 70.5014 15.8893 70.5014C15.8893 70.5014 16.5781 67.4229 15.1892 65.0312C14.9622 64.6395 15.5866 64.123 15.5866 64.123C15.5866 64.123 16.4948 61.6916 15.5241 58.8628C15.3652 58.3992 16.0142 57.9546 16.0142 57.9546C16.0142 57.9546 17.7985 56.263 16.4835 52.0151C16.3415 51.5572 17.3368 51.5421 17.3368 51.5421C17.3368 51.5421 19.1457 50.3122 18.4248 46.7644C18.3151 46.2252 18.8619 45.3699 18.8619 45.3699C18.8619 45.3699 20.966 45.8902 20.86 40.1779L21.6055 39.7767C21.6055 39.7767 23.1779 39.3869 23.9347 35.6253C24.0274 35.1599 24.5232 35.5762 24.5232 35.5762C24.5232 35.5762 27.1817 33.5005 27.263 31.6537L28.0899 30.7625C28.0899 30.7625 29.7758 30.2271 30.6519 27.894L31.5601 27.0672C31.5601 27.0672 34.5591 25.2185 35.5147 23.5175L36.4437 22.8723C36.4437 22.8723 39.3898 21.4267 40.5251 19.93L41.2611 19.4645C41.2611 19.4645 42.4059 19.1694 44.6802 17.7275L43.6112 18.7474C43.6112 18.7474 40.2715 20.3765 39.1949 21.9092L38.3699 22.4787C38.3699 22.4787 35.8685 23.5629 34.5118 25.6443L33.8458 26.3198C33.8458 26.3198 31.5714 27.6481 30.4342 29.8373L30.0028 30.6868C30.0028 30.6868 27.3027 32.4768 27.1835 34.4409L27.0946 35.2942C27.0946 35.2942 24.3415 36.2403 23.8988 39.5421L23.2971 40.7341C23.2971 40.7341 22.0956 41.9697 21.9839 43.771L21.3122 45.3112C21.3122 45.3112 20.1467 46.4371 20.2829 49.0104L19.7096 50.3652C19.7096 50.3652 18.1826 53.228 18.8562 55.1655L18.8789 56.4011C18.8789 56.4011 17.4522 59.0293 18.3548 60.8363C18.3548 60.8363 18.6102 61.3529 18.7294 61.684C17.9158 63.6878 18.3151 65.8032 18.4229 66.4579C18.4229 66.4579 18.6197 67.0785 18.7408 67.4115C17.8439 68.0246 18.2753 71.0009 19.0606 73.3245C19.0606 73.3245 20.1486 73.4134 20.1088 73.5818C19.4522 76.2819 20.4513 77.7805 20.737 78.3633L21.6415 79.3093C21.6415 79.3093 21.0568 82.1608 22.6859 83.1636C22.9697 83.3377 23.5677 84.1646 23.5677 84.1646C23.5677 84.1646 23.2119 87.0406 25.3273 88.0037L26.2942 89.1863C26.2942 89.1863 25.9877 91.5326 28.2848 92.9101L29.5771 93.8334C29.5771 93.8334 29.1854 96.3046 32.0256 97.3396L33.3557 97.5648C33.3557 97.5648 33.0946 100.832 36.3623 101.654L37.7852 102.134C37.7852 102.134 37.6339 104 42.2129 106.072L43.0795 106.212C43.0795 106.212 43.4447 107.919 47.5979 108.842L48.5534 108.074C48.5534 108.074 49.5487 111.294 52.8997 110.745L53.6452 111.722C53.6452 111.722 61.0246 114.282 68.1277 114.002C68.281 114 69.5411 114.009 69.9006 113.998C75.2951 113.828 80.7597 115.692 80.7597 115.692C80.7445 115.695 80.7332 115.699 80.7332 115.699C87.5714 118.189 93.8912 122.859 93.8912 122.859L86.9773 125.72C77.7057 116.467 68.9867 117.273 68.1466 117.315C68.1466 117.315 67.2819 117.338 66.1163 117.283C62.8448 117.124 57.4692 116.201 55.5203 115.701C55.5203 115.701 52.1788 114.908 51.806 114.683L49 114.146Z" fill="#0C9648"/>
<path d="M86.8885 114.064C100.866 114.819 102.427 116.777 102.427 116.777C94.1751 118.058 85.1061 114.669 85.1061 114.669L86.8885 114.064Z" fill="#0C9648"/>
<path d="M93.9765 110.583C102.152 109.981 106.987 110.81 106.987 110.81C106.987 110.81 109.961 111.262 107.134 111.864C97.5451 113.071 92.4155 111.412 92.4155 111.412L93.9765 110.583Z" fill="#0C9648"/>
<path d="M99.9368 106.605C103.059 105.324 111.534 105.099 112.798 105.099C114.06 105.099 114.582 105.474 112.872 106.153C104.62 108.637 98.3758 107.735 98.3758 107.735L99.9368 106.605Z" fill="#0C9648"/>
<path d="M105.871 101.373C114.003 98.8227 117.125 98.9306 118.016 98.9401C118.909 98.9495 119.204 99.029 118.009 99.6212C109.049 103.067 104.595 102.564 104.595 102.564L105.871 101.373Z" fill="#0C9648"/>
<path d="M109.734 96.8608C111.023 95.6026 119.163 93.4852 120.578 93.2866C121.995 93.0841 122.588 93.2449 120.934 94.1967C116.728 96.6073 108.9 97.7502 108.9 97.7502L109.734 96.8608Z" fill="#0C9648"/>
<path d="M113.095 92.3195C113.838 91.6402 122.238 87.574 123.131 87.2712C124.022 86.9704 125.138 86.819 123.503 88.1738C116.741 93.0385 113.055 93.2296 112.444 93.2258L113.095 92.3195Z" fill="#0C9648"/>
<path d="M115.878 87.152C116.249 86.3989 123.312 81.9505 124.501 81.5002C125.691 81.048 126.285 80.8209 124.873 82.4803C121.379 85.644 115.208 88.6582 115.208 88.6582L115.878 87.152Z" fill="#0C9648"/>
<path d="M117.895 82.346C118.215 81.5248 124.737 76.9609 125.573 76.3819C126.408 75.801 127.687 75.2334 126.151 77.0744C123.011 80.2286 117.575 83.1672 117.575 83.1672L117.895 82.346Z" fill="#0C9648"/>
<path d="M119.502 77.1463C120.272 75.9656 124.624 71.9145 126.198 70.6922C127.77 69.4718 127.924 69.9618 126.993 71.1955C123.488 75.6421 119.11 78.2248 119.11 78.2248L119.502 77.1463Z" fill="#0C9648"/>
<path d="M120.671 71.1316C121.01 70.4901 125.055 65.2205 126.425 64.0606C127.793 62.9026 127.555 63.8165 126.773 65.0464C125.92 66.9783 120.311 72.5848 120.311 72.5848L120.671 71.1316Z" fill="#0C9648"/>
<path d="M121.068 64.7435C121.659 63.3868 124.389 59.1541 125.244 57.8523C126.101 56.5486 126.958 56.0623 126.262 57.8523C124.173 62.681 121.015 66.0453 121.015 66.0453L121.068 64.7435Z" fill="#0C9648"/>
<path d="M120.618 58.9178C120.779 58.2669 123.295 51.5404 123.884 50.6151C124.472 49.6917 124.953 49.4212 124.578 51.0503C123.613 55.7712 120.83 60.1118 120.83 60.1118L120.618 58.9178Z" fill="#0C9648"/>
<path d="M119.397 52.2136C119.494 51.5665 121.161 45.6952 121.486 44.8456C121.81 43.9979 122.514 43.0632 122.47 44.5826C121.751 50.6791 119.746 53.4851 119.746 53.4851L119.397 52.2136Z" fill="#0C9648"/>
<path d="M117.842 46.6489C117.954 42.8627 118.586 39.7842 118.641 39.0935C118.697 38.4029 119.191 37.5079 119.331 38.8608C119.723 43.8258 118.232 48.0793 118.232 48.0793L117.842 46.6489Z" fill="#0C9648"/>
<path d="M115.352 40.3633C115.352 40.3633 115.532 35.3396 115.64 34.1741C115.746 33.0104 116.287 32.6093 116.321 33.8846C116.608 37.9621 115.997 41.7483 115.997 41.7483L115.352 40.3633Z" fill="#0C9648"/>
<path d="M112.472 35.6348C111.969 33.3415 112.005 28.9707 112.005 28.789C112.005 28.6074 112.077 28.0965 112.292 28.6793C113.333 31.5194 113.119 36.6906 113.119 36.6906L112.472 35.6348Z" fill="#0C9648"/>
<path d="M108.983 31.1825C108.667 30.2572 107.923 25.3377 107.923 24.5713C107.923 23.805 108.359 24.4824 108.359 24.4824C109.715 27.0614 109.797 32.2762 109.797 32.2762L108.983 31.1825Z" fill="#0C9648"/>
<path d="M105.528 27.2661C105.24 26.7571 103.623 21.8772 103.553 21.0012C103.479 20.1289 104.018 20.8195 104.018 20.8195C105.42 22.933 106.425 28.1383 106.425 28.1383L105.528 27.2661Z" fill="#0C9648"/>
<path d="M100.94 23.7579C100.472 22.8856 99.072 18.5166 98.9282 17.8601C98.7844 17.2054 99.3596 17.6784 99.3596 17.6784C101.227 21.247 101.659 24.4163 101.659 24.4163L100.94 23.7579Z" fill="#0C9648"/>
<path d="M95.7438 19.4929C95.0607 18.7645 93.5148 15.3794 93.4448 14.8307C93.3729 14.2857 93.7684 14.685 93.7684 14.685C95.1345 16.5412 96.5347 19.9641 96.5347 19.9641L95.7438 19.4929Z" fill="#0C9648"/>
<path d="M94.126 18.9577C90.4307 18.1592 87.2783 16.0079 86.8621 15.7657C86.442 15.5235 86.425 15.2302 87.1686 15.4194C92.5101 17.0429 94.302 18.8972 94.302 18.8972L94.126 18.9577Z" fill="#0C9648"/>
<path d="M99.4069 22.3879C96.8998 23.0104 93.2782 22.7474 92.3435 22.7436C91.4088 22.7417 91.1004 22.3633 92.1543 22.1173C94.0408 21.7597 98.7863 21.8145 98.7863 21.8145L99.4069 22.3879Z" fill="#0C9648"/>
<path d="M103.838 26.318C101.028 26.3464 97.7513 25.8336 96.7163 25.6917C95.6813 25.5479 95.2858 25.0106 96.2944 25.0049C98.6709 25.0181 103.061 25.5725 103.061 25.5725L103.838 26.318Z" fill="#0C9648"/>
<path d="M108.137 30.8175C106.953 30.7627 102.76 30.108 100.684 29.5252C98.6104 28.9443 99.8346 28.7097 100.913 28.7286C101.994 28.7475 107.468 30.0058 107.468 30.0058L108.137 30.8175Z" fill="#0C9648"/>
<path d="M111.649 35.6536C111.649 35.6536 107.522 35.1295 104.52 33.9299C101.517 32.7284 104.745 33.1314 104.745 33.1314C108.081 33.682 111.121 34.8476 111.121 34.8476L111.649 35.6536Z" fill="#0C9648"/>
<path d="M114.603 41.0162C114.067 40.8572 109.182 39.4154 106.843 38.1155C104.506 36.8137 105.587 36.7683 107.263 37.2148C110.722 38.2536 113.986 39.9414 113.986 39.9414L114.603 41.0162Z" fill="#0C9648"/>
<path d="M116.894 45.7313C114.052 44.9914 109.22 42.4143 108.701 42.1116C108.183 41.8089 106.839 40.7776 109.17 41.3604C111.5 41.9413 116.255 44.3405 116.255 44.3405L116.894 45.7313Z" fill="#0C9648"/>
<path d="M118.894 50.9841C116.523 50.3389 111.853 47.6596 110.474 46.7098C109.095 45.758 109.539 45.3342 111.08 45.8772C114.166 47.1412 118.516 49.9075 118.516 49.9075L118.894 50.9841Z" fill="#0C9648"/>
<path d="M119.657 57.1729C117.971 56.8399 112.881 52.6753 111.626 51.3943C110.374 50.1171 111.379 50.1928 112.239 50.7056C117.333 53.8522 119.481 56.3725 119.481 56.3725L119.657 57.1729Z" fill="#0C9648"/>
<path d="M119.763 62.7189C118.773 62.208 114.448 58.9782 112.608 56.823C110.767 54.6678 111.751 55.0709 113.191 56.0359C115.619 57.5874 119.657 61.8107 119.657 61.8107L119.763 62.7189Z" fill="#0C9648"/>
<path d="M119.5 68.3899C117.857 67.4117 113.486 62.5394 112.626 61.3247C111.768 60.108 112.12 59.8809 113.261 60.8346C116.747 63.5101 119.592 67.7315 119.592 67.7315L119.5 68.3899Z" fill="#0C9648"/>
<path d="M118.436 75.3528C116.887 74.2156 113.098 68.2478 112.149 66.2175C111.197 64.1873 111.946 64.3897 113.133 65.6991C115.986 69.0917 118.712 74.4862 118.712 74.4862L118.436 75.3528Z" fill="#0C9648"/>
<path d="M116.461 80.8816C115.454 79.7161 111.681 73.0879 110.998 71.156C110.317 69.2279 110.245 68.4635 112.041 70.5013C113.838 72.541 116.892 79.7142 116.892 79.7142L116.461 80.8816Z" fill="#0C9648"/>
<path d="M114.839 86.3044C112.945 84.4747 110.005 76.1568 109.84 75.5418C109.676 74.9288 108.764 72.3347 110.758 75.0404C112.754 77.7405 115.136 85.5305 115.136 85.5305L114.839 86.3044Z" fill="#0C9648"/>
<path d="M111.651 90.7059C110.122 89.3795 108.345 81.6009 108.082 79.6293C107.817 77.6614 107.937 76.8251 109.201 79.2433C110.466 81.6614 112.166 89.949 112.166 89.949L111.651 90.7059Z" fill="#0C9648"/>
<path d="M107.975 95.5854C107.038 93.8409 106.018 85.4492 106.041 83.2486C106.065 81.0481 106.334 79.9771 107.35 83.0462C108.366 86.1171 108.877 94.4539 108.877 94.4539L107.975 95.5854Z" fill="#0C9648"/>
<path d="M104.005 99.5686C103.38 97.5534 103.1 89.3453 103.1 87.6272C103.102 85.9073 103.759 83.1637 104.489 87.2602C105.223 91.3567 105.015 98.5563 105.015 98.5563L104.005 99.5686Z" fill="#0C9648"/>
<path d="M99.5091 103.854C98.8109 102.742 99.4467 94.4845 100.064 91.5498C100.678 88.617 101.174 88.2007 101.486 91.5385C101.799 94.8781 100.453 103.099 100.453 103.099L99.5091 103.854Z" fill="#0C9648"/>
<path d="M93.7626 107.479C93.687 104.231 95.2612 97.2221 96.1354 94.7036C97.0115 92.1852 97.9727 91.1086 97.6188 95.0972C97.2631 99.084 94.652 107.082 94.652 107.082L93.7626 107.479Z" fill="#0C9648"/>
<path d="M88.1033 110.463C88.1506 108.028 90.3871 100.509 91.7003 97.9335C93.0134 95.3583 93.7779 94.5352 93.1137 98.3611C92.4477 102.187 88.9756 110.204 88.9756 110.204L88.1033 110.463Z" fill="#0C9648"/>
<path d="M82.2093 112.471C82.1866 111.19 84.7769 103.063 86.232 100.484C87.6852 97.9053 88.1998 97.8712 87.5678 100.94C86.9377 104.015 83.5565 112.17 83.5565 112.17L82.2093 112.471Z" fill="#0C9648"/>
<path d="M88.0143 114.146C88.0143 114.146 91.2196 111.387 93.7854 111.674C94.1733 111.718 95.0001 110.662 95.0001 110.662C95.0001 110.662 97.598 107.586 99.8138 107.797C100.205 107.835 100.949 106.42 100.949 106.42C100.949 106.42 103.657 102.963 105.999 102.549L107.178 101.035C107.178 101.035 107.322 99.0596 110.54 97.4191C110.921 97.2242 111.261 96.0681 111.261 96.0681C111.261 96.0681 112.107 93.9394 113.874 92.982L113.999 91.7994C113.999 91.7994 114.19 89.6669 116.607 87.8599C116.947 87.6045 116.593 86.5562 116.593 86.5562C116.593 86.5562 116.784 83.9072 119.35 82.0605C119.6 81.8808 118.834 81.5042 118.834 81.5042C118.834 81.5042 118.629 78.6509 120.111 77.5099L120.031 76.5676C120.031 76.5676 119.534 74.2176 121.136 71.6196C121.346 71.2791 121.125 70.5014 121.125 70.5014C121.125 70.5014 120.436 67.4229 121.825 65.0312C122.052 64.6395 121.428 64.123 121.428 64.123C121.428 64.123 120.52 61.6916 121.49 58.8628C121.649 58.3992 121 57.9546 121 57.9546C121 57.9546 119.216 56.263 120.531 52.0151C120.673 51.5572 119.678 51.5421 119.678 51.5421C119.678 51.5421 117.869 50.3122 118.59 46.7644C118.699 46.2252 118.152 45.3699 118.152 45.3699C118.152 45.3699 116.048 45.8902 116.154 40.1779L115.409 39.7767C115.409 39.7767 113.836 39.3869 113.08 35.6253C112.987 35.1599 112.491 35.5762 112.491 35.5762C112.491 35.5762 109.833 33.5005 109.751 31.6537L108.924 30.7625C108.924 30.7625 107.239 30.2271 106.362 27.894L105.454 27.0672C105.454 27.0672 102.455 25.2185 101.5 23.5175L100.571 22.8723C100.571 22.8723 97.6245 21.4267 96.4893 19.93L95.7532 19.4645C95.7532 19.4645 94.6085 19.1694 92.3341 17.7275L93.4032 18.7474C93.4032 18.7474 96.7428 20.3765 97.8194 21.9092L98.6444 22.4787C98.6444 22.4787 101.146 23.5629 102.503 25.6443L103.169 26.3198C103.169 26.3198 105.443 27.6481 106.58 29.8373L107.011 30.6868C107.011 30.6868 109.712 32.4768 109.831 34.4409L109.92 35.2942C109.92 35.2942 112.673 36.2403 113.116 39.5421L113.717 40.7341C113.717 40.7341 114.919 41.9697 115.03 43.771L115.702 45.3112C115.702 45.3112 116.868 46.4371 116.731 49.0104L117.305 50.3652C117.305 50.3652 118.832 53.228 118.158 55.1655L118.135 56.4011C118.135 56.4011 119.562 59.0293 118.66 60.8363C118.66 60.8363 118.404 61.3529 118.285 61.684C119.099 63.6878 118.699 65.8032 118.591 66.4579C118.591 66.4579 118.395 67.0785 118.274 67.4115C119.17 68.0246 118.739 71.0009 117.954 73.3245C117.954 73.3245 116.866 73.4134 116.906 73.5818C117.562 76.2819 116.563 77.7805 116.277 78.3633L115.373 79.3093C115.373 79.3093 115.958 82.1608 114.328 83.1636C114.045 83.3377 113.447 84.1646 113.447 84.1646C113.447 84.1646 113.802 87.0406 111.687 88.0037L110.72 89.1863C110.72 89.1863 111.027 91.5326 108.73 92.9101L107.437 93.8334C107.437 93.8334 107.829 96.3046 104.989 97.3396L103.659 97.5648C103.659 97.5648 103.92 100.832 100.652 101.654L99.2291 102.134C99.2291 102.134 99.3805 104 94.8015 106.072L93.9349 106.212C93.9349 106.212 93.5697 107.919 89.4164 108.842L88.4609 108.074C88.4609 108.074 87.4656 111.294 84.1146 110.745L83.3691 111.722C83.3691 111.722 75.9898 114.282 68.8866 114.002C68.7334 114 67.4732 114.009 67.1137 113.998C61.7192 113.828 56.2547 115.692 56.2547 115.692C56.2698 115.695 56.2812 115.699 56.2812 115.699C49.4429 118.189 43.1232 122.859 43.1232 122.859L50.0371 125.72C59.3086 116.467 68.0276 117.273 68.8677 117.315C68.8677 117.315 69.7324 117.338 70.898 117.283C74.1695 117.124 79.5451 116.201 81.494 115.701C81.494 115.701 84.8355 114.908 85.2083 114.683L88.0143 114.146Z" fill="#0C9648"/>
<path d="M44.2509 84.369C44.2112 84.4049 44.1355 84.369 44.0314 84.2611C43.9027 84.1344 43.8044 83.9868 43.7476 83.8297C43.6795 83.6311 43.7041 83.4797 43.8233 83.3794C44.126 83.3226 44.3228 83.3397 44.4212 83.4399C44.5972 83.6216 44.5404 83.9262 44.2509 84.369Z" fill="#0C9648"/>
<path d="M98.7616 76.681C98.4816 76.5542 98.3037 76.558 98.2262 76.6999C98.0748 76.9591 98.0105 77.1503 98.0351 77.2789C98.1789 77.2108 98.387 77.0802 98.6576 76.8967C98.773 76.8134 98.8335 76.7567 98.8373 76.7245C98.826 76.7132 98.8014 76.6999 98.7616 76.681ZM98.7616 76.681C98.4816 76.5542 98.3037 76.558 98.2262 76.6999C98.0748 76.9591 98.0105 77.1503 98.0351 77.2789C98.1789 77.2108 98.387 77.0802 98.6576 76.8967C98.773 76.8134 98.8335 76.7567 98.8373 76.7245C98.826 76.7132 98.8014 76.6999 98.7616 76.681ZM98.7616 76.681C98.4816 76.5542 98.3037 76.558 98.2262 76.6999C98.0748 76.9591 98.0105 77.1503 98.0351 77.2789C98.1789 77.2108 98.387 77.0802 98.6576 76.8967C98.773 76.8134 98.8335 76.7567 98.8373 76.7245C98.826 76.7132 98.8014 76.6999 98.7616 76.681ZM98.7616 76.681C98.4816 76.5542 98.3037 76.558 98.2262 76.6999C98.0748 76.9591 98.0105 77.1503 98.0351 77.2789C98.1789 77.2108 98.387 77.0802 98.6576 76.8967C98.773 76.8134 98.8335 76.7567 98.8373 76.7245C98.826 76.7132 98.8014 76.6999 98.7616 76.681ZM98.7616 76.681C98.4816 76.5542 98.3037 76.558 98.2262 76.6999C98.0748 76.9591 98.0105 77.1503 98.0351 77.2789C98.1789 77.2108 98.387 77.0802 98.6576 76.8967C98.773 76.8134 98.8335 76.7567 98.8373 76.7245C98.826 76.7132 98.8014 76.6999 98.7616 76.681ZM98.7616 76.681C98.4816 76.5542 98.3037 76.558 98.2262 76.6999C98.0748 76.9591 98.0105 77.1503 98.0351 77.2789C98.1789 77.2108 98.387 77.0802 98.6576 76.8967C98.773 76.8134 98.8335 76.7567 98.8373 76.7245C98.826 76.7132 98.8014 76.6999 98.7616 76.681ZM98.7616 76.681C98.4816 76.5542 98.3037 76.558 98.2262 76.6999C98.0748 76.9591 98.0105 77.1503 98.0351 77.2789C98.1789 77.2108 98.387 77.0802 98.6576 76.8967C98.773 76.8134 98.8335 76.7567 98.8373 76.7245C98.826 76.7132 98.8014 76.6999 98.7616 76.681ZM98.7616 76.681C98.4816 76.5542 98.3037 76.558 98.2262 76.6999C98.0748 76.9591 98.0105 77.1503 98.0351 77.2789C98.1789 77.2108 98.387 77.0802 98.6576 76.8967C98.773 76.8134 98.8335 76.7567 98.8373 76.7245C98.826 76.7132 98.8014 76.6999 98.7616 76.681ZM98.7616 76.681C98.4816 76.5542 98.3037 76.558 98.2262 76.6999C98.0748 76.9591 98.0105 77.1503 98.0351 77.2789C98.1789 77.2108 98.387 77.0802 98.6576 76.8967C98.773 76.8134 98.8335 76.7567 98.8373 76.7245C98.826 76.7132 98.8014 76.6999 98.7616 76.681ZM98.7616 76.681C98.4816 76.5542 98.3037 76.558 98.2262 76.6999C98.0748 76.9591 98.0105 77.1503 98.0351 77.2789C98.1789 77.2108 98.387 77.0802 98.6576 76.8967C98.773 76.8134 98.8335 76.7567 98.8373 76.7245C98.826 76.7132 98.8014 76.6999 98.7616 76.681ZM98.7616 76.681C98.4816 76.5542 98.3037 76.558 98.2262 76.6999C98.0748 76.9591 98.0105 77.1503 98.0351 77.2789C98.1789 77.2108 98.387 77.0802 98.6576 76.8967C98.773 76.8134 98.8335 76.7567 98.8373 76.7245C98.826 76.7132 98.8014 76.6999 98.7616 76.681ZM98.7616 76.681C98.4816 76.5542 98.3037 76.558 98.2262 76.6999C98.0748 76.9591 98.0105 77.1503 98.0351 77.2789C98.1789 77.2108 98.387 77.0802 98.6576 76.8967C98.773 76.8134 98.8335 76.7567 98.8373 76.7245C98.826 76.7132 98.8014 76.6999 98.7616 76.681ZM98.7616 76.681C98.4816 76.5542 98.3037 76.558 98.2262 76.6999C98.0748 76.9591 98.0105 77.1503 98.0351 77.2789C98.1789 77.2108 98.387 77.0802 98.6576 76.8967C98.773 76.8134 98.8335 76.7567 98.8373 76.7245C98.826 76.7132 98.8014 76.6999 98.7616 76.681ZM98.7616 76.681C98.4816 76.5542 98.3037 76.558 98.2262 76.6999C98.0748 76.9591 98.0105 77.1503 98.0351 77.2789C98.1789 77.2108 98.387 77.0802 98.6576 76.8967C98.773 76.8134 98.8335 76.7567 98.8373 76.7245C98.826 76.7132 98.8014 76.6999 98.7616 76.681ZM98.7616 76.681C98.4816 76.5542 98.3037 76.558 98.2262 76.6999C98.0748 76.9591 98.0105 77.1503 98.0351 77.2789C98.1789 77.2108 98.387 77.0802 98.6576 76.8967C98.773 76.8134 98.8335 76.7567 98.8373 76.7245C98.826 76.7132 98.8014 76.6999 98.7616 76.681ZM98.7616 76.681C98.4816 76.5542 98.3037 76.558 98.2262 76.6999C98.0748 76.9591 98.0105 77.1503 98.0351 77.2789C98.1789 77.2108 98.387 77.0802 98.6576 76.8967C98.773 76.8134 98.8335 76.7567 98.8373 76.7245C98.826 76.7132 98.8014 76.6999 98.7616 76.681ZM98.7616 76.681C98.4816 76.5542 98.3037 76.558 98.2262 76.6999C98.0748 76.9591 98.0105 77.1503 98.0351 77.2789C98.1789 77.2108 98.387 77.0802 98.6576 76.8967C98.773 76.8134 98.8335 76.7567 98.8373 76.7245C98.826 76.7132 98.8014 76.6999 98.7616 76.681ZM98.7616 76.681C98.4816 76.5542 98.3037 76.558 98.2262 76.6999C98.0748 76.9591 98.0105 77.1503 98.0351 77.2789C98.1789 77.2108 98.387 77.0802 98.6576 76.8967C98.773 76.8134 98.8335 76.7567 98.8373 76.7245C98.826 76.7132 98.8014 76.6999 98.7616 76.681ZM98.7616 76.681C98.4816 76.5542 98.3037 76.558 98.2262 76.6999C98.0748 76.9591 98.0105 77.1503 98.0351 77.2789C98.1789 77.2108 98.387 77.0802 98.6576 76.8967C98.773 76.8134 98.8335 76.7567 98.8373 76.7245C98.826 76.7132 98.8014 76.6999 98.7616 76.681ZM98.7616 76.681C98.4816 76.5542 98.3037 76.558 98.2262 76.6999C98.0748 76.9591 98.0105 77.1503 98.0351 77.2789C98.1789 77.2108 98.387 77.0802 98.6576 76.8967C98.773 76.8134 98.8335 76.7567 98.8373 76.7245C98.826 76.7132 98.8014 76.6999 98.7616 76.681ZM95.9367 67.5098C92.6103 79.5344 81.5753 88.3915 68.5062 88.3915C55.4372 88.3915 44.4022 79.5344 41.0758 67.5098H29.5072C33.0569 85.8011 49.1912 99.6573 68.5043 99.6573C87.8175 99.6573 103.957 85.8011 107.501 67.5098H95.9367ZM99.456 70.681C99.9461 70.7529 100.41 70.8437 100.845 70.9516C101.598 71.1427 102.162 71.5306 102.508 72.1474C100.975 71.9639 100.211 71.8598 98.6897 71.629C98.6216 71.6081 98.4305 71.4265 98.1145 71.0935C97.8156 70.7813 97.6282 70.575 97.5488 70.4634C97.5677 70.4142 98.1997 70.4975 99.456 70.681ZM60.7617 89.3432C60.8014 89.4227 60.9017 89.5552 61.0682 89.7425C61.2366 89.926 61.352 90.0263 61.4145 90.0414C61.4542 90.049 61.5658 89.9903 61.7418 89.8655C61.9405 89.7254 62.054 89.6422 62.0881 89.6308C62.3832 89.9298 62.5346 90.0812 62.843 90.3726C62.7522 90.4634 62.6198 90.5883 62.4324 90.7434C62.194 90.9459 62.054 91.0386 62.0181 91.031C61.9632 91.0197 61.6983 90.7832 61.2442 90.3007C61.0606 90.4161 60.8563 90.5485 60.6368 90.6961C60.5403 90.6318 60.3984 90.5126 60.2262 90.3328C60.0389 90.1417 59.931 90.0055 59.8989 89.9185C60.1164 89.7652 60.4078 89.5741 60.7617 89.3432ZM38.8714 70.8513C38.9112 70.5485 38.9585 70.3574 39.0114 70.2723C39.2953 70.401 39.6624 70.5826 40.1051 70.7983C40.0616 70.8854 40.0143 71.0651 39.9651 71.3376C39.914 71.6119 39.9083 71.7841 39.9405 71.856C39.9556 71.8958 40.0805 71.9714 40.3151 72.0717C40.5744 72.1796 40.722 72.2439 40.7541 72.2704C40.6936 72.7302 40.6633 72.9648 40.6179 73.4284C40.4816 73.3962 40.2792 73.3414 40.02 73.2562C39.6813 73.1446 39.5015 73.0613 39.4864 73.0254C39.458 72.9686 39.4826 72.5675 39.598 71.8409C39.3672 71.7255 39.1155 71.6063 38.8393 71.4776C38.8241 71.3395 38.8355 71.1313 38.8714 70.8513ZM37.2801 80.155C36.9698 80.0944 36.7938 80.0433 36.773 80.0074C36.7541 79.9828 36.7182 79.6157 36.6898 78.9099C36.4703 78.8305 36.23 78.7548 35.9708 78.6753C35.9348 78.5467 35.9102 78.3518 35.8989 78.1039C35.8837 77.8295 35.9027 77.646 35.9386 77.5646C36.2905 77.6649 36.5252 77.733 36.6444 77.7766C36.7768 77.8201 36.843 77.8409 36.9755 77.8844C36.9509 77.9676 36.9395 78.1398 36.9395 78.4029C36.9433 78.6659 36.9604 78.8267 36.9963 78.8816C37.0115 78.9024 37.1288 78.9497 37.352 79.0178C37.5999 79.0973 37.7399 79.137 37.7702 79.1465C37.791 79.5854 37.8061 79.8049 37.8383 80.2477C37.7153 80.2363 37.5242 80.2042 37.2801 80.155ZM37.1799 77.224C37.1193 77.1124 37.0871 77.0575 37.0247 76.9478C36.9698 76.8513 36.9452 76.804 36.8922 76.7075C36.7333 76.4199 36.7238 76.1209 36.8525 75.8257C36.932 75.6498 37.1004 75.4379 37.3388 75.1957C37.5299 75.0046 37.6132 74.8835 37.5904 74.8362C37.4107 74.4804 37.0247 74.2098 36.4249 74.0055C35.7702 73.839 35.4429 73.7501 34.7806 73.5514C34.2224 73.383 33.8875 73.1484 33.7759 72.874C33.4731 72.1247 34.2943 71.4984 36.2054 71.014C36.3246 70.9856 36.3814 70.9705 36.5006 70.9383C36.6009 70.9743 36.7352 71.0027 36.8922 71.0292C36.6179 71.0973 36.247 71.2846 35.7872 71.5836C35.248 71.9393 35.0171 72.225 35.1004 72.4331C35.2518 72.804 35.6188 73.1105 36.194 73.3186C36.5498 73.4303 37.0796 73.5949 37.774 73.7974C38.3397 73.9639 38.6917 74.189 38.8393 74.4804C38.9396 74.6829 38.932 74.8513 38.8109 74.9913C38.6633 75.1029 38.5195 75.2146 38.3757 75.33C38.2319 75.4454 38.1203 75.5741 38.0446 75.716C37.9537 75.8958 37.9518 76.0679 38.0332 76.2193C38.0843 76.3101 38.1089 76.3555 38.16 76.4464C38.2167 76.5504 38.247 76.6053 38.3076 76.7094C38.7825 77.5514 39.0342 77.9582 39.5526 78.7472C39.9405 78.2799 40.1903 77.8655 40.3019 77.4984C40.6217 77.5306 41.0644 77.5419 41.6226 77.523C41.3123 78.2061 41.0606 78.6564 40.8412 78.8551C40.6936 78.9837 40.5535 79.0897 40.4173 79.1673C40.194 79.2959 39.651 79.5173 38.7863 79.8087C38.107 78.8116 37.7872 78.2969 37.1799 77.224ZM40.5403 80.172C41.0871 80.9213 41.3691 81.2846 41.9556 81.9828C42.0843 81.8901 42.1751 81.7084 42.2319 81.4473C42.2792 81.2316 42.2924 81.0235 42.2678 80.8324C42.2319 80.4899 42.1921 80.2628 42.1354 80.155C42.2149 80.1398 42.4116 80.0906 42.7219 79.9922C43.0417 79.8957 43.2045 79.8484 43.5242 79.7482C43.5753 79.8882 43.6037 80.1039 43.5961 80.3858C43.5885 80.645 43.564 80.8645 43.5204 81.0405C43.4656 81.2449 43.3728 81.4719 43.2328 81.7103C43.0815 81.9695 42.9225 82.1682 42.7617 82.2931C42.7333 82.3139 42.686 82.3499 42.6217 82.4047C42.5573 82.4615 42.5025 82.5012 42.4665 82.5315C41.7967 83.0386 41.3577 83.1748 41.1571 82.9383C40.4343 82.085 40.0805 81.6422 39.4107 80.7169C39.7305 80.5618 40.1051 80.382 40.5403 80.172ZM55.6945 91.5211C55.6396 91.6403 55.5356 91.8049 55.3823 92.0112C55.2271 92.2136 55.1477 92.3139 54.9906 92.5145C54.8279 92.7188 54.6406 92.7586 54.44 92.6223C54.1335 92.4956 53.9821 92.4312 53.6813 92.295C53.5129 92.2193 53.4258 92.1796 53.2536 92.1001C53.106 92.0358 53.0341 91.9998 52.8866 91.9317C52.8903 91.856 52.8979 91.7406 52.9055 91.5854C52.7655 91.6611 52.6973 91.6971 52.5535 91.769C52.0427 91.5173 51.791 91.3868 51.2858 91.1181C51.2707 90.9591 51.2385 90.8664 51.1893 90.8418C51.1742 90.8305 51.1212 90.8418 51.0266 90.8626C50.9339 90.8872 50.8752 90.891 50.8468 90.8778C50.3113 90.5788 50.0446 90.4237 49.5148 90.0963C49.5072 89.9374 49.4826 89.8484 49.4391 89.822C49.2839 89.8768 49.1401 89.8655 49.0152 89.7822C48.9906 89.7633 48.9755 89.7576 48.9509 89.7387C48.9471 89.7425 48.9471 89.7425 48.9433 89.7463C48.1619 89.2429 47.7778 88.9762 47.0209 88.418C47.0285 88.2458 47.0644 88.0225 47.1288 87.7482C46.9925 87.7992 46.9244 87.8238 46.7863 87.8749C46.6633 87.9147 46.546 87.9468 46.4306 87.9714C45.4883 87.2373 45.0266 86.8456 44.1373 86.0206C43.9935 85.8882 43.9216 85.822 43.7778 85.6857C42.6444 86.1607 41.8062 86.1323 41.3237 85.6308C41.0966 85.3924 40.8166 85.0329 40.4987 84.5466C40.1354 83.9885 39.9556 83.6006 39.9405 83.3943C40.0597 83.5268 40.2546 83.733 40.5233 84.0055C40.9471 84.4331 41.5734 84.7869 42.3738 85.0064C42.6803 85.0897 42.9717 85.1332 43.2385 85.1389C42.4684 84.3801 42.3246 83.7955 42.7522 83.4511C42.9112 83.3281 43.2158 83.1957 43.6586 83.0651C44.0408 82.9497 44.3681 82.874 44.6368 82.8343C45.0285 82.7794 45.3104 82.8343 45.4788 83.0008C45.6775 83.1994 45.6623 83.54 45.4353 84.0301C45.2801 84.3726 45.072 84.6999 44.8203 85.0083C44.8998 85.0802 44.9358 85.1124 45.0152 85.1843C45.0796 85.2448 45.1117 85.2751 45.178 85.3357C45.9556 86.0414 46.3549 86.3801 47.1761 87.0159C47.2044 86.8494 47.1912 86.681 47.1288 86.505C47.0682 86.329 46.8412 86.0774 46.8412 86.0774C46.8412 86.0774 46.7446 86.0206 46.4949 85.8579C46.5668 85.7822 46.949 85.6536 47.6245 85.4341C47.7153 85.3868 47.9083 85.4341 48.1959 85.5571C48.4514 85.6649 48.6349 85.7557 48.7428 85.8371C48.9812 86.0131 49.1458 86.259 49.2423 86.5788C49.3539 86.9307 49.3218 87.2221 49.1382 87.4568C49.0701 87.5476 48.9301 87.6252 48.7238 87.6971C48.4968 87.7728 48.3605 87.8295 48.3208 87.8693C48.4608 87.9695 48.5327 88.0206 48.6765 88.1171C49.0625 88.3877 49.2555 88.5164 49.6491 88.768C49.7607 88.8361 49.8137 88.8721 49.9253 88.9402C50.0332 89.0121 50.1657 88.9326 50.3246 88.7132C50.6709 88.5466 50.8676 88.4464 50.9225 88.4255C51.2253 88.2893 51.4201 88.2174 51.5015 88.2307C51.3653 88.435 51.0077 88.7775 50.4154 89.2448C50.843 89.5003 51.0569 89.6271 51.492 89.8674C51.5961 89.9241 51.6964 89.8712 51.7986 89.7084C51.8099 89.6876 51.8232 89.6573 51.8383 89.6289C51.8535 89.6006 51.8629 89.5854 51.8667 89.5816C52.4419 89.2713 52.8317 89.1067 53.0474 89.0916C53.0114 89.1559 52.9509 89.2505 52.8676 89.3754C52.7882 89.5022 52.7276 89.5949 52.6917 89.6592C52.6122 89.7917 52.4476 89.9903 52.194 90.2458C52.457 90.382 52.5895 90.4501 52.8525 90.5845C52.896 90.6053 52.9566 90.5485 53.0323 90.4085C53.0474 90.3839 53.0682 90.348 53.089 90.3082C53.1098 90.2647 53.1288 90.2325 53.1439 90.2079C53.7059 89.8617 54.0256 89.7046 54.1297 89.7538C53.9897 90.066 53.9216 90.2212 53.7834 90.5353C53.7513 90.6223 53.7399 90.7264 53.755 90.8475C53.774 90.9705 53.8194 91.05 53.8951 91.0859C54.0237 91.1427 54.0862 91.1729 54.2148 91.2297C54.4741 91.3451 54.6027 91.4019 54.8657 91.5097C54.8847 91.5173 54.913 91.4776 54.9528 91.3943C55.072 91.1465 55.2044 90.7642 55.3445 90.2685C55.4523 89.8863 55.5602 89.4946 55.6718 89.1105C55.6169 89.0026 55.5677 88.8702 55.5204 88.715C56.2546 88.1247 56.65 87.8371 56.7446 87.873C56.669 88.032 56.6292 88.1474 56.6217 88.2155C56.6141 88.3082 56.6425 88.4199 56.7125 88.5429C57.0228 89.1124 57.248 89.4095 57.335 89.4435C56.8847 89.7179 56.6538 89.8541 56.1827 90.1133C56.107 90.2893 55.9424 90.7548 55.6945 91.5211ZM58.0578 90.6999C57.9386 91.1389 57.8061 91.557 57.6585 91.9487C57.4031 92.6299 56.9963 93.1502 56.4059 93.4889C56.7446 92.1133 56.9244 91.4303 57.3028 90.066C57.3274 90.0017 57.5147 89.8257 57.8497 89.5268C58.1619 89.2467 58.3681 89.067 58.476 88.9913C58.5119 89.0045 58.3681 89.5741 58.0578 90.6999ZM67.7986 96.8361C67.6037 97.0443 67.4883 97.1521 67.4466 97.1483C67.4258 97.1483 67.1231 96.9818 66.5687 96.6261C66.4097 96.7548 66.2451 96.9005 66.0691 97.0651C65.9537 97.0216 65.7948 96.9383 65.6056 96.8172C65.3899 96.6772 65.2593 96.5693 65.2139 96.4974C65.4485 96.2742 65.6018 96.1228 65.685 96.0509C65.7778 95.9714 65.8251 95.9317 65.9159 95.8484C65.9707 95.9128 66.0956 96.013 66.2981 96.155C66.5006 96.295 66.633 96.3631 66.686 96.3669C66.7106 96.3669 66.8014 96.2988 66.9528 96.1587C67.1212 96.0036 67.2196 95.9184 67.2442 95.8995C67.5942 96.1228 67.7702 96.2344 68.1297 96.4464C68.0597 96.5372 67.9518 96.6677 67.7986 96.8361ZM68.1789 95.4435C68.0635 95.4397 68.0067 95.4397 67.8913 95.4359C67.6567 95.4322 67.4731 95.3603 67.352 95.2202C67.2555 95.1124 67.1723 94.9289 67.1041 94.6848C66.9244 94.9686 66.8298 95.1124 66.6406 95.3943C66.0616 95.3659 65.7702 95.3432 65.1893 95.2903C65.0814 95.2789 65.0266 95.2751 64.9187 95.2657C64.3132 95.2051 64.0162 95.1692 63.4145 95.0859C63.1306 95.0462 62.9074 94.8872 62.7598 94.6223C62.669 94.4634 62.5971 94.2155 62.5403 93.8957C62.493 93.6441 62.4476 93.5097 62.4041 93.5041C62.0654 93.4473 61.6907 93.5949 61.2631 93.9506C60.8393 94.3726 60.6216 94.5769 60.177 94.9875C59.7948 95.3262 59.475 95.4662 59.2385 95.4057C58.5838 95.2392 58.5403 94.2685 59.0985 92.5126C59.1344 92.4047 59.1533 92.3499 59.1855 92.242C59.2574 92.1815 59.3369 92.0944 59.4258 91.9828C59.3463 92.2344 59.299 92.6242 59.2934 93.1408C59.282 93.7519 59.3728 94.0869 59.5526 94.1304C59.8799 94.2136 60.2621 94.0906 60.6784 93.7557C60.9187 93.54 61.2858 93.2165 61.755 92.7869C62.141 92.4407 62.4684 92.2874 62.7446 92.3366C62.9395 92.3688 63.055 92.4691 63.0966 92.6431C63.1079 92.8191 63.1174 92.9951 63.1325 93.1692C63.1477 93.3451 63.1836 93.5041 63.2517 93.6403C63.3388 93.8087 63.4599 93.9109 63.6075 93.9279C64.1827 94.0112 64.4741 94.0471 65.055 94.1039C65.159 94.1114 65.2101 94.119 65.3142 94.1247C65.9878 94.189 66.3227 94.2117 66.9982 94.2401C67.0379 94.1644 67.0852 93.8522 67.1382 93.3035C67.142 93.2827 67.2669 93.1408 67.4977 92.8683C67.7323 92.5939 67.8534 92.4464 67.8761 92.4293C67.8724 92.4615 67.8724 92.4766 67.8724 92.5088V92.5731C67.8761 92.6053 67.8761 92.6299 67.8761 92.6488C67.8724 92.9516 67.8364 93.3224 67.7569 93.7425C67.7323 93.8825 67.7721 94.0093 67.8837 94.1133C67.9953 94.2174 68.124 94.2723 68.2716 94.2761H68.6538C69.4126 94.2761 69.7948 94.2647 70.5573 94.2212C70.4135 93.6876 70.1713 93.2827 69.8345 92.9894C69.8818 92.8664 70.0729 92.4899 70.37 91.8598C70.4892 91.9563 70.633 92.136 70.8014 92.4028C70.9603 92.6469 71.0758 92.8532 71.1477 93.0254C71.2309 93.224 71.2839 93.4322 71.3028 93.6479C71.3274 93.9222 71.3028 94.329 71.2025 94.8494C71.1552 95.0935 71.1098 95.2675 71.0758 95.3603C70.107 95.4246 69.6226 95.4435 68.6538 95.4435H68.1789ZM70.141 96.9913C69.8856 97.1938 69.7172 97.294 69.6415 97.2978C69.5904 97.2978 69.4296 97.2051 69.1552 97.0102C68.8847 96.8153 68.7522 96.698 68.7522 96.6677C68.7522 96.6166 68.8846 96.4766 69.1401 96.2439C69.3917 96.0131 69.5431 95.8939 69.598 95.8939C69.6264 95.8939 69.7815 96.0131 70.0691 96.2363C70.3643 96.4672 70.5157 96.5883 70.5157 96.6072C70.5195 96.6602 70.3965 96.7907 70.141 96.9913ZM79.8515 93.6838C79.5412 93.7803 79.3917 93.8314 79.0814 93.9222C79.0814 93.926 79.0814 93.926 79.0814 93.9298C78.5062 94.102 78.2167 94.1815 77.6339 94.329C77.4939 94.2174 77.3274 94.0585 77.1401 93.8465C77.1079 93.9752 77.089 94.0452 77.053 94.1739C77.0171 94.2893 76.9774 94.3972 76.9338 94.4974C76.1713 94.6696 75.7891 94.7491 75.019 94.8797C74.9641 94.891 74.9357 94.8948 74.8828 94.9043C74.6084 94.9251 74.4249 94.9005 74.3321 94.8399C74.2489 95.2543 74.0767 95.6706 73.8099 96.0774C73.4826 96.5675 73.1231 96.8361 72.7484 96.8759C72.5138 96.9005 72.0426 96.8153 71.3634 96.592C70.65 96.3612 70.2867 96.1531 70.247 95.9979C70.2716 95.9941 70.4192 96.0452 70.686 96.1379C70.9528 96.2306 71.2082 96.2666 71.4409 96.2534C71.6056 96.2382 71.844 96.1701 72.1391 96.0376C72.3662 95.9336 72.6425 95.7311 72.9528 95.4265C73.0398 95.3584 73.2044 95.1994 73.4277 94.9478C73.5829 94.7794 73.6472 94.6242 73.6264 94.4937C73.6018 94.3461 73.335 94.0717 72.8525 93.6649C72.9641 93.3811 73.1155 93.0348 73.2952 92.628C73.6945 93.0916 73.9424 93.3451 74.0086 93.3981C74.3189 93.6573 74.6349 93.7576 74.9471 93.7008C75.1874 93.6573 75.3066 93.6365 75.5412 93.5854C75.9518 93.506 76.1562 93.4624 76.5668 93.3659C76.4476 93.2467 76.3 93.1578 76.124 93.0954C75.9443 93.0348 75.6131 93.0518 75.6131 93.0518C75.6131 93.0518 75.5128 93.0878 75.246 93.1748C75.2252 93.0783 75.3255 92.7113 75.5204 92.0774C75.5318 91.9809 75.6756 91.8693 75.9348 91.7254C76.1656 91.6025 76.3416 91.5173 76.4703 91.487C76.7465 91.4189 77.0417 91.4435 77.3634 91.5627C77.7153 91.6914 77.9424 91.8938 78.0332 92.1701C78.0653 92.2742 78.054 92.4293 77.9972 92.6242C77.9329 92.8399 77.9045 92.9762 77.9102 93.031C78.0502 92.9913 78.1183 92.9743 78.2565 92.9345C78.4362 92.8834 78.527 92.8588 78.703 92.8059C78.9698 92.7264 79.1022 92.6867 79.3653 92.6015C79.3842 92.5939 79.3766 92.5466 79.3444 92.4615C79.2517 92.2061 79.0739 91.8428 78.8146 91.3849C78.616 91.0348 78.4154 90.6829 78.2129 90.3272C78.0975 90.2836 77.9651 90.2193 77.8175 90.136C77.9253 89.2335 78.001 88.7718 78.0975 88.7396C78.1581 88.9024 78.2129 89.014 78.2565 89.067C78.317 89.1389 78.423 89.1994 78.5592 89.2505C79.1968 89.4662 79.5772 89.5419 79.6642 89.5097C79.5355 89.9998 79.4655 90.2439 79.3123 90.7378C79.3766 90.9062 79.5923 91.3565 79.967 92.0774C80.0143 92.2004 80.0578 92.3839 80.0937 92.6356C80.1259 92.8834 80.1448 93.0064 80.177 93.2543C80.2035 93.5079 80.0956 93.6516 79.8515 93.6838ZM81.9178 93.0613C81.1685 91.8371 80.8014 91.2221 80.09 89.9809C80.0616 89.9166 80.0691 89.6668 80.0975 89.2354C80.1221 88.8286 80.1448 88.5656 80.1694 88.4445C80.2129 88.4445 80.5213 88.9516 81.1079 89.9601C81.3388 90.3593 81.5431 90.7491 81.7191 91.1294C82.0256 91.7898 82.1051 92.435 81.9178 93.0613ZM82.2205 88.4047C81.9405 88.3858 81.7607 88.3499 81.6737 88.312C81.7285 88.0566 81.8061 87.7292 81.9045 87.3338C81.9953 87.3659 82.1675 87.4019 82.4267 87.4303C82.686 87.4587 82.8487 87.4549 82.9055 87.4265C82.9376 87.4076 82.9811 87.2978 83.0247 87.0878C83.072 86.857 83.1003 86.7207 83.1174 86.6923C83.5564 86.7207 83.7796 86.7321 84.2337 86.7472C84.23 86.8702 84.2148 87.05 84.1902 87.2827C84.1543 87.5854 84.1145 87.7463 84.0824 87.7614C84.0351 87.7898 83.6585 87.7898 82.966 87.7254C82.9092 87.9298 82.8506 88.1569 82.7938 88.4085C82.6727 88.4255 82.4797 88.4255 82.2205 88.4047ZM101.386 74.4464C101.386 74.4464 101.371 74.4861 101.322 74.6053C101.274 74.7207 101.221 74.8494 101.159 74.9762C100.919 75.4719 100.796 75.7179 100.54 76.2004C100.501 76.2723 100.484 76.3082 100.448 76.3764C100.423 76.4237 100.468 76.5126 100.595 76.6507C100.718 76.787 100.764 76.8986 100.739 76.9856C99.8099 77.6441 99.3425 77.9468 98.4059 78.4975C98.4059 78.5485 98.4494 78.6204 98.5384 78.7169C98.6386 78.8324 98.7011 78.9251 98.7181 79.0008C98.7579 79.1332 98.7257 79.2846 98.6178 79.4435C98.5932 79.4833 98.5819 79.5003 98.5573 79.54C98.457 79.6914 98.4021 79.7671 98.3018 79.9147C98.0786 80.2382 97.9669 80.401 97.7361 80.7169C97.6434 80.8437 97.5317 80.8683 97.4012 80.7888C97.1968 80.6734 97.0947 80.6167 96.8903 80.4974C96.9017 80.5126 97.0455 80.7737 97.3047 81.3035C97.2044 81.4322 97.1533 81.4984 97.0568 81.6271C96.5743 82.2496 96.3264 82.5523 95.8194 83.1389C95.8156 83.1465 95.8118 83.1502 95.8042 83.154C95.721 83.2467 95.6453 83.3205 95.5734 83.3622C95.4144 83.4738 95.2385 83.4984 95.0549 83.4454C94.9793 83.4208 94.9073 83.3943 94.8468 83.3659C95.0455 83.7292 95.1306 83.9279 95.1136 83.9449C94.2829 84.8513 93.5507 85.557 92.8563 86.1871C92.1618 86.821 91.4958 87.3792 90.7654 87.9468C90.0313 88.5164 89.229 89.0991 88.2356 89.7349C88.2356 89.7311 88.2356 89.7311 88.2318 89.7273C88.177 89.7633 88.1524 89.7822 88.0994 89.8144C87.8515 89.9733 87.5658 90.0055 87.2612 89.9071C87.0739 89.8465 86.8392 89.7122 86.563 89.5192C86.3435 89.3641 86.2129 89.2959 86.1751 89.3205C85.8686 89.4965 85.6926 89.8503 85.6283 90.3896C85.6093 90.9724 85.5961 91.2638 85.5526 91.8503C85.5128 92.348 85.3728 92.6526 85.1458 92.7642C84.5346 93.0632 83.7966 92.3726 82.9509 90.7226C82.896 90.6223 82.8714 90.5712 82.8184 90.471C82.8298 90.3801 82.826 90.2666 82.8108 90.1247C82.9338 90.3593 83.1779 90.6753 83.5488 91.0632C83.984 91.5173 84.2943 91.7046 84.4627 91.6252C84.7692 91.4738 84.966 91.1389 85.0417 90.6242C85.0663 90.3082 85.1098 89.8333 85.1571 89.2165C85.1968 88.7132 85.3369 88.3858 85.5847 88.242C85.7531 88.1417 85.9196 88.1379 86.0786 88.2344C86.211 88.3574 86.3492 88.4785 86.4854 88.5977C86.6216 88.7169 86.7692 88.8059 86.9206 88.8607C87.1117 88.9326 87.2763 88.9213 87.4069 88.8399C87.5753 88.7321 87.6623 88.6772 87.8307 88.5656C89.1079 87.7368 90.0256 87.0386 90.9225 86.2988C91.8156 85.5608 92.6897 84.7869 93.7872 83.646C93.7266 83.5949 93.5526 83.6176 93.2687 83.7103C92.9849 83.8011 92.809 83.8787 92.7352 83.9582C92.4116 84.3139 91.914 84.8437 91.2271 85.4908C90.7995 85.8939 90.4173 86.2174 90.0937 86.4766C88.9319 87.4057 88.1391 87.8333 87.8042 87.892C87.6453 87.9203 87.5242 87.8844 87.4447 87.7803C87.265 87.54 87.2214 87.1256 87.3009 86.5466C87.3842 85.9128 87.6283 85.2032 87.9953 84.4312C88.1618 84.0887 88.3416 83.769 88.5346 83.47C88.6746 83.2467 88.7427 83.1351 88.8809 82.9081C88.9736 83.383 89.0171 83.6252 89.0965 84.1058C88.9773 84.2382 88.826 84.4691 88.6538 84.787C88.5251 85.031 88.387 85.2827 88.2394 85.5249C88.1354 85.7009 88.0313 85.9128 87.9234 86.155C87.7834 86.471 87.7191 86.6848 87.7569 86.7964C87.8477 86.8361 88.7219 86.3253 90.2394 85.0254C90.6424 84.6753 90.8411 84.4993 91.229 84.1323C91.5034 83.873 91.9121 83.4776 92.4267 82.9308C92.5819 82.7642 92.7862 82.6204 93.0341 82.5031C93.3179 82.3707 93.5639 82.3045 93.7721 82.3347C93.8686 82.3461 93.9991 82.3782 94.1637 82.4388C94.3264 82.4993 94.4513 82.5353 94.5346 82.5429C94.6424 82.5618 94.7541 82.5069 94.8581 82.3839C95.3406 81.8257 95.5753 81.5419 96.0313 80.9516C96.2337 80.6848 96.334 80.5523 96.5308 80.2855C95.3974 79.7633 94.8316 79.4965 93.7172 78.9497C93.5261 78.594 93.4144 78.3953 93.3898 78.3423C93.2498 78.0717 93.1552 77.8749 93.1155 77.7368C93.1514 77.6895 93.5336 77.8409 94.2564 78.1947C94.7673 78.4464 95.2782 78.7056 95.7891 78.9497C96.3757 79.2373 96.703 79.3924 96.7616 79.4284C96.9641 79.5476 97.1174 79.5116 97.2195 79.3168C97.2271 79.3092 97.2271 79.3054 97.2347 79.2978C97.3312 79.154 97.3823 79.0821 97.4788 78.9345C97.6226 78.7188 97.6945 78.6072 97.8345 78.3877C97.8742 78.3272 97.8269 78.2004 97.7058 78.0093C97.6188 77.8768 97.5374 77.7425 97.4466 77.6138C97.3501 77.3943 97.3066 77.0878 97.3104 76.6999C97.3179 76.3139 97.3747 76.0131 97.4977 75.7974C97.5904 75.6252 97.7172 75.5571 97.8723 75.5892C98.0275 75.6252 98.1826 75.6611 98.3359 75.7009C98.4986 75.716 98.7219 75.6895 99.002 75.629C99.3179 75.5571 99.509 75.4662 99.5715 75.3659C99.7475 75.0235 99.8345 74.8475 100.003 74.4994C99.9783 74.4634 99.9632 74.4483 99.9348 74.4161C99.5128 74.2609 98.5384 74.0566 97.3615 73.8863C97.0852 74.0414 96.9187 74.102 96.8619 74.0812C96.7711 74.0452 96.6235 73.8541 96.404 73.5192C96.1959 73.1957 96.0729 72.9724 96.0483 72.8418C96.0805 72.857 96.0994 72.8626 96.1316 72.874C96.474 72.997 97.0492 72.7264 97.8477 71.9601C98.1069 72.4388 98.2337 72.6829 98.474 73.1767C98.7862 73.26 99.0455 73.3319 99.2593 73.3849C99.6339 73.4776 99.8969 73.5173 100.041 73.5041C100.128 73.4927 100.328 73.3319 100.631 73.0046C100.907 72.7132 101.138 72.5864 101.333 72.6488C101.844 72.8002 102.266 73.1067 102.574 73.5703C102.41 73.6971 101.999 73.8333 101.672 74.0698C101.558 74.155 101.386 74.4464 101.386 74.4464ZM98.2262 76.6999C98.0748 76.9591 98.0105 77.1503 98.0351 77.2789C98.1789 77.2108 98.387 77.0802 98.6576 76.8967C98.773 76.8134 98.8335 76.7567 98.8373 76.7245C98.826 76.7132 98.8014 76.6999 98.7616 76.681C98.4816 76.5561 98.3037 76.558 98.2262 76.6999ZM98.7616 76.681C98.4816 76.5542 98.3037 76.558 98.2262 76.6999C98.0748 76.9591 98.0105 77.1503 98.0351 77.2789C98.1789 77.2108 98.387 77.0802 98.6576 76.8967C98.773 76.8134 98.8335 76.7567 98.8373 76.7245C98.826 76.7132 98.8014 76.6999 98.7616 76.681ZM98.7616 76.681C98.4816 76.5542 98.3037 76.558 98.2262 76.6999C98.0748 76.9591 98.0105 77.1503 98.0351 77.2789C98.1789 77.2108 98.387 77.0802 98.6576 76.8967C98.773 76.8134 98.8335 76.7567 98.8373 76.7245C98.826 76.7132 98.8014 76.6999 98.7616 76.681ZM98.7616 76.681C98.4816 76.5542 98.3037 76.558 98.2262 76.6999C98.0748 76.9591 98.0105 77.1503 98.0351 77.2789C98.1789 77.2108 98.387 77.0802 98.6576 76.8967C98.773 76.8134 98.8335 76.7567 98.8373 76.7245C98.826 76.7132 98.8014 76.6999 98.7616 76.681ZM98.7616 76.681C98.4816 76.5542 98.3037 76.558 98.2262 76.6999C98.0748 76.9591 98.0105 77.1503 98.0351 77.2789C98.1789 77.2108 98.387 77.0802 98.6576 76.8967C98.773 76.8134 98.8335 76.7567 98.8373 76.7245C98.826 76.7132 98.8014 76.6999 98.7616 76.681ZM98.7616 76.681C98.4816 76.5542 98.3037 76.558 98.2262 76.6999C98.0748 76.9591 98.0105 77.1503 98.0351 77.2789C98.1789 77.2108 98.387 77.0802 98.6576 76.8967C98.773 76.8134 98.8335 76.7567 98.8373 76.7245C98.826 76.7132 98.8014 76.6999 98.7616 76.681ZM98.7616 76.681C98.4816 76.5542 98.3037 76.558 98.2262 76.6999C98.0748 76.9591 98.0105 77.1503 98.0351 77.2789C98.1789 77.2108 98.387 77.0802 98.6576 76.8967C98.773 76.8134 98.8335 76.7567 98.8373 76.7245C98.826 76.7132 98.8014 76.6999 98.7616 76.681ZM98.7616 76.681C98.4816 76.5542 98.3037 76.558 98.2262 76.6999C98.0748 76.9591 98.0105 77.1503 98.0351 77.2789C98.1789 77.2108 98.387 77.0802 98.6576 76.8967C98.773 76.8134 98.8335 76.7567 98.8373 76.7245C98.826 76.7132 98.8014 76.6999 98.7616 76.681ZM98.7616 76.681C98.4816 76.5542 98.3037 76.558 98.2262 76.6999C98.0748 76.9591 98.0105 77.1503 98.0351 77.2789C98.1789 77.2108 98.387 77.0802 98.6576 76.8967C98.773 76.8134 98.8335 76.7567 98.8373 76.7245C98.826 76.7132 98.8014 76.6999 98.7616 76.681ZM98.7616 76.681C98.4816 76.5542 98.3037 76.558 98.2262 76.6999C98.0748 76.9591 98.0105 77.1503 98.0351 77.2789C98.1789 77.2108 98.387 77.0802 98.6576 76.8967C98.773 76.8134 98.8335 76.7567 98.8373 76.7245C98.826 76.7132 98.8014 76.6999 98.7616 76.681ZM98.7616 76.681C98.4816 76.5542 98.3037 76.558 98.2262 76.6999C98.0748 76.9591 98.0105 77.1503 98.0351 77.2789C98.1789 77.2108 98.387 77.0802 98.6576 76.8967C98.773 76.8134 98.8335 76.7567 98.8373 76.7245C98.826 76.7132 98.8014 76.6999 98.7616 76.681ZM98.7616 76.681C98.4816 76.5542 98.3037 76.558 98.2262 76.6999C98.0748 76.9591 98.0105 77.1503 98.0351 77.2789C98.1789 77.2108 98.387 77.0802 98.6576 76.8967C98.773 76.8134 98.8335 76.7567 98.8373 76.7245C98.826 76.7132 98.8014 76.6999 98.7616 76.681ZM98.7616 76.681C98.4816 76.5542 98.3037 76.558 98.2262 76.6999C98.0748 76.9591 98.0105 77.1503 98.0351 77.2789C98.1789 77.2108 98.387 77.0802 98.6576 76.8967C98.773 76.8134 98.8335 76.7567 98.8373 76.7245C98.826 76.7132 98.8014 76.6999 98.7616 76.681ZM98.7616 76.681C98.4816 76.5542 98.3037 76.558 98.2262 76.6999C98.0748 76.9591 98.0105 77.1503 98.0351 77.2789C98.1789 77.2108 98.387 77.0802 98.6576 76.8967C98.773 76.8134 98.8335 76.7567 98.8373 76.7245C98.826 76.7132 98.8014 76.6999 98.7616 76.681ZM98.7616 76.681C98.4816 76.5542 98.3037 76.558 98.2262 76.6999C98.0748 76.9591 98.0105 77.1503 98.0351 77.2789C98.1789 77.2108 98.387 77.0802 98.6576 76.8967C98.773 76.8134 98.8335 76.7567 98.8373 76.7245C98.826 76.7132 98.8014 76.6999 98.7616 76.681ZM98.7616 76.681C98.4816 76.5542 98.3037 76.558 98.2262 76.6999C98.0748 76.9591 98.0105 77.1503 98.0351 77.2789C98.1789 77.2108 98.387 77.0802 98.6576 76.8967C98.773 76.8134 98.8335 76.7567 98.8373 76.7245C98.826 76.7132 98.8014 76.6999 98.7616 76.681ZM98.7616 76.681C98.4816 76.5542 98.3037 76.558 98.2262 76.6999C98.0748 76.9591 98.0105 77.1503 98.0351 77.2789C98.1789 77.2108 98.387 77.0802 98.6576 76.8967C98.773 76.8134 98.8335 76.7567 98.8373 76.7245C98.826 76.7132 98.8014 76.6999 98.7616 76.681ZM98.7616 76.681C98.4816 76.5542 98.3037 76.558 98.2262 76.6999C98.0748 76.9591 98.0105 77.1503 98.0351 77.2789C98.1789 77.2108 98.387 77.0802 98.6576 76.8967C98.773 76.8134 98.8335 76.7567 98.8373 76.7245C98.826 76.7132 98.8014 76.6999 98.7616 76.681ZM98.7616 76.681C98.4816 76.5542 98.3037 76.558 98.2262 76.6999C98.0748 76.9591 98.0105 77.1503 98.0351 77.2789C98.1789 77.2108 98.387 77.0802 98.6576 76.8967C98.773 76.8134 98.8335 76.7567 98.8373 76.7245C98.826 76.7132 98.8014 76.6999 98.7616 76.681Z" fill="#0C9648"/>
<path d="M85.2214 71.1162C85.3728 71.1162 85.5052 71.1446 85.6207 71.207C85.6282 71.3735 85.5809 71.4946 85.5166 71.5741C85.3936 71.7103 85.2006 71.8333 84.9338 71.8768C84.8581 71.8087 84.8108 71.7084 84.79 71.5703C84.7711 71.4379 84.79 71.3319 84.8468 71.2581C84.9187 71.1635 85.0417 71.12 85.2214 71.1162Z" fill="#0C9648"/>
<path d="M78.0597 77.7349C77.6605 77.5987 77.4334 77.54 77.3729 77.5722C77.3653 77.6479 77.3615 77.803 77.3578 78.0396C77.354 78.295 77.354 78.4312 77.3653 78.4502C77.5243 78.734 77.7721 78.7888 78.107 78.6091C78.4344 78.4293 78.6577 78.2534 78.7769 78.0944C78.7031 77.9885 78.459 77.873 78.0597 77.7349ZM78.0597 77.7349C77.6605 77.5987 77.4334 77.54 77.3729 77.5722C77.3653 77.6479 77.3615 77.803 77.3578 78.0396C77.354 78.295 77.354 78.4312 77.3653 78.4502C77.5243 78.734 77.7721 78.7888 78.107 78.6091C78.4344 78.4293 78.6577 78.2534 78.7769 78.0944C78.7031 77.9885 78.459 77.873 78.0597 77.7349ZM78.0597 77.7349C77.6605 77.5987 77.4334 77.54 77.3729 77.5722C77.3653 77.6479 77.3615 77.803 77.3578 78.0396C77.354 78.295 77.354 78.4312 77.3653 78.4502C77.5243 78.734 77.7721 78.7888 78.107 78.6091C78.4344 78.4293 78.6577 78.2534 78.7769 78.0944C78.7031 77.9885 78.459 77.873 78.0597 77.7349ZM78.0597 77.7349C77.6605 77.5987 77.4334 77.54 77.3729 77.5722C77.3653 77.6479 77.3615 77.803 77.3578 78.0396C77.354 78.295 77.354 78.4312 77.3653 78.4502C77.5243 78.734 77.7721 78.7888 78.107 78.6091C78.4344 78.4293 78.6577 78.2534 78.7769 78.0944C78.7031 77.9885 78.459 77.873 78.0597 77.7349ZM78.0597 77.7349C77.6605 77.5987 77.4334 77.54 77.3729 77.5722C77.3653 77.6479 77.3615 77.803 77.3578 78.0396C77.354 78.295 77.354 78.4312 77.3653 78.4502C77.5243 78.734 77.7721 78.7888 78.107 78.6091C78.4344 78.4293 78.6577 78.2534 78.7769 78.0944C78.7031 77.9885 78.459 77.873 78.0597 77.7349ZM78.0597 77.7349C77.6605 77.5987 77.4334 77.54 77.3729 77.5722C77.3653 77.6479 77.3615 77.803 77.3578 78.0396C77.354 78.295 77.354 78.4312 77.3653 78.4502C77.5243 78.734 77.7721 78.7888 78.107 78.6091C78.4344 78.4293 78.6577 78.2534 78.7769 78.0944C78.7031 77.9885 78.459 77.873 78.0597 77.7349ZM78.0597 77.7349C77.6605 77.5987 77.4334 77.54 77.3729 77.5722C77.3653 77.6479 77.3615 77.803 77.3578 78.0396C77.354 78.295 77.354 78.4312 77.3653 78.4502C77.5243 78.734 77.7721 78.7888 78.107 78.6091C78.4344 78.4293 78.6577 78.2534 78.7769 78.0944C78.7031 77.9885 78.459 77.873 78.0597 77.7349ZM78.0597 77.7349C77.6605 77.5987 77.4334 77.54 77.3729 77.5722C77.3653 77.6479 77.3615 77.803 77.3578 78.0396C77.354 78.295 77.354 78.4312 77.3653 78.4502C77.5243 78.734 77.7721 78.7888 78.107 78.6091C78.4344 78.4293 78.6577 78.2534 78.7769 78.0944C78.7031 77.9885 78.459 77.873 78.0597 77.7349ZM78.0597 77.7349C77.6605 77.5987 77.4334 77.54 77.3729 77.5722C77.3653 77.6479 77.3615 77.803 77.3578 78.0396C77.354 78.295 77.354 78.4312 77.3653 78.4502C77.5243 78.734 77.7721 78.7888 78.107 78.6091C78.4344 78.4293 78.6577 78.2534 78.7769 78.0944C78.7031 77.9885 78.459 77.873 78.0597 77.7349ZM78.0597 77.7349C77.6605 77.5987 77.4334 77.54 77.3729 77.5722C77.3653 77.6479 77.3615 77.803 77.3578 78.0396C77.354 78.295 77.354 78.4312 77.3653 78.4502C77.5243 78.734 77.7721 78.7888 78.107 78.6091C78.4344 78.4293 78.6577 78.2534 78.7769 78.0944C78.7031 77.9885 78.459 77.873 78.0597 77.7349ZM78.0597 77.7349C77.6605 77.5987 77.4334 77.54 77.3729 77.5722C77.3653 77.6479 77.3615 77.803 77.3578 78.0396C77.354 78.295 77.354 78.4312 77.3653 78.4502C77.5243 78.734 77.7721 78.7888 78.107 78.6091C78.4344 78.4293 78.6577 78.2534 78.7769 78.0944C78.7031 77.9885 78.459 77.873 78.0597 77.7349ZM78.0597 77.7349C77.6605 77.5987 77.4334 77.54 77.3729 77.5722C77.3653 77.6479 77.3615 77.803 77.3578 78.0396C77.354 78.295 77.354 78.4312 77.3653 78.4502C77.5243 78.734 77.7721 78.7888 78.107 78.6091C78.4344 78.4293 78.6577 78.2534 78.7769 78.0944C78.7031 77.9885 78.459 77.873 78.0597 77.7349ZM81.2329 67.5098C78.652 71.8541 73.9159 74.7737 68.5063 74.7737C63.0966 74.7737 58.3606 71.8541 55.7797 67.5098H43.5602C46.7996 78.2174 56.7542 86.0377 68.5063 86.0377C80.2584 86.0377 90.213 78.2174 93.4523 67.5098H81.2329ZM80.0389 71.6138C80.0541 71.5987 80.2414 71.6025 80.6103 71.6025C80.9774 71.6025 81.1761 71.6025 81.1894 71.6138C81.2367 71.6498 81.2726 71.8087 81.2821 72.1001C81.2934 72.3915 81.2669 72.5599 81.2253 72.6034C81.1931 72.6318 81.0134 72.6583 80.6898 72.664C80.3625 72.6715 80.1922 72.6564 80.1638 72.6356C80.1278 72.5996 80.0957 72.4237 80.0559 72.1133C80.02 71.8087 80.0105 71.6422 80.0389 71.6138ZM80.8734 73.9241C81.2612 74.2401 81.6226 74.5504 81.9538 74.8664C82.5252 75.4095 82.8601 76.0187 82.915 76.7056C81.6813 75.7519 81.0796 75.2581 79.9027 74.2515C79.8478 74.1966 79.7589 73.9525 79.6075 73.5249C79.4675 73.1257 79.3729 72.8664 79.3445 72.7396C79.3729 72.7151 79.8762 73.1181 80.8734 73.9241ZM62.266 76.5561C62.5725 76.3291 62.7371 76.2136 62.7731 76.225C62.7844 76.2288 62.8734 76.3801 63.0683 76.6677C63.2594 76.9591 63.3805 77.1067 63.4107 77.1143C63.3199 77.2146 63.1799 77.366 62.9869 77.5608C62.6747 77.8447 62.4798 77.979 62.4287 77.9639C61.9424 77.3584 61.7513 77.014 61.7703 76.9629C61.7873 76.9156 61.9595 76.7813 62.266 76.5561ZM51.8024 68.9062C52.09 68.9421 52.4647 68.9894 52.9434 69.0348C52.9112 69.1219 52.8885 69.2903 52.8885 69.5419C52.8885 69.7936 52.9131 69.9449 52.9528 69.996C52.9774 70.0244 53.108 70.0528 53.3407 70.0604C53.6075 70.0717 53.7627 70.0717 53.7986 70.0812C53.8062 70.5031 53.8232 70.7113 53.8743 71.1351C53.7457 71.154 53.5546 71.1749 53.3124 71.1862C53.0002 71.1976 52.8336 71.1786 52.809 71.1503C52.7731 71.1105 52.6898 70.751 52.6425 70.0888C52.4155 70.0604 52.1714 70.0282 51.9046 69.9923C51.8649 69.8768 51.8251 69.6933 51.793 69.4416C51.7665 69.173 51.7703 68.9932 51.8024 68.9062ZM54.1279 79.7122C53.8441 79.7917 53.6813 79.8163 53.6492 79.7917C53.634 79.7765 53.5167 79.4397 53.3218 78.7775C53.1194 78.7983 52.898 78.8286 52.6444 78.8645C52.5877 78.7529 52.5214 78.5807 52.4571 78.3461C52.3852 78.0831 52.3606 77.9033 52.3701 77.8106C52.6974 77.7595 52.9055 77.7236 53.0115 77.7141C53.1345 77.7028 53.1913 77.6952 53.3105 77.6819C53.3142 77.769 53.3464 77.9374 53.4145 78.1853C53.4789 78.4369 53.5375 78.5769 53.5773 78.6167C53.5962 78.6318 53.7059 78.6242 53.9084 78.5883C54.1279 78.5523 54.2546 78.5315 54.2868 78.5315C54.4155 78.9383 54.4855 79.1427 54.6255 79.5495C54.5195 79.5892 54.3549 79.6479 54.1279 79.7122ZM63.5148 81.4757C62.809 81.2713 62.266 81.0973 61.8668 80.997C61.6624 80.9421 61.3237 80.9818 60.8374 81.0897C60.3474 81.1975 59.9992 81.2127 59.8081 81.1446C59.1175 80.9005 58.7826 80.7624 58.1411 80.4539C58.1411 80.4501 58.1411 80.4502 58.1449 80.4464C57.9216 80.3385 57.7305 80.2382 57.4543 80.0869C57.3351 80.0225 57.3142 79.9185 57.3861 79.7747C57.4902 79.5514 57.5451 79.4435 57.6492 79.2202C57.6378 79.2354 57.4013 79.4246 56.9112 79.7747C56.7788 79.6952 56.6842 79.6422 56.5839 79.576C56.1373 79.2997 55.8573 79.1048 55.4316 78.7851C55.3086 78.6923 55.2045 78.6129 55.0493 78.4899C54.8734 78.3536 54.775 78.1796 54.7617 77.9828C54.7504 77.8276 54.7901 77.6195 54.8734 77.3641C54.5782 77.5116 54.4306 77.5798 54.1279 77.716C53.6775 77.3168 53.4372 77.0859 53.0437 76.6867C52.6558 76.2988 52.4022 76.0282 52.0219 75.593C51.9349 75.5003 51.8705 75.4246 51.7665 75.3016C51.5716 75.0783 51.4921 74.8021 51.5224 74.4804C51.5432 74.2893 51.6151 74.0414 51.7343 73.7463C51.827 73.5116 51.8573 73.3792 51.827 73.3432C51.5962 73.067 51.2367 72.9289 50.7182 72.9043C50.1714 72.9327 49.8895 72.9327 49.2745 72.9251C48.7523 72.9137 48.3739 72.7851 48.2092 72.5504C47.7513 71.9128 48.4079 71.0935 49.7211 70.2326C49.8005 70.1815 49.844 70.1531 49.9235 70.1001C50.0106 70.1115 50.1184 70.1077 50.2471 70.0888C50.056 70.2155 49.8327 70.4634 49.5659 70.8437C49.2499 71.2903 49.1345 71.6138 49.2556 71.786C49.4789 72.0963 49.8573 72.2855 50.3568 72.3291C50.6596 72.3404 51.1061 72.3537 51.6775 72.3404C52.1449 72.3291 52.4798 72.4237 52.6709 72.6394C52.7996 72.7907 52.8507 72.9667 52.7863 73.1105C52.7258 73.2467 52.6236 73.4019 52.5479 73.5533C52.4685 73.7009 52.4212 73.856 52.4041 74.0074C52.3833 74.2023 52.4249 74.3631 52.5271 74.4748C52.582 74.5353 52.6236 74.5826 52.6634 74.6261C52.7031 74.6696 52.739 74.7094 52.775 74.7491C52.7996 74.7775 52.8299 74.8097 52.8658 74.8456C53.1421 75.1484 53.3559 75.3641 53.6283 75.6309C53.6794 75.6819 53.7248 75.7236 53.7684 75.7709C53.8157 75.8144 53.8611 75.8579 53.9084 75.9033C53.9084 75.9071 53.9084 75.9071 53.9084 75.9071C54.2868 76.2704 54.5593 76.5145 55.0285 76.9005C55.0967 76.8608 55.3029 76.6091 55.634 76.1512C55.6492 76.1398 55.8213 76.0831 56.1449 75.9639C56.4722 75.8485 56.652 75.7765 56.6785 75.7728C56.6596 75.7974 56.6501 75.8125 56.6312 75.8409C56.6236 75.856 56.6066 75.8768 56.5952 75.8976C56.5801 75.926 56.5706 75.9525 56.5593 75.9695C56.3871 76.2363 56.1638 76.5448 55.8762 76.8835C55.7797 76.9951 55.7438 77.1275 55.7721 77.2865C55.8005 77.4416 55.8724 77.5627 55.9803 77.6422C55.9916 77.6498 55.9992 77.6573 56.0087 77.663C56.1052 77.7311 56.1676 77.7784 56.2755 77.8503C56.2755 77.8541 56.2755 77.8541 56.2717 77.8541C56.5309 78.0377 56.7428 78.1777 57.0134 78.3442C57.0777 78.3839 57.1364 78.4199 57.1894 78.452C57.2405 78.4842 57.2934 78.5164 57.3483 78.5485C57.4959 78.6394 57.6397 78.7169 57.8384 78.8286C58.3019 77.6271 58.5214 77.0329 59.0475 75.8409C59.3824 75.5779 59.5735 75.4227 59.6227 75.3868C59.8781 75.1843 60.0692 75.0481 60.1941 74.9724C60.2376 74.9932 60.0749 75.4 59.74 76.1777C59.5016 76.7245 59.2688 77.2751 59.0493 77.822C58.7939 78.452 58.6577 78.804 58.6255 78.8702C58.5214 79.0897 58.5574 79.2297 58.7334 79.2884C58.7693 79.3035 58.8015 79.3205 58.8336 79.3357C58.9207 79.3754 58.985 79.4038 59.0891 79.4511C59.0891 79.4511 59.0891 79.4511 59.0891 79.4549C59.5489 79.663 59.8951 79.8011 60.4855 79.9979C60.8677 80.1266 61.1723 80.1531 61.3918 80.0887C61.3521 79.9979 61.2007 79.8257 60.9528 79.559C60.7012 79.2959 60.5423 79.1446 60.459 79.1162C60.2679 79.0481 60.1089 79.0083 60.0049 79.0235C59.8762 79.0424 59.7286 79.0802 59.5867 79.1067C59.863 78.8399 60.1487 78.6091 60.4363 78.4237C60.8317 78.1682 61.1345 78.0717 61.3464 78.1436C61.6378 78.2401 61.9046 78.4388 62.16 78.7415C62.3265 78.9497 62.5839 79.2524 62.9661 79.6384C63.161 79.8182 63.4297 80.0206 63.7911 80.2326C64.0579 80.3915 64.2622 80.4729 64.3966 80.4956C64.213 80.7226 63.9292 81.0537 63.5148 81.4757ZM65.634 80.4388C65.5508 81.2278 65.2915 81.8863 64.8128 82.3972C64.828 80.8532 64.8526 80.0793 64.9396 78.5391C64.951 78.4634 65.0796 78.2269 65.3142 77.822C65.5299 77.4435 65.67 77.1994 65.7457 77.0954C65.7816 77.0992 65.7646 77.7368 65.7248 79.0102C65.7097 79.506 65.6813 79.9809 65.634 80.4388ZM73.4675 81.6119C73.0531 81.7273 72.8128 81.7841 72.4457 81.8674C71.9349 81.9866 71.5924 82.0509 71.0815 82.1304C70.6066 82.2098 70.2754 82.2572 69.8175 82.3026C69.5905 82.3234 69.3824 82.3461 69.0834 82.3669C68.9926 82.3707 68.9074 82.2761 68.8242 82.0793C68.7674 81.9393 68.7125 81.7992 68.6614 81.6573C68.6293 81.6781 68.5687 81.8087 68.4703 82.049C68.3738 82.2893 68.2717 82.4085 68.1752 82.4123C67.2972 82.4445 66.8582 82.4369 65.9841 82.3839C65.9008 82.3764 65.8365 82.3442 65.7892 82.2799C65.7419 82.2193 65.7248 82.1398 65.7343 82.0528C65.8024 81.5098 65.9103 81.0481 66.0408 80.6772C66.0919 80.5107 66.1373 80.3858 66.1733 80.3063C66.2527 80.1417 66.3284 80.0471 66.4041 80.0225C66.4003 80.0944 66.3852 80.2061 66.3682 80.3574C66.3474 80.5088 66.336 80.6204 66.3322 80.6848C66.3114 80.9724 66.3871 81.12 66.5517 81.1275C67.3294 81.1597 67.7211 81.1597 68.4987 81.12C68.5063 81.0083 68.4552 80.7415 68.3511 80.3291C68.2187 79.822 68.1562 79.5665 68.0389 79.0556C68.0389 79.031 68.1146 78.8172 68.2471 78.4218C68.3833 78.0225 68.4552 77.7955 68.4855 77.7349C68.5971 78.1228 68.7731 78.8361 69.055 79.8655C69.1667 80.2836 69.2348 80.5069 69.2499 80.5429C69.3691 80.8702 69.4845 81.0329 69.5962 81.0424C70.0068 81.0027 70.3019 80.9667 70.6766 80.9062C70.7485 80.8948 70.8166 80.8853 70.8809 80.874C70.9453 80.8626 71.0134 80.8532 71.0891 80.838C71.0891 80.8418 71.0891 80.8418 71.0891 80.8418C71.4013 80.7907 71.6586 80.7415 71.9708 80.6734C71.9708 80.6696 71.9708 80.6696 71.9708 80.6696C72.0503 80.6507 72.1184 80.6375 72.1865 80.6223C72.2414 80.611 72.2982 80.5977 72.3549 80.5826C72.3587 80.5826 72.3587 80.5826 72.3587 80.5826C72.5744 80.5353 72.7655 80.4861 73.0455 80.4104C73.0607 80.4028 73.0569 80.3537 73.0266 80.259C72.9472 79.9752 72.792 79.5722 72.5668 79.0575C72.3947 78.6659 72.2168 78.2666 72.0484 77.8655C71.9443 77.8087 71.8251 77.7255 71.6983 77.6176C71.8213 76.6677 71.8857 76.1852 71.9689 76.1607C72.02 76.3404 72.0654 76.4634 72.1052 76.5277C72.16 76.611 72.249 76.6867 72.3719 76.7548C72.9377 77.05 73.2859 77.1616 73.3653 77.137C73.2537 77.6441 73.1894 77.8995 73.0418 78.4104C73.0985 78.5977 73.2934 79.0935 73.6321 79.8976C73.6756 80.0301 73.7116 80.2326 73.74 80.5031C73.7646 80.7737 73.7797 80.9062 73.8005 81.1767C73.8194 81.4511 73.7078 81.5968 73.4675 81.6119ZM75.8175 80.9572C75.0626 79.6214 74.6974 78.9497 74.003 77.5854C73.9784 77.5173 73.9784 77.2505 73.9841 76.7964C73.9916 76.3726 73.9954 76.0944 74.0124 75.9676C74.0522 75.9676 74.3549 76.5258 74.9509 77.6233C75.1856 78.0547 75.3975 78.4766 75.581 78.8872C75.9027 79.6044 75.9973 80.2912 75.8175 80.9572ZM76.3379 75.523C76.3455 75.559 76.3133 75.7671 76.2225 76.1531C76.1298 76.1644 75.9632 76.1569 75.7324 76.1285C75.5016 76.0963 75.3502 76.0604 75.2745 76.0168C75.3218 75.6573 75.3615 75.3546 75.4013 75.1143C75.4807 75.154 75.6283 75.1938 75.8478 75.2297C76.0673 75.2657 76.2035 75.2695 76.2546 75.2411C76.2792 75.2297 76.3057 75.1219 76.3265 74.9213C76.3473 74.7188 76.3625 74.6053 76.3738 74.575C76.7523 74.611 76.9453 74.6223 77.3388 74.6356C77.354 74.7472 77.3596 74.9118 77.3578 75.1294C77.3502 75.4038 77.3294 75.5514 77.301 75.5684C77.2821 75.5798 77.1326 75.5835 76.8469 75.5684C76.5763 75.5552 76.4079 75.5325 76.3379 75.523ZM78.6312 79.6403C78.3152 79.8125 78.0768 79.9109 77.9216 79.9393C77.6227 79.996 77.4107 79.8995 77.2877 79.663C77.1553 79.4114 77.0891 79.0802 77.0796 78.6734C77.072 78.6015 77.0872 78.2628 77.0796 77.6725C77.0758 77.4322 77.0872 77.2013 77.108 76.9818C77.1288 76.7302 77.1364 76.6034 77.1515 76.3518C77.1761 76.3366 77.3634 76.3764 77.7135 76.4596C78.0049 76.5277 78.2206 76.5826 78.3511 76.6223C78.6463 76.6942 78.9093 76.874 79.125 77.1767C79.1893 77.2694 79.2442 77.3603 79.2877 77.4511C79.3313 77.6554 79.3748 77.8693 79.4032 78.0736C79.4353 78.3177 79.4221 78.5334 79.3672 78.7037C79.3483 78.8002 79.248 78.9705 79.0645 79.207C78.8752 79.4416 78.7314 79.5854 78.6312 79.6403ZM82.1089 78.874C82.0257 79.2486 81.9178 79.4795 81.7986 79.5608C81.2329 79.9487 80.3909 80.2382 79.3294 80.3309C79.1818 80.3234 79.0304 80.3196 78.8752 80.312C79.1856 80.225 79.4656 80.1096 79.7059 79.9695C80.0162 79.786 80.3511 79.5097 80.6879 79.1389C81.0985 78.6886 81.2669 77.9658 81.1383 77.0235C80.9358 76.9516 80.6841 76.9043 80.3852 76.8797C80.0503 76.8513 79.8876 76.8286 79.564 76.787C79.4637 76.452 79.3407 76.0698 79.1931 75.6422C79.3445 75.6176 79.6889 75.6933 80.2471 75.8447C80.8052 75.9998 81.1477 76.119 81.2556 76.2363C82.0068 77.0594 82.3209 77.9336 82.1089 78.874ZM85.7286 75.7784C85.6964 76.1493 85.617 76.3934 85.5053 76.5012C84.9907 77.0045 84.1733 77.4624 83.1004 77.769C82.9453 77.7936 82.7901 77.8201 82.6331 77.8447C83.0569 77.5779 83.3672 77.3508 83.5659 77.1862C83.8724 76.9194 84.1278 76.6034 84.3189 76.2477C84.6066 75.7084 84.6312 74.9951 84.3549 74.1644C84.1108 74.1285 83.5526 74.1758 82.7182 74.2288C82.5555 73.9166 82.3663 73.5627 82.1354 73.1711C82.2981 73.1067 82.6652 73.1029 83.2556 73.1351C83.8459 73.1673 84.2243 73.2184 84.3719 73.3224C85.3407 74.0206 85.8232 74.8305 85.7286 75.7784ZM86.9812 74.8607C86.4192 75.3357 86.02 75.5798 85.7929 75.6309C86.4079 74.9251 86.7901 74.2704 86.9452 73.7274C87.0682 73.3054 87.0928 72.8305 87.0209 72.3158C86.9377 71.7046 86.7258 71.3224 86.4192 71.1635C86.3549 71.1313 86.2906 71.1067 86.2319 71.0954C86.4628 71.4189 86.582 71.6346 86.599 71.7368C86.6539 71.9412 86.5782 72.1796 86.3757 72.4388C86.1676 72.7018 85.9046 72.8021 85.5905 72.7378C85.4032 72.698 85.1439 72.5713 84.8128 72.3593C84.5687 72.2004 84.3379 71.8693 84.0938 71.3849C83.8384 70.8664 83.774 70.524 83.9178 70.3347C84.0692 70.1323 84.4438 70.0869 85.0626 70.1663C85.5772 70.2307 85.9916 70.3291 86.2944 70.4785C86.9017 70.7737 87.4467 71.2165 87.8819 71.839C88.4211 72.6015 88.4684 73.2865 88.0503 73.8049C87.827 74.0869 87.4675 74.4464 86.9812 74.8607ZM77.371 77.5741C77.3634 77.6498 77.3596 77.8049 77.3559 78.0414C77.3521 78.2969 77.3521 78.4331 77.3634 78.452C77.5224 78.7359 77.7702 78.7907 78.1051 78.611C78.4325 78.4312 78.6558 78.2553 78.775 78.0963C78.7031 77.9885 78.459 77.873 78.0578 77.7368C77.6605 77.5987 77.4334 77.5419 77.371 77.5741ZM78.0597 77.7349C77.6605 77.5987 77.4334 77.54 77.3729 77.5722C77.3653 77.6479 77.3615 77.803 77.3578 78.0396C77.354 78.295 77.354 78.4312 77.3653 78.4502C77.5243 78.734 77.7721 78.7888 78.107 78.6091C78.4344 78.4293 78.6577 78.2534 78.7769 78.0944C78.7031 77.9885 78.459 77.873 78.0597 77.7349ZM78.0597 77.7349C77.6605 77.5987 77.4334 77.54 77.3729 77.5722C77.3653 77.6479 77.3615 77.803 77.3578 78.0396C77.354 78.295 77.354 78.4312 77.3653 78.4502C77.5243 78.734 77.7721 78.7888 78.107 78.6091C78.4344 78.4293 78.6577 78.2534 78.7769 78.0944C78.7031 77.9885 78.459 77.873 78.0597 77.7349ZM78.0597 77.7349C77.6605 77.5987 77.4334 77.54 77.3729 77.5722C77.3653 77.6479 77.3615 77.803 77.3578 78.0396C77.354 78.295 77.354 78.4312 77.3653 78.4502C77.5243 78.734 77.7721 78.7888 78.107 78.6091C78.4344 78.4293 78.6577 78.2534 78.7769 78.0944C78.7031 77.9885 78.459 77.873 78.0597 77.7349ZM78.0597 77.7349C77.6605 77.5987 77.4334 77.54 77.3729 77.5722C77.3653 77.6479 77.3615 77.803 77.3578 78.0396C77.354 78.295 77.354 78.4312 77.3653 78.4502C77.5243 78.734 77.7721 78.7888 78.107 78.6091C78.4344 78.4293 78.6577 78.2534 78.7769 78.0944C78.7031 77.9885 78.459 77.873 78.0597 77.7349ZM78.0597 77.7349C77.6605 77.5987 77.4334 77.54 77.3729 77.5722C77.3653 77.6479 77.3615 77.803 77.3578 78.0396C77.354 78.295 77.354 78.4312 77.3653 78.4502C77.5243 78.734 77.7721 78.7888 78.107 78.6091C78.4344 78.4293 78.6577 78.2534 78.7769 78.0944C78.7031 77.9885 78.459 77.873 78.0597 77.7349ZM78.0597 77.7349C77.6605 77.5987 77.4334 77.54 77.3729 77.5722C77.3653 77.6479 77.3615 77.803 77.3578 78.0396C77.354 78.295 77.354 78.4312 77.3653 78.4502C77.5243 78.734 77.7721 78.7888 78.107 78.6091C78.4344 78.4293 78.6577 78.2534 78.7769 78.0944C78.7031 77.9885 78.459 77.873 78.0597 77.7349ZM78.0597 77.7349C77.6605 77.5987 77.4334 77.54 77.3729 77.5722C77.3653 77.6479 77.3615 77.803 77.3578 78.0396C77.354 78.295 77.354 78.4312 77.3653 78.4502C77.5243 78.734 77.7721 78.7888 78.107 78.6091C78.4344 78.4293 78.6577 78.2534 78.7769 78.0944C78.7031 77.9885 78.459 77.873 78.0597 77.7349ZM78.0597 77.7349C77.6605 77.5987 77.4334 77.54 77.3729 77.5722C77.3653 77.6479 77.3615 77.803 77.3578 78.0396C77.354 78.295 77.354 78.4312 77.3653 78.4502C77.5243 78.734 77.7721 78.7888 78.107 78.6091C78.4344 78.4293 78.6577 78.2534 78.7769 78.0944C78.7031 77.9885 78.459 77.873 78.0597 77.7349ZM78.0597 77.7349C77.6605 77.5987 77.4334 77.54 77.3729 77.5722C77.3653 77.6479 77.3615 77.803 77.3578 78.0396C77.354 78.295 77.354 78.4312 77.3653 78.4502C77.5243 78.734 77.7721 78.7888 78.107 78.6091C78.4344 78.4293 78.6577 78.2534 78.7769 78.0944C78.7031 77.9885 78.459 77.873 78.0597 77.7349ZM78.0597 77.7349C77.6605 77.5987 77.4334 77.54 77.3729 77.5722C77.3653 77.6479 77.3615 77.803 77.3578 78.0396C77.354 78.295 77.354 78.4312 77.3653 78.4502C77.5243 78.734 77.7721 78.7888 78.107 78.6091C78.4344 78.4293 78.6577 78.2534 78.7769 78.0944C78.7031 77.9885 78.459 77.873 78.0597 77.7349ZM78.0597 77.7349C77.6605 77.5987 77.4334 77.54 77.3729 77.5722C77.3653 77.6479 77.3615 77.803 77.3578 78.0396C77.354 78.295 77.354 78.4312 77.3653 78.4502C77.5243 78.734 77.7721 78.7888 78.107 78.6091C78.4344 78.4293 78.6577 78.2534 78.7769 78.0944C78.7031 77.9885 78.459 77.873 78.0597 77.7349ZM78.0597 77.7349C77.6605 77.5987 77.4334 77.54 77.3729 77.5722C77.3653 77.6479 77.3615 77.803 77.3578 78.0396C77.354 78.295 77.354 78.4312 77.3653 78.4502C77.5243 78.734 77.7721 78.7888 78.107 78.6091C78.4344 78.4293 78.6577 78.2534 78.7769 78.0944C78.7031 77.9885 78.459 77.873 78.0597 77.7349Z" fill="#0C9648"/>
<path d="M67.0853 30.1397C67.0967 30.4765 66.7826 30.696 66.8204 31.0461C66.8715 31.5191 67.1004 31.7613 66.9396 32.293C66.8091 32.7282 66.582 33.1369 66.5441 33.591C66.5139 33.9543 66.6104 34.3157 66.6406 34.679C66.6955 35.3337 66.5404 35.9865 66.4476 36.6355C66.3568 37.2712 66.4287 37.7764 66.5441 38.3933C66.6558 38.9836 66.5404 39.6478 66.4647 40.2514C66.3852 40.8739 66.2811 41.5002 66.1146 42.1038H62.5423C61.9973 42.1038 61.7911 42.3592 61.7911 42.6771C61.7911 43.7159 63.8686 45.4264 63.8686 45.4264L64.3474 44.3706L65.5735 45.0044L65.9803 44.2306L67.6132 45.5683C67.6132 45.5683 68.0371 45.4415 68.1922 45.1255C68.3436 44.8077 68.2263 44.3006 68.2263 44.3006L70.336 45.3564C70.336 45.3564 70.898 45.3696 71.1421 44.9742C71.3313 44.679 71.2215 43.9486 71.2215 43.9486L72.8545 44.3706C72.8545 44.3706 73.8781 43.4491 74.2395 42.7906C74.3814 42.5295 74.213 42.1038 74.0087 42.1038C73.2196 42.1038 69.318 42.117 69.318 42.117C69.318 42.117 69.1383 41.0272 69.1875 39.9108C69.2367 38.8209 68.2982 31.5437 68.3682 28.9628L68.1468 24.9912L66.0635 25.1199C66.0635 25.1274 67.0531 29.1975 67.0853 30.1397Z" fill="#0C9648"/>
<path d="M76.1826 18.5806C76.5648 18.6374 77.0095 19.101 77.4825 19.2751C78.4172 19.6232 79.1816 19.6402 79.1816 19.6402C79.1816 19.6402 79.2573 18.9496 78.578 18.399C78.0407 17.9695 76.9338 17.661 76.2545 17.4264C74.3075 16.7452 71.8988 16.8569 71.8988 16.8569C71.8988 16.8569 72.2261 16.2325 73.1987 16.0584C73.878 15.9373 73.878 16.2401 74.6878 16.189C75.1797 16.1587 75.7493 15.7027 76.2942 15.6327C76.6348 15.5854 77.9555 16.1587 78.4683 15.9278C78.8713 15.7462 78.7691 15.3375 76.9243 14.5769C75.7455 14.0944 74.0747 13.9335 74.0747 13.9335C74.0747 13.9335 76.3113 13.0385 76.2867 12.4179C76.2696 11.9619 74.3396 11.6062 72.8789 12.1227C72.2488 12.3479 71.5449 12.5693 71.0151 13.0045C70.2867 13.6024 69.7796 14.3555 69.596 14.6506L69.5184 14.7812C69.5184 14.7812 69.5468 14.732 69.596 14.6506L70.5383 13.0858L71.3519 12.312L71.2838 11.0442C71.2838 11.0442 71.8212 11.5135 72.3075 11.574C72.6045 11.6138 73.0208 11.3962 73.0208 11.3962C73.0208 11.3962 73.2006 11.3015 73.5828 11.0877C73.8344 10.9496 74.245 10.5844 74.245 10.5844C74.245 10.5844 73.3463 9.32425 72.4778 9.25992C71.5166 9.18613 70.2621 10.1984 70.2621 10.1984C70.2621 10.1984 70.5686 9.18613 70.1069 8.64308C69.6869 8.15302 68.491 8.13031 68.491 8.13031C68.491 8.13031 67.9044 8.06598 67.4428 8.54658C66.9565 9.05935 66.9527 10.1492 66.9527 10.1492C66.9527 10.1492 66.5005 9.08017 65.6679 8.61659C65.4333 8.48604 64.7616 8.41602 64.4891 8.3725C61.9972 7.96948 61.6869 9.06692 61.6982 9.42265C61.719 9.90893 62.8354 10.0735 63.7701 11.6062C64.5175 12.8228 64.9111 14.1417 64.9489 14.2722C64.8354 14.1114 63.0057 11.5456 61.6509 10.698C59.948 9.63835 57.878 9.81243 58.1467 10.2211C58.457 10.6942 59.0776 11.4851 61.0038 12.8966C61.3103 13.1218 61.8553 12.9307 62.158 13.2013C62.5648 13.5664 62.2621 14.0565 62.6197 14.4425C63.0397 14.9023 63.878 14.9988 64.264 15.3545C64.684 15.7462 64.8638 16.1927 64.8808 16.2495C64.7919 16.1795 61.9064 13.9354 59.4295 12.9742C57.9783 12.4141 56.4664 12.4482 56.0483 12.7093C55.6547 12.9534 56.527 14.2249 57.8855 14.0944C58.4513 14.0376 57.965 14.802 58.6746 15.0631C59.929 15.5191 61.3765 15.7443 61.9593 16.0792C63.8174 17.1558 62.9319 16.961 62.9319 16.961C62.9319 16.961 61.316 16.4047 59.3652 16.3536C58.2488 16.3233 56.701 16.6961 56.0975 16.8266C53.6396 17.3734 53.8439 18.9553 54.2507 19.3015C54.5194 19.5362 55.3122 18.5031 56.3983 18.3365C56.7294 18.2836 56.8259 18.7188 57.2365 18.6923C57.5563 18.6752 58.0218 18.1019 58.2772 18.0414C58.6083 17.9638 58.6878 18.3933 58.6878 18.3933C58.6878 18.3933 56.6102 19.6346 56.0691 20.8417C55.07 23.0783 56.5819 23.2902 56.8751 23.118C57.0549 23.0101 56.8751 22.4406 57.1987 22.0054C57.7947 21.2107 58.6045 21.1199 58.5364 21.2315C59.2498 20.0414 61.1873 19.0177 61.4276 18.8947C61.2271 19.0518 59.7077 20.1984 58.9395 21.3432C58.65 21.7859 58.298 22.2022 58.1429 22.6071C57.8023 23.5153 57.5052 24.4274 58.2734 24.2665C58.4418 24.2325 58.6519 23.4189 59.5355 22.7415C60.2356 22.2022 60.6973 21.7519 60.7654 21.6913C60.6765 21.8257 59.9896 22.925 59.842 23.8276C59.4182 26.4595 60.2413 26.03 60.807 25.1521C61.1135 24.6752 61.403 24.0357 61.5658 23.9013C62.158 23.4113 62.5648 23.3678 62.5648 23.3678C62.5648 23.3678 62.0445 24.6525 62.0445 25.5778C62.0445 27.3583 62.5686 27.5021 62.824 27.0101C63.1003 26.4766 63.1173 25.1994 63.193 25.0556C63.3368 24.7698 63.7001 24.5466 63.8647 24.2646C63.9915 24.0395 64.0123 23.2883 64.1202 23.0783C64.5137 22.3176 64.8789 22.24 64.8789 22.24C64.8789 22.24 64.1694 24.433 64.1902 26.0187C64.2034 27.1861 64.9451 28.2646 64.9451 28.2646L66.7843 27.6005C66.7843 27.6005 67.5714 28.7982 67.3557 28.4293L68.2829 27.0896L68.281 27.031C68.281 27.031 68.508 27.0915 68.6575 27.2996C68.7919 27.487 68.8335 27.8124 69.0265 27.9676C69.3027 28.1852 69.7058 28.1549 69.7058 28.1549C69.7058 28.1549 70.0255 27.4378 69.9158 26.5087C69.7606 25.1577 69.4333 23.6118 69.4333 23.6118L71.1362 24.3498C71.1362 24.3498 71.0359 25.4188 71.3917 26.03C71.7152 26.5768 72.667 26.8853 72.667 26.8853C72.667 26.8853 73.0189 25.9865 72.701 25.2126C71.9877 23.4718 70.0993 20.7225 69.982 20.5522C70.0331 20.5863 70.8505 21.2334 71.4333 21.8559C71.7815 22.2249 72.0199 22.7282 72.0199 22.7282H73.3122C73.3122 22.7282 73.4163 23.784 73.7947 24.2041C74.2602 24.7206 75.0114 24.6298 75.0114 24.6298C75.0114 24.6298 75.7587 24.2911 75.2081 23.5097C74.771 22.8928 73.5166 21.4775 72.824 20.7642C71.8553 19.7613 71.3936 19.4567 71.3387 19.4226C71.4238 19.4321 72.4305 19.5967 73.1268 20.013C73.6641 20.3347 73.9253 20.9685 73.9253 20.9685L76.035 21.0385L78.0747 22.2363C78.0747 22.2363 78.578 22.0054 78.158 21.3469C77.509 20.3271 75.6244 19.0272 75.6244 19.0272C75.6244 19.0272 75.6547 18.5012 76.1826 18.5806Z" fill="#0C9648"/>
<path d="M81.1477 57.016C80.1941 56.8571 79.3256 58.2724 78.0048 58.3613C76.3814 58.4654 75.0815 57.1277 75.0815 57.1277L75.1496 56.8211C75.1855 56.8249 75.2253 56.8325 75.265 56.8325C75.7362 56.8325 76.1184 56.4503 76.1184 55.9791C76.1184 55.508 75.7362 55.1258 75.265 55.1258C74.7977 55.1258 74.4117 55.508 74.4117 55.9791C74.4117 56.0832 74.4363 56.1873 74.4722 56.2819L73.9537 56.49C73.9537 56.49 72.5611 55.0576 70.3871 53.0879L69.6415 52.4295L68.5082 51.4323C68.2641 51.2242 68.0143 51.0103 67.7589 50.7946C64.5441 48.0851 60.5063 45.0577 56.7125 43.2696C50.3814 40.2781 44.7277 42.7 44.7277 42.7C44.7277 42.7 50.2925 42.2932 57.1515 46.1551C60.107 47.8221 63.2877 50.2724 65.9689 52.5259C66.1922 52.7171 66.4117 52.9044 66.6274 53.0879L67.8478 54.1608L68.5063 54.7398C70.7371 56.7417 72.2168 58.2232 72.2168 58.2232L72.1695 58.5827C72.0975 58.5619 72.0219 58.5468 71.9386 58.5468C71.4675 58.5468 71.0853 58.929 71.0853 59.4001C71.0853 59.8713 71.4675 60.2535 71.9386 60.2535C72.4098 60.2535 72.792 59.8713 72.792 59.4001C72.792 59.2998 72.7731 59.209 72.7409 59.1201L72.9244 58.9838C72.9244 58.9838 77.5677 62.1683 80.0048 61.0785C83.0001 59.7464 82.739 57.2847 81.1477 57.016ZM71.8364 56.63C71.6926 56.8609 71.1023 56.0397 70.2281 55.2544C69.6737 54.7549 69.0266 54.1702 68.4173 53.6102L66.6463 51.8713C66.3984 51.5874 66.2716 51.3926 66.336 51.3377C66.3795 51.3017 66.5706 51.4342 66.8544 51.665C67.3085 52.0435 68.003 52.6906 68.6898 53.3415C69.0607 53.6934 69.4315 54.0472 69.7626 54.3594C71.1855 55.6972 72.0332 56.314 71.8364 56.63ZM78.8582 59.9772C78.6993 59.9961 78.5422 59.9961 78.3871 59.9848C78.3587 59.981 78.3303 59.981 78.3038 59.981C78.2924 59.9772 78.2849 59.9772 78.2754 59.9772C78.2603 59.9734 78.2546 59.9734 78.247 59.9734C78.2319 59.9734 78.2262 59.9697 78.2149 59.9697C78.1959 59.9659 78.1865 59.9659 78.1676 59.9621C78.107 59.9507 78.0408 59.9413 77.9802 59.9299C77.9121 59.9148 77.8478 59.9015 77.7778 59.8826C77.6453 59.8504 77.5148 59.8145 77.3918 59.7748C77.3634 59.7634 77.3312 59.754 77.2991 59.7426C77.2669 59.7312 77.2385 59.7218 77.2082 59.7104C77.1515 59.6896 77.089 59.6669 77.0323 59.6423C76.9755 59.6215 76.9131 59.595 76.8563 59.5704C76.7882 59.5382 76.7239 59.5099 76.669 59.4872C76.6122 59.4588 76.5649 59.4323 76.5138 59.4039C76.3151 59.3112 76.1676 59.2204 76.0919 59.1731C76.0711 59.1579 76.0559 59.1522 76.0446 59.1447C76.0597 59.1447 76.073 59.1485 76.1013 59.1522C76.1165 59.156 76.1335 59.1598 76.1581 59.1636C76.1903 59.1674 76.23 59.1787 76.2773 59.1882C76.3133 59.192 76.353 59.1996 76.4003 59.2033C76.4646 59.2185 76.5365 59.2279 76.616 59.2431C76.6709 59.2469 76.7239 59.2544 76.7844 59.262C76.896 59.2771 77.019 59.2866 77.1477 59.2942C77.1874 59.2979 77.2309 59.2979 77.2745 59.3017C77.774 59.3263 78.3473 59.2979 78.8147 59.1371C80.0956 58.6981 80.2981 57.5572 80.8203 58.0926C81.299 58.5733 80.2338 59.8258 78.8582 59.9772Z" fill="#0C9648"/>
<path d="M66.6462 51.8711L65.9726 52.5258L65.5545 52.9326C63.4807 55.0064 62.1599 56.5031 62.1599 56.5031L61.6301 56.3233C61.6623 56.2268 61.6812 56.1209 61.6774 56.0168C61.6528 55.5456 61.2536 55.1861 60.7806 55.2069C60.3132 55.2315 59.9499 55.6308 59.9745 56.1038C59.9953 56.5712 60.3965 56.9345 60.8676 56.9099C60.9073 56.9099 60.9471 56.8985 60.983 56.8947L61.0701 57.1937C61.0701 57.1937 59.8383 58.5977 58.2091 58.575C56.8884 58.5504 55.9518 57.1786 55.0057 57.3867C53.4258 57.7367 53.2933 60.2079 56.3416 61.3886C58.8317 62.3574 63.3104 58.942 63.3104 58.942L63.5053 59.0707C63.4769 59.1615 63.4617 59.2543 63.4655 59.3545C63.4901 59.8219 63.8894 60.1852 64.3624 60.1606C64.8298 60.1398 65.193 59.7386 65.1722 59.2675C65.1476 58.7963 64.7484 58.4368 64.2754 58.4577C64.1959 58.4614 64.1202 58.4785 64.0445 58.505L63.984 58.1492C63.984 58.1492 65.3879 56.5901 67.5185 54.4823L67.8534 54.1587L68.4192 53.6081L66.6462 51.8711ZM57.3596 59.7027C55.9518 59.5759 54.5119 58.7377 54.9906 58.17C55.6642 57.3716 56.2829 58.7812 57.4844 59.0121C58.9963 59.2997 59.9783 58.9288 59.9291 59.0669C59.8837 59.1918 58.8752 59.837 57.3596 59.7027Z" fill="#0C9648"/>
<path d="M90.6557 41.2753C90.6557 41.2753 85.0814 41.1485 78.4248 45.3491C75.4485 47.228 72.2621 49.9659 69.6434 52.4295C69.5318 52.5335 69.4201 52.6376 69.3085 52.7417L68.6898 53.3434C68.0029 52.6925 67.3085 52.0435 66.8544 51.6669L67.352 51.1844C67.4845 51.0558 67.6264 50.9252 67.7626 50.7965C70.879 47.8637 74.896 44.4862 78.7219 42.4427C84.8941 39.1409 90.6557 41.2753 90.6557 41.2753Z" fill="#0C9648"/>
<path d="M136.981 66.3633C136.977 66.3235 136.966 66.2876 136.966 66.2516C136.875 63.3642 136.599 60.4957 136.152 57.6461C135.318 52.3235 133.886 47.1655 131.797 42.2062C126.431 29.4607 117.969 19.2469 106.531 11.5042C100.12 7.16745 93.142 4.06811 85.6415 2.14948C82.1467 1.2526 78.6008 0.637654 75.0095 0.302745C73.2744 0.14002 71.5356 0.0548722 69.7986 0H67.1855C65.7456 0.0473037 64.3057 0.111636 62.8657 0.227057C59.6415 0.486281 56.4514 0.976348 53.2991 1.69158C48.2962 2.83254 43.4845 4.51655 38.862 6.74929C33.1326 9.50993 27.8837 13.0047 23.1269 17.2261C17.3937 22.3122 12.6236 28.1816 8.85633 34.8514C3.39181 44.5222 0.470339 54.9214 0.0483907 66.0132C-0.159745 71.5629 0.303832 77.0633 1.43344 82.5089C2.99257 90.0283 5.73051 97.086 9.69077 103.661C14.8128 112.166 21.4637 119.245 29.6151 124.908C36.0143 129.349 42.9831 132.585 50.5044 134.622C54.6614 135.748 58.8904 136.473 63.1874 136.8C66.9017 137.08 70.6122 137.067 74.3265 136.753C77.9764 136.443 81.5753 135.864 85.1249 134.982C91.8704 133.307 98.2072 130.658 104.139 127.031C110.913 122.882 116.798 117.712 121.797 111.54C127.821 104.108 132.097 95.7729 134.614 86.5392C135.628 82.8136 136.313 79.0312 136.68 75.1901C136.828 73.6669 136.915 72.1419 136.983 70.6111C137.021 69.1958 137.021 67.7805 136.981 66.3633ZM68.2905 133.642C32.2414 133.55 2.83552 103.92 3.36721 67.5004C3.88944 31.9621 33.108 3.01987 69.0209 3.3737C104.686 3.56102 133.717 32.7436 133.645 68.5657C133.573 104.694 104.099 133.733 68.2905 133.642Z" fill="#0C9648"/>
</svg>
