<svg width="111" height="100" viewBox="0 0 111 100" fill="none" xmlns="http://www.w3.org/2000/svg">
<g clip-path="url(#clip0_1045_3657)">
<path d="M110.504 69.1538C110.378 69.2169 110.251 69.2801 110.112 69.3306L110.024 69.3684C106.766 70.8962 103.711 71.7927 100.693 72.0705C100.63 72.0705 100.58 72.0831 100.529 72.0831C100.125 72.0831 99.8599 71.919 99.6326 71.5149C98.7866 70.0124 98.1553 68.2952 97.7134 66.2498C97.5619 65.5427 97.423 64.8356 97.2715 64.0907L97.0947 63.1689L96.9306 63.472C94.5821 67.7144 91.2109 73.1311 85.9457 77.3861L85.9078 77.424L85.87 77.3861C85.3902 76.7801 84.2159 75.1765 83.8624 74.6588L83.774 74.5326L83.2058 75.0755L83.2816 75.1639C83.6099 75.5806 84.0013 76.0604 84.3927 76.5402C84.721 76.9442 85.0492 77.3482 85.3397 77.7144L85.3775 77.7649C86.0467 78.5982 86.7412 79.4695 87.3599 80.2649C87.7513 80.77 88.1553 81.275 88.5467 81.7801L88.5593 81.7927C89.5063 83.0048 90.4785 84.2548 91.4634 85.4669C91.5897 85.6184 91.7033 85.7826 91.678 85.9594C91.6528 86.1361 91.5013 86.275 91.3498 86.3886C86.6275 90.0629 81.5644 93.0048 76.3119 95.1386C69.9861 97.7018 63.4583 99.1285 56.9053 99.3811C56.1604 99.4063 55.4154 99.419 54.6705 99.419C50.2134 99.419 45.8447 98.9013 41.6907 97.8659C34.2412 96.0225 27.3094 92.7523 21.1099 88.1689C20.6048 87.8028 20.0998 87.4114 19.6073 87.0452L18.9255 86.5023C19.3927 85.9088 21.8548 82.7018 23.0543 81.1235C24.3927 79.3684 25.9078 77.3735 27.221 75.6689L27.2967 75.5679L26.8422 75.1891L26.7664 75.3028C26.3119 75.9341 25.6427 76.7927 25.1124 77.4871L24.8725 77.7902L24.8346 77.7523C20.7184 74.3937 17.3472 70.1134 13.9129 63.8634L13.7361 63.5351L13.6856 63.9013C13.6477 64.1412 13.6225 64.3432 13.5846 64.5578C13.1679 67.5755 12.423 69.924 11.2487 71.9695C11.0846 72.2599 10.9583 72.4871 10.9078 72.6008C10.1755 72.5376 4.73359 72.0073 1.98107 70.3028C1.70329 70.126 1.38763 70.0124 1.07197 69.8861C0.92046 69.823 0.768944 69.7725 0.617429 69.6967L0.0366211 69.4442L0.213389 69.7725C3.23107 75.2523 6.38763 79.8104 9.85985 83.6993C13.673 87.9796 18.0922 91.7043 23.0038 94.7977L23.1048 94.8609L23.6477 94.0654C24.0265 93.5099 24.3927 92.9669 24.7588 92.4366C25.0619 91.9947 25.1881 91.8306 25.3902 91.8306C25.5543 91.8306 25.7437 91.9442 26.0846 92.1462C30.6427 94.823 35.4407 96.8432 40.3523 98.1184C45.1376 99.3684 49.923 99.9998 54.5947 99.9998C55.6679 99.9998 56.7538 99.9619 57.8144 99.8988C62.1073 99.6336 66.2992 98.9265 70.2765 97.8154C73.7487 96.8306 77.2083 95.5048 80.5669 93.8508C82.3346 92.9796 83.9634 92.0831 85.5417 91.0982L85.5796 91.073L88.0164 94.52L88.1174 94.4568C97.221 88.775 104.595 80.5553 110.655 69.3179L110.832 68.9897L110.504 69.1538ZM88.7993 93.2952C89.077 92.7902 89.519 91.9947 89.5947 91.8432C89.8346 91.3886 90.0745 90.9215 90.327 90.4543C90.4785 90.1765 90.6174 89.8987 90.7689 89.621C91.3119 88.5982 91.8801 87.5503 92.4609 86.5149C92.6629 86.1614 92.6376 85.9341 92.3599 85.5806C90.7942 83.5982 89.2285 81.5654 87.7134 79.5957L86.9179 78.5604C86.8043 78.4215 86.7033 78.2573 86.6023 78.0932C86.5518 78.0174 86.4886 77.929 86.4255 77.8407L86.4003 77.8028L86.4381 77.7775C90.3523 74.5705 93.6604 70.5174 96.577 65.4038L96.8296 64.9745C96.8801 65.4038 96.9684 66.0604 97.0063 66.2245C97.1326 66.7548 97.2715 67.2977 97.4356 67.828C97.9407 69.52 98.5972 70.9972 99.4432 72.3482C99.6452 72.6765 99.8093 72.7523 100.176 72.727C103.004 72.525 105.845 71.8432 108.622 70.7068C108.686 70.6816 109.165 70.4164 109.557 70.2144L109.178 70.8078C105.744 77.0073 101.88 82.1336 97.3851 86.477C94.8725 88.8886 91.4003 91.6412 88.7993 93.2952ZM91.5013 87.0326L88.029 93.5225L86.1099 90.7573L86.1604 90.7321C87.7639 89.7093 90.1503 87.9922 91.5013 87.0326ZM2.20834 71.1109C4.69571 72.1083 7.03157 72.7144 9.58208 72.9922C9.80935 73.0174 11.0467 73.1184 11.0972 73.1184H11.173L11.2109 73.0553C11.4255 72.7397 11.4255 72.7397 11.4381 72.7397C12.5871 70.9341 13.3952 68.876 13.9129 66.4644C13.9255 66.4265 13.9255 66.3886 13.9255 66.3381C13.9381 66.2245 14.0013 65.7068 14.0644 65.328L14.2917 65.8078V65.8205C14.4432 66.0604 14.5821 66.3003 14.721 66.5402C15.024 67.0578 15.3144 67.5503 15.6301 68.0301C18.2058 72.0705 20.9457 75.2649 24.0139 77.8154C24.0265 77.8154 24.2917 78.0427 24.5189 78.2195C24.1023 78.775 22.0189 81.5149 21.1477 82.6513C20.3018 83.7498 19.4306 84.8861 18.5593 85.9972C18.3068 86.3255 18.2184 86.5654 18.4583 86.9821C19.2285 88.3583 19.9735 89.7599 20.7058 91.1235C20.9583 91.5907 21.1982 92.0578 21.4508 92.525C21.4886 92.6008 21.7033 92.9922 21.8927 93.3205L21.3371 92.9164C17.4609 90.4164 13.8119 87.3104 10.2008 83.4088C7.38511 80.3659 2.37248 72.424 1.19824 70.5553C2.19571 71.0982 2.20834 71.1109 2.20834 71.1109ZM24.7083 91.3255L24.7462 91.3508L22.7891 93.8886L19.3043 87.4619L19.9735 88.0679L20.0998 88.1563C21.6402 89.3306 23.2184 90.3659 24.7083 91.3255Z" fill="#0E161F"/>
<path d="M54.986 0.542929C60.7183 0.542929 66.2865 1.66667 71.5138 3.87626C76.5769 6.0101 81.1097 9.07828 85.0113 12.9798C88.9128 16.8813 91.9809 21.4268 94.1148 26.4773C96.3244 31.7172 97.4481 37.2727 97.4481 43.0051C97.4481 48.7374 96.3244 54.3056 94.1148 59.5328C91.9809 64.596 88.9128 69.1288 85.0113 73.0303C81.1097 76.9318 76.5643 80 71.5138 82.1338C66.2739 84.3434 60.7183 85.4672 54.986 85.4672C49.2537 85.4672 43.6855 84.3434 38.4582 82.1338C33.3951 80 28.8623 76.9318 24.9608 73.0303C21.0592 69.1288 17.9911 64.5833 15.8572 59.5328C13.635 54.3182 12.5113 48.75 12.5113 43.0177C12.5113 37.2854 13.635 31.7172 15.8446 26.4899C17.9784 21.4268 21.0466 16.8939 24.9481 12.9924C28.8496 9.09091 33.3951 6.02273 38.4456 3.88889C43.6981 1.65404 49.2537 0.542929 54.986 0.542929ZM54.986 0C31.236 0 11.981 19.2551 11.981 43.0177C11.981 66.7677 31.236 86.0354 54.9986 86.0354C78.7613 86.0354 98.0163 66.7803 98.0163 43.0177C98.0037 19.2551 78.7486 0 54.986 0Z" fill="#0E161F"/>
<path d="M55.5289 8.83838C55.5289 8.83838 55.5416 12.1338 55.5416 13.5227C55.5416 15.6692 56.6779 16.0985 57.284 16.3258C57.4355 16.3763 57.4103 16.5909 57.2587 16.6288H52.4103C52.2587 16.6035 52.2335 16.3889 52.385 16.3258C52.9911 16.1111 54.1274 15.6692 54.1274 13.5227C54.1274 12.1338 54.1401 8.83838 54.1401 8.83838H55.5289Z" fill="#9E4E27" stroke="#0E161F" stroke-width="1.7008" stroke-miterlimit="10"/>
<path d="M52.8395 11.6288C52.587 10.8459 52.6249 9.82321 52.9405 8.80048L52.9784 8.66159L52.8395 8.7121C52.1703 8.97725 51.7537 9.58331 51.3496 10.1767C51.236 10.3535 51.1097 10.5177 50.9835 10.6944C51.1097 9.93684 51.6022 9.17927 52.0062 8.57321C52.1198 8.40907 52.2209 8.24492 52.3092 8.10604L52.385 7.9924L52.2461 8.00503C51.2991 8.05553 50.5668 8.92674 50.2385 9.41917C50.3774 8.39644 51.4885 7.73987 52.1703 7.33583C52.3597 7.2222 52.5113 7.13381 52.6123 7.05806L52.7764 6.93179H52.5618C51.9052 6.93179 50.9835 7.29796 50.2764 7.61361C50.7183 6.91917 52.2082 6.35099 52.8017 6.12371L53.0416 6.03533L52.8017 5.98482C52.789 5.98482 52.3471 5.89644 51.8294 5.89644C51.4506 5.89644 51.135 5.93432 50.8698 6.0227C51.4128 5.4924 52.0315 5.36614 52.8395 5.36614C52.9911 5.36614 53.1552 5.36614 53.3698 5.37876L53.5466 5.39139L53.433 5.26513C53.0037 4.78533 52.4355 4.45705 51.9304 4.17927C51.8547 4.14139 51.7916 4.10351 51.7158 4.05301C51.8294 4.02775 51.9431 4.02775 52.0441 4.02775C52.8395 4.02775 53.534 4.54543 54.1905 5.03785L54.2916 5.11361L54.3042 4.98735C54.4052 4.30553 54.4936 3.67422 54.8219 2.94189C55.087 3.37119 55.2385 3.92674 55.3774 4.45705C55.4405 4.68432 55.5037 4.92422 55.5794 5.15149L55.6299 5.29038L55.7183 5.16412C56.2991 4.2929 57.2714 3.98987 57.9405 3.98987C57.9658 3.98987 57.9911 3.98987 58.0037 3.98987C57.4734 4.21715 56.7537 4.68432 56.337 5.27775L56.2613 5.39139H56.4001C56.4759 5.39139 56.5517 5.39139 56.6274 5.37876C56.8042 5.36614 56.9936 5.36614 57.1703 5.36614C57.8143 5.36614 58.4708 5.45452 58.9633 6.03533C58.635 5.98482 58.1678 5.93432 57.7512 5.93432C57.3345 5.93432 57.0567 5.98482 56.8926 6.07321L56.7411 6.16159L56.9178 6.19947C58.2941 6.5025 59.1779 6.90654 59.5693 7.38634C59.039 7.14644 58.1931 6.88129 57.6249 6.88129C57.5744 6.88129 57.5365 6.88129 57.486 6.88129L57.2966 6.89391L57.4481 7.00755C57.4986 7.04543 57.5744 7.09593 57.6501 7.15907C58.1804 7.52523 59.3547 8.35856 59.6703 9.21715C59.0517 8.78785 57.7764 7.97977 57.6123 7.95452L57.486 7.92927L57.5365 8.0429C57.6501 8.33331 57.8648 8.64896 58.0794 8.97725C58.433 9.50755 58.7991 10.0631 58.8244 10.5934C58.6097 10.404 58.4203 10.1641 58.2183 9.92422C57.8774 9.52018 57.5113 9.09088 57.0441 8.81311L56.9178 8.73735L56.9431 8.88886C57.1072 9.83583 57.2209 10.7575 56.9683 11.5783C56.7789 10.4798 55.9582 8.83836 54.8724 8.83836C53.8118 8.83836 53.4203 9.89896 53.2815 10.303C53.1931 10.5429 53.1299 10.7828 53.0668 11.0227C52.9658 11.2247 52.9153 11.4267 52.8395 11.6288Z" fill="#1E7F4F"/>
<path d="M54.8093 3.09356C55.0239 3.4976 55.1628 3.99002 55.2891 4.48245C55.3522 4.70972 55.4153 4.94962 55.4911 5.17689L55.5795 5.4673L55.7436 5.21477C56.2234 4.48245 57.0062 4.15416 57.6249 4.07841C57.1451 4.34356 56.5896 4.7476 56.2487 5.24002L56.0845 5.47992L56.3749 5.4673C56.4507 5.4673 56.5264 5.4673 56.6022 5.45467C56.779 5.44204 56.9684 5.44204 57.1451 5.44204C57.7133 5.44204 58.2941 5.50517 58.7487 5.93447C58.4456 5.89659 58.0795 5.85871 57.7259 5.85871C57.2966 5.85871 57.0062 5.90921 56.8295 6.01022L56.5138 6.19962L56.8674 6.27538C57.9785 6.5279 58.7739 6.83093 59.2285 7.19709C58.7108 7.0077 58.0542 6.83093 57.5997 6.83093C57.5492 6.83093 57.4987 6.83093 57.4608 6.83093L57.0946 6.86881L57.385 7.09608C57.4355 7.13396 57.5113 7.18447 57.5997 7.2476C58.0669 7.57588 59.077 8.29558 59.4936 9.04053C58.8497 8.61123 57.7891 7.94204 57.6123 7.90416L57.3598 7.86628L57.4482 8.10618C57.5618 8.40921 57.7764 8.72487 58.0037 9.05315C58.3067 9.5077 58.6224 9.9875 58.7108 10.442C58.5593 10.2779 58.4078 10.1011 58.2562 9.92437C57.9027 9.5077 57.5492 9.07841 57.0694 8.80063L56.8042 8.64911L56.8547 8.95214C56.9936 9.78548 57.1073 10.5936 56.9557 11.3133C56.678 10.2148 55.8825 8.81326 54.8598 8.81326C53.7487 8.81326 53.3446 9.91174 53.1931 10.3158C53.1047 10.5557 53.0416 10.7956 52.9658 11.0355C52.928 11.1491 52.9027 11.2754 52.8648 11.389C52.6881 10.6567 52.7512 9.7476 53.029 8.82588L53.1174 8.5481L52.8396 8.66174C52.1451 8.93952 51.7285 9.55821 51.3118 10.1516C51.2613 10.2274 51.2108 10.3032 51.1603 10.3789C51.3497 9.7476 51.7537 9.14154 52.082 8.62386C52.1956 8.45972 52.2966 8.29558 52.385 8.14406L52.5239 7.91679L52.2588 7.92942C51.4507 7.9673 50.8068 8.58598 50.4153 9.07841C50.7184 8.28295 51.6401 7.75265 52.2209 7.39911C52.4103 7.28548 52.5618 7.19709 52.6628 7.12134L52.9911 6.86881H52.5871H52.5744C51.9936 6.86881 51.2108 7.15921 50.5416 7.43699C51.1224 6.86881 52.3724 6.38901 52.8396 6.19962L53.3068 6.02285L52.8143 5.92184C52.8017 5.92184 52.3598 5.83346 51.8295 5.83346C51.577 5.83346 51.3497 5.85871 51.1477 5.89659C51.6275 5.54305 52.1704 5.45467 52.8396 5.45467C52.9911 5.45467 53.1552 5.45467 53.3699 5.4673L53.7108 5.47992L53.4835 5.2274C53.0416 4.73497 52.4734 4.40669 51.9684 4.12891C51.9557 4.12891 51.9557 4.11628 51.9431 4.11628C51.981 4.11628 52.0189 4.11628 52.0568 4.11628C52.827 4.11628 53.5088 4.62134 54.1527 5.11376L54.3421 5.26528L54.38 5.02538C54.4431 4.35618 54.5189 3.76275 54.8093 3.09356ZM54.784 2.79053C54.4052 3.56073 54.3042 4.20467 54.2032 4.96224C53.4961 4.43194 52.8143 3.93952 52.0189 3.93952C51.8547 3.93952 51.678 3.96477 51.4886 4.01527C52.0694 4.36881 52.8017 4.70972 53.3446 5.30315C53.1552 5.29053 52.9785 5.29053 52.8143 5.29053C51.8926 5.29053 51.1855 5.44204 50.5669 6.21224C50.9078 6.01022 51.3749 5.95972 51.8042 5.95972C52.3219 5.95972 52.7638 6.0481 52.7638 6.0481C52.0315 6.32588 50.3901 6.96982 50.1123 7.75265C50.6805 7.4875 51.8042 6.99507 52.5492 6.99507H52.5618C52.082 7.37386 50.0997 8.15669 50.1502 9.67184C50.5416 9.01528 51.3118 8.10618 52.2461 8.05568C51.779 8.81325 50.9456 9.84861 50.8951 10.9218C51.5391 10.1516 51.9684 9.12891 52.8775 8.77538C52.5744 9.77285 52.486 10.9345 52.8522 11.8436C53.0416 11.3511 53.1426 10.8335 53.3194 10.3537C53.4709 9.93699 53.8497 8.93952 54.8472 8.93952C55.9583 8.93952 56.8295 10.8208 56.9052 11.9067C57.2966 10.9976 57.1578 9.91174 56.981 8.90164C57.7638 9.35618 58.231 10.24 58.8623 10.7577C58.9507 9.82336 57.9027 8.83851 57.5744 8.03043C57.7259 8.05568 59.2411 9.00265 59.7714 9.39406C59.5567 8.32083 57.8396 7.2476 57.4608 6.95719C57.4987 6.95719 57.5492 6.95719 57.5871 6.95719C58.2436 6.95719 59.279 7.32336 59.7209 7.56326C59.3169 6.7173 57.6628 6.31325 56.8926 6.13649C57.0568 6.0481 57.3598 6.01022 57.7133 6.01022C58.1931 6.01022 58.736 6.07336 59.0896 6.13649C58.5845 5.41679 57.8775 5.30315 57.1325 5.30315C56.88 5.30315 56.6148 5.31578 56.3623 5.32841C56.8295 4.65921 57.7638 4.11628 58.2689 3.96477C58.1679 3.93952 58.0416 3.92689 57.9027 3.92689C57.2461 3.92689 56.236 4.2173 55.63 5.13901C55.3648 4.33093 55.2259 3.40921 54.784 2.79053Z" fill="#0E161F"/>
<path d="M56.0213 21.7552C56.2612 22.0582 56.4759 22.336 55.9582 22.6011C55.7057 22.7274 55.7688 22.9547 55.9203 23.1314C56.1223 23.384 56.2991 23.2198 56.4254 23.0557C56.5643 22.8789 56.6779 22.6769 56.8294 22.4622C57.1451 22.7021 57.4229 22.942 57.7385 23.1441C58.2183 23.4345 58.7486 23.5734 59.3042 23.3713C59.7587 23.1946 60.0239 22.6769 59.885 22.2476C59.7082 21.692 59.3168 21.9193 58.9506 21.9951C58.3824 22.1213 57.8269 22.1845 57.3723 21.6289C57.587 21.3133 58.1173 21.1239 57.8395 20.5936C57.7764 20.4799 57.688 20.3537 57.5491 20.4042C57.0946 20.5557 57.0946 21.0102 56.9178 21.4395C56.4885 20.9345 56.1097 20.4547 55.6804 20.0254C53.9254 18.2198 51.8294 16.5532 49.3294 15.9976C47.3471 15.5557 45.3648 16.2249 44.9229 16.692C45.3521 16.692 46.1223 16.6037 46.539 16.6037C48.6223 16.5784 50.4532 17.1971 52.1956 18.3713C53.2183 19.0532 55.592 21.2375 56.0213 21.7552Z" fill="#F9CE6C" stroke="#0E161F" stroke-width="1.4173" stroke-miterlimit="10"/>
<path d="M53.938 21.7928C53.6981 22.0958 53.4834 22.3736 54.0011 22.6387C54.2536 22.765 54.1905 22.9923 54.039 23.169C53.837 23.4216 53.6602 23.2574 53.5339 23.0933C53.395 22.9165 53.2814 22.7145 53.1299 22.4998C52.8142 22.7397 52.5365 22.9796 52.2208 23.1817C51.741 23.4721 51.2107 23.6109 50.6551 23.4089C50.2006 23.2322 49.9354 22.7145 50.0743 22.2852C50.2511 21.7296 50.6425 21.9569 51.0087 22.0327C51.5769 22.1589 52.1324 22.2221 52.587 21.6665C52.3723 21.3509 51.842 21.1615 52.1198 20.6312C52.1829 20.5175 52.2713 20.3913 52.4102 20.4418C52.8647 20.5933 52.8647 21.0478 53.0415 21.4771C53.4708 20.9721 53.8496 20.4923 54.2789 20.063C56.0339 18.2574 58.1299 16.5907 60.6299 16.0352C62.6122 15.5933 64.5945 16.2625 65.0365 16.7296C64.6072 16.7296 63.837 16.6413 63.4203 16.6413C61.337 16.616 59.5062 17.2347 57.7637 18.4089C56.7536 19.0907 54.3799 21.2751 53.938 21.7928Z" fill="#F9CE6C" stroke="#0E161F" stroke-width="1.4173" stroke-miterlimit="10"/>
<path d="M55.0365 65.6185C66.5355 65.6185 75.8572 56.2967 75.8572 44.7978C75.8572 33.2988 66.5355 23.9771 55.0365 23.9771C43.5376 23.9771 34.2158 33.2988 34.2158 44.7978C34.2158 56.2967 43.5376 65.6185 55.0365 65.6185Z" fill="#CFE4F3" stroke="#0E161F" stroke-width="1.9843" stroke-miterlimit="10"/>
<path d="M75.8572 44.7979H34.2158" stroke="#0E161F" stroke-width="1.9843" stroke-miterlimit="10"/>
<path d="M74.2284 52.9038H35.8572" stroke="#0E161F" stroke-width="1.9843" stroke-miterlimit="10"/>
<path d="M66.9305 61.8813H43.1426" stroke="#0E161F" stroke-width="1.9843" stroke-miterlimit="10"/>
<path d="M75.8572 44.7979H34.2158" stroke="#0E161F" stroke-width="1.9843" stroke-miterlimit="10"/>
<path d="M74.2284 36.6792H35.8572" stroke="#0E161F" stroke-width="1.9843" stroke-miterlimit="10"/>
<path d="M66.9305 27.7021H43.1426" stroke="#0E161F" stroke-width="1.9843" stroke-miterlimit="10"/>
<path d="M55.0366 65.6189V23.9648" stroke="#0E161F" stroke-width="1.9843" stroke-miterlimit="10"/>
<path d="M55.0366 23.9648C55.0366 23.9648 71.1856 44.7855 55.0366 65.6063" stroke="#0E161F" stroke-width="1.9843" stroke-miterlimit="10"/>
<path d="M55.0366 23.9648C55.0366 23.9648 66.5518 29.9749 66.5518 44.8108C66.5518 59.6467 55.0366 65.6063 55.0366 65.6063" stroke="#0E161F" stroke-width="1.9843" stroke-miterlimit="10"/>
<path d="M55.0366 23.9648C55.0366 23.9648 70.9836 27.6896 70.9836 44.8108C70.9836 61.932 55.0366 65.6189 55.0366 65.6189" stroke="#0E161F" stroke-width="1.9843" stroke-miterlimit="10"/>
<path d="M55.0366 23.9648C55.0366 23.9648 38.4836 44.7855 55.0366 65.6063" stroke="#0E161F" stroke-width="1.9843" stroke-miterlimit="10"/>
<path d="M55.0366 23.9648C55.0366 23.9648 43.2437 29.9749 43.2437 44.8108C43.2437 59.6467 55.0366 65.6063 55.0366 65.6063" stroke="#0E161F" stroke-width="1.9843" stroke-miterlimit="10"/>
<path d="M55.0366 23.9648C55.0366 23.9648 38.6982 27.6896 38.6982 44.8108C38.6982 61.932 55.0366 65.6063 55.0366 65.6063" stroke="#0E161F" stroke-width="1.9843" stroke-miterlimit="10"/>
<path d="M47.587 30.6945C47.8774 31.1111 48.3572 31.2374 48.7739 31.4773C50.693 32.5758 52.2713 34.1414 54.0516 35.4419C54.5062 35.7702 54.9481 35.9344 55.491 35.9722C56.6653 36.048 57.8395 36.149 59.0011 36.2121C59.3294 36.2374 59.5567 36.3384 59.6198 36.7046C59.6829 37.0202 59.8723 37.2728 60.2385 37.1717C61.135 36.9318 61.539 37.5379 61.7158 38.1692C61.9052 38.851 62.4228 39.1919 62.8395 39.596C63.3951 40.1263 64.0895 40.5177 64.2663 41.4268C63.938 41.6793 64.0643 42.0329 64.2663 42.399C64.6577 43.0808 65.0491 43.7627 65.4531 44.4445C65.5415 44.5834 65.6299 44.7728 65.8067 44.7854C66.4127 44.8233 66.5643 45.3409 66.842 45.7324C67.3723 46.4394 67.9279 47.1339 68.4708 47.8157C68.6097 47.9925 68.837 48.0051 69.039 48.043C70.289 48.1945 71.539 48.346 72.789 48.4975C73.5466 48.5859 74.0516 49.3435 73.8244 50.0758C73.5466 50.9849 73.2562 51.8813 72.991 52.7904C72.89 53.1313 72.7259 53.3081 72.385 53.4217C71.0718 53.8637 69.7587 54.3308 68.4582 54.798C66.8547 55.3788 65.1627 55.4293 63.4961 55.6566C61.6526 55.9091 60.3395 56.7803 59.4936 58.4091C59.2158 58.952 58.938 59.0025 58.534 58.5606C58.3572 58.3586 58.1678 58.3207 57.9153 58.3334C57.1072 58.3965 56.3244 58.2955 55.5542 58.0808C54.8976 57.9041 54.2158 58.043 53.5592 58.1061C53.2814 58.1313 53.0289 58.144 52.7764 58.0051C52.2713 57.7399 51.9557 57.9419 51.7663 58.4849C51.6274 58.8889 51.8799 59.3308 51.5895 59.697C51.5643 59.7222 51.5264 59.7475 51.5011 59.7854C51.4254 59.7601 51.337 59.7222 51.2612 59.697C50.8319 58.9015 50.5542 58.0051 49.784 57.4243C49.1274 56.9445 48.8496 56.1869 48.5718 55.4798C48.0668 54.2172 47.4102 53.2071 46.0971 52.5758C45.4784 52.2728 44.986 51.5278 44.8597 50.6692C44.6324 49.2172 44.784 47.6642 43.7107 46.4015C43.3319 45.9596 42.991 45.5051 42.4607 45.2778C41.8168 45 41.4759 44.5707 41.5011 43.851C41.5138 43.4596 41.2612 43.1313 41.0466 42.8283C40.0491 41.3384 39.0264 39.8738 38.1047 38.3334C38.0163 38.1945 37.9153 37.9925 37.7764 37.9672C36.7663 37.7273 37.1451 36.9697 37.1703 36.3763C37.1956 35.7323 37.4102 35.543 38.0415 35.7323C39.1274 36.0606 39.8723 35.7071 40.4153 34.7728C40.5415 34.5455 40.7688 34.495 41.0087 34.4697C41.5643 34.4066 42.0819 34.2677 42.284 33.6364C42.3597 33.3965 42.7006 33.4217 42.7764 33.144C42.3723 32.4748 41.7158 31.995 41.2107 31.3258C41.943 30.9722 42.7511 30.947 43.4456 30.6313C44.8723 29.9748 46.2233 30.1894 47.587 30.6945Z" fill="#F9CE6C" stroke="#0E161F" stroke-width="1.9843" stroke-miterlimit="10"/>
<path d="M80.4153 45.4544C80.4278 45.4544 80.4278 45.4544 80.4278 45.4419L80.4153 45.4544Z" fill="#2D4D4B"/>
<path d="M85.3649 53.2829C86.9684 52.6263 88.4204 51.7172 89.7209 50.5556C90.3522 49.9874 90.9583 49.3814 91.4129 48.6364C91.3118 48.5986 91.274 48.5733 91.2361 48.5733C91.1351 48.5986 91.0341 48.6364 90.9457 48.6617C89.178 49.293 87.8144 50.5177 86.4886 51.7677C86.0846 52.1465 85.6932 52.5253 85.1124 52.7021C85.2007 51.288 85.3396 51.0481 86.4002 50.3284C86.6022 50.1895 86.7916 50.0127 86.9937 49.8612C88.9507 48.3965 90.6426 46.7046 91.7538 44.495C91.7285 44.4698 91.6906 44.4445 91.6654 44.4066C91.4507 44.4319 91.2992 44.5834 91.1224 44.7097C89.4179 45.9344 87.9659 47.4117 86.6528 49.0405C86.4381 49.3056 86.2487 49.6087 85.8194 49.8738C86.0846 48.7501 85.8573 47.6895 86.8548 46.8561C88.8497 45.1895 90.2765 43.0683 91.375 40.7198C91.4507 40.5556 91.6654 40.3915 91.4507 40.1137C89.38 41.7677 87.827 43.8385 86.476 46.1112C86.4002 45.4294 86.4381 44.798 86.4002 44.1541C86.375 43.7122 86.5012 43.4092 86.8043 43.0935C88.0921 41.7804 89.1906 40.3284 90.024 38.6743C90.5038 37.7147 90.8952 36.7172 91.0214 35.6314C90.6553 35.9218 90.3144 36.2374 90.024 36.5784C88.7992 38.0304 87.928 39.7097 87.0947 41.4142C86.9432 41.7299 86.8295 42.1087 86.375 42.3612C86.3371 41.3511 86.0593 40.4925 86.7159 39.6087C88.4836 37.2097 89.2159 34.4319 89.5442 31.3385C87.6502 33.6364 87.0442 36.3132 86.2866 38.9142C86.0214 38.8258 86.0088 38.6869 85.9836 38.5733C85.8699 38.0304 85.8068 37.4622 85.6174 36.9571C85.5164 36.692 85.5543 36.5784 85.6805 36.3637C87.2083 33.8637 87.6628 31.1112 87.5871 28.0809C86.2487 30.4041 85.8447 32.841 85.3901 35.3031C85.0745 34.495 84.3927 33.8385 84.7841 32.8662C85.5669 30.9344 85.9204 28.9142 85.8699 26.8309C85.8573 26.1112 85.7563 25.4041 85.7058 24.6844C85.3017 25.2652 85.1124 25.8587 84.9735 26.4773C84.5947 28.1566 84.6073 29.8612 84.5063 31.5531C84.4937 31.8183 84.5947 32.1465 84.1906 32.3359C83.7866 31.2374 83.0164 30.2778 83.5719 28.99C83.8118 28.4218 83.8497 27.7652 83.9128 27.1339C84.0896 25.3284 84.0644 23.5354 83.5719 21.7551C83.4078 21.8183 83.3825 21.9445 83.3573 22.0708C82.8396 23.9773 82.5492 25.8839 82.8649 27.8662C82.928 28.245 83.0921 28.6869 82.6628 29.1036C82.1073 28.043 81.274 27.1844 81.4507 25.8587C81.577 24.9496 81.5265 24.0026 81.4255 23.0809C81.2866 21.6415 81.0341 20.2273 80.327 18.7879C79.9987 21.2501 80.4533 23.5354 80.7942 25.846C80.0618 24.9496 79.1149 24.2804 79.1149 22.942C79.1149 21.2879 78.7487 19.6465 78.2184 18.0683C77.9785 17.3486 77.726 16.6289 77.2462 15.9344C76.9179 18.3965 77.8649 20.5556 78.3573 22.7905C77.4735 22.2475 76.8169 21.5405 76.1098 20.8965C75.9204 20.7198 75.9331 20.4799 75.9204 20.2526C75.7437 18.2829 75.2512 16.4142 74.3926 14.6339C74.1527 14.1289 73.8876 13.6112 73.4204 13.144C73.4583 15.6314 74.3674 17.7778 75.4154 20.0001C74.9861 19.8864 74.8093 19.7475 74.6199 19.6213C74.5063 19.5455 73.9886 19.1541 73.5846 18.9647C73.6098 18.9773 73.6477 18.9773 73.673 18.99C72.7891 18.6364 72.7639 17.8157 72.524 17.1213C72.3219 16.5405 72.1326 15.9723 71.9053 15.4041C71.274 13.8637 70.2891 12.5506 69.178 11.3258C69.4053 13.6996 70.7942 15.5304 71.8927 17.5127C70.6805 17.0203 69.7588 16.0986 68.5467 15.7198C67.3724 15.3536 66.173 15.0253 64.7967 15.0127C66.2487 16.1238 67.3093 16.5531 69.5568 16.8814C70.3901 17.0076 70.9204 17.5885 71.7159 18.1061C70.7058 18.2829 69.8851 18.4092 69.077 18.5733C68.2563 18.7501 67.4103 18.8511 66.6275 19.4824C67.8144 19.7097 68.8876 19.6592 69.9735 19.5582C71.0341 19.4571 72.0189 18.8385 73.13 18.9016C73.5088 19.2299 74.8851 20.0885 75.0745 20.6693C72.9911 20.442 70.9457 20.2273 68.9129 20.644C68.976 20.8839 69.1654 20.8839 69.3169 20.947C70.9709 21.5405 72.6629 21.7172 74.4053 21.4773C74.8977 21.4142 75.4533 21.1491 75.8699 21.3763C76.6906 21.8183 77.3346 22.5127 77.9533 23.447C75.7815 23.043 73.7487 22.5758 71.6654 22.9672C71.8043 23.1061 71.9432 23.1819 72.0947 23.245C73.8371 23.99 75.6553 24.2677 77.524 24.0657C78.3699 23.9773 78.9255 24.1794 79.3295 24.9117C79.5315 25.2778 79.923 25.543 79.8851 26.0986C77.7765 25.5177 75.731 24.9874 73.4962 25.0506C73.7235 25.3789 73.9886 25.442 74.2285 25.5556C76.1224 26.4521 78.1427 26.7804 80.2134 26.8435C80.4911 26.8561 80.7815 26.8309 80.9331 27.1213C81.2866 27.8284 81.7411 28.4849 82.0442 29.3814C79.9987 28.7879 78.1805 27.7778 76.0846 27.7273C76.1098 27.7905 76.1098 27.841 76.1351 27.8662C76.2108 27.942 76.2866 28.0051 76.375 28.0683C78.1048 29.1541 79.9482 29.8864 82.0189 29.9622C82.2083 29.9748 82.4356 29.9496 82.524 30.139C82.9533 31.0354 83.3825 31.9319 83.6351 33.0556C81.6149 32.1718 79.7714 31.1364 77.524 30.8965C79.3043 32.4874 81.2992 33.1945 83.3952 33.6869C83.5972 33.7374 83.875 33.6491 83.976 33.8637C84.2664 34.5455 84.5568 35.2273 84.5315 36.1238C82.6629 34.9622 80.832 33.9773 78.7235 33.5859C78.7487 33.6869 78.7487 33.7374 78.7613 33.7627C78.8118 33.8258 78.875 33.889 78.9381 33.9395C80.4406 35.139 82.082 36.1238 83.9255 36.692C84.5694 36.894 84.9608 37.1844 84.9735 37.8662C84.9861 38.5354 85.2891 39.192 85.0745 39.9748C83.2815 38.3713 81.4886 36.9193 79.1906 35.8839C79.3421 36.1112 79.38 36.1869 79.4305 36.2501C80.9204 38.1188 82.7765 39.5329 84.8977 40.6314C85.0492 40.7071 85.2512 40.745 85.2765 40.9218C85.4027 41.8056 85.4785 42.6895 85.2891 43.7248C83.673 42.0455 82.1199 40.5304 80.024 39.4066C81.0593 41.3258 82.9785 43.1693 84.7967 44.0405C84.9987 44.1415 85.2891 44.192 85.2765 44.4698C85.2512 45.2273 85.1755 45.9849 85.125 46.7425C85.0745 46.7551 85.0113 46.7804 84.9608 46.793C83.6477 45.2021 82.3093 43.6364 80.5921 42.4243C80.5795 42.5127 80.5543 42.5632 80.5669 42.5885C81.4255 44.596 82.6881 46.2627 84.5568 47.4117C84.7209 47.5127 84.9356 47.5758 84.9103 47.8031C84.8093 48.447 84.6831 49.091 84.5694 49.7097C84.2916 49.7223 84.2411 49.596 84.178 49.495C83.4331 48.346 82.6124 47.2475 81.6275 46.3006C81.2992 45.9723 81.0214 45.543 80.4911 45.4672C80.4533 45.6693 80.5543 45.8334 80.63 45.9975C81.4002 47.74 82.4987 49.2299 84.0265 50.3915C84.1528 50.4925 84.38 50.543 84.3169 50.7576C84.0896 51.4395 83.8876 52.1339 83.5341 52.8031C83.2184 52.5506 83.1553 52.2475 83.0164 51.995C82.3725 50.7576 81.6401 49.5834 80.7058 48.548C80.5543 48.3839 80.4154 48.1061 80.0618 48.3082C80.7563 50.1263 81.6149 51.8309 82.9406 53.2829C83.0795 53.4344 83.3194 53.5607 83.2058 53.8006C82.9533 54.4066 82.6629 55.0001 82.3219 55.7577C81.5012 53.6112 80.7058 51.6541 79.1654 50.0379C79.1022 50.2021 79.0644 50.24 79.077 50.2652C79.6704 52.3107 80.4154 54.2804 81.7285 55.9849C81.8295 56.1238 81.9684 56.2627 81.88 56.4395C81.5012 57.1213 81.0972 57.7905 80.6174 58.6112C80.2891 57.3738 80.0366 56.3258 79.6199 55.3157C79.1022 54.0279 78.4583 52.8284 78.029 52.5127C78.1553 54.3561 78.9381 56.7299 80.024 58.5481C80.1502 58.7627 80.4154 59.0152 80.2891 59.2172C79.8851 59.8738 79.4179 60.5051 78.7613 61.1617C78.332 58.9521 77.9406 56.9193 76.779 55.0506C76.6149 55.341 76.7033 55.543 76.7159 55.745C76.9179 57.6642 77.4861 59.4824 78.2689 61.2374C78.3447 61.4268 78.5341 61.6162 78.3699 61.8183C77.8522 62.4369 77.3472 63.0556 76.6022 63.5986C76.3371 61.49 76.0972 59.495 75.3144 57.5758C75.0997 57.7652 75.1755 57.942 75.1629 58.0935C75.0997 59.9748 75.3901 61.8183 75.8573 63.6364C75.9078 63.8511 76.0593 64.091 75.9078 64.3056C75.3017 65.1642 74.5063 65.8208 73.4709 66.3763C73.7992 64.0784 73.8876 61.9066 73.1932 59.7728C72.9533 59.8991 73.0038 60.1137 72.9659 60.2905C72.5492 62.2097 72.6376 64.1415 72.8901 66.0607C72.9659 66.6667 72.827 66.995 72.3472 67.3107C71.5139 67.841 70.7058 68.4218 69.6452 68.8132C70.2386 66.5026 70.7563 64.3183 70.5669 62.0329C70.3522 62.0455 70.3522 62.1718 70.327 62.2602C69.5315 64.3561 69.077 66.5278 68.8245 68.7501C68.7992 68.9773 68.8497 69.2677 68.6351 69.394C67.6755 70.0001 66.6401 70.4167 65.3775 70.6566C66.3497 68.5607 67.1578 66.5657 67.3093 64.3561C67.0568 64.3688 67.0315 64.5455 66.9558 64.6465C65.6932 66.4647 64.8851 68.4849 64.4053 70.6314C64.3548 70.8334 64.3548 71.0733 64.1275 71.1617C63.3573 71.4647 62.5492 71.6667 61.577 71.7551C62.8144 69.5834 64.0012 67.5253 64.1149 65.0885C62.6376 66.9319 61.5265 68.9647 60.9457 71.2501C60.7942 71.8309 60.4911 71.995 59.9608 72.0834C57.5113 72.4496 55.0492 72.3359 52.5871 72.298C51.7538 72.2854 50.9078 72.2223 50.0745 72.0455C49.6957 71.9698 49.4432 71.8561 49.3169 71.3763C48.673 68.9773 47.524 66.8183 45.9962 64.8612L46.0088 64.8486C45.8825 64.9748 45.9583 65.1263 45.9709 65.2652C46.2866 67.3864 47.1578 69.2804 48.2437 71.0986C48.3447 71.2753 48.5846 71.4268 48.4457 71.7299C47.7007 71.7046 47.0189 71.4395 46.2992 71.2627C45.9457 71.1743 45.8068 70.9723 45.7689 70.6566C45.6427 69.798 45.3522 68.99 45.0618 68.1819C44.5442 66.7804 43.875 65.4672 42.8775 64.1415C42.9785 66.5152 43.8623 68.4975 44.7462 70.5809C43.6856 70.4672 42.8901 70.0506 42.0694 69.697C41.577 69.495 41.375 69.192 41.3371 68.6617C41.2487 67.4874 41.0593 66.3258 40.7689 65.1768C40.4911 64.091 40.226 63.0051 39.6831 62.0077C39.38 64.2804 39.9735 66.4395 40.4911 68.7374C39.3674 68.346 38.5341 67.7147 37.6755 67.1339C37.3346 66.9066 37.2209 66.6415 37.2841 66.2374C37.4608 64.9622 37.5366 63.6869 37.4987 62.3991C37.4735 61.3511 37.2714 60.2147 36.9937 59.6844C36.2866 61.8435 36.4381 64.0152 36.6654 66.2627C35.9836 65.9723 35.5669 65.5809 35.1123 65.2021C34.4179 64.6213 33.976 64.0152 34.4432 63.0556C34.6452 62.639 34.6578 62.1213 34.7462 61.6415C34.9861 60.2905 35.0745 58.9268 34.9103 57.5506C34.1022 59.4319 33.875 61.4395 33.5719 63.548C32.8775 62.9799 32.3851 62.4117 31.8927 61.8435C31.7159 61.6415 31.8169 61.4395 31.9053 61.2501C32.3598 60.24 32.7512 59.192 33.029 58.1188C33.2942 57.1213 33.4709 56.0986 33.4583 55.0632C32.8017 55.9344 32.423 56.9319 32.1452 57.9546C31.8674 58.9773 31.6528 60.0127 31.3876 61.1743C30.9204 60.5809 30.5543 60.0506 30.1376 59.5582C29.8851 59.2551 29.8598 59.0152 30.0745 58.6617C30.7184 57.6011 31.2108 56.4647 31.6022 55.2778C32.0189 54.0531 32.2083 52.9672 32.1073 52.3864C30.832 54.2172 30.1502 56.2627 29.5694 58.3713C29.1528 57.8284 28.8497 57.2728 28.5088 56.7551C28.2815 56.4268 28.2942 56.1996 28.5341 55.8713C29.6199 54.4066 30.3775 52.7652 30.8699 51.0102C30.9583 50.6945 31.1477 50.3789 31.0341 49.9369C29.5568 51.6162 28.6856 53.548 27.8901 55.7071C27.625 55.139 27.4861 54.7223 27.2588 54.3561C26.9684 53.8511 26.9684 53.4597 27.423 53.0304C27.7891 52.6895 28.0669 52.2476 28.3573 51.8435C29.1906 50.6566 29.8093 49.3688 30.1629 47.942C29.3548 48.5733 28.7487 49.3688 28.2184 50.2273C27.7007 51.0607 27.2336 51.9193 26.6906 52.841C26.4129 52.1213 26.1982 51.5405 25.9709 50.9597C25.8699 50.6945 25.9331 50.543 26.1603 50.3789C26.8169 49.9243 27.3725 49.3435 27.9028 48.7374C28.774 47.74 29.3927 46.5784 29.8977 45.1768C28.9381 45.8587 28.231 46.5784 27.5997 47.3612C26.981 48.1314 26.4129 48.9395 25.7184 49.8612C25.5795 49.1415 25.4785 48.5859 25.3649 48.043C25.3017 47.74 25.3775 47.5506 25.6679 47.3738C26.3245 46.995 26.9179 46.5405 27.4482 45.9849C28.3952 44.9748 29.178 43.8637 29.5947 42.5127C27.8775 43.6364 26.577 45.2147 25.2007 46.7172C25.0618 45.9597 25.0113 45.2526 24.9482 44.5455C24.923 44.2677 25.1124 44.1667 25.3017 44.091C26.4129 43.5986 27.3346 42.8284 28.2184 42.0329C29.0012 41.3258 29.6452 40.4799 30.2386 39.3814C28.1174 40.5051 26.577 42.0455 24.923 43.7248C24.8725 42.7273 24.8346 41.9193 24.923 41.1112C24.9482 40.8208 25.1376 40.6819 25.3775 40.5683C26.3623 40.1011 27.2841 39.5076 28.1553 38.8385C29.2159 38.0304 30.1502 37.0834 30.9078 35.9849C28.7235 36.9066 26.9179 38.3713 25.1124 39.9874C24.9987 39.3561 25.1502 38.9142 25.1629 38.4597C25.2007 37.4748 25.5038 36.7172 26.6275 36.5657C26.8548 36.5405 27.0694 36.4142 27.2714 36.3258C28.8371 35.644 30.2891 34.8107 31.5139 33.5986C29.3927 33.9395 27.5492 34.9622 25.6553 36.0986C25.6553 35.5935 25.6553 35.2147 25.7942 34.8486C26.0593 34.1289 26.3624 33.5733 27.3093 33.4975C28.3447 33.4092 29.3295 32.9672 30.2639 32.5001C31.1225 32.0834 31.9432 31.6036 32.7007 30.7955C30.4785 31.1617 28.5972 32.0834 26.6023 33.0304C26.779 32.0708 27.1831 31.3258 27.4735 30.5556C27.6502 30.1011 27.9028 29.9243 28.3952 29.8991C30.2512 29.7854 31.9684 29.2299 33.5214 28.2071C33.7487 28.0556 34.1022 28.0177 34.1528 27.6895C32.0568 27.7147 30.2134 28.7248 28.1427 29.3814C28.4204 28.5354 28.8497 27.9546 29.1401 27.3233C29.3295 26.9193 29.6073 26.793 30.024 26.793C31.5265 26.7804 33.0038 26.5657 34.4305 26.1112C35.1881 25.8713 35.9457 25.5935 36.577 25.0885C34.4179 24.9369 32.3851 25.543 30.2639 26.0481C30.428 25.3536 30.8573 24.9874 31.1351 24.5329C31.4255 24.0784 31.7916 23.9773 32.3093 24.0278C33.673 24.1794 35.0366 24.1162 36.375 23.7879C37.1326 23.5986 37.8901 23.3839 38.6856 22.9041C36.4634 22.5379 34.4432 23.0177 32.3093 23.3965C32.7134 22.5885 33.332 22.1213 33.9002 21.6036C34.2033 21.3258 34.5315 21.2627 34.9356 21.3385C36.3876 21.6036 37.8522 21.7046 39.3169 21.3763C39.9861 21.2248 40.6805 21.0986 41.4129 20.6819C39.2159 20.1895 37.1578 20.4799 35.0618 20.6566C35.1376 20.4672 35.1755 20.3789 35.2134 20.2778C35.8447 19.7097 36.476 19.1415 37.2841 18.8006C39.3043 19.4445 41.3371 19.9243 43.4709 19.4193C41.9684 18.5354 40.2639 18.4597 38.4457 18.1061C39.3295 17.4496 40.024 16.8688 41.0341 16.8183C41.7664 16.7804 42.4861 16.5531 43.1679 16.3006C43.9255 16.0228 44.6325 15.644 45.327 15.0253C42.625 15.1011 40.3775 16.0481 38.2815 17.5632C39.3548 15.543 40.7184 13.7374 40.9962 11.2627C40.1755 12.2854 39.4053 13.144 38.8624 14.1667C38.1174 15.543 37.6629 17.0329 37.2083 18.5102C36.476 18.889 35.832 19.4066 35.2134 19.9369C35.0997 19.9243 34.9861 20.0758 34.7841 19.8612C35.8194 17.7905 36.7411 15.644 36.7538 13.0683C35.2891 15.1011 34.5442 17.2854 34.3674 19.5708C34.2285 21.3385 32.7891 21.8183 31.8421 22.8284C32.3093 20.5556 33.2689 18.3965 32.8901 15.9092C32.7512 16.1869 32.6629 16.3385 32.5745 16.5152C31.5644 18.6364 31.1351 20.9092 31.0088 23.2198C30.9457 24.4445 30.0366 25.0253 29.3674 25.8587C29.7083 23.5481 30.1502 21.2753 29.8346 18.8006C29.7209 19.0152 29.6831 19.0784 29.6578 19.1415C28.7361 21.4521 28.5341 23.8637 28.7108 26.3258C28.7866 27.4622 27.9028 28.1566 27.4356 29.0531C27.1326 27.7905 27.5366 26.5784 27.4103 25.341C27.2841 24.1289 27.1199 22.9294 26.6275 21.6794C25.9962 24.0405 25.9962 27.0455 26.7159 29.4824C27.0568 30.6314 26.2613 31.3385 25.8699 32.2349C25.4533 29.6844 25.731 27.0329 24.5315 24.5203C23.9507 27.4117 24.3295 30.0885 25.327 32.6642C25.7437 33.7501 25.0492 34.4066 24.7714 35.2778C24.3421 32.8157 23.9381 30.3789 22.6502 28.144C22.3472 30.5556 23.1048 34.0405 24.38 36.1364C24.4937 36.3132 24.6326 36.49 24.582 36.7172C24.4179 37.4622 24.2411 38.1945 24.0644 38.9395C23.1427 36.3637 22.5492 33.6869 20.731 31.5405C20.9457 34.4319 21.7033 37.1718 23.4331 39.5329C24.1022 40.4546 23.8497 41.3132 23.7613 42.3233C23.3573 42.0455 23.2437 41.692 23.0921 41.389C22.3598 39.9243 21.6401 38.447 20.6174 37.1465C20.2007 36.6162 19.8346 36.0102 19.1906 35.6945C19.0644 36.0354 19.2411 36.3511 19.3295 36.6415C20.0366 38.788 21.1982 40.6693 22.7007 42.3486C23.0669 42.7526 23.6225 43.0809 23.7108 43.6112C23.8624 44.4193 23.8624 45.2652 23.7613 46.288C22.9659 45.0001 22.2714 43.8511 21.4381 42.8157C20.5921 41.7804 19.6831 40.8208 18.5593 39.9496C18.5719 40.1011 18.5593 40.1642 18.5846 40.2147C19.6957 42.7273 21.2108 44.9496 23.2437 46.8056C24.0139 47.5001 24.4432 48.7501 24.2411 49.8864C22.4987 47.7526 20.7563 45.7071 18.332 44.2425C18.3194 44.596 18.5467 44.6718 18.6351 44.8233C19.8977 47.1592 21.7664 48.9395 23.9507 50.3536C24.8725 50.947 24.9103 51.7677 25.0618 52.6768C22.9406 51.3006 21.3624 49.1289 18.7613 48.4849C18.7613 48.548 18.7613 48.5859 18.774 48.6112C18.8497 48.7374 18.9381 48.8511 19.0265 48.9647C20.5164 50.8713 22.4482 52.1718 24.6199 53.1566C25.5038 53.5607 26.0593 54.4445 26.0341 55.5683C23.8624 53.9521 21.6149 52.5885 18.9255 51.7804C20.9457 53.9521 23.2563 55.3789 25.9204 56.2374C26.7285 56.5026 27.3472 57.3864 27.3977 58.3334C26.0846 57.639 24.8093 56.9193 23.4583 56.3511C21.4129 55.4799 19.9356 55.0632 19.3295 55.2021C23.3068 57.8915 23.3068 57.8915 27.6755 59.0531C28.13 59.1794 28.6603 59.9369 28.6351 60.4672C25.1376 59.2299 21.8169 58.4092 20.9709 58.5986C23.3826 60.2147 26.0214 61.1364 28.875 61.4647C29.7209 61.5657 30.5038 62.3359 30.6679 63.2955C28.1553 62.5001 25.6174 61.995 22.9911 62.0582C23.0543 62.1844 23.1427 62.2349 23.2184 62.2854C25.5921 63.6743 28.1932 64.2172 30.8826 64.192C32.0315 64.1794 32.3346 64.9243 32.8775 65.5809C30.3144 65.1642 27.7891 64.6465 25.1629 64.9496C25.327 65.2147 25.5795 65.2652 25.8068 65.3536C28.1805 66.389 30.7058 66.7677 33.2563 66.6541C34.4432 66.6036 34.9356 67.3233 35.5921 68.0177C32.9154 67.8284 30.2512 67.5253 27.423 68.0556C27.7007 68.1945 27.8017 68.2576 27.9154 68.3082C30.5543 69.4193 33.3194 69.5455 36.0719 69.0784C37.6629 68.8132 38.3699 69.9622 39.4432 70.5809C36.5896 70.9344 33.6982 70.745 30.7815 71.692C31.0088 71.7677 31.0846 71.793 31.1603 71.8056C34.2664 72.639 37.3724 72.5379 40.428 71.6289C41.8169 71.2248 42.7007 72.197 43.8371 72.5127C42.4608 72.9041 41.0972 73.1566 39.7462 73.4849C38.3826 73.8258 37.0189 74.1667 35.6174 74.8738C37.1452 75.1516 38.4836 75.1642 39.8219 74.9622C41.7285 74.6718 43.5467 74.1162 45.2891 73.3208C46.0846 72.9672 46.678 73.4092 47.3851 73.5733C45.9204 74.4193 44.5063 75.2652 43.231 76.3258C41.9558 77.3864 40.8194 78.5733 39.8472 80.0253C40.7184 80.3031 41.5391 80.4925 42.2967 80.8208C42.7639 81.0228 42.928 80.8587 43.1553 80.5304C43.8371 79.5582 44.6452 78.7122 45.4911 77.9041C50.1124 73.4597 57.8017 73.346 62.4482 76.1996C64.2411 77.298 65.7437 78.7122 66.981 80.4167C67.1578 80.6566 67.2714 81.0228 67.7007 80.8965C68.5719 80.6188 69.4305 80.3284 70.3775 80.0127C68.4331 77.1465 65.832 75.1642 62.7639 73.6112C63.8371 73.0683 64.6831 73.2071 65.6174 73.5859C67.7386 74.4571 69.9356 75.1263 72.2714 75.0885C73.0038 75.0758 73.7487 75.1011 74.5568 74.8233C71.8674 73.6112 69.077 73.1945 66.3371 72.538C67.0315 72.1844 67.7386 71.9193 68.4204 71.6162C68.7613 71.4647 69.077 71.4521 69.4432 71.5531C71.7664 72.2349 74.1275 72.5127 76.5517 72.2728C77.0063 72.2223 77.4735 72.1592 77.928 72.0708C78.3699 71.9824 78.8371 71.9319 79.4053 71.6667C76.5012 70.7703 73.6098 70.9092 70.6048 70.6819C71.2613 70.0506 71.9432 69.7854 72.4861 69.3435C72.8775 69.0279 73.2689 68.9647 73.774 69.0405C75.9204 69.3814 78.0795 69.4445 80.226 68.9647C81.0846 68.7753 81.9558 68.5607 82.7639 68.0556C80.0492 67.4874 77.3851 67.8284 74.5694 68.0682C75.3396 67.2097 75.8952 66.591 77.0315 66.6415C79.38 66.7551 81.6906 66.4268 83.9002 65.5683C84.3043 65.4167 84.7588 65.3157 85.0997 64.9496C82.4356 64.6339 79.9103 65.1642 77.2083 65.6819C77.8901 64.7475 78.3952 64.1289 79.6073 64.1667C81.7159 64.2425 83.7866 63.788 85.7437 62.9294C86.2866 62.6895 86.8295 62.4496 87.4103 61.9824C85.9583 61.9319 84.6831 62.1213 83.4078 62.3233C82.1199 62.5253 80.8573 62.9041 79.5442 63.2703C79.8219 62.1718 80.529 61.5279 81.4886 61.4395C82.5997 61.3385 83.673 61.0733 84.7336 60.7576C86.3497 60.2652 87.8649 59.5329 89.2411 58.5354C86.577 58.788 84.0644 59.6718 81.5139 60.4294C81.8548 59.7349 82.0947 59.091 83.0669 58.9521C84.8346 58.6996 86.5139 58.0556 88.0795 57.1718C89.1022 56.591 90.0366 55.9218 91.0467 55.0127C89.1401 55.4294 87.4987 56.0228 85.8825 56.7551C84.8724 57.2097 83.9634 57.8662 82.9154 58.2324C82.8775 58.245 82.827 58.245 82.7891 58.2576C82.8017 58.2198 82.8144 58.1693 82.827 58.1314C82.9406 57.6137 83.2563 57.1718 83.4457 56.692C83.5341 56.4773 83.7108 56.4016 83.9255 56.3385C85.8447 55.8082 87.6124 54.9369 89.178 53.7248C89.8219 53.2324 90.4911 52.7273 90.9204 51.9824C88.4204 52.6895 86.2613 54.0531 84.1149 55.5935C84.1149 55.0379 84.3674 54.697 84.4558 54.3183C84.5568 53.8258 84.8346 53.4975 85.3649 53.2829Z" fill="#2D4D4B"/>
<path d="M55.1124 37.9292L47.0442 51.9191H63.1932L55.1124 37.9292L47.0442 51.9191H63.1932L55.1124 37.9292Z" fill="#3A358D"/>
<path d="M46.7285 52.1085L55.1124 37.5757L63.5088 52.1085H46.7285Z" fill="#111B24"/>
<path d="M55.1124 37.9292L47.0442 51.9191H63.1932L55.1124 37.9292L47.0442 51.9191H63.1932L55.1124 37.9292Z" fill="#3A358D"/>
<path d="M47.4735 93.1816C47.5619 92.2094 47.827 91.0099 47.6882 90.0629C47.6503 89.8104 47.5366 89.7725 47.4356 89.52C47.1579 88.7877 47.1957 88.5099 47.827 87.9417C48.2437 88.4594 48.7109 88.9266 49.3801 89.3937C48.9634 89.5958 48.6225 90.0251 48.2942 90.1261C48.1679 90.4796 48.2816 91.3129 48.2185 91.7296C48.0543 92.8281 48.774 93.5352 49.2159 94.3054C48.5846 95.2902 48.4331 95.265 47.3346 94.0023C45.327 94.4821 43.37 94.0276 41.4255 93.6235C39.3296 93.1942 37.322 92.4745 35.3397 91.6665C34.4306 91.2877 33.4584 90.871 33.5846 89.5326C32.1705 90.1387 30.668 89.5958 30.5291 88.9013C30.4281 88.371 30.6174 87.9796 31.0467 87.6008C31.0467 88.7498 32.0695 89.1412 33.1174 88.8761C33.572 88.7624 33.7488 88.371 33.7993 87.9796C33.8624 87.5629 33.9003 87.121 33.9129 86.7043C33.9255 86.3382 34.1275 86.2245 34.4685 86.1235C34.5316 86.9569 34.3801 87.7523 34.2538 88.5225C34.1402 89.1917 34.3801 89.621 34.8472 89.9872C35.9079 90.8331 37.1957 91.174 38.4584 91.5655C40.6174 92.2473 42.8144 92.8281 45.0619 93.1437C45.8195 93.2321 46.6402 93.1816 47.4735 93.1816Z" fill="#322F30"/>
<path d="M74.2285 89.8611C74.0643 90.0126 73.9128 90.1641 73.7613 90.303C73.2057 90.7828 72.6249 90.6944 72.2209 90.0884C71.6906 89.2929 71.8421 88.0303 72.5366 87.4369C72.8396 87.1717 73.1552 87.0959 73.5214 87.298C74.4052 87.7778 75.3143 89.798 75.1628 90.7954C75.0239 91.6793 74.3926 92.0581 73.6982 92.3611C71.4633 93.3333 69.1906 94.1793 66.7537 94.4697C66.2108 94.5328 65.6679 94.5581 65.1123 94.5076C63.3446 94.356 62.5744 93.649 62.1451 91.8813C61.8674 90.7576 61.7032 89.6086 61.236 88.548C61.1098 88.2702 61.1224 88.0303 61.4002 87.9166C61.7158 87.7904 61.8042 88.0934 61.8674 88.2954C62.1704 89.2929 62.4608 90.303 62.7133 91.3131C63.0164 92.5126 63.6098 93.106 65.2259 93.1565C68.13 93.2576 70.7815 92.2853 73.4204 91.2247C73.7992 91.0732 74.0896 90.7954 74.3295 90.4672C74.4684 90.2651 74.4936 90.101 74.2285 89.8611ZM73.534 88.5227C73.0795 88.2828 72.7765 88.3459 72.5113 88.649C72.4103 88.7626 72.4608 88.9141 72.5871 88.9646C73.0037 89.1414 73.231 88.8762 73.534 88.5227Z" fill="#322F30"/>
<path d="M57.2588 91.6667C56.3876 91.2753 56.0593 90.6566 56.1982 89.8107C56.3497 88.9521 56.6654 88.1945 57.6123 87.9167C58.2184 87.7399 58.6477 88.0177 59.0012 88.4596C58.8623 88.7627 58.6351 88.649 58.4457 88.6617C57.9785 88.6995 57.5113 88.7627 57.2714 89.2551C57.1325 89.5329 57.2336 89.7854 57.4482 90C57.8396 90.3662 58.2437 90.442 58.774 90.2652C59.3674 90.0758 59.8219 89.6844 60.3775 89.3687C60.529 89.9117 60.3522 90.2652 59.9356 90.5177C59.2411 90.947 58.5341 91.3763 57.9659 91.9697C57.3093 92.6642 56.9053 93.4975 57.0315 94.4697C57.1831 95.5809 58.029 96.0101 59.4432 96.1238C60.7563 96.2248 62.0189 95.8586 63.2563 95.4672C63.4709 95.4041 63.6856 95.2905 64.077 95.3157C63.3068 96.0859 62.5871 96.6541 61.6149 96.8687C60.63 97.0834 59.6452 97.2223 58.6351 97.0203C56.6401 96.6288 56.0088 95.2399 56.4507 93.3081C56.6022 92.7399 56.9305 92.2475 57.2588 91.6667Z" fill="#322F30"/>
<path d="M79.2158 81.793C79.6451 82.1086 80.1123 82.1718 80.6047 82.1844C81.4002 82.2096 81.4633 82.298 81.337 83.0682C81.2739 83.4218 81.5012 83.6238 81.6653 83.851C81.9557 84.2677 82.2714 84.6465 82.587 85.0505C83.1173 85.7324 83.231 86.4899 83.0037 87.3106C82.9784 87.3864 82.9784 87.4874 82.9279 87.5379C82.0946 88.3081 81.1981 89.0026 80.1123 89.3814C79.7714 89.495 79.4683 89.2046 79.0896 89.2425C79.0012 90.2273 78.1173 90.5177 77.4481 90.9596C77.0567 91.2248 76.5769 91.1111 76.3497 90.6061C76.2234 90.3283 76.1603 90.0253 76.0466 89.6844C76.7916 90 78.2183 89.3561 78.3951 88.6743C78.4961 88.2576 78.1931 88.043 77.8901 87.8157C77.2335 87.3359 77.2335 87.3106 77.5113 86.5026C77.9279 86.894 78.3951 87.2854 78.7992 87.7147C79.279 88.2197 79.8093 88.3207 80.4027 87.942C81.034 87.5253 81.6401 87.096 82.183 86.5531C82.4608 86.2753 82.486 86.0733 82.2335 85.7576C81.6779 85.0379 81.0971 84.3561 80.5037 83.6869C80.3396 83.4975 80.1375 83.5101 79.9481 83.4596C79.0138 83.1819 78.7992 82.7147 79.2158 81.793Z" fill="#322F30"/>
<path d="M28.0416 85.7325C28.2815 85.1644 28.4962 84.874 29.1527 85.076C29.9355 85.3285 30.4785 84.7477 30.3522 83.9017C30.3143 83.6745 30.226 83.4219 30.529 83.3209C30.7815 83.2326 31.0719 83.081 31.2992 83.283C31.5012 83.4598 31.6401 83.6997 31.5391 84.0154C31.3497 84.6214 30.9709 85.0886 30.4532 85.4295C30.3017 85.5305 30.1376 85.6315 30.0239 85.7704C30.4785 86.6795 29.885 87.6644 28.7361 87.9043C27.3472 88.2073 26.0593 87.8916 24.8724 87.2098C23.3699 86.3512 23.2184 84.8992 24.4179 83.4977C24.9103 82.9295 25.5542 82.5255 26.2361 82.1846C26.3876 82.475 26.1603 82.5381 26.0214 82.6391C25.5669 82.98 25.1123 83.3336 24.7967 83.8134C24.2916 84.5962 24.4557 85.48 25.2891 86.1366C26.1855 86.8563 27.2588 87.1467 28.3951 87.1972C28.5972 87.2098 28.8371 87.2477 28.9381 86.9952C29.0265 86.7805 28.9507 86.5659 28.7866 86.4144C28.5467 86.1745 28.2815 85.9472 28.0416 85.7325Z" fill="#322F30"/>
<path d="M51.9052 88.207C52.0062 89.0025 52.1199 89.6464 52.1704 90.303C52.2461 91.4772 52.2966 92.6389 52.3471 93.8131C52.3724 94.4823 52.183 94.899 51.6906 95.2777C51.5138 95.202 51.5643 95.0252 51.5517 94.899C51.4381 93.106 51.337 91.3131 51.236 89.5202C51.1982 89.0277 51.337 88.6237 51.9052 88.207Z" fill="#322F30"/>
<path d="M82.2841 80.1387C83.7361 81.9316 85.9331 83.0427 86.0088 85.6816C85.7815 85.3912 85.5543 85.1008 85.3144 84.823C84.4053 83.7877 83.5088 82.7271 82.5492 81.7296C82.1073 81.2877 82.082 80.8331 82.2841 80.1387Z" fill="#322F30"/>
<path d="M37.7386 88.7626C37.6881 87.5505 41.2865 88.2954 43.029 87.9419C43.029 87.9671 42.8143 88.3838 42.2588 88.4722C41.0972 88.6616 38.8497 88.3459 37.7386 88.7626Z" fill="#322F30"/>
<path d="M28.6855 90.0757C27.8521 90.8712 27.8521 90.8712 27.1072 90.1515C26.7284 90.4798 26.3243 90.5429 26.0718 90C25.8067 89.3939 26.4254 89.3182 26.6779 89.0151C27.0314 89.1414 27.1072 89.5454 27.486 89.6717C28.092 89.0783 28.3319 89.6843 28.6855 90.0757Z" fill="#322F30"/>
<path d="M75.5037 84.495C75.6552 84.2046 75.3648 83.9268 75.4658 83.6364C75.7689 83.548 75.8067 84.1036 76.1224 83.9899C76.4128 83.7121 75.8699 83.2197 76.034 83.0935C76.1981 82.9672 76.6401 83.649 76.6148 84.1036C76.5896 84.4823 75.7057 85.2273 75.3143 85.2526C74.784 85.2904 74.6577 84.1288 74.8471 84.0909C75.0365 84.0531 75.1123 84.6086 75.5037 84.495Z" fill="#322F30"/>
<path d="M69.1653 87.7905C69.5188 87.9168 70.0239 87.7905 69.885 88.3461C69.7966 88.7122 69.9228 89.3309 69.2031 89.2425C68.8622 89.2047 68.4582 89.1668 68.5845 88.6744C68.6602 88.3208 68.6097 87.7905 69.1653 87.7905Z" fill="#322F30"/>
<path d="M30.3902 82.0834L29.6579 82.5001C29.5821 82.5379 29.4937 82.5253 29.4432 82.4622L29.0645 82.0329C29.0013 81.9571 29.0139 81.8435 29.0771 81.7804L29.6579 81.2627C29.721 81.1995 29.8347 81.1995 29.8978 81.2753L30.4281 81.8056C30.5165 81.894 30.4912 82.0329 30.3902 82.0834Z" fill="#322F30"/>
</g>
<defs>
<clipPath id="clip0_1045_3657">
<rect width="110.833" height="100" fill="white" transform="translate(0.0112305)"/>
</clipPath>
</defs>
</svg>
