<svg width="256" height="47" viewBox="0 0 256 47" fill="none" xmlns="http://www.w3.org/2000/svg">
<path d="M7.37708 40.2507H2.56406V46.0069H0.000610352V32.2681H2.56406V37.8614H7.37708V32.2681H9.94054V46.0069H7.37708V40.2507Z" fill="black"/>
<path d="M12.6085 39.1104C12.6085 36.8296 13.0793 35.0376 14.0733 33.8429C15.0673 32.5939 16.4275 31.9966 18.2062 31.9966C19.1479 31.9966 19.9849 32.1595 20.665 32.4853C21.3451 32.8112 21.9729 33.2999 22.4437 33.9515C22.9146 34.6032 23.2808 35.3091 23.4901 36.178C23.6993 37.0468 23.804 38.0243 23.804 39.1104C23.804 41.3911 23.3331 43.1832 22.3391 44.3778C21.3451 45.6268 19.9849 46.2242 18.2062 46.2242C17.2645 46.2242 16.4275 46.0613 15.6951 45.7354C15.015 45.4096 14.3872 44.9209 13.9687 44.2692C13.4978 43.6176 13.1839 42.9116 12.9223 42.0428C12.7131 41.1739 12.6085 40.1964 12.6085 39.1104ZM15.3289 39.1104C15.3289 39.8163 15.3812 40.4137 15.4858 41.011C15.5904 41.6083 15.7474 42.0971 16.009 42.5315C16.2182 42.966 16.5321 43.2918 16.8983 43.509C17.2645 43.7262 17.6831 43.8348 18.2062 43.8348C19.1479 43.8348 19.828 43.4547 20.3511 42.6944C20.8743 41.9342 21.0836 40.7395 21.0836 39.0561C21.0836 38.4044 21.0312 37.7528 20.9266 37.2097C20.822 36.6124 20.665 36.1237 20.4035 35.6892C20.1942 35.2548 19.8803 34.929 19.5141 34.6575C19.1479 34.4403 18.677 34.2773 18.1539 34.2773C17.2122 34.2773 16.5321 34.6575 16.009 35.4177C15.5381 36.2866 15.2765 37.4813 15.3289 39.1104Z" fill="black"/>
<path d="M34.739 45.9532H26.3685V32.2144H28.932V43.5095H34.6867V45.9532H34.739Z" fill="black"/>
<path d="M38.8716 40.9024L34.5294 32.2681H37.616L40.0225 37.4269L40.2841 38.8931H40.3887L40.6503 37.4269L43.0045 32.3224H45.7772L41.4351 40.9024V46.0069H38.8716V40.9024Z" fill="black"/>
<path d="M62.1517 38.8381L62.4133 36.123H62.3087L61.4716 38.2951L58.6466 43.3997H57.8095L54.8276 38.2408L53.9905 36.0687H53.8859L54.2521 38.7839V45.8976H51.7933V32.1588H54.1475L57.6526 38.4037L58.2804 39.9785H58.3327L58.9082 38.3494L62.2564 32.1045H64.6105V45.8434H62.0471L62.1517 38.8381Z" fill="black"/>
<path d="M73.5045 42.9123H69.4239L68.4299 45.9533H65.8665L70.6272 32.1602H72.5105L77.2712 45.9533H74.5508L73.5045 42.9123ZM70.1563 40.7945H72.9814L71.9874 37.7534L71.5688 35.5813H71.4642L71.0457 37.7534L70.1563 40.7945Z" fill="black"/>
<path d="M82.4502 40.0884H81.7701V45.9532H79.2066V32.2144H81.7701V38.2964L82.3979 38.0248L86.06 32.2144H88.9896L85.1183 37.9705L84.1243 38.7308L85.1706 39.491L89.5651 45.9532H86.3739L82.4502 40.0884Z" fill="black"/>
<path d="M94.1691 40.0884H93.489V45.9532H90.9255V32.2144H93.489V38.2964L94.1168 38.0248L97.7789 32.2144H100.709L96.8372 37.9705L95.8432 38.7308L96.8895 39.491L101.284 45.9532H98.0928L94.1691 40.0884Z" fill="black"/>
<path d="M110.23 42.9123H106.201L105.207 45.9533H102.644L107.405 32.1602H109.288L114.049 45.9533H111.328L110.23 42.9123ZM106.829 40.7945H109.654L108.66 37.7534L108.242 35.5813H108.137L107.718 37.7534L106.829 40.7945Z" fill="black"/>
<path d="M122.942 40.2507H118.129V46.0069H115.566V32.2681H118.129V37.8614H122.942V32.2681H125.506V46.0069H122.942V40.2507Z" fill="black"/>
<path d="M143.607 38.8381L143.868 36.123H143.764L142.927 38.2951L140.102 43.3997H139.265L136.283 38.2408L135.446 36.0687H135.341L135.707 38.7839V45.8976H133.248V32.1588H135.603L139.108 38.4037L139.736 39.9785H139.788L140.363 38.3494L143.712 32.1045H146.066V45.8434H143.502L143.607 38.8381Z" fill="black"/>
<path d="M155.587 32.2686H158.046V41.1202C158.046 41.989 157.941 42.7493 157.732 43.4009C157.523 44.0526 157.209 44.5956 156.79 44.9758C156.372 45.4102 155.901 45.6817 155.325 45.8989C154.75 46.1161 154.122 46.1704 153.442 46.1704C150.094 46.1704 148.42 44.5956 148.42 41.3917V32.2144H150.983V40.8486C150.983 41.3917 151.035 41.8261 151.14 42.2062C151.245 42.5864 151.402 42.8579 151.559 43.1294C151.768 43.3466 152.029 43.5096 152.291 43.6182C152.605 43.7268 152.919 43.7811 153.337 43.7811C154.122 43.7811 154.698 43.5639 155.064 43.0751C155.43 42.6407 155.587 41.8804 155.587 40.8486V32.2686Z" fill="black"/>
<path d="M163.905 38.8394L162.858 36.6672H162.754L163.068 38.8394V46.0075H160.609V32.2144H162.492L167.514 39.5454L168.508 41.6632H168.613L168.299 39.5454V32.3229H170.758V46.1161H168.875L163.905 38.8394Z" fill="black"/>
<path d="M173.688 32.2681H176.252V46.0069H173.688V32.2681Z" fill="black"/>
<path d="M188.127 45.4096C187.709 45.7355 187.238 45.8984 186.61 46.0613C185.982 46.1699 185.354 46.2785 184.674 46.2785C183.889 46.2785 183.105 46.1699 182.425 45.8983C181.692 45.6268 181.064 45.2467 180.541 44.6494C180.018 44.1063 179.547 43.3461 179.233 42.4229C178.92 41.4998 178.763 40.4137 178.763 39.1104C178.763 37.8071 178.92 36.6124 179.286 35.7436C179.652 34.8204 180.123 34.1144 180.698 33.5714C181.274 33.0284 181.901 32.5939 182.634 32.3767C183.314 32.1595 184.046 31.9966 184.727 31.9966C185.459 31.9966 186.139 32.0509 186.662 32.1595C187.185 32.2681 187.604 32.3767 187.97 32.5396L187.447 34.8204C187.133 34.6575 186.819 34.5488 186.401 34.4945C185.982 34.4402 185.511 34.386 184.936 34.386C183.889 34.386 183.052 34.7661 182.425 35.5263C181.797 36.2866 181.483 37.4813 181.483 39.1104C181.483 39.8163 181.535 40.468 181.692 41.0653C181.849 41.6627 182.058 42.1514 182.372 42.5315C182.686 42.966 183.052 43.2375 183.523 43.509C183.994 43.7262 184.517 43.8348 185.093 43.8348C185.668 43.8348 186.139 43.7805 186.505 43.6719C186.871 43.5633 187.238 43.4004 187.499 43.2375L188.127 45.4096Z" fill="black"/>
<path d="M190.376 32.2681H192.94V46.0069H190.376V32.2681Z" fill="black"/>
<path d="M195.87 32.3767C196.393 32.2681 196.969 32.2138 197.596 32.1052C198.224 32.0509 198.852 31.9966 199.48 31.9966C200.107 31.9966 200.788 32.0509 201.468 32.1595C202.148 32.2681 202.723 32.4853 203.246 32.8111C203.77 33.137 204.188 33.6257 204.554 34.223C204.868 34.8204 205.077 35.5806 205.077 36.5581C205.077 37.427 204.92 38.1329 204.659 38.7303C204.345 39.3276 203.979 39.8163 203.508 40.1964C203.037 40.5766 202.462 40.8481 201.886 41.011C201.258 41.1739 200.631 41.2825 200.003 41.2825H199.689C199.532 41.2825 199.427 41.2825 199.27 41.2825C199.113 41.2825 198.956 41.2825 198.852 41.2282C198.695 41.2282 198.59 41.2282 198.538 41.1739V45.8983H195.975L195.87 32.3767ZM199.689 34.386C199.427 34.386 199.218 34.386 198.956 34.4403C198.747 34.4403 198.538 34.4945 198.433 34.4945V38.9475C198.486 38.9475 198.538 38.9475 198.643 39.0018C198.747 39.0018 198.852 39.0018 198.956 39.0561C199.061 39.1104 199.166 39.0561 199.27 39.0561H199.532C199.846 39.0561 200.212 39.0018 200.526 38.9475C200.84 38.8932 201.154 38.7845 201.415 38.5673C201.677 38.4044 201.886 38.1329 202.043 37.8071C202.2 37.4813 202.305 37.1012 202.305 36.5581C202.305 36.1237 202.252 35.7979 202.095 35.472C201.938 35.2005 201.729 34.9833 201.52 34.8204C201.311 34.6575 200.997 34.5488 200.683 34.4945C200.369 34.3859 200.055 34.386 199.689 34.386Z" fill="black"/>
<path d="M212.088 42.9123H208.007L207.013 45.9533H204.45L209.21 32.1602H211.094L215.854 45.9533H213.134L212.088 42.9123ZM208.687 40.7945H211.512L210.518 37.7534L210.1 35.5813H209.995L209.576 37.7534L208.687 40.7945Z" fill="black"/>
<path d="M225.741 45.9532H217.371V32.2144H219.934V43.5095H225.689L225.741 45.9532Z" fill="black"/>
<path d="M228.096 32.2681H230.66V46.0069H228.096V32.2681Z" fill="black"/>
<path d="M242.953 34.6574H239.082V45.9526H236.519V34.6574H232.647V32.2681H242.953V34.6574Z" fill="black"/>
<path d="M248.97 40.9024L244.628 32.2681H247.714L250.121 37.4269L250.383 38.8931H250.487L250.749 37.4269L253.103 32.3224H255.876L251.534 40.9024V46.0069H248.97V40.9024Z" fill="black"/>
<path d="M4.02939 21.8415C1.98909 21.8415 -0.0512083 19.8866 0.00110711 17.1714C0.0534225 13.0443 3.24466 11.5781 7.74379 11.9039V10.7635L9.1563 10.3291V18.6376C9.20862 20.7011 10.3596 21.8958 12.2429 21.8958H13.6554V23.2534H11.8767C8.94704 23.2534 8.05768 21.1899 7.84842 19.5608C7.90073 19.5608 6.85442 21.8415 4.02939 21.8415ZM4.29097 20.5382C8.10999 20.5382 7.84841 16.1939 7.7961 13.2615C6.12201 13.3158 1.72751 12.6642 1.51825 17.1714C1.41362 18.1489 1.98909 20.5382 4.29097 20.5382ZM4.50023 6.52783H2.87845V8.37416H4.50023V6.52783ZM8.05768 6.52783H6.4359V8.37416H8.05768V6.52783Z" fill="black"/>
<path d="M13.6031 23.2532V21.8956H15.8527C17.7883 21.8956 18.9393 20.7009 18.9393 18.5831V12.0666H20.3518V18.04C20.3518 20.2122 21.3981 22.2214 23.7 22.2214C25.6356 22.2214 26.7866 20.9724 26.7866 18.8546V12.0666H28.1991V18.04C28.1991 20.2122 29.2454 22.2214 31.5473 22.2214C33.4829 22.2214 34.6339 20.9724 34.6339 18.8546V11.1978H36.0464V18.6374C36.0464 20.0493 35.7325 23.579 31.9135 23.579C30.0824 23.579 28.7222 22.33 27.8329 20.9181C27.362 22.4929 25.8972 23.579 24.0139 23.579C22.4967 23.579 21.1365 22.8731 20.3518 21.3526C20.1948 21.1353 20.0379 20.9181 19.9333 20.6466C19.5147 21.9499 18.4684 23.2532 16.1665 23.2532H13.6031Z" fill="black"/>
<path d="M46.8234 15.1077C46.6664 13.0985 45.7771 12.5012 44.103 12.5012C42.6381 12.5012 41.2779 12.9356 41.0687 14.619H39.7085C40.0747 12.121 41.8534 11.1436 44.103 11.1436C46.7187 11.1436 48.2882 12.3925 48.2882 15.162V21.8414H52.0026V23.199H39.3946V21.8414H46.8234V15.1077Z" fill="black"/>
<path d="M64.506 15.9768C64.506 18.8549 62.8842 20.7012 61.1578 21.733C61.4717 21.7873 61.6809 21.8416 61.7856 21.8416H67.1741V23.1992H62.2564C61.8379 23.1992 60.7393 23.0363 59.4837 22.6019C58.2804 23.0363 57.1295 23.1992 56.711 23.1992H51.7933V21.8416H57.1295C57.2341 21.8416 57.4434 21.8416 57.7573 21.733C55.9786 20.7012 54.3568 18.8549 54.3568 15.9768C54.3568 13.2616 56.2401 10.6007 59.4314 10.6007C62.6226 10.6007 64.506 13.2616 64.506 15.9768ZM59.4314 21.19C61.1055 20.4297 63.0935 18.8006 63.0935 16.0311C63.0935 14.1848 61.7333 11.8497 59.4314 11.8497C57.1295 11.8497 55.7693 14.1848 55.7693 16.0311C55.8216 18.8006 57.7573 20.3754 59.4314 21.19ZM58.4374 7.5054H56.8156V5.71338H58.4374V7.5054ZM62.0472 7.5054H60.4254V5.71338H62.0472V7.5054Z" fill="black"/>
<path d="M67.8015 21.842C68.7432 21.842 70.8358 21.299 70.9405 18.5838C71.0974 15.6514 72.8238 12.3389 76.4336 12.3389C79.991 12.3389 81.8221 15.5971 81.9267 18.4752C82.1883 20.2672 83.0776 21.7877 85.2749 21.7877H86.5828V23.1453H85.4841C83.7054 23.1453 82.1359 21.7877 81.6651 20.8646C81.0373 23.3082 79.2063 25.2632 76.4336 25.2632C73.9224 25.2632 72.1437 23.6341 71.4113 21.5705C70.9404 22.3308 69.8418 23.1996 68.0631 23.1996H66.9645V21.842H67.8015ZM76.4336 13.6965C73.6085 13.6965 72.4576 16.5746 72.4576 18.8553C72.4576 21.1361 73.6085 24.0142 76.4336 24.0142C79.2586 24.0142 80.4095 21.1361 80.4095 18.8553C80.4095 16.5746 79.2586 13.6965 76.4336 13.6965Z" fill="black"/>
<path d="M86.4261 23.2535V21.8959H88.6756C90.6113 21.8959 91.7622 20.7012 91.7622 18.5834V5.71338H93.1748V18.3662C93.1748 19.7781 92.8609 23.3078 89.0419 23.3078L86.4261 23.2535Z" fill="black"/>
<path d="M98.3538 23.2535H96.9413V5.71338H98.3538V23.2535Z" fill="black"/>
<path d="M109.759 21.8415C107.718 21.8415 105.678 19.8866 105.73 17.1714C105.783 13.0443 108.974 11.5781 113.473 11.9039V10.7635L114.886 10.3291V18.6376C114.938 20.7011 116.089 21.8958 117.972 21.8958H119.385V23.2534H117.606C114.676 23.2534 113.787 21.1899 113.578 19.5608C113.578 19.5608 112.584 21.8415 109.759 21.8415ZM109.968 20.5382C113.787 20.5382 113.525 16.1939 113.473 13.2615C111.799 13.3158 107.405 12.6642 107.195 17.1714C107.143 18.1489 107.718 20.5382 109.968 20.5382ZM110.177 6.52783H108.555V8.37416H110.177V6.52783ZM113.735 6.52783H112.113V8.37416H113.735V6.52783Z" fill="black"/>
<path d="M120.118 21.842C121.059 21.842 123.152 21.299 123.256 18.5838C123.413 15.6514 125.14 12.3389 128.75 12.3389C132.307 12.3389 134.138 15.5971 134.243 18.4752C134.504 20.2672 135.394 21.7877 137.591 21.7877H138.899V23.1453H137.8C136.021 23.1453 134.452 21.7877 133.981 20.8646C133.353 23.3082 131.522 25.2632 128.75 25.2632C126.238 25.2632 124.46 23.6341 123.727 21.5705C123.256 22.3308 122.158 23.1996 120.379 23.1996H119.28V21.842H120.118ZM128.697 13.6965C125.872 13.6965 124.721 16.5746 124.721 18.8553C124.721 21.1361 125.872 24.0142 128.697 24.0142C131.522 24.0142 132.673 21.1361 132.673 18.8553C132.673 16.5746 131.522 13.6965 128.697 13.6965Z" fill="black"/>
<path d="M138.742 21.8414H142.509V13.533H143.921L143.607 17.0627C145.491 12.7727 149.205 11.6323 152.082 11.6323C155.221 11.6323 158.779 13.4787 158.779 17.6601C158.779 21.1355 156.32 23.199 152.972 23.199H138.742V21.8414ZM152.972 21.8414C155.378 21.8414 157.209 19.9951 157.209 17.6601C157.209 14.1846 154.07 12.9356 152.292 12.9356C145.281 12.9356 143.66 19.0176 143.45 21.8414H152.972Z" fill="black"/>
<path d="M166.678 23.2536C162.859 23.2536 162.545 19.7239 162.545 18.312V5.65918H163.957V18.5292C163.957 20.647 165.108 21.8417 167.044 21.8417H168.3V23.1993L166.678 23.2536Z" fill="black"/>
<path d="M182.373 15.9768C181.431 17.7145 179.809 19.9409 177.612 21.5701C178.135 21.733 178.711 21.8959 179.391 21.8959H184.727V23.2535H179.809C178.554 23.2535 177.403 22.9277 176.356 22.3846C175.31 22.9277 174.159 23.2535 172.904 23.2535H167.986V21.8959H173.322C173.95 21.8959 174.525 21.7873 175.101 21.5701C172.904 19.9952 171.282 17.7145 170.34 15.9768C171.177 11.198 174.264 10.5464 176.304 10.5464C178.449 10.6007 181.536 11.198 182.373 15.9768ZM176.356 20.9727C179.024 19.3979 180.594 16.3026 180.803 15.6509C180.071 12.0126 177.089 11.7411 176.356 11.7411C175.624 11.7411 172.694 12.0126 171.962 15.6509C172.171 16.3569 173.688 19.4522 176.356 20.9727Z" fill="black"/>
<path d="M184.622 23.2535V21.8959H186.872C188.808 21.8959 189.959 20.7012 189.959 18.5834V5.71338H191.371V18.3662C191.371 19.7781 191.057 23.3078 187.238 23.3078L184.622 23.2535Z" fill="black"/>
<path d="M196.55 23.2535H195.138V5.71338H196.55V23.2535Z" fill="black"/>
<path d="M207.954 21.8415C205.914 21.8415 203.874 19.8866 203.926 17.1714C203.978 13.0443 207.17 11.5781 211.669 11.9039V10.7635L213.081 10.3291V18.6376C213.134 20.7011 214.285 21.8958 216.168 21.8958H217.58V23.2534H215.802C212.872 23.2534 211.983 21.1899 211.773 19.5608C211.773 19.5608 210.779 21.8415 207.954 21.8415ZM208.164 20.5382C211.983 20.5382 211.721 16.1939 211.669 13.2615C209.995 13.3158 205.6 12.6642 205.391 17.1714C205.339 18.1489 205.914 20.5382 208.164 20.5382ZM208.373 6.52783H206.751V8.37416H208.373V6.52783ZM211.93 6.52783H210.309V8.37416H211.93V6.52783Z" fill="black"/>
<path d="M217.529 23.2535V21.8959H219.778C221.714 21.8959 222.865 20.7012 222.865 18.5834V11.2524H224.277V18.4205C224.277 19.8324 223.964 23.3621 220.145 23.3621L217.529 23.2535ZM221.452 7.5054H219.831V5.71338H221.452V7.5054Z" fill="black"/>
<path d="M232.177 23.2536C228.358 23.2536 228.044 19.7239 228.044 18.312V5.65918H229.456V18.5292C229.456 20.647 230.607 21.8417 232.543 21.8417H233.799V23.1993L232.177 23.2536Z" fill="black"/>
<path d="M233.641 23.2529V21.8953H235.734C237.67 21.8953 238.821 20.6463 238.821 18.5285V17.0623C238.821 14.0755 240.547 10.6001 244.314 10.6001C248.081 10.6001 249.807 14.0755 249.807 17.0623C249.807 20.049 248.081 23.5244 244.314 23.5244C242.169 23.5244 240.652 22.4383 239.815 20.9178C239.344 22.1125 238.245 23.3072 236.1 23.3072L233.641 23.2529ZM244.314 11.9034C241.489 11.9034 240.286 14.7815 240.286 17.0623C240.286 19.343 241.436 22.2211 244.314 22.2211C247.191 22.2211 248.29 19.5602 248.29 17.0623C248.237 14.7272 247.139 11.9034 244.314 11.9034Z" fill="black"/>
<path d="M251.533 4.1384L251.847 3.26953H252.475V2.34636C252.475 1.26029 252.946 0.228516 254.149 0.228516C255.038 0.228516 255.666 1.04308 255.718 1.91194H254.829C254.829 1.47751 254.62 1.09738 254.097 1.09738C253.521 1.09738 253.312 1.69472 253.312 2.34636V3.26953H254.724C254.829 3.26953 255.143 3.26953 255.3 2.94371L255.875 3.48675C255.509 3.97548 255.091 4.08409 254.62 4.08409L251.533 4.1384ZM254.934 5.6589H253.521V23.199H254.934V5.6589Z" fill="black"/>
</svg>
