<svg width="258" height="61" viewBox="0 0 258 61" fill="none" xmlns="http://www.w3.org/2000/svg">
<g clip-path="url(#clip0_1038_2801)">
<path d="M240.542 18.7043C236.915 19.2699 234.144 22.3816 234.144 26.1374C234.144 26.3246 234.152 26.5077 234.166 26.6909C235.071 23.714 237.785 21.5141 241.041 21.3531C239.358 22.6473 238.272 24.6721 238.272 26.9465C238.272 27.1679 238.282 27.3833 238.303 27.6027C238.331 27.8804 238.372 28.1521 238.426 28.4198C238.518 28.8445 238.646 29.2571 238.812 29.6496C238.82 29.2229 238.861 28.8043 238.932 28.3957C239.013 27.9408 239.132 27.5 239.293 27.0793C239.875 25.5074 240.946 24.1709 242.321 23.2511C242.575 23.082 242.843 22.9291 243.114 22.7902C243.236 27.345 243.248 33.2403 242.693 36.9639C243.1 37.2618 243.5 37.5657 243.889 37.8656C243.944 37.9079 244.003 37.9521 244.058 37.9944C244.115 37.9521 244.171 37.9079 244.226 37.8656C244.616 37.5657 245.017 37.2638 245.423 36.9639C244.877 33.2524 244.936 27.3813 245.084 22.8345C245.328 22.9613 245.567 23.0982 245.794 23.2511C247.17 24.1689 248.243 25.5074 248.823 27.0793C248.981 27.502 249.103 27.9408 249.184 28.3957C249.255 28.8043 249.3 29.2249 249.306 29.6496C249.47 29.2591 249.602 28.8445 249.691 28.4198C249.746 28.1521 249.788 27.8804 249.813 27.6027C249.835 27.3853 249.845 27.1679 249.845 26.9465C249.845 24.6741 248.762 22.6473 247.076 21.3531C250.332 21.5141 253.046 23.714 253.951 26.6909C253.965 26.5077 253.971 26.3246 253.971 26.1374C253.971 22.3816 251.202 19.2699 247.575 18.7043C248.419 18.3823 249.34 18.2032 250.3 18.2032C252.105 18.2032 253.769 18.8311 255.071 19.8798C253.807 17.6235 251.377 16.0958 248.59 16.0958C248.058 16.0958 247.539 16.1522 247.038 16.2589C248.003 15.0734 249.33 14.1878 250.855 13.7752C250.525 13.7309 250.186 13.7067 249.845 13.7067C247.908 13.7067 246.149 14.4474 244.829 15.653C244.711 14.8137 244.472 14.0147 244.123 13.272C243.729 14.0066 243.441 14.8037 243.281 15.647C241.96 14.4434 240.203 13.7067 238.27 13.7067C237.925 13.7067 237.589 13.7309 237.26 13.7752C238.785 14.1878 240.114 15.0734 241.078 16.2589C240.579 16.1522 240.061 16.0958 239.528 16.0958C236.741 16.0958 234.31 17.6235 233.047 19.8798C234.349 18.8311 236.01 18.2032 237.818 18.2032C238.777 18.2032 239.698 18.3823 240.542 18.7043Z" fill="#009845"/>
<path d="M254.507 34.5405C253.324 34.6149 252.144 34.8504 251.01 35.2268C249.297 35.7944 247.733 36.6961 246.173 37.5777C244.498 38.5257 242.818 39.4656 241.157 40.4418C239.962 41.1443 238.82 41.9333 237.627 42.6458C236.698 43.2013 235.761 43.8252 234.712 44.1191C234.373 44.2157 233.986 44.1432 233.761 43.8574C233.688 43.7648 233.649 43.63 233.509 43.63C233.251 43.63 233.27 44.0044 233.284 44.1775C233.333 44.8195 233.921 45.2523 234.505 45.4113C235.355 45.6407 236.242 45.365 237.01 45.0007C238.67 44.2117 240.201 43.163 241.773 42.215C242.918 41.5227 244.062 40.8323 245.202 40.1298C247.267 38.8558 249.297 37.5012 251.511 36.4908C253.505 35.579 255.685 34.9732 258 34.8847C256.882 34.5445 255.685 34.4781 254.507 34.5385" fill="#D79A2B"/>
<path d="M233.615 34.5405C234.797 34.6149 235.978 34.8504 237.112 35.2268C238.824 35.7944 240.388 36.6961 241.948 37.5777C243.624 38.5257 245.303 39.4656 246.965 40.4418C248.159 41.1443 249.301 41.9333 250.494 42.6458C251.423 43.2013 252.361 43.8252 253.407 44.1191C253.748 44.2157 254.134 44.1432 254.359 43.8574C254.432 43.7648 254.472 43.63 254.61 43.63C254.87 43.63 254.85 44.0044 254.837 44.1775C254.789 44.8195 254.2 45.2523 253.616 45.4113C252.766 45.6407 251.88 45.365 251.111 45.0007C249.45 44.2117 247.92 43.163 246.348 42.215C245.204 41.5227 244.06 40.8323 242.92 40.1298C240.855 38.8558 238.824 37.5012 236.609 36.4908C234.615 35.579 232.436 34.9732 230.121 34.8847C231.239 34.5445 232.434 34.4781 233.617 34.5385" fill="#D79A2B"/>
<path d="M244.039 55.5756C229.935 55.5756 218.498 44.2278 218.498 30.2333C218.498 16.2387 229.935 4.89089 244.039 4.89089C247.137 4.89089 250.107 5.43835 252.856 6.44271C247.642 2.40717 241.084 0.00195312 233.959 0.00195312C216.982 0.00195312 203.22 13.6584 203.22 30.5009C203.22 47.3435 216.984 60.9999 233.959 60.9999C241.674 60.9999 248.725 58.1781 254.123 53.5226C251.028 54.843 247.62 55.5756 244.039 55.5756Z" fill="#E1251B"/>
<path d="M5.66995 33.003C5.66995 32.8842 5.69227 32.7715 5.73893 32.6648C5.78356 32.5601 5.84644 32.4696 5.9215 32.3911C5.99858 32.3126 6.08987 32.2502 6.19536 32.2039C6.30287 32.1596 6.41444 32.1355 6.53413 32.1355C6.65381 32.1355 6.76741 32.1596 6.8729 32.2039C6.98041 32.2482 7.0717 32.3126 7.15081 32.3911C7.22993 32.4696 7.29281 32.5601 7.33947 32.6648C7.3841 32.7715 7.40844 32.8822 7.40844 33.003C7.40844 33.1237 7.3841 33.2324 7.33947 33.3371C7.29484 33.4437 7.22993 33.5343 7.15081 33.6088C7.0717 33.6853 6.98041 33.7436 6.8729 33.7919C6.76741 33.8362 6.65584 33.8604 6.53413 33.8604C6.2907 33.8604 6.08581 33.7779 5.9215 33.6128C5.75516 33.4498 5.67198 33.2465 5.67198 33.005M3.34927 33.005C3.34927 32.8862 3.37361 32.7735 3.42027 32.6668C3.4649 32.5622 3.52778 32.4716 3.60284 32.3931C3.6779 32.3146 3.77121 32.2522 3.8767 32.2059C3.98218 32.1616 4.09375 32.1375 4.21547 32.1375C4.33718 32.1375 4.44673 32.1616 4.55424 32.2059C4.65973 32.2502 4.75304 32.3146 4.83215 32.3931C4.91127 32.4716 4.97213 32.5622 5.01878 32.6668C5.06544 32.7735 5.08775 32.8842 5.08775 33.005C5.08775 33.1257 5.06544 33.2344 5.01878 33.3391C4.97415 33.4458 4.91127 33.5363 4.83215 33.6108C4.75304 33.6873 4.65973 33.7456 4.55424 33.794C4.44673 33.8382 4.33515 33.8624 4.21547 33.8624C3.97001 33.8624 3.76715 33.7799 3.60081 33.6148C3.43447 33.4518 3.3513 33.2485 3.3513 33.007M8.95624 27.5988C8.95624 27.3955 8.8893 27.2043 8.75541 27.0291C8.62356 26.854 8.45924 26.683 8.26247 26.5159C8.0657 26.3488 7.8527 26.1757 7.61941 25.9986C7.38613 25.8195 7.1711 25.6283 6.97636 25.4169C6.77958 25.2056 6.61527 24.9762 6.48138 24.7266C6.34953 24.475 6.28258 24.1892 6.28258 23.8651C6.28258 23.3962 6.38198 22.9997 6.58078 22.6736C6.77958 22.3475 7.03316 22.0818 7.3415 21.8765C7.64984 21.6733 7.98861 21.5243 8.35781 21.4337C8.72499 21.3412 9.08404 21.2969 9.43296 21.2969C9.68247 21.2969 9.91779 21.313 10.1369 21.3452C10.356 21.3774 10.5507 21.4136 10.7191 21.4579C10.9158 21.5062 11.0964 21.5585 11.2648 21.6109L10.8915 23.05C10.7495 22.9916 10.5994 22.9352 10.4351 22.8809C10.2951 22.8386 10.1328 22.7984 9.95024 22.7621C9.76767 22.7279 9.58307 22.7098 9.39239 22.7098C9.22401 22.7098 9.04347 22.7299 8.85279 22.7621C8.65804 22.7984 8.48156 22.8567 8.31927 22.9413C8.15496 23.0238 8.02107 23.1365 7.91153 23.2774C7.80198 23.4163 7.74924 23.5894 7.74924 23.7947C7.74924 23.9839 7.81416 24.163 7.94804 24.3321C8.0799 24.5032 8.24624 24.6722 8.44707 24.8413C8.6479 25.0124 8.86496 25.1855 9.09824 25.3586C9.33153 25.5337 9.54656 25.7189 9.74739 25.9161C9.94822 26.1134 10.1146 26.3247 10.2484 26.5501C10.3803 26.7776 10.4472 27.0251 10.4472 27.2948C10.4472 27.5786 10.3965 27.8725 10.2931 28.1663C10.1896 28.4622 10.0395 28.75 9.84273 29.0278C9.6419 29.3056 9.40253 29.5672 9.1165 29.8148C8.8325 30.0623 8.5059 30.2777 8.13467 30.4629C7.7675 30.646 7.35773 30.7889 6.90738 30.8956C6.4611 31.0003 5.98033 31.0526 5.46304 31.0526C4.77333 31.0526 4.15664 30.9882 3.61704 30.8574C3.07744 30.7286 2.60478 30.5534 2.20109 30.332C1.79741 30.1127 1.45458 29.857 1.17464 29.5712C0.894694 29.2834 0.667494 28.9775 0.495065 28.6615C0.320608 28.3415 0.196865 28.0214 0.119779 27.6994C0.0447218 27.3753 0.00415039 27.0654 0.00415039 26.7695C0.00415039 26.1717 0.0934076 25.6102 0.271922 25.0848C0.450436 24.5595 0.677637 24.1046 0.955551 23.7222L2.19704 24.4086C1.95158 24.7165 1.77104 25.0687 1.65135 25.4632C1.52964 25.8597 1.47284 26.2542 1.47284 26.6467C1.47284 27.0392 1.54992 27.4297 1.70409 27.7839C1.85827 28.1382 2.09764 28.4461 2.42424 28.7078C2.74881 28.9735 3.16264 29.1808 3.66572 29.3297C4.16678 29.4807 4.76115 29.5551 5.45087 29.5551C5.92961 29.5551 6.37793 29.5068 6.8019 29.4022C7.22587 29.2995 7.5971 29.1606 7.91559 28.9815C8.2361 28.8044 8.48967 28.5971 8.6763 28.3596C8.86496 28.1221 8.95827 27.8705 8.95827 27.6008" fill="#010101"/>
<path d="M12.6521 27.5302V26.075H15.4292C15.8146 26.075 16.1291 26.0508 16.3766 26.0065C16.624 25.9622 16.8188 25.8918 16.9608 25.8053C17.1008 25.7167 17.1981 25.608 17.2529 25.4812C17.3077 25.3564 17.334 25.2095 17.334 25.0485C17.334 24.7647 17.257 24.4607 17.1028 24.1468C16.9486 23.8328 16.7437 23.5168 16.4922 23.2068C16.2406 22.8928 15.9566 22.5869 15.6422 22.289C15.3278 21.9911 15.0093 21.7113 14.6888 21.4537L15.7741 20.395C16.1331 20.701 16.4841 21.0371 16.8289 21.3994C17.1738 21.7617 17.4842 22.1421 17.756 22.5305C18.0319 22.923 18.253 23.3215 18.4214 23.7321C18.5897 24.1427 18.6729 24.5453 18.6729 24.9458C18.6729 25.3464 18.6181 25.6764 18.5025 25.9924C18.3869 26.3064 18.2104 26.5802 17.9649 26.8096C17.7215 27.037 17.4071 27.2162 17.0216 27.341C16.6362 27.4678 16.1696 27.5322 15.6199 27.5322H12.6541L12.6521 27.5302Z" fill="#010101"/>
<path d="M25.9698 26.0751V25.1613C25.9698 24.5837 25.917 24.1147 25.8116 23.7504C25.704 23.3881 25.5661 23.1043 25.3937 22.903C25.2233 22.7018 25.0285 22.5629 24.8074 22.4904C24.5883 22.418 24.3652 22.3797 24.142 22.3797C23.8925 22.3797 23.6592 22.426 23.4442 22.5186C23.2272 22.6092 23.0365 22.738 22.8762 22.905C22.716 23.0721 22.5902 23.2714 22.4989 23.5068C22.4056 23.7403 22.361 23.998 22.361 24.2777C22.361 24.5193 22.3995 24.7507 22.4806 24.9681C22.5577 25.1855 22.6835 25.3767 22.858 25.5377C23.0324 25.6987 23.2556 25.8275 23.5274 25.9262C23.7992 26.0228 24.1278 26.0711 24.5214 26.0711H25.9718L25.9698 26.0751ZM24.5275 27.5303C23.8601 27.5303 23.2961 27.4357 22.8377 27.2485C22.3792 27.0593 22.006 26.8158 21.726 26.5159C21.444 26.218 21.2392 25.8799 21.1154 25.5035C20.9917 25.1251 20.9268 24.7507 20.9268 24.3784C20.9268 23.9114 21.0099 23.4706 21.1722 23.062C21.3345 22.6534 21.5698 22.2972 21.8721 21.9913C22.1764 21.6873 22.5435 21.4478 22.9695 21.2747C23.3976 21.1036 23.8763 21.0171 24.4078 21.0171C24.6208 21.0171 24.8439 21.0372 25.0772 21.0775C25.3125 21.1177 25.5418 21.1902 25.7669 21.2948C25.9921 21.3995 26.2071 21.5404 26.408 21.7195C26.6068 21.8967 26.7832 22.1221 26.9354 22.3958C27.0875 22.6675 27.2092 22.9936 27.2985 23.374C27.3878 23.7524 27.4324 24.1952 27.4324 24.6944V26.0771H29.1912C29.3879 26.0771 29.534 26.1093 29.6314 26.1737C29.7308 26.2381 29.7774 26.3508 29.7774 26.5058V27.0634C29.7774 27.166 29.7632 27.2485 29.7348 27.3109C29.7044 27.3713 29.6618 27.4196 29.6091 27.4518C29.5563 27.484 29.4914 27.5041 29.4204 27.5162C29.3514 27.5263 29.2743 27.5323 29.1932 27.5323H27.3269C27.1869 28.12 26.9577 28.6172 26.6392 29.0258C26.3228 29.4364 25.9394 29.7745 25.4829 30.0402C25.0306 30.3079 24.5133 30.5152 23.9351 30.6621C23.355 30.8111 22.7383 30.9177 22.081 30.9821L21.9268 29.5853C23.0344 29.5088 23.923 29.2955 24.5944 28.9412C25.2659 28.587 25.6858 28.118 25.8602 27.5323H24.5254L24.5275 27.5303Z" fill="#010101"/>
<path d="M35.6056 23.0196C35.6056 22.9008 35.567 22.7881 35.49 22.6794C35.4149 22.5707 35.3033 22.4761 35.1573 22.3896C35.0112 22.303 34.8327 22.2346 34.6238 22.1843C34.4148 22.134 34.1775 22.1078 33.9117 22.1078C33.6074 22.1078 33.2727 22.1481 32.9076 22.2266C32.5424 22.3051 32.1489 22.4379 31.727 22.6271C31.798 22.7599 31.9116 22.9391 32.0657 23.1585C32.2219 23.3799 32.4025 23.6073 32.6074 23.8448C32.8122 24.0823 33.0354 24.3118 33.2666 24.5352C33.502 24.7586 33.7292 24.9417 33.9503 25.0806C34.2059 24.9297 34.4351 24.7566 34.638 24.5613C34.8408 24.3661 35.0153 24.1688 35.1613 23.9776C35.3074 23.7864 35.4149 23.6073 35.49 23.4362C35.567 23.2671 35.6056 23.1283 35.6056 23.0196ZM32.6743 25.6865C32.4349 25.5134 32.2037 25.302 31.9785 25.0464C31.7533 24.7948 31.5424 24.5392 31.3476 24.2856C31.1508 24.028 30.9764 23.7884 30.8182 23.565C30.662 23.3416 30.5342 23.1766 30.4368 23.0679C30.4591 22.9532 30.4895 22.8264 30.5342 22.6834C30.5768 22.5426 30.6254 22.4017 30.6762 22.2628C30.7269 22.1239 30.7837 22.0052 30.8405 21.9045C30.8952 21.8019 30.9541 21.7355 31.0068 21.7032C31.1752 21.6127 31.378 21.5141 31.6174 21.4134C31.8568 21.3128 32.1246 21.2182 32.4187 21.1357C32.7149 21.0531 33.0374 20.9827 33.3884 20.9263C33.7393 20.87 34.1105 20.8418 34.5 20.8418C34.7921 20.8418 35.0903 20.87 35.3885 20.9263C35.6867 20.9827 35.9586 21.0672 36.204 21.1819C36.4474 21.2947 36.6462 21.4396 36.8024 21.6147C36.9586 21.7898 37.0357 21.9951 37.0357 22.2326C37.0357 22.3997 37.0134 22.5969 36.9749 22.8284C36.9323 23.0558 36.8491 23.3154 36.7213 23.6033C36.5955 23.8891 36.4089 24.2091 36.1675 24.5593C35.9261 24.9115 35.6015 25.292 35.1938 25.7005C35.3175 25.7589 35.4737 25.8133 35.6583 25.8575C35.8429 25.9038 36.0458 25.9441 36.2669 25.9763C36.49 26.0085 36.7294 26.0347 36.985 26.0528C37.2406 26.0729 37.5043 26.0809 37.7741 26.0809H38.4517C38.6484 26.0809 38.7945 26.1152 38.8919 26.1796C38.9913 26.244 39.0379 26.3547 39.0379 26.5117V27.0692C39.0379 27.1719 39.0237 27.2544 38.9953 27.3148C38.9629 27.3772 38.9223 27.4255 38.8696 27.4556C38.8148 27.4899 38.7519 27.51 38.6809 27.5201C38.6099 27.5321 38.5348 27.5362 38.4537 27.5362H37.3542C36.914 27.5362 36.5063 27.5019 36.129 27.4315C35.7516 27.361 35.4088 27.2785 35.1066 27.1799C34.8023 27.0833 34.5386 26.9806 34.3174 26.874C34.0943 26.7653 33.9198 26.6747 33.7961 26.5982C33.573 26.721 33.3316 26.8398 33.0719 26.9545C32.8102 27.0692 32.5323 27.1678 32.23 27.2544C31.9339 27.3389 31.6174 27.4073 31.2827 27.4577C30.948 27.508 30.6011 27.5341 30.2441 27.5341H29.1933C28.9965 27.5341 28.8504 27.5019 28.7531 27.4375C28.6537 27.3731 28.605 27.2624 28.605 27.1054V26.5479C28.605 26.4453 28.6212 26.3627 28.6496 26.3023C28.68 26.24 28.7226 26.1916 28.7754 26.1615C28.8302 26.1272 28.893 26.1071 28.964 26.0971C29.033 26.085 29.1101 26.0789 29.1912 26.0789H30.3394C30.6376 26.0789 30.9196 26.0669 31.1792 26.0427C31.4409 26.0186 31.6722 25.9904 31.8771 25.9541C32.0799 25.9179 32.2483 25.8777 32.3862 25.8334C32.5201 25.7891 32.6195 25.7388 32.6784 25.6925" fill="#010101"/>
<path d="M42.8636 25.614C43.1456 25.7992 43.46 25.9199 43.8029 25.9803C44.1457 26.0427 44.5048 26.0749 44.88 26.0749H45.444C45.6184 26.0749 45.7564 25.9984 45.8578 25.8475C45.9572 25.6965 46.0079 25.4691 46.0079 25.1611V22.1642H47.4746V25.5194C47.7484 25.7167 48.0669 25.8616 48.43 25.9481C48.7932 26.0347 49.1908 26.0769 49.6127 26.0769H50.1766C50.3511 26.0769 50.489 26.0004 50.5905 25.8495C50.6919 25.6985 50.7406 25.4711 50.7406 25.1632V21.2866H52.2072V25.4651C52.4628 25.6683 52.7671 25.8233 53.1201 25.924C53.4731 26.0266 53.9052 26.0789 54.4164 26.0789H54.4813C54.676 26.0789 54.8241 26.1112 54.9215 26.1756C55.0209 26.24 55.0675 26.3507 55.0675 26.5077V27.0652C55.0675 27.1678 55.0533 27.2504 55.0229 27.3128C54.9925 27.3731 54.9519 27.4214 54.8992 27.4536C54.8444 27.4858 54.7795 27.506 54.7105 27.5181C54.6395 27.5281 54.5644 27.5342 54.4833 27.5342H54.4022C53.8037 27.5342 53.3108 27.4536 52.9213 27.2946C52.5338 27.1356 52.2072 26.9344 51.9415 26.6868C51.8117 26.9223 51.6271 27.1256 51.3877 27.2866C51.1483 27.4516 50.8461 27.5342 50.4748 27.5342H49.5965C49.1684 27.5342 48.7404 27.4758 48.3144 27.355C47.8884 27.2363 47.5091 27.029 47.1784 26.7331C47.0425 26.9585 46.8599 27.1497 46.6287 27.3047C46.3994 27.4577 46.1053 27.5342 45.7462 27.5342H44.8679C44.661 27.5342 44.452 27.5201 44.2451 27.4939C44.0362 27.4657 43.8313 27.4255 43.6304 27.3691C43.4296 27.3148 43.2369 27.2403 43.0482 27.1477C42.8596 27.0551 42.6872 26.9444 42.5249 26.8076C42.389 27.0129 42.2104 27.1859 41.9873 27.3248C41.7662 27.4637 41.4822 27.5342 41.1414 27.5342H38.4515C38.2567 27.5342 38.1107 27.4999 38.0113 27.4355C37.9139 27.3711 37.8652 27.2604 37.8652 27.1054V26.5459C37.8652 26.4433 37.8815 26.3627 37.9099 26.3003C37.9403 26.238 37.9809 26.1896 38.0356 26.1595C38.0884 26.1252 38.1533 26.1051 38.2223 26.095C38.2933 26.085 38.3683 26.0789 38.4495 26.0789H40.8371C41.0115 26.0789 41.1475 26.0025 41.2489 25.8515C41.3483 25.7006 41.399 25.4731 41.399 25.1652V22.8545H42.8657V25.618L42.8636 25.614Z" fill="#010101"/>
<path d="M54.4874 27.5301C54.2906 27.5301 54.1446 27.4978 54.0472 27.4314C53.9478 27.369 53.9011 27.2563 53.9011 27.1013V26.5438C53.9011 26.4412 53.9153 26.3586 53.9437 26.2962C53.9742 26.2359 54.0147 26.1876 54.0695 26.1554C54.1222 26.1231 54.1872 26.103 54.2582 26.0909C54.3292 26.0809 54.4042 26.0748 54.4854 26.0748H56.7006V15.9146H58.1672V27.528H54.4854L54.4874 27.5301Z" fill="#010101"/>
<path d="M62.4071 15.9248H60.9404V27.5383H62.4071V15.9248Z" fill="#010101"/>
<path d="M66.2371 29.5188C66.8193 29.4444 67.2818 29.3276 67.6266 29.1747C67.9715 29.0217 68.2332 28.8244 68.4117 28.5829C68.5922 28.3434 68.7079 28.0636 68.7647 27.7396C68.8174 27.4175 68.8458 27.0512 68.8458 26.6426V21.2827H70.3125V26.075H72.2254C72.4222 26.075 72.5682 26.1093 72.6656 26.1737C72.765 26.2381 72.8117 26.3488 72.8117 26.5038V27.0633C72.8117 27.1659 72.7975 27.2465 72.7691 27.3088C72.7386 27.3712 72.696 27.4195 72.6433 27.4497C72.5906 27.484 72.5256 27.5041 72.4546 27.5141C72.3836 27.5242 72.3086 27.5302 72.2274 27.5302H70.2313C70.1502 28.0978 70.0143 28.5749 69.8216 28.9653C69.6268 29.3558 69.3732 29.6839 69.0568 29.9475C68.7383 30.2132 68.359 30.4185 67.9147 30.5655C67.4725 30.7144 66.9633 30.8291 66.3872 30.9096L66.2411 29.5188H66.2371Z" fill="#010101"/>
<path d="M79.5242 24.7347C79.5242 24.5355 79.4857 24.308 79.4127 24.0564C79.3396 23.8028 79.226 23.5633 79.0698 23.3359C78.9157 23.1104 78.7189 22.9192 78.4795 22.7663C78.2401 22.6133 77.9561 22.5368 77.6235 22.5368C77.309 22.5368 77.0189 22.6193 76.7573 22.7864C76.4935 22.9534 76.2623 23.1728 76.0615 23.4466C75.8606 23.7183 75.6943 24.0303 75.5563 24.3805C75.4204 24.7307 75.323 25.091 75.2642 25.4613C75.317 25.5358 75.4245 25.6163 75.5807 25.7008C75.7389 25.7834 75.9235 25.8578 76.1304 25.9263C76.3394 25.9927 76.5625 26.047 76.7999 26.0933C77.0352 26.1336 77.2624 26.1557 77.4794 26.1557C77.7898 26.1557 78.0718 26.1336 78.3233 26.0933C78.5749 26.049 78.7899 25.9746 78.9704 25.8699C79.151 25.7632 79.2869 25.6203 79.3822 25.4372C79.4776 25.254 79.5242 25.0185 79.5242 24.7347ZM74.7348 26.4154C74.6212 26.6247 74.4994 26.8018 74.3716 26.9427C74.2438 27.0856 74.1059 27.2023 73.9558 27.2889C73.8077 27.3754 73.6434 27.4358 73.4629 27.4741C73.2823 27.5123 73.0815 27.5304 72.8604 27.5304H72.2254C72.0286 27.5304 71.8826 27.4982 71.7852 27.4318C71.6858 27.3694 71.6392 27.2567 71.6392 27.1017V26.5442C71.6392 26.4415 71.6534 26.359 71.6818 26.2966C71.7122 26.2362 71.7548 26.1879 71.8075 26.1557C71.8603 26.1235 71.9252 26.1034 71.9962 26.0933C72.0672 26.0812 72.1422 26.0752 72.2234 26.0752H72.6068C72.9435 26.0752 73.2438 25.9987 73.5075 25.8457C73.7712 25.6908 73.9477 25.4472 74.039 25.1131C74.1972 24.5355 74.3737 24.0383 74.5684 23.6217C74.7652 23.205 74.968 22.8508 75.181 22.5549C75.3961 22.2611 75.6172 22.0256 75.8383 21.8444C76.0615 21.6633 76.2805 21.5224 76.4976 21.4197C76.7147 21.3171 76.9236 21.2466 77.1224 21.2144C77.3212 21.1782 77.5017 21.1621 77.6701 21.1621C78.0332 21.1621 78.3659 21.2124 78.6661 21.3151C78.9664 21.4177 79.2301 21.5566 79.4634 21.7317C79.6967 21.9068 79.9015 22.1101 80.074 22.3416C80.2484 22.573 80.3904 22.8146 80.5061 23.0662C80.6217 23.3157 80.7049 23.5714 80.7596 23.827C80.8124 24.0866 80.8408 24.3322 80.8408 24.5636C80.8408 24.8595 80.786 25.1755 80.6785 25.5096C80.9321 25.6988 81.2323 25.8397 81.5771 25.9343C81.924 26.0289 82.3379 26.0752 82.8267 26.0752H82.8917C83.0884 26.0752 83.2345 26.1094 83.3319 26.1738C83.4292 26.2362 83.4779 26.3489 83.4779 26.5039V27.0614C83.4779 27.1641 83.4617 27.2466 83.4333 27.309C83.4029 27.3694 83.3623 27.4177 83.3075 27.4499C83.2548 27.4821 83.1919 27.5022 83.1209 27.5143C83.0499 27.5244 82.9748 27.5304 82.8917 27.5304H82.8105C82.4738 27.5304 82.1715 27.5022 81.9017 27.4499C81.6319 27.3956 81.3925 27.3231 81.1816 27.2285C80.9706 27.1339 80.7799 27.0232 80.6115 26.8964C80.4432 26.7696 80.291 26.6327 80.1551 26.4878C79.8934 26.8119 79.5607 27.0796 79.1571 27.2909C78.7513 27.5042 78.2604 27.6109 77.6863 27.6109C77.3313 27.6109 77.0027 27.5747 76.6964 27.5022C76.388 27.4298 76.1101 27.3352 75.8627 27.2245C75.6152 27.1097 75.3961 26.9829 75.2034 26.84C75.0086 26.6971 74.8504 26.5562 74.7266 26.4154" fill="#010101"/>
<path d="M84.419 21.1941C84.7396 21.1016 85.0641 21.019 85.3928 20.9466C85.7214 20.8741 86.0926 20.8379 86.5044 20.8379C86.9162 20.8379 87.2935 20.9023 87.6161 21.0331C87.9386 21.1619 88.2165 21.3411 88.4478 21.5725C88.677 21.806 88.8657 22.0818 89.0097 22.4018C89.1537 22.7238 89.2552 23.074 89.314 23.4484C89.3688 23.7946 89.4235 24.1267 89.4783 24.4447C89.531 24.7627 89.6 25.0425 89.6852 25.284C89.7684 25.5276 89.8759 25.7208 90.0037 25.8637C90.1295 26.0046 90.2938 26.077 90.4966 26.077V27.5323H82.8956C82.6988 27.5323 82.5528 27.498 82.4554 27.4336C82.358 27.3692 82.3093 27.2585 82.3093 27.1035V26.544C82.3093 26.4413 82.3235 26.3608 82.354 26.2984C82.3844 26.2361 82.425 26.1877 82.4797 26.1576C82.5325 26.1233 82.5954 26.1032 82.6664 26.0931C82.7374 26.0811 82.8124 26.077 82.8936 26.077H88.6851C88.5715 25.9623 88.4802 25.8093 88.4032 25.6161C88.3301 25.4209 88.2713 25.1552 88.2206 24.8151C88.178 24.497 88.1192 24.1831 88.0522 23.8711C87.9853 23.5571 87.8757 23.2753 87.7256 23.0277C87.5775 22.7762 87.3726 22.5749 87.117 22.4219C86.8574 22.2689 86.5166 22.1904 86.0946 22.1904C85.975 22.1904 85.839 22.2005 85.6869 22.2206C85.5348 22.2388 85.3806 22.2629 85.2244 22.2931C85.0662 22.3233 84.9181 22.3555 84.7761 22.3937C84.6361 22.432 84.5144 22.4722 84.417 22.5145V21.1982L84.419 21.1941Z" fill="#010101"/>
<path d="M97.966 15.9329C97.9214 15.9228 97.8565 15.9108 97.7693 15.9007C97.682 15.8886 97.5867 15.8846 97.4853 15.8846C97.252 15.8846 97.0572 15.9289 96.9071 16.0215C96.755 16.112 96.6779 16.265 96.6779 16.4804C96.6779 16.583 96.7022 16.6857 96.7509 16.7883C96.7996 16.891 96.8726 16.9815 96.972 17.064C97.0694 17.1446 97.1911 17.209 97.3412 17.2633C97.4914 17.3116 97.6678 17.3378 97.8748 17.3378H98.1101V18.0161H95.5845V17.3378H96.5116C96.4629 17.3056 96.4081 17.2613 96.3493 17.2029C96.2884 17.1425 96.2316 17.0681 96.1768 16.9795C96.1241 16.891 96.0774 16.7903 96.0389 16.6776C96.0003 16.5629 95.9841 16.4381 95.9841 16.2972C95.9841 16.1563 96.0125 16.0215 96.0673 15.8906C96.1241 15.7578 96.2134 15.641 96.333 15.5384C96.4548 15.4337 96.6049 15.3512 96.7854 15.2908C96.968 15.2284 97.181 15.1982 97.4244 15.1982C97.5177 15.1982 97.6171 15.1982 97.7206 15.2063C97.8281 15.2103 97.9417 15.2244 98.0695 15.2465L97.962 15.9329H97.966ZM101.81 15.9168V27.5303H92.5315V26.0751H96.1403V19.0587H97.607V26.0751H100.344V15.9148H101.81V15.9168Z" fill="#010101"/>
<path d="M106.048 15.9248H104.581V27.5383H106.048V15.9248Z" fill="#010101"/>
<path d="M119.051 15.9166H120.518V26.0829C120.518 26.7934 120.408 27.4495 120.195 28.0513C119.982 28.6511 119.666 29.1704 119.246 29.6072C118.828 30.044 118.31 30.3841 117.692 30.6297C117.073 30.8752 116.365 30.996 115.562 30.996C114.758 30.996 114.119 30.8772 113.551 30.6438C112.983 30.4103 112.513 30.0963 112.138 29.7018C111.764 29.3093 111.482 28.8564 111.298 28.3412C111.111 27.8259 111.02 27.2865 111.02 26.7189C111.02 26.4492 111.042 26.1735 111.089 25.8897C111.133 25.6079 111.196 25.3301 111.273 25.0564C111.348 24.7847 111.442 24.5291 111.547 24.2855C111.655 24.044 111.77 23.8246 111.898 23.6314L113.14 24.3157C113.052 24.4566 112.973 24.6136 112.904 24.7887C112.833 24.9658 112.774 25.149 112.724 25.3442C112.675 25.5374 112.637 25.7347 112.608 25.938C112.58 26.1393 112.57 26.3385 112.57 26.5337C112.57 26.9544 112.637 27.3489 112.772 27.7172C112.906 28.0856 113.107 28.4056 113.371 28.6793C113.635 28.951 113.959 29.1664 114.347 29.3254C114.734 29.4844 115.178 29.5629 115.677 29.5629C116.213 29.5629 116.69 29.4844 117.108 29.3254C117.525 29.1664 117.876 28.939 118.166 28.6391C118.452 28.3412 118.674 27.9749 118.826 27.5441C118.978 27.1134 119.053 26.6263 119.053 26.0809V15.9146L119.051 15.9166Z" fill="#010101"/>
<path d="M123.033 26.0748H126.642V19.0584H128.108V26.0748H130.285C130.458 26.0748 130.595 26.0003 130.697 25.8494C130.796 25.6984 130.845 25.4689 130.845 25.163V15.9165H132.312V25.3804C132.573 25.6119 132.886 25.787 133.253 25.8997C133.618 26.0164 134.072 26.0748 134.608 26.0748H134.673C134.87 26.0748 135.016 26.107 135.113 26.1714C135.21 26.2358 135.259 26.3485 135.259 26.5035V27.061C135.259 27.1637 135.243 27.2462 135.215 27.3086C135.184 27.369 135.144 27.4173 135.089 27.4495C135.036 27.4817 134.971 27.5018 134.9 27.5139C134.831 27.524 134.754 27.53 134.673 27.53H134.592C134.283 27.53 133.999 27.5079 133.748 27.4616C133.494 27.4173 133.267 27.3509 133.064 27.2704C132.861 27.1898 132.679 27.0932 132.515 26.9845C132.352 26.8738 132.204 26.7551 132.068 26.6263C131.944 26.8738 131.76 27.0852 131.516 27.2643C131.271 27.4434 130.961 27.532 130.581 27.532H123.035V26.0768L123.033 26.0748Z" fill="#010101"/>
<path d="M141.28 24.3619C141.28 24.1304 141.244 23.909 141.175 23.6937C141.104 23.4823 141.01 23.2931 140.897 23.1281C140.781 22.965 140.655 22.8322 140.513 22.7336C140.373 22.6329 140.231 22.5826 140.089 22.5826C140.008 22.5826 139.905 22.6269 139.781 22.7155C139.657 22.806 139.521 22.9268 139.377 23.0838C139.233 23.2388 139.089 23.426 138.941 23.6454C138.795 23.8627 138.659 24.1002 138.533 24.3599C138.41 24.6195 138.3 24.8932 138.209 25.1851C138.116 25.4749 138.057 25.7728 138.028 26.0747H139.404C139.682 26.0747 139.935 26.0325 140.164 25.9459C140.396 25.8594 140.594 25.7406 140.761 25.5856C140.927 25.4327 141.053 25.2515 141.142 25.0442C141.233 24.8369 141.276 24.6074 141.276 24.3619M137.807 27.5299C137.807 28.1378 137.88 28.6591 138.03 29.0898C138.178 29.5205 138.367 29.8687 138.592 30.1384C138.817 30.4102 139.063 30.6054 139.331 30.7302C139.596 30.853 139.85 30.9174 140.087 30.9174C140.239 30.9174 140.379 30.8771 140.507 30.7966C140.635 30.7161 140.745 30.6074 140.838 30.4726C140.931 30.3397 141.002 30.1847 141.053 30.0096C141.104 29.8345 141.13 29.6514 141.13 29.4642C141.13 29.2146 141.089 28.9751 141.006 28.7456C140.921 28.5121 140.801 28.3068 140.645 28.1277C140.491 27.9466 140.302 27.8017 140.083 27.693C139.864 27.5843 139.617 27.5319 139.339 27.5319H137.807V27.5299ZM134.679 27.5299C134.482 27.5299 134.336 27.4957 134.237 27.4313C134.14 27.3689 134.091 27.2562 134.091 27.1012V26.5437C134.091 26.441 134.107 26.3565 134.135 26.2961C134.166 26.2357 134.206 26.1874 134.261 26.1552C134.314 26.123 134.377 26.1029 134.448 26.0908C134.519 26.0808 134.594 26.0747 134.677 26.0747H136.641C136.777 25.4548 136.947 24.9013 137.154 24.4142C137.361 23.9251 137.584 23.4984 137.823 23.1281C138.063 22.7597 138.308 22.4478 138.56 22.1922C138.813 21.9345 139.055 21.7252 139.286 21.5622C139.515 21.3971 139.726 21.2784 139.913 21.2039C140.099 21.1294 140.252 21.0952 140.363 21.0952C140.674 21.0952 140.964 21.1818 141.231 21.3528C141.501 21.5259 141.732 21.7534 141.931 22.0311C142.13 22.3109 142.286 22.6289 142.398 22.9811C142.513 23.3354 142.57 23.6916 142.57 24.0539C142.57 24.4625 142.499 24.8349 142.359 25.169C142.217 25.5031 142.025 25.7909 141.779 26.0325V26.0727H144.28C144.479 26.0727 144.623 26.1049 144.721 26.1693C144.818 26.2337 144.867 26.3464 144.867 26.5014V27.059C144.867 27.1616 144.85 27.2441 144.822 27.3065C144.792 27.3669 144.751 27.4152 144.698 27.4474C144.643 27.4796 144.581 27.4997 144.51 27.5118C144.439 27.5219 144.364 27.5279 144.28 27.5279H141.601V27.5682C141.84 27.7835 142.041 28.0593 142.203 28.3954C142.365 28.7295 142.447 29.1301 142.447 29.599C142.447 30.0358 142.371 30.4242 142.219 30.7604C142.067 31.1025 141.87 31.3843 141.633 31.6138C141.394 31.8432 141.128 32.0183 140.838 32.1391C140.548 32.2578 140.264 32.3202 139.988 32.3202C139.767 32.3202 139.525 32.2901 139.268 32.2317C139.008 32.1733 138.748 32.0707 138.489 31.9298C138.229 31.7869 137.976 31.5957 137.73 31.3541C137.487 31.1146 137.272 30.8187 137.083 30.4645C136.896 30.1103 136.746 29.6936 136.637 29.2086C136.527 28.7235 136.468 28.1639 136.468 27.5279H134.677L134.679 27.5299Z" fill="#010101"/>
<path d="M144.286 27.5301C144.09 27.5301 143.944 27.4978 143.846 27.4314C143.747 27.369 143.7 27.2563 143.7 27.1013V26.5438C143.7 26.4412 143.714 26.3586 143.743 26.2962C143.773 26.2359 143.814 26.1876 143.869 26.1554C143.921 26.1231 143.986 26.103 144.057 26.0909C144.126 26.0809 144.203 26.0748 144.284 26.0748H146.5V15.9146H147.966V27.528H144.284L144.286 27.5301Z" fill="#010101"/>
<path d="M152.206 15.9248H150.737V27.5383H152.206V15.9248Z" fill="#010101"/>
<path d="M162.324 17.9778C162.324 17.859 162.347 17.7483 162.393 17.6417C162.438 17.537 162.501 17.4444 162.578 17.3659C162.653 17.2894 162.744 17.227 162.85 17.1807C162.957 17.1344 163.069 17.1123 163.189 17.1123C163.308 17.1123 163.42 17.1344 163.527 17.1807C163.635 17.225 163.726 17.2894 163.805 17.3659C163.884 17.4444 163.945 17.537 163.994 17.6417C164.038 17.7483 164.063 17.859 164.063 17.9778C164.063 18.0965 164.038 18.2072 163.994 18.3139C163.947 18.4206 163.884 18.5091 163.805 18.5856C163.726 18.6601 163.635 18.7205 163.527 18.7688C163.42 18.8131 163.308 18.8372 163.189 18.8372C162.945 18.8372 162.74 18.7547 162.574 18.5897C162.408 18.4246 162.326 18.2233 162.326 17.9798M160.004 17.9798C160.004 17.861 160.028 17.7503 160.073 17.6437C160.119 17.539 160.18 17.4464 160.257 17.3679C160.332 17.2914 160.424 17.229 160.531 17.1828C160.637 17.1365 160.75 17.1143 160.87 17.1143C160.99 17.1143 161.101 17.1365 161.209 17.1828C161.314 17.227 161.407 17.2914 161.487 17.3679C161.566 17.4464 161.627 17.539 161.675 17.6437C161.72 17.7503 161.742 17.861 161.742 17.9798C161.742 18.0985 161.72 18.2092 161.675 18.3159C161.629 18.4226 161.566 18.5112 161.487 18.5876C161.407 18.6621 161.314 18.7225 161.209 18.7708C161.101 18.8151 160.99 18.8392 160.87 18.8392C160.624 18.8392 160.422 18.7567 160.255 18.5917C160.089 18.4286 160.006 18.2253 160.006 17.9818M162.621 22.1039C162.077 22.2065 161.584 22.3273 161.138 22.4662C160.691 22.6051 160.308 22.7701 159.987 22.9553C159.667 23.1425 159.419 23.3498 159.243 23.5812C159.064 23.8127 158.977 24.0744 158.977 24.3662C158.977 24.6017 159.026 24.803 159.127 24.964C159.229 25.125 159.359 25.2518 159.523 25.3504C159.685 25.447 159.868 25.5175 160.067 25.5598C160.269 25.602 160.472 25.6242 160.677 25.6242C161.063 25.6242 161.418 25.5759 161.74 25.4792C162.065 25.3826 162.355 25.2478 162.616 25.0747V22.0999L162.621 22.1039ZM164.087 24.9479C164.087 25.1632 164.099 25.3444 164.124 25.4893C164.15 25.6342 164.201 25.751 164.28 25.8375C164.357 25.9241 164.469 25.9865 164.611 26.0227C164.751 26.0609 164.937 26.0811 165.172 26.0811H165.742C165.939 26.0811 166.085 26.1133 166.183 26.1777C166.28 26.2421 166.329 26.3528 166.329 26.5098V27.0673C166.329 27.1699 166.313 27.2525 166.286 27.3129C166.254 27.3752 166.213 27.4236 166.16 27.4537C166.106 27.488 166.041 27.5081 165.972 27.5182C165.901 27.5302 165.826 27.5363 165.745 27.5363H164.809C164.444 27.5363 164.136 27.5 163.882 27.4336C163.629 27.3672 163.42 27.2766 163.253 27.1659C163.085 27.0552 162.957 26.9264 162.868 26.7775C162.777 26.6305 162.712 26.4756 162.669 26.3145C162.266 26.5561 161.884 26.7292 161.519 26.8318C161.156 26.9345 160.787 26.9848 160.411 26.9848C160.087 26.9848 159.758 26.9405 159.426 26.8499C159.093 26.7573 158.795 26.6124 158.525 26.4152C158.255 26.2179 158.036 25.9683 157.866 25.6604C157.693 25.3545 157.608 24.9841 157.608 24.5534C157.608 24.1488 157.691 23.7886 157.861 23.4685C158.028 23.1465 158.249 22.8607 158.525 22.6071C158.801 22.3535 159.113 22.1341 159.466 21.9429C159.819 21.7537 160.18 21.5886 160.551 21.4457C160.923 21.3028 161.29 21.18 161.647 21.0794C162.004 20.9788 162.33 20.8842 162.625 20.8037V19.9483H164.091V24.9499L164.087 24.9479Z" fill="#010101"/>
<path d="M170.047 17.2431C169.988 17.231 169.901 17.2169 169.788 17.2028C169.672 17.1867 169.544 17.1787 169.404 17.1787C169.096 17.1787 168.838 17.2391 168.635 17.3618C168.432 17.4806 168.331 17.6859 168.331 17.9697C168.331 18.1045 168.363 18.2414 168.428 18.3783C168.493 18.5151 168.593 18.6379 168.721 18.7446C168.85 18.8533 169.017 18.9418 169.218 19.0123C169.418 19.0827 169.656 19.1189 169.925 19.1189H170.244V20.0247H166.872V19.1189H168.112C168.051 19.0787 167.982 19.0203 167.901 18.9358C167.818 18.8533 167.741 18.7526 167.668 18.6379C167.595 18.5212 167.534 18.3863 167.479 18.2333C167.428 18.0804 167.402 17.9113 167.402 17.7281C167.402 17.545 167.44 17.3558 167.518 17.1787C167.593 16.9995 167.712 16.8425 167.873 16.7057C168.033 16.5688 168.234 16.4581 168.475 16.3776C168.716 16.2971 169.002 16.2568 169.333 16.2568C169.457 16.2568 169.593 16.2609 169.731 16.2709C169.873 16.279 170.027 16.2971 170.197 16.3212L170.049 17.2431H170.047ZM169.404 25.5738C169.648 25.7408 169.938 25.8656 170.272 25.9482C170.607 26.0327 171.005 26.073 171.465 26.073H171.528C171.725 26.073 171.871 26.1072 171.97 26.1716C172.068 26.236 172.116 26.3467 172.116 26.5037V27.0612C172.116 27.1639 172.1 27.2464 172.074 27.3068C172.041 27.3692 172.001 27.4175 171.948 27.4476C171.893 27.4819 171.83 27.502 171.759 27.5121C171.688 27.5241 171.613 27.5282 171.53 27.5282H171.449C170.885 27.5282 170.416 27.4557 170.041 27.3108C169.668 27.1659 169.347 26.9827 169.082 26.7613C168.948 26.9767 168.767 27.1598 168.54 27.3068C168.313 27.4557 168.025 27.5282 167.68 27.5282H165.734C165.536 27.5282 165.392 27.496 165.294 27.4315C165.195 27.3671 165.148 27.2564 165.148 27.0994V26.5419C165.148 26.4393 165.162 26.3567 165.191 26.2944C165.221 26.234 165.264 26.1857 165.317 26.1555C165.371 26.1213 165.434 26.1011 165.505 26.0911C165.576 26.079 165.651 26.073 165.734 26.073H167.38C167.554 26.073 167.69 25.9985 167.791 25.8475C167.893 25.6966 167.942 25.4691 167.942 25.1612V21.2907H169.408V25.5738H169.404Z" fill="#010101"/>
<path d="M174.681 29.9557C174.681 29.835 174.705 29.7243 174.749 29.6196C174.794 29.5129 174.859 29.4223 174.934 29.3439C175.009 29.2654 175.1 29.203 175.208 29.1567C175.313 29.1104 175.425 29.0882 175.547 29.0882C175.668 29.0882 175.778 29.1104 175.885 29.1567C175.991 29.2009 176.082 29.2654 176.161 29.3439C176.24 29.4223 176.303 29.5129 176.35 29.6196C176.397 29.7243 176.419 29.835 176.419 29.9557C176.419 30.0765 176.397 30.1852 176.35 30.2898C176.305 30.3965 176.24 30.4871 176.161 30.5616C176.082 30.638 175.991 30.6984 175.885 30.7447C175.778 30.789 175.666 30.8132 175.547 30.8132C175.301 30.8132 175.096 30.7306 174.932 30.5656C174.766 30.4005 174.683 30.1993 174.683 29.9577M172.362 29.9577C172.362 29.837 172.384 29.7263 172.431 29.6216C172.475 29.5149 172.538 29.4244 172.615 29.3459C172.69 29.2674 172.782 29.205 172.887 29.1587C172.995 29.1124 173.106 29.0902 173.226 29.0902C173.346 29.0902 173.459 29.1124 173.565 29.1587C173.67 29.203 173.764 29.2674 173.843 29.3459C173.922 29.4244 173.985 29.5149 174.031 29.6216C174.076 29.7263 174.1 29.837 174.1 29.9577C174.1 30.0785 174.076 30.1872 174.031 30.2919C173.987 30.3985 173.922 30.4891 173.843 30.5636C173.764 30.6401 173.67 30.7004 173.565 30.7467C173.459 30.791 173.348 30.8152 173.226 30.8152C172.983 30.8152 172.778 30.7326 172.613 30.5676C172.447 30.4026 172.364 30.2013 172.364 29.9598M175.216 25.578C175.459 25.7451 175.748 25.8699 176.082 25.9524C176.417 26.0369 176.815 26.0772 177.277 26.0772H177.34C177.537 26.0772 177.683 26.1114 177.782 26.1758C177.88 26.2402 177.928 26.3509 177.928 26.5079V27.0654C177.928 27.1681 177.912 27.2506 177.884 27.311C177.853 27.3734 177.813 27.4217 177.758 27.4519C177.705 27.4861 177.64 27.5062 177.569 27.5163C177.5 27.5284 177.423 27.5324 177.342 27.5324H177.261C176.697 27.5324 176.226 27.4599 175.853 27.315C175.48 27.1701 175.159 26.9869 174.894 26.7655C174.76 26.9809 174.579 27.1641 174.352 27.311C174.127 27.4599 173.837 27.5324 173.492 27.5324H171.544C171.35 27.5324 171.202 27.5002 171.104 27.4358C171.007 27.3714 170.956 27.2607 170.956 27.1037V26.5462C170.956 26.4435 170.972 26.361 171.001 26.3006C171.033 26.2382 171.074 26.1899 171.126 26.1597C171.181 26.1255 171.244 26.1054 171.315 26.0953C171.384 26.0832 171.461 26.0772 171.542 26.0772H173.19C173.364 26.0772 173.5 26.0027 173.601 25.8518C173.701 25.7008 173.751 25.4734 173.751 25.1654V21.2949H175.218V25.578H175.216Z" fill="#010101"/>
<path d="M186.036 26.0747C186.057 25.9198 186.077 25.7607 186.087 25.6017C186.101 25.4427 186.11 25.2797 186.11 25.1126C186.11 24.849 186.081 24.5833 186.028 24.3156C185.974 24.0499 185.876 23.7983 185.734 23.5649C185.594 23.3294 185.4 23.118 185.148 22.9248C184.898 22.7336 184.576 22.5826 184.178 22.4699C184.318 22.6954 184.42 22.9469 184.481 23.2227C184.539 23.4984 184.57 23.7802 184.57 24.07C184.57 24.2653 184.558 24.4545 184.535 24.6437C184.513 24.8329 184.485 25.014 184.446 25.1891C184.408 25.3642 184.365 25.5273 184.316 25.6782C184.268 25.8292 184.217 25.96 184.162 26.0747H186.036ZM182.874 26.0747C182.941 25.966 183.006 25.8272 183.075 25.6581C183.144 25.487 183.203 25.3059 183.255 25.1167C183.308 24.9275 183.351 24.7343 183.385 24.543C183.422 24.3498 183.436 24.1787 183.436 24.0217C183.436 23.6293 183.393 23.2992 183.308 23.0315C183.219 22.7638 183.107 22.5484 182.969 22.3794C182.831 22.2123 182.677 22.0935 182.509 22.0211C182.34 21.9486 182.174 21.9124 182.012 21.9124C181.746 21.9124 181.513 21.9768 181.316 22.1117C181.117 22.2425 180.953 22.4116 180.819 22.6169C180.687 22.8201 180.586 23.0476 180.517 23.2931C180.45 23.5367 180.415 23.7742 180.415 23.9996C180.415 24.2955 180.452 24.5612 180.523 24.7946C180.594 25.0301 180.681 25.2314 180.787 25.4045C180.894 25.5776 181.008 25.7205 181.129 25.8352C181.251 25.9479 181.367 26.0284 181.478 26.0767H182.878L182.874 26.0747ZM179.632 26.0747C179.458 25.7507 179.332 25.4286 179.255 25.1046C179.176 24.7805 179.135 24.4585 179.135 24.1345C179.135 23.5689 179.257 23.0436 179.496 22.5545C179.738 22.0674 180.091 21.6668 180.551 21.3549C180.448 21.3267 180.356 21.3046 180.277 21.2864C180.198 21.2663 180.15 21.2542 180.127 21.2482C180.168 21.1254 180.217 20.9966 180.281 20.8698C180.348 20.741 180.411 20.6182 180.478 20.5055C180.543 20.3928 180.606 20.2921 180.667 20.1996C180.726 20.107 180.774 20.0385 180.805 19.9902C181.998 20.2277 183.018 20.4914 183.86 20.7812C184.702 21.0711 185.387 21.4233 185.919 21.8339C186.45 22.2425 186.842 22.7235 187.087 23.275C187.335 23.8285 187.456 24.4847 187.456 25.2435V25.3562C187.456 25.4045 187.454 25.5031 187.448 25.6521C187.442 25.801 187.434 26.0204 187.42 26.3163C187.406 26.6081 187.388 27.0147 187.367 27.532H177.34C177.145 27.532 176.997 27.4977 176.9 27.4333C176.802 27.3709 176.752 27.2582 176.752 27.1032V26.5457C176.752 26.4431 176.768 26.3605 176.796 26.2982C176.827 26.2378 176.869 26.1895 176.922 26.1573C176.977 26.1251 177.04 26.1049 177.111 26.0929C177.18 26.0828 177.257 26.0767 177.338 26.0767H179.628L179.632 26.0747Z" fill="#010101"/>
<path d="M4.75504 39.7714C4.61101 39.7151 4.47712 39.6648 4.35541 39.6245C4.23369 39.5842 4.11401 39.548 3.99635 39.5178C3.87869 39.4896 3.76104 39.4695 3.63729 39.4534C3.51355 39.4373 3.37358 39.4313 3.22144 39.4313C3.05915 39.4313 2.89078 39.4474 2.72241 39.4816C2.54998 39.5158 2.39783 39.5742 2.26192 39.6567C2.12398 39.7392 2.01038 39.8519 1.92315 39.9928C1.83592 40.1317 1.79129 40.3068 1.79129 40.5141C1.79129 40.7798 1.87852 40.9912 2.05095 41.1562C2.22135 41.3253 2.44043 41.4782 2.70212 41.6171C2.96584 41.754 3.24781 41.8929 3.54804 42.0297C3.76915 42.1344 3.98621 42.2552 4.19718 42.39C4.40815 42.5249 4.59884 42.6839 4.76315 42.871C4.92949 43.0562 5.06135 43.2716 5.16278 43.5171C5.26015 43.7627 5.31087 44.0525 5.31087 44.3846C5.31087 44.8174 5.23175 45.1857 5.07149 45.4916C4.91529 45.7976 4.70027 46.0471 4.42641 46.2424C4.15255 46.4356 3.83609 46.5765 3.47501 46.6691C3.11189 46.7597 2.72849 46.8039 2.32278 46.8039C2.03472 46.8039 1.75072 46.7677 1.47483 46.6993C1.19692 46.6288 0.923062 46.5503 0.647176 46.4638L0.762805 45.389C0.866262 45.4272 0.983919 45.4675 1.11578 45.5138C1.24561 45.5581 1.38761 45.6003 1.53772 45.6406C1.68581 45.6808 1.83795 45.713 1.99618 45.7392C2.15441 45.7674 2.31061 45.7795 2.46275 45.7795C2.62706 45.7795 2.80355 45.7533 2.99018 45.705C3.18086 45.6567 3.35329 45.5782 3.51355 45.4715C3.67381 45.3648 3.80566 45.23 3.91115 45.0629C4.01664 44.8959 4.06735 44.6946 4.06735 44.4551C4.06735 44.2296 4.01866 44.0344 3.91926 43.8734C3.81986 43.7124 3.68801 43.5715 3.52166 43.4467C3.35532 43.3239 3.16666 43.2112 2.95569 43.1106C2.74472 43.0099 2.52766 42.9093 2.30858 42.8046C2.08949 42.7 1.87446 42.5873 1.66146 42.4625C1.45252 42.3417 1.26183 42.1928 1.09549 42.0257C0.929148 41.8566 0.799319 41.6594 0.699919 41.4299C0.59849 41.2005 0.549805 40.9288 0.549805 40.6148C0.549805 40.2565 0.618776 39.9405 0.752662 39.6648C0.886548 39.387 1.07521 39.1575 1.31255 38.9744C1.55192 38.7872 1.82983 38.6463 2.14832 38.5497C2.46681 38.4531 2.80963 38.4048 3.17478 38.4048C3.45066 38.4048 3.73669 38.4289 4.03895 38.4732C4.33918 38.5175 4.63332 38.594 4.91935 38.6926L4.75301 39.7674L4.75504 39.7714Z" fill="#010101"/>
<path d="M10.0637 39.6408L8.43883 43.6643H11.6927L10.0617 39.6408H10.0637ZM9.49166 38.5459H10.721L14.1777 46.6613H12.9017L12.0659 44.6183H8.06152L7.23183 46.6613H6.00049L9.49166 38.5459Z" fill="#010101"/>
<path d="M21.72 43.302C21.72 43.8776 21.6511 44.3828 21.5111 44.8176C21.3732 45.2543 21.1683 45.6166 20.8985 45.9125C20.6266 46.2064 20.296 46.4298 19.8984 46.5787C19.5048 46.7297 19.0545 46.8042 18.5474 46.8042C17.5331 46.8042 16.748 46.5083 16.1942 45.9125C15.6465 45.3167 15.3706 44.4472 15.3706 43.302V38.5459H16.5431V43.1591C16.5431 43.5435 16.5776 43.8998 16.6425 44.2218C16.7095 44.5439 16.8231 44.8196 16.9793 45.0511C17.1334 45.2825 17.3424 45.4637 17.596 45.5905C17.8516 45.7193 18.168 45.7837 18.5453 45.7837C18.9226 45.7837 19.2391 45.7213 19.4967 45.5905C19.7544 45.4637 19.9613 45.2825 20.1175 45.0511C20.2716 44.8196 20.3852 44.5439 20.4522 44.2218C20.5171 43.8998 20.5516 43.5455 20.5516 43.1591V38.5459H21.718V43.302H21.72Z" fill="#010101"/>
<path d="M24.9232 45.6408H26.1526C26.6577 45.6408 27.1019 45.5784 27.4914 45.4556C27.8789 45.3328 28.2075 45.1436 28.4733 44.8921C28.739 44.6405 28.9378 44.3225 29.0757 43.938C29.2117 43.5536 29.2806 43.1007 29.2806 42.5774C29.2806 42.1024 29.2035 41.6797 29.0514 41.3074C28.8993 40.935 28.6883 40.621 28.4205 40.3614C28.1507 40.1038 27.8343 39.9085 27.4691 39.7717C27.106 39.6348 26.7125 39.5664 26.2905 39.5664H24.9232V45.6408ZM23.7507 38.5459H26.1647C26.7692 38.5459 27.3372 38.6365 27.8667 38.8196C28.3941 39.0008 28.8566 39.2604 29.2522 39.6046C29.6458 39.9468 29.9561 40.3634 30.1833 40.8585C30.4085 41.3517 30.5241 41.9112 30.5241 42.5351C30.5241 43.2154 30.4227 43.8152 30.2219 44.3305C30.0211 44.8458 29.7289 45.2765 29.3516 45.6227C28.9763 45.9669 28.5158 46.2245 27.9803 46.3996C27.4427 46.5747 26.8362 46.6613 26.1668 46.6613H23.7528V38.5459H23.7507Z" fill="#010101"/>
<path d="M33.4512 38.5459H32.2808V46.6613H33.4512V38.5459Z" fill="#010101"/>
<path d="M39.892 42.036H40.888C41.452 42.036 41.8881 41.9233 42.1944 41.6999C42.5028 41.4764 42.6549 41.1665 42.6549 40.768C42.6549 40.3694 42.519 40.0917 42.2431 39.8824C41.9672 39.673 41.5595 39.5664 41.0118 39.5664H39.892V42.036ZM38.7195 38.5459H40.7217C40.9266 38.5459 41.1294 38.5519 41.3242 38.56C41.5209 38.5701 41.7116 38.5902 41.9003 38.6163C42.0869 38.6465 42.2634 38.6828 42.4338 38.7311C42.6042 38.7774 42.7624 38.8418 42.9105 38.9223C43.0586 39.0008 43.1945 39.0954 43.3142 39.2021C43.4339 39.3107 43.5373 39.4375 43.6225 39.5845C43.7077 39.7314 43.7747 39.9025 43.8234 40.0957C43.87 40.2909 43.8964 40.5083 43.8964 40.7498C43.8964 40.9914 43.8538 41.2228 43.7645 41.4322C43.6773 41.6415 43.5597 41.8267 43.4055 41.9857C43.2554 42.1447 43.0769 42.2755 42.872 42.3802C42.6671 42.4848 42.4439 42.5553 42.2086 42.5935V42.6157C42.2959 42.6539 42.377 42.6942 42.45 42.7404C42.5251 42.7827 42.588 42.8371 42.6448 42.8934C42.7584 43.0061 42.8801 43.1853 43.0079 43.4308L44.5537 46.6613H43.2168L41.9632 43.8454C41.8719 43.6522 41.7786 43.5013 41.6832 43.3946C41.5879 43.2879 41.4844 43.2094 41.3769 43.1591C41.2674 43.1128 41.1517 43.0806 41.0239 43.0705C40.9002 43.0625 40.7541 43.0585 40.5939 43.0585H39.892V46.6613H38.7195V38.5459Z" fill="#010101"/>
<path d="M46.0081 38.5459H50.5845V39.5664H47.1745V41.9474H50.2802V42.9679H47.1745V45.6408H50.5845V46.6613H46.0081V38.5459Z" fill="#010101"/>
<path d="M53.5644 45.6408H54.7937C55.2988 45.6408 55.743 45.5784 56.1325 45.4556C56.52 45.3328 56.8486 45.1436 57.1144 44.8921C57.3801 44.6405 57.5789 44.3225 57.7168 43.938C57.8528 43.5536 57.9217 43.1007 57.9217 42.5774C57.9217 42.1024 57.8447 41.6797 57.6925 41.3074C57.5404 40.935 57.3294 40.621 57.0616 40.3614C56.7918 40.1038 56.4754 39.9085 56.1102 39.7717C55.7471 39.6348 55.3536 39.5664 54.9316 39.5664H53.5644V45.6408ZM52.3918 38.5459H54.8059C55.4104 38.5459 55.9784 38.6365 56.5078 38.8196C57.0353 39.0008 57.4978 39.2604 57.8933 39.6046C58.2869 39.9468 58.5973 40.3634 58.8245 40.8585C59.0496 41.3517 59.1653 41.9112 59.1653 42.5351C59.1653 43.2154 59.0638 43.8152 58.863 44.3305C58.6601 44.8478 58.3701 45.2765 57.9927 45.6227C57.6175 45.9669 57.157 46.2245 56.6214 46.3996C56.0838 46.5747 55.4773 46.6613 54.8079 46.6613H52.3939V38.5459H52.3918Z" fill="#010101"/>
<path d="M69.8193 39.8845C69.3 39.5826 68.7361 39.4317 68.1316 39.4317C67.663 39.4317 67.2349 39.5101 66.8495 39.6692C66.4661 39.8282 66.1355 40.0496 65.8596 40.3313C65.5837 40.6131 65.3727 40.9493 65.2226 41.3377C65.0725 41.7242 64.9974 42.1488 64.9974 42.6057C64.9974 43.0626 65.0786 43.5195 65.2408 43.91C65.4031 44.3025 65.6222 44.6366 65.9022 44.9123C66.1801 45.1901 66.5047 45.4034 66.8799 45.5544C67.2532 45.7053 67.6508 45.7818 68.0748 45.7818C68.2188 45.7818 68.375 45.7718 68.5413 45.7537C68.7077 45.7376 68.87 45.7134 69.0302 45.6772C69.1905 45.6409 69.3426 45.6007 69.4867 45.5524C69.6307 45.5021 69.7565 45.4457 69.8579 45.3833L69.9269 46.5084C69.7666 46.5708 69.6043 46.6252 69.442 46.6674C69.2818 46.7077 69.1134 46.7359 68.943 46.752C68.5981 46.7882 68.306 46.8023 68.0626 46.8023C67.4135 46.8023 66.8231 46.7017 66.2937 46.5044C65.7642 46.3072 65.3098 46.0213 64.9366 45.655C64.5613 45.2867 64.2692 44.8399 64.0643 44.3206C63.8594 43.8013 63.7539 43.2176 63.7539 42.5695C63.7539 41.9214 63.8635 41.3719 64.0785 40.8607C64.2935 40.3495 64.5937 39.9147 64.9771 39.5504C65.3605 39.1861 65.817 38.9043 66.3444 38.7071C66.8718 38.5098 67.4479 38.4092 68.0727 38.4092C68.3973 38.4092 68.7097 38.4374 69.014 38.4857C69.3163 38.538 69.6165 38.6266 69.9147 38.7574L69.8173 39.8865L69.8193 39.8845Z" fill="#010101"/>
<path d="M72.4342 42.036H73.4303C73.9942 42.036 74.4304 41.9233 74.7367 41.6999C75.043 41.4764 75.1971 41.1665 75.1971 40.768C75.1971 40.3694 75.0612 40.0917 74.7853 39.8824C74.5095 39.673 74.1017 39.5664 73.554 39.5664H72.4342V42.036ZM71.2617 38.5459H73.2639C73.4688 38.5459 73.6696 38.5519 73.8664 38.56C74.0632 38.5701 74.2539 38.5902 74.4405 38.6163C74.6291 38.6465 74.8056 38.6828 74.976 38.7311C75.1464 38.7774 75.3047 38.8418 75.4528 38.9223C75.6008 39.0008 75.7347 39.0954 75.8564 39.2021C75.9761 39.3107 76.0796 39.4375 76.1648 39.5845C76.25 39.7314 76.3169 39.9025 76.3656 40.0957C76.4123 40.2909 76.4386 40.5083 76.4386 40.7498C76.4386 40.9914 76.394 41.2228 76.3068 41.4322C76.2196 41.6415 76.1019 41.8267 75.9477 41.9857C75.7976 42.1447 75.6191 42.2755 75.4142 42.3802C75.2093 42.4848 74.9862 42.5553 74.7509 42.5935V42.6157C74.8381 42.6539 74.9192 42.6942 74.9923 42.7404C75.0673 42.7827 75.1302 42.8371 75.187 42.8934C75.3006 43.0061 75.4223 43.1853 75.5501 43.4308L77.0959 46.6613H75.7591L74.5054 43.8454C74.4141 43.6522 74.3208 43.5013 74.2255 43.3946C74.1281 43.2879 74.0267 43.2094 73.9192 43.1591C73.8096 43.1128 73.694 43.0806 73.5662 43.0705C73.4424 43.0625 73.2964 43.0585 73.1361 43.0585H72.4342V46.6613H71.2617V38.5459Z" fill="#010101"/>
<path d="M78.5483 38.5459H83.1248V39.5664H79.7148V41.9474H82.8225V42.9679H79.7148V45.6408H83.1248V46.6613H78.5483V38.5459Z" fill="#010101"/>
<path d="M88.7116 39.7714C88.5676 39.7151 88.4337 39.6648 88.312 39.6245C88.1902 39.5842 88.0706 39.548 87.9529 39.5178C87.8352 39.4896 87.7176 39.4695 87.5938 39.4534C87.4701 39.4373 87.3301 39.4313 87.178 39.4313C87.0157 39.4313 86.8473 39.4474 86.679 39.4816C86.5065 39.5158 86.3544 39.5742 86.2185 39.6567C86.0805 39.7392 85.9669 39.8519 85.8797 39.9928C85.7925 40.1317 85.7478 40.3068 85.7478 40.5141C85.7478 40.7798 85.8351 40.9912 86.0075 41.1562C86.1779 41.3253 86.395 41.4782 86.6587 41.6171C86.9224 41.754 87.2023 41.8929 87.5046 42.0297C87.7257 42.1344 87.9428 42.2552 88.1537 42.39C88.3647 42.5249 88.5554 42.6839 88.7197 42.871C88.886 43.0562 89.0179 43.2716 89.1173 43.5171C89.2167 43.7627 89.2654 44.0525 89.2654 44.3846C89.2654 44.8174 89.1863 45.1857 89.0301 45.4916C88.8718 45.7976 88.6568 46.0471 88.383 46.2424C88.1091 46.4356 87.7906 46.5765 87.4295 46.6691C87.0684 46.7597 86.685 46.8039 86.2793 46.8039C85.9913 46.8039 85.7073 46.7677 85.4314 46.6993C85.1555 46.6288 84.8796 46.5503 84.6037 46.4638L84.7194 45.389C84.8228 45.4272 84.9405 45.4675 85.0723 45.5138C85.2021 45.5581 85.3462 45.6003 85.4943 45.6406C85.6424 45.6808 85.7945 45.713 85.9548 45.7392C86.111 45.7674 86.2672 45.7795 86.4193 45.7795C86.5836 45.7795 86.7601 45.7533 86.9467 45.705C87.1374 45.6567 87.3098 45.5782 87.4701 45.4715C87.6283 45.3648 87.7622 45.23 87.8677 45.0629C87.9732 44.8959 88.0239 44.6946 88.0239 44.4551C88.0239 44.2296 87.9752 44.0344 87.8758 43.8734C87.7764 43.7124 87.6446 43.5715 87.4782 43.4467C87.3119 43.3239 87.1232 43.2112 86.9122 43.1106C86.7013 43.0099 86.4842 42.9093 86.2651 42.8046C86.046 42.7 85.829 42.5873 85.618 42.4625C85.4091 42.3417 85.2184 42.1928 85.052 42.0257C84.8857 41.8566 84.7559 41.6594 84.6544 41.4299C84.555 41.2005 84.5063 40.9288 84.5063 40.6148C84.5063 40.2565 84.5753 39.9405 84.7092 39.6648C84.8431 39.387 85.0318 39.1575 85.2691 38.9744C85.5085 38.7872 85.7864 38.6463 86.1049 38.5497C86.4234 38.4531 86.7662 38.4048 87.1313 38.4048C87.4072 38.4048 87.6932 38.4289 87.9935 38.4732C88.2957 38.5175 88.5899 38.594 88.8759 38.6926L88.7096 39.7674L88.7116 39.7714Z" fill="#010101"/>
<path d="M96.5034 39.884C95.9841 39.5821 95.4202 39.4312 94.8156 39.4312C94.347 39.4312 93.919 39.5097 93.5336 39.6687C93.1502 39.8277 92.8195 40.0491 92.5436 40.3309C92.2678 40.6126 92.0568 40.9488 91.9067 41.3372C91.7566 41.7237 91.6815 42.1484 91.6815 42.6052C91.6815 43.0621 91.7626 43.519 91.9249 43.9095C92.0872 44.302 92.3063 44.6361 92.5862 44.9118C92.8642 45.1896 93.1887 45.4029 93.564 45.5539C93.9373 45.7049 94.3349 45.7813 94.7588 45.7813C94.9029 45.7813 95.0591 45.7713 95.2254 45.7532C95.3918 45.7371 95.554 45.7129 95.7143 45.6767C95.8746 45.6405 96.0267 45.6002 96.1707 45.5519C96.3148 45.5016 96.4405 45.4452 96.542 45.3828L96.6109 46.5079C96.4507 46.5703 96.2884 46.6247 96.1261 46.6669C95.9658 46.7072 95.7975 46.7354 95.6271 46.7515C95.2822 46.7877 94.9901 46.8018 94.7467 46.8018C94.0975 46.8018 93.5072 46.7012 92.9778 46.5039C92.4483 46.3067 91.9939 46.0209 91.6186 45.6545C91.2454 45.2862 90.9532 44.8394 90.7484 44.3201C90.5435 43.8008 90.438 43.2171 90.438 42.569C90.438 41.9209 90.5475 41.3714 90.7626 40.8602C90.9776 40.349 91.2778 39.9142 91.6612 39.5499C92.0426 39.1856 92.501 38.9038 93.0285 38.7066C93.5559 38.5093 94.132 38.4087 94.7568 38.4087C95.0814 38.4087 95.3938 38.4369 95.696 38.4852C96.0003 38.5375 96.3006 38.6261 96.5988 38.7569L96.5014 39.886L96.5034 39.884Z" fill="#010101"/>
<path d="M98.0754 38.5459H102.652V39.5664H99.2439V41.9474H102.35V42.9679H99.2439V45.6408H102.652V46.6613H98.0754V38.5459Z" fill="#010101"/>
<path d="M104.516 38.5459H106.113L109.723 45.0772H109.744V38.5459H110.912V46.6613H109.411L105.711 39.987H105.691V46.6613H104.516V38.5459Z" fill="#010101"/>
<path d="M114.618 39.5664H112.079V38.5459H118.331V39.5664H115.791V46.6613H114.618V39.5664Z" fill="#010101"/>
<path d="M125.922 39.6408L124.297 43.6643H127.551L125.92 39.6408H125.922ZM125.349 38.5459H126.581L130.036 46.6613H128.76L127.924 44.6183H123.919L123.09 46.6613H121.86L125.349 38.5459Z" fill="#010101"/>
<path d="M137.578 43.302C137.578 43.8776 137.509 44.3828 137.371 44.8176C137.231 45.2543 137.026 45.6166 136.756 45.9125C136.485 46.2064 136.154 46.4298 135.756 46.5787C135.363 46.7297 134.912 46.8042 134.405 46.8042C133.391 46.8042 132.606 46.5083 132.052 45.9125C131.504 45.3167 131.229 44.4472 131.229 43.302V38.5459H132.401V43.1591C132.401 43.5435 132.436 43.8998 132.5 44.2218C132.567 44.5439 132.679 44.8196 132.837 45.0511C132.991 45.2825 133.2 45.4637 133.454 45.5905C133.709 45.7193 134.026 45.7837 134.403 45.7837C134.781 45.7837 135.097 45.7213 135.355 45.5905C135.612 45.4637 135.817 45.2825 135.975 45.0511C136.13 44.8196 136.243 44.5439 136.31 44.2218C136.375 43.8998 136.409 43.5455 136.409 43.1591V38.5459H137.576V43.302H137.578Z" fill="#010101"/>
<path d="M141.308 39.5664H138.767V38.5459H145.019V39.5664H142.481V46.6613H141.308V39.5664Z" fill="#010101"/>
<path d="M146.256 38.5459H147.423V41.9474H151.336V38.5459H152.508V46.6613H151.336V42.9679H147.423V46.6613H146.256V38.5459Z" fill="#010101"/>
<path d="M155.476 42.6077C155.476 43.0123 155.529 43.4048 155.634 43.7852C155.738 44.1656 155.902 44.5037 156.119 44.7976C156.34 45.0935 156.618 45.331 156.959 45.5101C157.298 45.6913 157.703 45.7818 158.172 45.7818C158.64 45.7818 159.044 45.6913 159.381 45.5101C159.72 45.331 159.998 45.0935 160.221 44.7976C160.442 44.5037 160.604 44.1656 160.71 43.7852C160.815 43.4048 160.868 43.0123 160.868 42.6077C160.864 42.1971 160.807 41.8006 160.695 41.4162C160.584 41.0318 160.417 40.6916 160.194 40.3978C159.971 40.1019 159.691 39.8684 159.352 39.6913C159.014 39.5142 158.62 39.4276 158.172 39.4317C157.717 39.4276 157.324 39.5142 156.987 39.6913C156.652 39.8684 156.375 40.1019 156.149 40.3978C155.926 40.6916 155.76 41.0318 155.646 41.4162C155.533 41.8006 155.476 42.1971 155.476 42.6077ZM154.234 42.6037C154.234 42.0039 154.324 41.4464 154.502 40.9352C154.679 40.4239 154.936 39.9811 155.269 39.6088C155.606 39.2344 156.017 38.9405 156.506 38.7272C156.993 38.5159 157.549 38.4092 158.17 38.4092C158.791 38.4092 159.338 38.5159 159.825 38.7272C160.312 38.9405 160.724 39.2344 161.063 39.6088C161.399 39.9811 161.657 40.4259 161.835 40.9352C162.014 41.4464 162.105 42.0039 162.105 42.6037C162.105 43.2035 162.018 43.7852 161.842 44.3025C161.667 44.8177 161.409 45.2585 161.077 45.6289C160.74 45.9992 160.328 46.289 159.839 46.4943C159.35 46.6996 158.795 46.8023 158.17 46.8023C157.545 46.8023 156.989 46.6996 156.5 46.4943C156.011 46.289 155.6 45.9992 155.263 45.6289C154.928 45.2585 154.671 44.8157 154.498 44.3025C154.322 43.7852 154.234 43.2216 154.234 42.6037Z" fill="#010101"/>
<path d="M164.868 42.036H165.864C166.428 42.036 166.864 41.9233 167.171 41.6999C167.479 41.4764 167.631 41.1665 167.631 40.768C167.631 40.3694 167.495 40.0917 167.219 39.8824C166.944 39.673 166.536 39.5664 165.988 39.5664H164.868V42.036ZM163.696 38.5459H165.698C165.903 38.5459 166.106 38.5519 166.3 38.56C166.499 38.5701 166.688 38.5902 166.877 38.6163C167.063 38.6465 167.24 38.6828 167.41 38.7311C167.581 38.7774 167.739 38.8418 167.887 38.9223C168.037 39.0008 168.171 39.0954 168.291 39.2021C168.41 39.3107 168.514 39.4375 168.599 39.5845C168.686 39.7314 168.751 39.9025 168.8 40.0957C168.848 40.2909 168.873 40.5083 168.873 40.7498C168.873 40.9914 168.828 41.2228 168.741 41.4322C168.654 41.6415 168.536 41.8267 168.382 41.9857C168.232 42.1447 168.053 42.2755 167.848 42.3802C167.643 42.4848 167.42 42.5553 167.185 42.5935V42.6157C167.272 42.6539 167.353 42.6942 167.428 42.7404C167.501 42.7827 167.564 42.8371 167.621 42.8934C167.735 43.0061 167.856 43.1853 167.986 43.4308L169.53 46.6613H168.193L166.939 43.8454C166.848 43.6522 166.755 43.5013 166.66 43.3946C166.564 43.2879 166.461 43.2094 166.353 43.1591C166.244 43.1128 166.128 43.0806 166 43.0705C165.877 43.0625 165.732 43.0585 165.572 43.0585H164.868V46.6613H163.696V38.5459Z" fill="#010101"/>
<path d="M172.092 38.5459H170.919V46.6613H172.092V38.5459Z" fill="#010101"/>
<path d="M175.806 39.5664H173.264V38.5459H179.516V39.5664H176.979V46.6613H175.806V39.5664Z" fill="#010101"/>
<path d="M182.979 43.2678L179.78 38.5459H181.148L183.584 42.191L185.963 38.5459H187.331L184.146 43.2678V46.6613H182.979V43.2678Z" fill="#010101"/>
</g>
<defs>
<clipPath id="clip0_1038_2801">
<rect width="258" height="61" fill="white"/>
</clipPath>
</defs>
</svg>
